G04 #@! TF.FileFunction,Soldermask,Top*
%FSLAX46Y46*%
G04 Gerber Fmt 4.6, Leading zero omitted, Abs format (unit mm)*
G04 Created by KiCad (PCBNEW 4.0.2-stable) date 5/30/2017 2:34:25 PM*
%MOMM*%
G01*
G04 APERTURE LIST*
%ADD10C,0.100000*%
%ADD11R,0.850000X2.150000*%
%ADD12C,1.924000*%
%ADD13C,4.845000*%
%ADD14R,1.900000X0.900000*%
%ADD15R,0.900000X1.900000*%
%ADD16C,2.127200*%
%ADD17O,2.127200X2.127200*%
%ADD18C,2.000000*%
%ADD19R,3.900000X3.900000*%
%ADD20R,2.200000X2.200000*%
%ADD21C,2.200000*%
%ADD22R,2.100000X2.100000*%
%ADD23O,2.100000X2.100000*%
%ADD24C,4.210000*%
%ADD25C,3.956000*%
%ADD26C,1.800000*%
%ADD27O,1.800000X1.800000*%
%ADD28R,2.000000X0.700000*%
%ADD29R,1.950000X1.000000*%
%ADD30O,2.940000X2.432000*%
%ADD31O,2.432000X2.940000*%
%ADD32C,1.800000*%
%ADD33C,1.799924*%
G04 APERTURE END LIST*
D10*
D11*
X56379400Y-71914200D03*
X57029400Y-71914200D03*
X57679400Y-71914200D03*
X58329400Y-71914200D03*
X58979400Y-71914200D03*
X59629400Y-71914200D03*
X60279400Y-71914200D03*
X60929400Y-71914200D03*
X56379400Y-79114200D03*
X57029400Y-79114200D03*
X57679400Y-79114200D03*
X58329400Y-79114200D03*
X58979400Y-79114200D03*
X59629400Y-79114200D03*
X60279400Y-79114200D03*
X60929400Y-79114200D03*
X61579400Y-79114200D03*
X62229400Y-79114200D03*
X62879400Y-79114200D03*
X63529400Y-79114200D03*
X64179400Y-79114200D03*
X64829400Y-79114200D03*
X67429400Y-79114200D03*
X66779400Y-79114200D03*
X66129400Y-79114200D03*
X65479400Y-79114200D03*
X67429400Y-71914200D03*
X66779400Y-71914200D03*
X66129400Y-71914200D03*
X65479400Y-71914200D03*
X64829400Y-71914200D03*
X64179400Y-71914200D03*
X63529400Y-71914200D03*
X62879400Y-71914200D03*
X62229400Y-71914200D03*
X61595000Y-71907400D03*
D12*
X138938000Y-98298000D03*
X138938000Y-105918000D03*
X138938000Y-100838000D03*
X138938000Y-103378000D03*
X138938000Y-108458000D03*
X138938000Y-110998000D03*
X138938000Y-113538000D03*
X138938000Y-116078000D03*
X138938000Y-123698000D03*
X138938000Y-121158000D03*
X138938000Y-118618000D03*
X141478000Y-118618000D03*
X141478000Y-121158000D03*
X141478000Y-123698000D03*
X141478000Y-116078000D03*
X141478000Y-113538000D03*
X141478000Y-110998000D03*
X141478000Y-108458000D03*
X141478000Y-103378000D03*
X141478000Y-100838000D03*
X141478000Y-105918000D03*
X141478000Y-98298000D03*
X128778000Y-98298000D03*
X128778000Y-105918000D03*
X128778000Y-100838000D03*
X128778000Y-103378000D03*
X128778000Y-108458000D03*
X128778000Y-110998000D03*
X128778000Y-113538000D03*
X128778000Y-116078000D03*
X128778000Y-123698000D03*
X128778000Y-121158000D03*
X128778000Y-118618000D03*
X131318000Y-118618000D03*
X131318000Y-121158000D03*
X131318000Y-123698000D03*
X131318000Y-116078000D03*
X131318000Y-113538000D03*
X131318000Y-110998000D03*
X131318000Y-108458000D03*
X131318000Y-103378000D03*
X131318000Y-100838000D03*
X131318000Y-105918000D03*
X131318000Y-98298000D03*
X136398000Y-98298000D03*
X136398000Y-105918000D03*
X136398000Y-100838000D03*
X136398000Y-103378000D03*
X136398000Y-108458000D03*
X136398000Y-110998000D03*
X136398000Y-113538000D03*
X136398000Y-116078000D03*
X136398000Y-123698000D03*
X136398000Y-121158000D03*
X136398000Y-118618000D03*
X133858000Y-118618000D03*
X133858000Y-121158000D03*
X133858000Y-123698000D03*
X133858000Y-116078000D03*
X133858000Y-113538000D03*
X133858000Y-110998000D03*
X133858000Y-108458000D03*
X133858000Y-103378000D03*
X133858000Y-100838000D03*
X133858000Y-105918000D03*
X133858000Y-98298000D03*
X123698000Y-98298000D03*
X123698000Y-105918000D03*
X123698000Y-100838000D03*
X123698000Y-103378000D03*
X123698000Y-108458000D03*
X123698000Y-110998000D03*
X123698000Y-113538000D03*
X123698000Y-116078000D03*
X123698000Y-123698000D03*
X123698000Y-121158000D03*
X123698000Y-118618000D03*
X126238000Y-118618000D03*
X126238000Y-121158000D03*
X126238000Y-123698000D03*
X126238000Y-116078000D03*
X126238000Y-113538000D03*
X126238000Y-110998000D03*
X126238000Y-108458000D03*
X126238000Y-103378000D03*
X126238000Y-100838000D03*
X126238000Y-105918000D03*
X126238000Y-98298000D03*
X121158000Y-98298000D03*
X121158000Y-105918000D03*
X121158000Y-100838000D03*
X121158000Y-103378000D03*
X121158000Y-108458000D03*
X121158000Y-110998000D03*
X121158000Y-113538000D03*
X121158000Y-116078000D03*
X121158000Y-123698000D03*
X121158000Y-121158000D03*
X121158000Y-118618000D03*
X118618000Y-118618000D03*
X118618000Y-121158000D03*
X118618000Y-123698000D03*
X118618000Y-116078000D03*
X118618000Y-113538000D03*
X118618000Y-110998000D03*
X118618000Y-108458000D03*
X118618000Y-103378000D03*
X118618000Y-100838000D03*
X118618000Y-105918000D03*
X118618000Y-98298000D03*
X93218000Y-98298000D03*
X93218000Y-105918000D03*
X93218000Y-100838000D03*
X93218000Y-103378000D03*
X93218000Y-108458000D03*
X93218000Y-110998000D03*
X93218000Y-113538000D03*
X93218000Y-116078000D03*
X93218000Y-123698000D03*
X93218000Y-121158000D03*
X93218000Y-118618000D03*
X95758000Y-118618000D03*
X95758000Y-121158000D03*
X95758000Y-123698000D03*
X95758000Y-116078000D03*
X95758000Y-113538000D03*
X95758000Y-110998000D03*
X95758000Y-108458000D03*
X95758000Y-103378000D03*
X95758000Y-100838000D03*
X95758000Y-105918000D03*
X95758000Y-98298000D03*
X100838000Y-98298000D03*
X100838000Y-105918000D03*
X100838000Y-100838000D03*
X100838000Y-103378000D03*
X100838000Y-108458000D03*
X100838000Y-110998000D03*
X100838000Y-113538000D03*
X100838000Y-116078000D03*
X100838000Y-123698000D03*
X100838000Y-121158000D03*
X100838000Y-118618000D03*
X98298000Y-118618000D03*
X98298000Y-121158000D03*
X98298000Y-123698000D03*
X98298000Y-116078000D03*
X98298000Y-113538000D03*
X98298000Y-110998000D03*
X98298000Y-108458000D03*
X98298000Y-103378000D03*
X98298000Y-100838000D03*
X98298000Y-105918000D03*
X98298000Y-98298000D03*
X108458000Y-98298000D03*
X108458000Y-105918000D03*
X108458000Y-100838000D03*
X108458000Y-103378000D03*
X108458000Y-108458000D03*
X108458000Y-110998000D03*
X108458000Y-113538000D03*
X108458000Y-116078000D03*
X108458000Y-123698000D03*
X108458000Y-121158000D03*
X108458000Y-118618000D03*
X110998000Y-118618000D03*
X110998000Y-121158000D03*
X110998000Y-123698000D03*
X110998000Y-116078000D03*
X110998000Y-113538000D03*
X110998000Y-110998000D03*
X110998000Y-108458000D03*
X110998000Y-103378000D03*
X110998000Y-100838000D03*
X110998000Y-105918000D03*
X110998000Y-98298000D03*
X105918000Y-98298000D03*
X105918000Y-105918000D03*
X105918000Y-100838000D03*
X105918000Y-103378000D03*
X105918000Y-108458000D03*
X105918000Y-110998000D03*
X105918000Y-113538000D03*
X105918000Y-116078000D03*
X105918000Y-123698000D03*
X105918000Y-121158000D03*
X105918000Y-118618000D03*
X103378000Y-118618000D03*
X103378000Y-121158000D03*
X103378000Y-123698000D03*
X103378000Y-116078000D03*
X103378000Y-113538000D03*
X103378000Y-110998000D03*
X103378000Y-108458000D03*
X103378000Y-103378000D03*
X103378000Y-100838000D03*
X103378000Y-105918000D03*
X103378000Y-98298000D03*
X116078000Y-98298000D03*
X116078000Y-105918000D03*
X116078000Y-100838000D03*
X116078000Y-103378000D03*
X116078000Y-108458000D03*
X116078000Y-110998000D03*
X116078000Y-113538000D03*
X116078000Y-116078000D03*
X116078000Y-123698000D03*
X116078000Y-121158000D03*
X116078000Y-118618000D03*
X113538000Y-118618000D03*
X113538000Y-121158000D03*
X113538000Y-123698000D03*
X113538000Y-116078000D03*
X113538000Y-113538000D03*
X113538000Y-110998000D03*
X113538000Y-108458000D03*
X113538000Y-103378000D03*
X113538000Y-100838000D03*
X113538000Y-105918000D03*
X113538000Y-98298000D03*
X88138000Y-98298000D03*
X88138000Y-105918000D03*
X88138000Y-100838000D03*
X88138000Y-103378000D03*
X88138000Y-108458000D03*
X88138000Y-110998000D03*
X88138000Y-113538000D03*
X88138000Y-116078000D03*
X88138000Y-123698000D03*
X88138000Y-121158000D03*
X88138000Y-118618000D03*
X90678000Y-118618000D03*
X90678000Y-121158000D03*
X90678000Y-123698000D03*
X90678000Y-116078000D03*
X90678000Y-113538000D03*
X90678000Y-110998000D03*
X90678000Y-108458000D03*
X90678000Y-103378000D03*
X90678000Y-100838000D03*
X90678000Y-105918000D03*
X90678000Y-98298000D03*
X77978000Y-98298000D03*
X77978000Y-105918000D03*
X77978000Y-100838000D03*
X77978000Y-103378000D03*
X77978000Y-108458000D03*
X77978000Y-110998000D03*
X77978000Y-113538000D03*
X77978000Y-116078000D03*
X77978000Y-123698000D03*
X77978000Y-121158000D03*
X77978000Y-118618000D03*
X80518000Y-118618000D03*
X80518000Y-121158000D03*
X80518000Y-123698000D03*
X80518000Y-116078000D03*
X80518000Y-113538000D03*
X80518000Y-110998000D03*
X80518000Y-108458000D03*
X80518000Y-103378000D03*
X80518000Y-100838000D03*
X80518000Y-105918000D03*
X80518000Y-98298000D03*
X85598000Y-98298000D03*
X85598000Y-105918000D03*
X85598000Y-100838000D03*
X85598000Y-103378000D03*
X85598000Y-108458000D03*
X85598000Y-110998000D03*
X85598000Y-113538000D03*
X85598000Y-116078000D03*
X85598000Y-123698000D03*
X85598000Y-121158000D03*
X85598000Y-118618000D03*
X83058000Y-118618000D03*
X83058000Y-121158000D03*
X83058000Y-123698000D03*
X83058000Y-116078000D03*
X83058000Y-113538000D03*
X83058000Y-110998000D03*
X83058000Y-108458000D03*
X83058000Y-103378000D03*
X83058000Y-100838000D03*
X83058000Y-105918000D03*
X83058000Y-98298000D03*
X72898000Y-105918000D03*
X72898000Y-100838000D03*
X72898000Y-103378000D03*
X72898000Y-108458000D03*
X72898000Y-110998000D03*
X72898000Y-113538000D03*
X72898000Y-116078000D03*
X72898000Y-123698000D03*
X72898000Y-121158000D03*
X72898000Y-118618000D03*
X75438000Y-118618000D03*
X75438000Y-121158000D03*
X75438000Y-123698000D03*
X75438000Y-116078000D03*
X75438000Y-113538000D03*
X75438000Y-110998000D03*
X75438000Y-108458000D03*
X75438000Y-103378000D03*
X75438000Y-100838000D03*
X75438000Y-105918000D03*
X75438000Y-98298000D03*
X70358000Y-105918000D03*
X70358000Y-103378000D03*
X70358000Y-108458000D03*
X70358000Y-110998000D03*
X70358000Y-113538000D03*
X70358000Y-116078000D03*
X70358000Y-123698000D03*
X70358000Y-121158000D03*
X70358000Y-118618000D03*
X67818000Y-118618000D03*
X67818000Y-121158000D03*
X67818000Y-123698000D03*
X67818000Y-116078000D03*
X67818000Y-113538000D03*
X67818000Y-110998000D03*
X67818000Y-108458000D03*
D13*
X146050000Y-120650000D03*
X31750000Y-120650000D03*
X44450000Y-31750000D03*
X146050000Y-31750000D03*
D14*
X83058000Y-60960000D03*
X83058000Y-61760000D03*
X83058000Y-62560000D03*
X83058000Y-63360000D03*
X83058000Y-64160000D03*
X83058000Y-64960000D03*
X83058000Y-65760000D03*
X83058000Y-66560000D03*
X83058000Y-67360000D03*
X83058000Y-68160000D03*
X83058000Y-68960000D03*
X83058000Y-69760000D03*
X83058000Y-70560000D03*
X83058000Y-71360000D03*
X83058000Y-72160000D03*
X83058000Y-72960000D03*
D15*
X85358000Y-75260000D03*
X86158000Y-75260000D03*
X86958000Y-75260000D03*
X87758000Y-75260000D03*
X88558000Y-75260000D03*
X89358000Y-75260000D03*
X90158000Y-75260000D03*
X90958000Y-75260000D03*
X91758000Y-75260000D03*
X92558000Y-75260000D03*
X93358000Y-75260000D03*
X94158000Y-75260000D03*
X94958000Y-75260000D03*
X95758000Y-75260000D03*
X96558000Y-75260000D03*
X97358000Y-75260000D03*
D14*
X99658000Y-72960000D03*
X99658000Y-72160000D03*
X99658000Y-71360000D03*
X99658000Y-70560000D03*
X99658000Y-69760000D03*
X99658000Y-68960000D03*
X99658000Y-68160000D03*
X99658000Y-67360000D03*
X99658000Y-66560000D03*
X99658000Y-65760000D03*
X99658000Y-64960000D03*
X99658000Y-64160000D03*
X99658000Y-63360000D03*
X99658000Y-62560000D03*
X99658000Y-61760000D03*
X99658000Y-60960000D03*
D15*
X97358000Y-58660000D03*
X96558000Y-58660000D03*
X95758000Y-58660000D03*
X94958000Y-58660000D03*
X94158000Y-58660000D03*
X93358000Y-58660000D03*
X92558000Y-58660000D03*
X91758000Y-58660000D03*
X90958000Y-58660000D03*
X90158000Y-58660000D03*
X89358000Y-58660000D03*
X88558000Y-58660000D03*
X87758000Y-58660000D03*
X86958000Y-58660000D03*
X86158000Y-58660000D03*
X85358000Y-58660000D03*
D16*
X106299000Y-43942000D03*
D17*
X106299000Y-46482000D03*
X103759000Y-43942000D03*
X103799000Y-46442000D03*
X101299000Y-43942000D03*
X101299000Y-46442000D03*
X98679000Y-43942000D03*
X98679000Y-46482000D03*
X96139000Y-43942000D03*
X96139000Y-46482000D03*
X93599000Y-43942000D03*
X93599000Y-46482000D03*
X91059000Y-43942000D03*
X91059000Y-46482000D03*
X88519000Y-43942000D03*
X88519000Y-46482000D03*
X85979000Y-43942000D03*
X85979000Y-46482000D03*
X83439000Y-43942000D03*
X83439000Y-46482000D03*
X80899000Y-43942000D03*
X80899000Y-46482000D03*
X78359000Y-43942000D03*
X75819000Y-43942000D03*
X75819000Y-46482000D03*
X73279000Y-43942000D03*
X73279000Y-46482000D03*
X68199000Y-43942000D03*
X65659000Y-43942000D03*
X63119000Y-43942000D03*
X63119000Y-46482000D03*
D18*
X53340000Y-76581000D03*
X53340000Y-74081000D03*
X55245000Y-83693000D03*
X55245000Y-81193000D03*
X53848000Y-47117000D03*
X53848000Y-49617000D03*
X58039000Y-82677000D03*
X58039000Y-85177000D03*
X51943000Y-36195000D03*
X54443000Y-36195000D03*
X60706000Y-85217000D03*
X60706000Y-82717000D03*
X51181000Y-47117000D03*
X51181000Y-49617000D03*
X51943000Y-39497000D03*
X54443000Y-39497000D03*
X69977000Y-76835000D03*
X69977000Y-74335000D03*
X54737000Y-67310000D03*
X57237000Y-67310000D03*
X59436000Y-67310000D03*
X61936000Y-67310000D03*
X80391000Y-59563000D03*
X77891000Y-59563000D03*
X79883000Y-62484000D03*
X77383000Y-62484000D03*
X92202000Y-50927000D03*
X89702000Y-50927000D03*
X92202000Y-55499000D03*
X90434233Y-53731233D03*
X95758000Y-78994000D03*
X93258000Y-78994000D03*
X95758000Y-83820000D03*
X93258000Y-83820000D03*
X107061000Y-61976000D03*
X107061000Y-64476000D03*
X104521000Y-61976000D03*
X104521000Y-64476000D03*
X37968845Y-56596326D03*
X37968845Y-59096326D03*
X37714847Y-50500323D03*
X37714847Y-53000323D03*
X42273175Y-107501346D03*
X44773175Y-107501346D03*
X48260000Y-107569000D03*
X50760000Y-107569000D03*
X87503000Y-86995000D03*
X90003000Y-86995000D03*
X92964000Y-86995000D03*
X95464000Y-86995000D03*
D19*
X35687000Y-104902000D03*
X29687000Y-104902000D03*
X32687000Y-109602000D03*
D20*
X57277000Y-59055000D03*
D21*
X59817000Y-59055000D03*
D22*
X47244000Y-66421000D03*
D23*
X47244000Y-68961000D03*
X47244000Y-71501000D03*
D24*
X36068000Y-81915000D03*
D25*
X39243000Y-85090000D03*
D24*
X42418000Y-81915000D03*
X36068000Y-88265000D03*
X42418000Y-88265000D03*
X36068000Y-65786000D03*
D25*
X39243000Y-68961000D03*
D24*
X42418000Y-65786000D03*
X36068000Y-72136000D03*
X42418000Y-72136000D03*
X33020000Y-36322000D03*
D25*
X36195000Y-39497000D03*
D24*
X39370000Y-36322000D03*
X33020000Y-42672000D03*
X39370000Y-42672000D03*
X140843000Y-54737000D03*
D25*
X144018000Y-57912000D03*
D24*
X147193000Y-54737000D03*
X140843000Y-61087000D03*
X147193000Y-61087000D03*
D26*
X36195000Y-31877000D03*
D27*
X31115000Y-31877000D03*
D26*
X36068000Y-93599000D03*
D27*
X41148000Y-93599000D03*
D26*
X31877000Y-74041000D03*
D27*
X31877000Y-68961000D03*
D26*
X49276000Y-86106000D03*
D27*
X49276000Y-81026000D03*
D26*
X50165000Y-68961000D03*
D27*
X50165000Y-74041000D03*
D26*
X51054000Y-64135000D03*
D27*
X56134000Y-64135000D03*
D26*
X128397000Y-65532000D03*
D27*
X133477000Y-65532000D03*
D28*
X44528000Y-49825000D03*
X44528000Y-50475000D03*
X44528000Y-51125000D03*
X44528000Y-51775000D03*
X47928000Y-51775000D03*
X47928000Y-51125000D03*
X47928000Y-50475000D03*
X47928000Y-49825000D03*
D29*
X44290000Y-39497000D03*
X44290000Y-40767000D03*
X44290000Y-42037000D03*
X44290000Y-43307000D03*
X49690000Y-43307000D03*
X49690000Y-42037000D03*
X49690000Y-40767000D03*
X49690000Y-39497000D03*
D12*
X117094000Y-76200000D03*
X117094000Y-78740000D03*
X117094000Y-81280000D03*
X117094000Y-83820000D03*
X117094000Y-86360000D03*
X118618000Y-45339000D03*
X118618000Y-47879000D03*
X118618000Y-50419000D03*
X118618000Y-52959000D03*
X118618000Y-55499000D03*
X116967000Y-61976000D03*
X116967000Y-59436000D03*
X116967000Y-56896000D03*
X116967000Y-54356000D03*
X116967000Y-51816000D03*
X117094000Y-63881000D03*
X117094000Y-66421000D03*
X117094000Y-68961000D03*
X117094000Y-71501000D03*
X117094000Y-74041000D03*
D30*
X33142848Y-53421324D03*
X33142848Y-50881324D03*
X33142848Y-55961324D03*
D31*
X46736000Y-103505000D03*
X49276000Y-103505000D03*
X44196000Y-103505000D03*
X91567000Y-91821000D03*
X94107000Y-91821000D03*
X89027000Y-91821000D03*
D26*
X124206000Y-51562000D03*
D32*
X120613898Y-55154102D02*
X120613898Y-55154102D01*
D33*
X29718000Y-114046000D03*
X54483000Y-107569000D03*
X94234000Y-94869000D03*
X136271000Y-62230000D03*
X49657000Y-37338000D03*
D22*
X57912000Y-97282000D03*
D23*
X57912000Y-94742000D03*
D22*
X62484000Y-60198000D03*
D23*
X62484000Y-62738000D03*
D33*
X70104000Y-62992000D03*
M02*
