G04 #@! TF.FileFunction,Other,Comment*
%FSLAX46Y46*%
G04 Gerber Fmt 4.6, Leading zero omitted, Abs format (unit mm)*
G04 Created by KiCad (PCBNEW 4.0.2-stable) date 5/30/2017 2:34:25 PM*
%MOMM*%
G01*
G04 APERTURE LIST*
%ADD10C,0.100000*%
%ADD11C,0.300000*%
G04 APERTURE END LIST*
D10*
D11*
X160758143Y-51180571D02*
X160758143Y-49680571D01*
X161615286Y-51180571D01*
X161615286Y-49680571D01*
X162615286Y-49680571D02*
X162901000Y-49680571D01*
X163043858Y-49752000D01*
X163186715Y-49894857D01*
X163258143Y-50180571D01*
X163258143Y-50680571D01*
X163186715Y-50966286D01*
X163043858Y-51109143D01*
X162901000Y-51180571D01*
X162615286Y-51180571D01*
X162472429Y-51109143D01*
X162329572Y-50966286D01*
X162258143Y-50680571D01*
X162258143Y-50180571D01*
X162329572Y-49894857D01*
X162472429Y-49752000D01*
X162615286Y-49680571D01*
X163686715Y-49680571D02*
X164543858Y-49680571D01*
X164115287Y-51180571D02*
X164115287Y-49680571D01*
X165043858Y-50394857D02*
X165543858Y-50394857D01*
X165758144Y-51180571D02*
X165043858Y-51180571D01*
X165043858Y-49680571D01*
X165758144Y-49680571D01*
X166329572Y-51109143D02*
X166543858Y-51180571D01*
X166901001Y-51180571D01*
X167043858Y-51109143D01*
X167115287Y-51037714D01*
X167186715Y-50894857D01*
X167186715Y-50752000D01*
X167115287Y-50609143D01*
X167043858Y-50537714D01*
X166901001Y-50466286D01*
X166615287Y-50394857D01*
X166472429Y-50323429D01*
X166401001Y-50252000D01*
X166329572Y-50109143D01*
X166329572Y-49966286D01*
X166401001Y-49823429D01*
X166472429Y-49752000D01*
X166615287Y-49680571D01*
X166972429Y-49680571D01*
X167186715Y-49752000D01*
X167829572Y-51037714D02*
X167901000Y-51109143D01*
X167829572Y-51180571D01*
X167758143Y-51109143D01*
X167829572Y-51037714D01*
X167829572Y-51180571D01*
X167829572Y-50252000D02*
X167901000Y-50323429D01*
X167829572Y-50394857D01*
X167758143Y-50323429D01*
X167829572Y-50252000D01*
X167829572Y-50394857D01*
X160686714Y-53509143D02*
X160901000Y-53580571D01*
X161258143Y-53580571D01*
X161401000Y-53509143D01*
X161472429Y-53437714D01*
X161543857Y-53294857D01*
X161543857Y-53152000D01*
X161472429Y-53009143D01*
X161401000Y-52937714D01*
X161258143Y-52866286D01*
X160972429Y-52794857D01*
X160829571Y-52723429D01*
X160758143Y-52652000D01*
X160686714Y-52509143D01*
X160686714Y-52366286D01*
X160758143Y-52223429D01*
X160829571Y-52152000D01*
X160972429Y-52080571D01*
X161329571Y-52080571D01*
X161543857Y-52152000D01*
X162186714Y-53580571D02*
X162186714Y-52080571D01*
X162901000Y-53580571D02*
X162901000Y-52080571D01*
X163758143Y-53580571D01*
X163758143Y-52080571D01*
X165258143Y-52152000D02*
X165115286Y-52080571D01*
X164901000Y-52080571D01*
X164686715Y-52152000D01*
X164543857Y-52294857D01*
X164472429Y-52437714D01*
X164401000Y-52723429D01*
X164401000Y-52937714D01*
X164472429Y-53223429D01*
X164543857Y-53366286D01*
X164686715Y-53509143D01*
X164901000Y-53580571D01*
X165043857Y-53580571D01*
X165258143Y-53509143D01*
X165329572Y-53437714D01*
X165329572Y-52937714D01*
X165043857Y-52937714D01*
X166686715Y-53580571D02*
X165972429Y-53580571D01*
X165972429Y-52080571D01*
X167186715Y-52794857D02*
X167686715Y-52794857D01*
X167901001Y-53580571D02*
X167186715Y-53580571D01*
X167186715Y-52080571D01*
X167901001Y-52080571D01*
X170401001Y-53580571D02*
X169686715Y-53580571D01*
X169686715Y-52080571D01*
X170829572Y-53152000D02*
X171543858Y-53152000D01*
X170686715Y-53580571D02*
X171186715Y-52080571D01*
X171686715Y-53580571D01*
X172472429Y-52866286D02*
X172472429Y-53580571D01*
X171972429Y-52080571D02*
X172472429Y-52866286D01*
X172972429Y-52080571D01*
X173472429Y-52794857D02*
X173972429Y-52794857D01*
X174186715Y-53580571D02*
X173472429Y-53580571D01*
X173472429Y-52080571D01*
X174186715Y-52080571D01*
X175686715Y-53580571D02*
X175186715Y-52866286D01*
X174829572Y-53580571D02*
X174829572Y-52080571D01*
X175401000Y-52080571D01*
X175543858Y-52152000D01*
X175615286Y-52223429D01*
X175686715Y-52366286D01*
X175686715Y-52580571D01*
X175615286Y-52723429D01*
X175543858Y-52794857D01*
X175401000Y-52866286D01*
X174829572Y-52866286D01*
X176329572Y-53437714D02*
X176401000Y-53509143D01*
X176329572Y-53580571D01*
X176258143Y-53509143D01*
X176329572Y-53437714D01*
X176329572Y-53580571D01*
X176329572Y-52652000D02*
X176401000Y-52723429D01*
X176329572Y-52794857D01*
X176258143Y-52723429D01*
X176329572Y-52652000D01*
X176329572Y-52794857D01*
X178472429Y-52080571D02*
X178615286Y-52080571D01*
X178758143Y-52152000D01*
X178829572Y-52223429D01*
X178901001Y-52366286D01*
X178972429Y-52652000D01*
X178972429Y-53009143D01*
X178901001Y-53294857D01*
X178829572Y-53437714D01*
X178758143Y-53509143D01*
X178615286Y-53580571D01*
X178472429Y-53580571D01*
X178329572Y-53509143D01*
X178258143Y-53437714D01*
X178186715Y-53294857D01*
X178115286Y-53009143D01*
X178115286Y-52652000D01*
X178186715Y-52366286D01*
X178258143Y-52223429D01*
X178329572Y-52152000D01*
X178472429Y-52080571D01*
X179615286Y-53437714D02*
X179686714Y-53509143D01*
X179615286Y-53580571D01*
X179543857Y-53509143D01*
X179615286Y-53437714D01*
X179615286Y-53580571D01*
X180615286Y-52080571D02*
X180758143Y-52080571D01*
X180901000Y-52152000D01*
X180972429Y-52223429D01*
X181043858Y-52366286D01*
X181115286Y-52652000D01*
X181115286Y-53009143D01*
X181043858Y-53294857D01*
X180972429Y-53437714D01*
X180901000Y-53509143D01*
X180758143Y-53580571D01*
X180615286Y-53580571D01*
X180472429Y-53509143D01*
X180401000Y-53437714D01*
X180329572Y-53294857D01*
X180258143Y-53009143D01*
X180258143Y-52652000D01*
X180329572Y-52366286D01*
X180401000Y-52223429D01*
X180472429Y-52152000D01*
X180615286Y-52080571D01*
X181615286Y-52080571D02*
X182543857Y-52080571D01*
X182043857Y-52652000D01*
X182258143Y-52652000D01*
X182401000Y-52723429D01*
X182472429Y-52794857D01*
X182543857Y-52937714D01*
X182543857Y-53294857D01*
X182472429Y-53437714D01*
X182401000Y-53509143D01*
X182258143Y-53580571D01*
X181829571Y-53580571D01*
X181686714Y-53509143D01*
X181615286Y-53437714D01*
X183972428Y-53580571D02*
X183115285Y-53580571D01*
X183543857Y-53580571D02*
X183543857Y-52080571D01*
X183401000Y-52294857D01*
X183258142Y-52437714D01*
X183115285Y-52509143D01*
X184543856Y-52080571D02*
X184543856Y-52366286D01*
X185115285Y-52080571D02*
X185115285Y-52366286D01*
X160758143Y-55980571D02*
X160758143Y-54480571D01*
X161258143Y-55552000D01*
X161758143Y-54480571D01*
X161758143Y-55980571D01*
X162401000Y-55552000D02*
X163115286Y-55552000D01*
X162258143Y-55980571D02*
X162758143Y-54480571D01*
X163258143Y-55980571D01*
X163543857Y-54480571D02*
X164401000Y-54480571D01*
X163972429Y-55980571D02*
X163972429Y-54480571D01*
X164901000Y-55194857D02*
X165401000Y-55194857D01*
X165615286Y-55980571D02*
X164901000Y-55980571D01*
X164901000Y-54480571D01*
X165615286Y-54480571D01*
X167115286Y-55980571D02*
X166615286Y-55266286D01*
X166258143Y-55980571D02*
X166258143Y-54480571D01*
X166829571Y-54480571D01*
X166972429Y-54552000D01*
X167043857Y-54623429D01*
X167115286Y-54766286D01*
X167115286Y-54980571D01*
X167043857Y-55123429D01*
X166972429Y-55194857D01*
X166829571Y-55266286D01*
X166258143Y-55266286D01*
X167758143Y-55980571D02*
X167758143Y-54480571D01*
X168401000Y-55552000D02*
X169115286Y-55552000D01*
X168258143Y-55980571D02*
X168758143Y-54480571D01*
X169258143Y-55980571D01*
X170472429Y-55980571D02*
X169758143Y-55980571D01*
X169758143Y-54480571D01*
X170972429Y-55837714D02*
X171043857Y-55909143D01*
X170972429Y-55980571D01*
X170901000Y-55909143D01*
X170972429Y-55837714D01*
X170972429Y-55980571D01*
X170972429Y-55052000D02*
X171043857Y-55123429D01*
X170972429Y-55194857D01*
X170901000Y-55123429D01*
X170972429Y-55052000D01*
X170972429Y-55194857D01*
X172829572Y-55194857D02*
X173329572Y-55194857D01*
X173543858Y-55980571D02*
X172829572Y-55980571D01*
X172829572Y-54480571D01*
X173543858Y-54480571D01*
X174186715Y-55980571D02*
X174186715Y-54480571D01*
X174758143Y-54480571D01*
X174901001Y-54552000D01*
X174972429Y-54623429D01*
X175043858Y-54766286D01*
X175043858Y-54980571D01*
X174972429Y-55123429D01*
X174901001Y-55194857D01*
X174758143Y-55266286D01*
X174186715Y-55266286D01*
X175972429Y-54480571D02*
X176258143Y-54480571D01*
X176401001Y-54552000D01*
X176543858Y-54694857D01*
X176615286Y-54980571D01*
X176615286Y-55480571D01*
X176543858Y-55766286D01*
X176401001Y-55909143D01*
X176258143Y-55980571D01*
X175972429Y-55980571D01*
X175829572Y-55909143D01*
X175686715Y-55766286D01*
X175615286Y-55480571D01*
X175615286Y-54980571D01*
X175686715Y-54694857D01*
X175829572Y-54552000D01*
X175972429Y-54480571D01*
X177115287Y-54480571D02*
X178115287Y-55980571D01*
X178115287Y-54480571D02*
X177115287Y-55980571D01*
X178972429Y-55266286D02*
X178972429Y-55980571D01*
X178472429Y-54480571D02*
X178972429Y-55266286D01*
X179472429Y-54480571D01*
X181615286Y-55194857D02*
X181115286Y-55194857D01*
X181115286Y-55980571D02*
X181115286Y-54480571D01*
X181829572Y-54480571D01*
X182401000Y-55980571D02*
X182401000Y-54480571D01*
X183615286Y-55194857D02*
X183829572Y-55266286D01*
X183901000Y-55337714D01*
X183972429Y-55480571D01*
X183972429Y-55694857D01*
X183901000Y-55837714D01*
X183829572Y-55909143D01*
X183686714Y-55980571D01*
X183115286Y-55980571D01*
X183115286Y-54480571D01*
X183615286Y-54480571D01*
X183758143Y-54552000D01*
X183829572Y-54623429D01*
X183901000Y-54766286D01*
X183901000Y-54909143D01*
X183829572Y-55052000D01*
X183758143Y-55123429D01*
X183615286Y-55194857D01*
X183115286Y-55194857D01*
X184615286Y-55194857D02*
X185115286Y-55194857D01*
X185329572Y-55980571D02*
X184615286Y-55980571D01*
X184615286Y-54480571D01*
X185329572Y-54480571D01*
X186829572Y-55980571D02*
X186329572Y-55266286D01*
X185972429Y-55980571D02*
X185972429Y-54480571D01*
X186543857Y-54480571D01*
X186686715Y-54552000D01*
X186758143Y-54623429D01*
X186829572Y-54766286D01*
X186829572Y-54980571D01*
X186758143Y-55123429D01*
X186686715Y-55194857D01*
X186543857Y-55266286D01*
X185972429Y-55266286D01*
X188258143Y-54552000D02*
X188115286Y-54480571D01*
X187901000Y-54480571D01*
X187686715Y-54552000D01*
X187543857Y-54694857D01*
X187472429Y-54837714D01*
X187401000Y-55123429D01*
X187401000Y-55337714D01*
X187472429Y-55623429D01*
X187543857Y-55766286D01*
X187686715Y-55909143D01*
X187901000Y-55980571D01*
X188043857Y-55980571D01*
X188258143Y-55909143D01*
X188329572Y-55837714D01*
X188329572Y-55337714D01*
X188043857Y-55337714D01*
X189686715Y-55980571D02*
X188972429Y-55980571D01*
X188972429Y-54480571D01*
X190115286Y-55552000D02*
X190829572Y-55552000D01*
X189972429Y-55980571D02*
X190472429Y-54480571D01*
X190972429Y-55980571D01*
X191401000Y-55909143D02*
X191615286Y-55980571D01*
X191972429Y-55980571D01*
X192115286Y-55909143D01*
X192186715Y-55837714D01*
X192258143Y-55694857D01*
X192258143Y-55552000D01*
X192186715Y-55409143D01*
X192115286Y-55337714D01*
X191972429Y-55266286D01*
X191686715Y-55194857D01*
X191543857Y-55123429D01*
X191472429Y-55052000D01*
X191401000Y-54909143D01*
X191401000Y-54766286D01*
X191472429Y-54623429D01*
X191543857Y-54552000D01*
X191686715Y-54480571D01*
X192043857Y-54480571D01*
X192258143Y-54552000D01*
X192829571Y-55909143D02*
X193043857Y-55980571D01*
X193401000Y-55980571D01*
X193543857Y-55909143D01*
X193615286Y-55837714D01*
X193686714Y-55694857D01*
X193686714Y-55552000D01*
X193615286Y-55409143D01*
X193543857Y-55337714D01*
X193401000Y-55266286D01*
X193115286Y-55194857D01*
X192972428Y-55123429D01*
X192901000Y-55052000D01*
X192829571Y-54909143D01*
X192829571Y-54766286D01*
X192901000Y-54623429D01*
X192972428Y-54552000D01*
X193115286Y-54480571D01*
X193472428Y-54480571D01*
X193686714Y-54552000D01*
X195972428Y-55194857D02*
X195472428Y-55194857D01*
X195472428Y-55980571D02*
X195472428Y-54480571D01*
X196186714Y-54480571D01*
X197615285Y-55980571D02*
X197115285Y-55266286D01*
X196758142Y-55980571D02*
X196758142Y-54480571D01*
X197329570Y-54480571D01*
X197472428Y-54552000D01*
X197543856Y-54623429D01*
X197615285Y-54766286D01*
X197615285Y-54980571D01*
X197543856Y-55123429D01*
X197472428Y-55194857D01*
X197329570Y-55266286D01*
X196758142Y-55266286D01*
X198900999Y-54980571D02*
X198900999Y-55980571D01*
X198543856Y-54409143D02*
X198186713Y-55480571D01*
X199115285Y-55480571D01*
X172972427Y-58380571D02*
X172115284Y-58380571D01*
X172543856Y-58380571D02*
X172543856Y-56880571D01*
X172400999Y-57094857D01*
X172258141Y-57237714D01*
X172115284Y-57309143D01*
X175043855Y-56880571D02*
X175329569Y-56880571D01*
X175472427Y-56952000D01*
X175615284Y-57094857D01*
X175686712Y-57380571D01*
X175686712Y-57880571D01*
X175615284Y-58166286D01*
X175472427Y-58309143D01*
X175329569Y-58380571D01*
X175043855Y-58380571D01*
X174900998Y-58309143D01*
X174758141Y-58166286D01*
X174686712Y-57880571D01*
X174686712Y-57380571D01*
X174758141Y-57094857D01*
X174900998Y-56952000D01*
X175043855Y-56880571D01*
X176186713Y-56880571D02*
X177186713Y-56880571D01*
X176186713Y-58380571D01*
X177186713Y-58380571D01*
X179758141Y-58237714D02*
X179686712Y-58309143D01*
X179472426Y-58380571D01*
X179329569Y-58380571D01*
X179115284Y-58309143D01*
X178972426Y-58166286D01*
X178900998Y-58023429D01*
X178829569Y-57737714D01*
X178829569Y-57523429D01*
X178900998Y-57237714D01*
X178972426Y-57094857D01*
X179115284Y-56952000D01*
X179329569Y-56880571D01*
X179472426Y-56880571D01*
X179686712Y-56952000D01*
X179758141Y-57023429D01*
X180686712Y-56880571D02*
X180972426Y-56880571D01*
X181115284Y-56952000D01*
X181258141Y-57094857D01*
X181329569Y-57380571D01*
X181329569Y-57880571D01*
X181258141Y-58166286D01*
X181115284Y-58309143D01*
X180972426Y-58380571D01*
X180686712Y-58380571D01*
X180543855Y-58309143D01*
X180400998Y-58166286D01*
X180329569Y-57880571D01*
X180329569Y-57380571D01*
X180400998Y-57094857D01*
X180543855Y-56952000D01*
X180686712Y-56880571D01*
X181972427Y-58380571D02*
X181972427Y-56880571D01*
X182543855Y-56880571D01*
X182686713Y-56952000D01*
X182758141Y-57023429D01*
X182829570Y-57166286D01*
X182829570Y-57380571D01*
X182758141Y-57523429D01*
X182686713Y-57594857D01*
X182543855Y-57666286D01*
X181972427Y-57666286D01*
X183472427Y-58380571D02*
X183472427Y-56880571D01*
X184043855Y-56880571D01*
X184186713Y-56952000D01*
X184258141Y-57023429D01*
X184329570Y-57166286D01*
X184329570Y-57380571D01*
X184258141Y-57523429D01*
X184186713Y-57594857D01*
X184043855Y-57666286D01*
X183472427Y-57666286D01*
X184972427Y-57594857D02*
X185472427Y-57594857D01*
X185686713Y-58380571D02*
X184972427Y-58380571D01*
X184972427Y-56880571D01*
X185686713Y-56880571D01*
X187186713Y-58380571D02*
X186686713Y-57666286D01*
X186329570Y-58380571D02*
X186329570Y-56880571D01*
X186900998Y-56880571D01*
X187043856Y-56952000D01*
X187115284Y-57023429D01*
X187186713Y-57166286D01*
X187186713Y-57380571D01*
X187115284Y-57523429D01*
X187043856Y-57594857D01*
X186900998Y-57666286D01*
X186329570Y-57666286D01*
X189472427Y-57594857D02*
X188972427Y-57594857D01*
X188972427Y-58380571D02*
X188972427Y-56880571D01*
X189686713Y-56880571D01*
X190258141Y-58380571D02*
X190258141Y-56880571D01*
X190972427Y-58380571D02*
X190972427Y-56880571D01*
X191829570Y-58380571D01*
X191829570Y-56880571D01*
X192543856Y-58380571D02*
X192543856Y-56880571D01*
X193186713Y-58309143D02*
X193400999Y-58380571D01*
X193758142Y-58380571D01*
X193900999Y-58309143D01*
X193972428Y-58237714D01*
X194043856Y-58094857D01*
X194043856Y-57952000D01*
X193972428Y-57809143D01*
X193900999Y-57737714D01*
X193758142Y-57666286D01*
X193472428Y-57594857D01*
X193329570Y-57523429D01*
X193258142Y-57452000D01*
X193186713Y-57309143D01*
X193186713Y-57166286D01*
X193258142Y-57023429D01*
X193329570Y-56952000D01*
X193472428Y-56880571D01*
X193829570Y-56880571D01*
X194043856Y-56952000D01*
X194686713Y-58380571D02*
X194686713Y-56880571D01*
X194686713Y-57594857D02*
X195543856Y-57594857D01*
X195543856Y-58380571D02*
X195543856Y-56880571D01*
X197686713Y-56880571D02*
X197972427Y-56880571D01*
X198115285Y-56952000D01*
X198258142Y-57094857D01*
X198329570Y-57380571D01*
X198329570Y-57880571D01*
X198258142Y-58166286D01*
X198115285Y-58309143D01*
X197972427Y-58380571D01*
X197686713Y-58380571D01*
X197543856Y-58309143D01*
X197400999Y-58166286D01*
X197329570Y-57880571D01*
X197329570Y-57380571D01*
X197400999Y-57094857D01*
X197543856Y-56952000D01*
X197686713Y-56880571D01*
X198972428Y-58380571D02*
X198972428Y-56880571D01*
X199829571Y-58380571D01*
X199829571Y-56880571D01*
X201972428Y-56880571D02*
X202258142Y-56880571D01*
X202401000Y-56952000D01*
X202543857Y-57094857D01*
X202615285Y-57380571D01*
X202615285Y-57880571D01*
X202543857Y-58166286D01*
X202401000Y-58309143D01*
X202258142Y-58380571D01*
X201972428Y-58380571D01*
X201829571Y-58309143D01*
X201686714Y-58166286D01*
X201615285Y-57880571D01*
X201615285Y-57380571D01*
X201686714Y-57094857D01*
X201829571Y-56952000D01*
X201972428Y-56880571D01*
X203258143Y-56880571D02*
X203258143Y-58094857D01*
X203329571Y-58237714D01*
X203401000Y-58309143D01*
X203543857Y-58380571D01*
X203829571Y-58380571D01*
X203972429Y-58309143D01*
X204043857Y-58237714D01*
X204115286Y-58094857D01*
X204115286Y-56880571D01*
X204615286Y-56880571D02*
X205472429Y-56880571D01*
X205043858Y-58380571D02*
X205043858Y-56880571D01*
X205758143Y-56880571D02*
X206615286Y-56880571D01*
X206186715Y-58380571D02*
X206186715Y-56880571D01*
X207115286Y-57594857D02*
X207615286Y-57594857D01*
X207829572Y-58380571D02*
X207115286Y-58380571D01*
X207115286Y-56880571D01*
X207829572Y-56880571D01*
X209329572Y-58380571D02*
X208829572Y-57666286D01*
X208472429Y-58380571D02*
X208472429Y-56880571D01*
X209043857Y-56880571D01*
X209186715Y-56952000D01*
X209258143Y-57023429D01*
X209329572Y-57166286D01*
X209329572Y-57380571D01*
X209258143Y-57523429D01*
X209186715Y-57594857D01*
X209043857Y-57666286D01*
X208472429Y-57666286D01*
X211829572Y-58380571D02*
X211115286Y-58380571D01*
X211115286Y-56880571D01*
X212258143Y-57952000D02*
X212972429Y-57952000D01*
X212115286Y-58380571D02*
X212615286Y-56880571D01*
X213115286Y-58380571D01*
X213901000Y-57666286D02*
X213901000Y-58380571D01*
X213401000Y-56880571D02*
X213901000Y-57666286D01*
X214401000Y-56880571D01*
X214901000Y-57594857D02*
X215401000Y-57594857D01*
X215615286Y-58380571D02*
X214901000Y-58380571D01*
X214901000Y-56880571D01*
X215615286Y-56880571D01*
X217115286Y-58380571D02*
X216615286Y-57666286D01*
X216258143Y-58380571D02*
X216258143Y-56880571D01*
X216829571Y-56880571D01*
X216972429Y-56952000D01*
X217043857Y-57023429D01*
X217115286Y-57166286D01*
X217115286Y-57380571D01*
X217043857Y-57523429D01*
X216972429Y-57594857D01*
X216829571Y-57666286D01*
X216258143Y-57666286D01*
X217686714Y-58309143D02*
X217901000Y-58380571D01*
X218258143Y-58380571D01*
X218401000Y-58309143D01*
X218472429Y-58237714D01*
X218543857Y-58094857D01*
X218543857Y-57952000D01*
X218472429Y-57809143D01*
X218401000Y-57737714D01*
X218258143Y-57666286D01*
X217972429Y-57594857D01*
X217829571Y-57523429D01*
X217758143Y-57452000D01*
X217686714Y-57309143D01*
X217686714Y-57166286D01*
X217758143Y-57023429D01*
X217829571Y-56952000D01*
X217972429Y-56880571D01*
X218329571Y-56880571D01*
X218543857Y-56952000D01*
M02*
