M48
;DRILL file {KiCad 4.0.2-stable} date 5/30/2017 2:32:05 PM
;FORMAT={-:-/ absolute / inch / decimal}
FMAT,2
INCH,TZ
T1C0.016
T2C0.028
T3C0.030
T4C0.031
T5C0.035
T6C0.039
T7C0.040
T8C0.045
T9C0.050
T10C0.060
T11C0.125
%
G90
G05
M72
T1
X1.755Y-2.075
X1.8Y-1.88
X1.9Y-1.88
X1.955Y-1.985
X2.43Y-2.9
X2.47Y-3.05
X3.52Y-2.38
X3.865Y-2.465
X4.Y-2.89
X4.005Y-2.685
X4.1Y-1.49
X4.1Y-1.53
X4.175Y-1.49
X4.175Y-1.53
X4.8Y-2.3
X4.81Y-2.33
X4.825Y-2.275
X4.83Y-2.355
X4.85Y-2.38
X4.855Y-2.245
X4.87Y-2.405
X4.885Y-2.215
X4.895Y-2.43
X5.03Y-2.455
X5.06Y-2.48
T2
X1.17Y-4.49
X1.225Y-1.255
X1.255Y-2.715
X1.255Y-2.915
X1.42Y-3.685
X1.425Y-1.255
X1.62Y-3.685
X1.94Y-3.19
X1.94Y-3.39
X1.955Y-1.47
X1.975Y-2.715
X1.975Y-2.915
X2.01Y-2.525
X2.145Y-4.235
X2.21Y-2.525
X2.76Y-2.48
X3.71Y-3.735
X4.7486Y-2.1714
X4.89Y-2.03
X5.055Y-2.58
X5.255Y-2.58
X5.365Y-2.45
T3
X2.67Y-4.27
X2.67Y-4.37
X2.67Y-4.47
X2.67Y-4.57
X2.67Y-4.67
X2.67Y-4.77
X2.67Y-4.87
X2.77Y-4.07
X2.77Y-4.17
X2.77Y-4.27
X2.77Y-4.37
X2.77Y-4.47
X2.77Y-4.57
X2.77Y-4.67
X2.77Y-4.77
X2.77Y-4.87
X2.87Y-3.97
X2.87Y-4.07
X2.87Y-4.17
X2.87Y-4.27
X2.87Y-4.37
X2.87Y-4.47
X2.87Y-4.57
X2.87Y-4.67
X2.87Y-4.77
X2.87Y-4.87
X2.97Y-3.87
X2.97Y-3.97
X2.97Y-4.07
X2.97Y-4.17
X2.97Y-4.27
X2.97Y-4.37
X2.97Y-4.47
X2.97Y-4.57
X2.97Y-4.67
X2.97Y-4.77
X2.97Y-4.87
X3.07Y-3.87
X3.07Y-3.97
X3.07Y-4.07
X3.07Y-4.17
X3.07Y-4.27
X3.07Y-4.37
X3.07Y-4.47
X3.07Y-4.57
X3.07Y-4.67
X3.07Y-4.77
X3.07Y-4.87
X3.17Y-3.87
X3.17Y-3.97
X3.17Y-4.07
X3.17Y-4.17
X3.17Y-4.27
X3.17Y-4.37
X3.17Y-4.47
X3.17Y-4.57
X3.17Y-4.67
X3.17Y-4.77
X3.17Y-4.87
X3.27Y-3.87
X3.27Y-3.97
X3.27Y-4.07
X3.27Y-4.17
X3.27Y-4.27
X3.27Y-4.37
X3.27Y-4.47
X3.27Y-4.57
X3.27Y-4.67
X3.27Y-4.77
X3.27Y-4.87
X3.37Y-3.87
X3.37Y-3.97
X3.37Y-4.07
X3.37Y-4.17
X3.37Y-4.27
X3.37Y-4.37
X3.37Y-4.47
X3.37Y-4.57
X3.37Y-4.67
X3.37Y-4.77
X3.37Y-4.87
X3.47Y-3.87
X3.47Y-3.97
X3.47Y-4.07
X3.47Y-4.17
X3.47Y-4.27
X3.47Y-4.37
X3.47Y-4.47
X3.47Y-4.57
X3.47Y-4.67
X3.47Y-4.77
X3.47Y-4.87
X3.57Y-3.87
X3.57Y-3.97
X3.57Y-4.07
X3.57Y-4.17
X3.57Y-4.27
X3.57Y-4.37
X3.57Y-4.47
X3.57Y-4.57
X3.57Y-4.67
X3.57Y-4.77
X3.57Y-4.87
X3.67Y-3.87
X3.67Y-3.97
X3.67Y-4.07
X3.67Y-4.17
X3.67Y-4.27
X3.67Y-4.37
X3.67Y-4.47
X3.67Y-4.57
X3.67Y-4.67
X3.67Y-4.77
X3.67Y-4.87
X3.77Y-3.87
X3.77Y-3.97
X3.77Y-4.07
X3.77Y-4.17
X3.77Y-4.27
X3.77Y-4.37
X3.77Y-4.47
X3.77Y-4.57
X3.77Y-4.67
X3.77Y-4.77
X3.77Y-4.87
X3.87Y-3.87
X3.87Y-3.97
X3.87Y-4.07
X3.87Y-4.17
X3.87Y-4.27
X3.87Y-4.37
X3.87Y-4.47
X3.87Y-4.57
X3.87Y-4.67
X3.87Y-4.77
X3.87Y-4.87
X3.97Y-3.87
X3.97Y-3.97
X3.97Y-4.07
X3.97Y-4.17
X3.97Y-4.27
X3.97Y-4.37
X3.97Y-4.47
X3.97Y-4.57
X3.97Y-4.67
X3.97Y-4.77
X3.97Y-4.87
X4.07Y-3.87
X4.07Y-3.97
X4.07Y-4.07
X4.07Y-4.17
X4.07Y-4.27
X4.07Y-4.37
X4.07Y-4.47
X4.07Y-4.57
X4.07Y-4.67
X4.07Y-4.77
X4.07Y-4.87
X4.17Y-3.87
X4.17Y-3.97
X4.17Y-4.07
X4.17Y-4.17
X4.17Y-4.27
X4.17Y-4.37
X4.17Y-4.47
X4.17Y-4.57
X4.17Y-4.67
X4.17Y-4.77
X4.17Y-4.87
X4.27Y-3.87
X4.27Y-3.97
X4.27Y-4.07
X4.27Y-4.17
X4.27Y-4.27
X4.27Y-4.37
X4.27Y-4.47
X4.27Y-4.57
X4.27Y-4.67
X4.27Y-4.77
X4.27Y-4.87
X4.37Y-3.87
X4.37Y-3.97
X4.37Y-4.07
X4.37Y-4.17
X4.37Y-4.27
X4.37Y-4.37
X4.37Y-4.47
X4.37Y-4.57
X4.37Y-4.67
X4.37Y-4.77
X4.37Y-4.87
X4.47Y-3.87
X4.47Y-3.97
X4.47Y-4.07
X4.47Y-4.17
X4.47Y-4.27
X4.47Y-4.37
X4.47Y-4.47
X4.47Y-4.57
X4.47Y-4.67
X4.47Y-4.77
X4.47Y-4.87
X4.57Y-3.87
X4.57Y-3.97
X4.57Y-4.07
X4.57Y-4.17
X4.57Y-4.27
X4.57Y-4.37
X4.57Y-4.47
X4.57Y-4.57
X4.57Y-4.67
X4.57Y-4.77
X4.57Y-4.87
X4.605Y-2.04
X4.605Y-2.14
X4.605Y-2.24
X4.605Y-2.34
X4.605Y-2.44
X4.61Y-2.515
X4.61Y-2.615
X4.61Y-2.715
X4.61Y-2.815
X4.61Y-2.915
X4.61Y-3.
X4.61Y-3.1
X4.61Y-3.2
X4.61Y-3.3
X4.61Y-3.4
X4.67Y-1.785
X4.67Y-1.885
X4.67Y-1.985
X4.67Y-2.085
X4.67Y-2.185
X4.67Y-3.87
X4.67Y-3.97
X4.67Y-4.07
X4.67Y-4.17
X4.67Y-4.27
X4.67Y-4.37
X4.67Y-4.47
X4.67Y-4.57
X4.67Y-4.67
X4.67Y-4.77
X4.67Y-4.87
X4.77Y-3.87
X4.77Y-3.97
X4.77Y-4.07
X4.77Y-4.17
X4.77Y-4.27
X4.77Y-4.37
X4.77Y-4.47
X4.77Y-4.57
X4.77Y-4.67
X4.77Y-4.77
X4.77Y-4.87
X4.87Y-3.87
X4.87Y-3.97
X4.87Y-4.07
X4.87Y-4.17
X4.87Y-4.27
X4.87Y-4.37
X4.87Y-4.47
X4.87Y-4.57
X4.87Y-4.67
X4.87Y-4.77
X4.87Y-4.87
X4.97Y-3.87
X4.97Y-3.97
X4.97Y-4.07
X4.97Y-4.17
X4.97Y-4.27
X4.97Y-4.37
X4.97Y-4.47
X4.97Y-4.57
X4.97Y-4.67
X4.97Y-4.77
X4.97Y-4.87
X5.07Y-3.87
X5.07Y-3.97
X5.07Y-4.07
X5.07Y-4.17
X5.07Y-4.27
X5.07Y-4.37
X5.07Y-4.47
X5.07Y-4.57
X5.07Y-4.67
X5.07Y-4.77
X5.07Y-4.87
X5.17Y-3.87
X5.17Y-3.97
X5.17Y-4.07
X5.17Y-4.17
X5.17Y-4.27
X5.17Y-4.37
X5.17Y-4.47
X5.17Y-4.57
X5.17Y-4.67
X5.17Y-4.77
X5.17Y-4.87
X5.27Y-3.87
X5.27Y-3.97
X5.27Y-4.07
X5.27Y-4.17
X5.27Y-4.27
X5.27Y-4.37
X5.27Y-4.47
X5.27Y-4.57
X5.27Y-4.67
X5.27Y-4.77
X5.27Y-4.87
X5.37Y-3.87
X5.37Y-3.97
X5.37Y-4.07
X5.37Y-4.17
X5.37Y-4.27
X5.37Y-4.37
X5.37Y-4.47
X5.37Y-4.57
X5.37Y-4.67
X5.37Y-4.77
X5.37Y-4.87
X5.47Y-3.87
X5.47Y-3.97
X5.47Y-4.07
X5.47Y-4.17
X5.47Y-4.27
X5.47Y-4.37
X5.47Y-4.47
X5.47Y-4.57
X5.47Y-4.67
X5.47Y-4.77
X5.47Y-4.87
X5.57Y-3.87
X5.57Y-3.97
X5.57Y-4.07
X5.57Y-4.17
X5.57Y-4.27
X5.57Y-4.37
X5.57Y-4.47
X5.57Y-4.57
X5.57Y-4.67
X5.57Y-4.77
X5.57Y-4.87
T4
X1.4848Y-1.9882
X1.4848Y-2.0866
X1.4948Y-2.2282
X1.4948Y-2.3266
X1.6643Y-4.2323
X1.7627Y-4.2323
X1.9Y-4.235
X1.9984Y-4.235
X2.015Y-1.855
X2.015Y-1.9534
X2.045Y-1.425
X2.045Y-1.555
X2.1Y-2.9166
X2.1Y-3.015
X2.12Y-1.855
X2.12Y-1.9534
X2.1434Y-1.425
X2.1434Y-1.555
X2.155Y-2.65
X2.175Y-3.1966
X2.175Y-3.295
X2.2534Y-2.65
X2.285Y-3.255
X2.285Y-3.3534
X2.34Y-2.65
X2.39Y-3.2566
X2.39Y-3.355
X2.4384Y-2.65
X2.755Y-2.9266
X2.755Y-3.025
X3.0466Y-2.46
X3.0666Y-2.345
X3.145Y-2.46
X3.165Y-2.345
X3.445Y-3.425
X3.5316Y-2.005
X3.5434Y-3.425
X3.5604Y-2.1154
X3.63Y-2.005
X3.63Y-2.185
X3.66Y-3.425
X3.6716Y-3.11
X3.6716Y-3.3
X3.7584Y-3.425
X3.77Y-3.11
X3.77Y-3.3
X4.115Y-2.44
X4.115Y-2.5384
X4.215Y-2.44
X4.215Y-2.5384
T5
X2.255Y-2.325
X2.355Y-2.325
T6
X1.86Y-2.615
X1.86Y-2.715
X1.86Y-2.815
X2.28Y-3.73
X2.28Y-3.83
X2.46Y-2.37
X2.46Y-2.47
T7
X2.485Y-1.73
X2.485Y-1.83
X2.585Y-1.73
X2.685Y-1.73
X2.885Y-1.73
X2.885Y-1.83
X2.985Y-1.73
X2.985Y-1.83
X3.085Y-1.73
X3.185Y-1.73
X3.185Y-1.83
X3.285Y-1.73
X3.285Y-1.83
X3.385Y-1.73
X3.385Y-1.83
X3.485Y-1.73
X3.485Y-1.83
X3.585Y-1.73
X3.585Y-1.83
X3.685Y-1.73
X3.685Y-1.83
X3.785Y-1.73
X3.785Y-1.83
X3.885Y-1.73
X3.885Y-1.83
X3.9881Y-1.73
X3.9881Y-1.8284
X4.085Y-1.73
X4.0866Y-1.8284
X4.185Y-1.73
X4.185Y-1.83
T8
X1.3048Y-2.0032
X1.3048Y-2.1032
X1.3048Y-2.2032
X1.74Y-4.075
X1.84Y-4.075
X1.94Y-4.075
X3.505Y-3.615
X3.605Y-3.615
X3.705Y-3.615
T9
X1.425Y-1.555
X1.545Y-2.715
X1.545Y-3.35
X5.67Y-2.28
T10
X1.3Y-1.43
X1.3Y-1.68
X1.42Y-2.59
X1.42Y-2.84
X1.42Y-3.225
X1.42Y-3.475
X1.55Y-1.43
X1.55Y-1.68
X1.67Y-2.59
X1.67Y-2.84
X1.67Y-3.225
X1.67Y-3.475
X5.545Y-2.155
X5.545Y-2.405
X5.795Y-2.155
X5.795Y-2.405
T11
X1.25Y-4.75
X1.75Y-1.25
X5.75Y-1.25
X5.75Y-4.75
T6
X1.1688Y-4.0906G85X1.1688Y-4.1694
G05
X1.2475Y-4.315G85X1.3263Y-4.315
G05
X1.405Y-4.0906G85X1.405Y-4.1694
G05
T0
M30
