G04 #@! TF.GenerationSoftware,KiCad,Pcbnew,(5.1.2)-1*
G04 #@! TF.CreationDate,2019-07-02T11:51:33-07:00*
G04 #@! TF.ProjectId,FIFO_P,4649464f-5f50-42e6-9b69-6361645f7063,rev?*
G04 #@! TF.SameCoordinates,Original*
G04 #@! TF.FileFunction,Legend,Top*
G04 #@! TF.FilePolarity,Positive*
%FSLAX46Y46*%
G04 Gerber Fmt 4.6, Leading zero omitted, Abs format (unit mm)*
G04 Created by KiCad (PCBNEW (5.1.2)-1) date 2019-07-02 11:51:33*
%MOMM*%
%LPD*%
G04 APERTURE LIST*
%ADD10C,0.150000*%
%ADD11C,0.250000*%
%ADD12C,0.300000*%
%ADD13C,0.125000*%
%ADD14C,0.050000*%
%ADD15C,0.200000*%
%ADD16C,0.120000*%
G04 APERTURE END LIST*
D10*
X65500000Y-118500000D02*
X93750000Y-118500000D01*
D11*
X65500000Y-112500000D02*
X93750000Y-112500000D01*
D10*
X84009642Y-114302380D02*
X83676309Y-113826190D01*
X83438214Y-114302380D02*
X83438214Y-113302380D01*
X83819166Y-113302380D01*
X83914404Y-113350000D01*
X83962023Y-113397619D01*
X84009642Y-113492857D01*
X84009642Y-113635714D01*
X83962023Y-113730952D01*
X83914404Y-113778571D01*
X83819166Y-113826190D01*
X83438214Y-113826190D01*
X84819166Y-114254761D02*
X84723928Y-114302380D01*
X84533452Y-114302380D01*
X84438214Y-114254761D01*
X84390595Y-114159523D01*
X84390595Y-113778571D01*
X84438214Y-113683333D01*
X84533452Y-113635714D01*
X84723928Y-113635714D01*
X84819166Y-113683333D01*
X84866785Y-113778571D01*
X84866785Y-113873809D01*
X84390595Y-113969047D01*
X85676309Y-114254761D02*
X85581071Y-114302380D01*
X85390595Y-114302380D01*
X85295357Y-114254761D01*
X85247738Y-114159523D01*
X85247738Y-113778571D01*
X85295357Y-113683333D01*
X85390595Y-113635714D01*
X85581071Y-113635714D01*
X85676309Y-113683333D01*
X85723928Y-113778571D01*
X85723928Y-113873809D01*
X85247738Y-113969047D01*
X86581071Y-114302380D02*
X86581071Y-113302380D01*
X86581071Y-114254761D02*
X86485833Y-114302380D01*
X86295357Y-114302380D01*
X86200119Y-114254761D01*
X86152500Y-114207142D01*
X86104880Y-114111904D01*
X86104880Y-113826190D01*
X86152500Y-113730952D01*
X86200119Y-113683333D01*
X86295357Y-113635714D01*
X86485833Y-113635714D01*
X86581071Y-113683333D01*
X88390595Y-114207142D02*
X88342976Y-114254761D01*
X88200119Y-114302380D01*
X88104880Y-114302380D01*
X87962023Y-114254761D01*
X87866785Y-114159523D01*
X87819166Y-114064285D01*
X87771547Y-113873809D01*
X87771547Y-113730952D01*
X87819166Y-113540476D01*
X87866785Y-113445238D01*
X87962023Y-113350000D01*
X88104880Y-113302380D01*
X88200119Y-113302380D01*
X88342976Y-113350000D01*
X88390595Y-113397619D01*
X88962023Y-114302380D02*
X88866785Y-114254761D01*
X88819166Y-114207142D01*
X88771547Y-114111904D01*
X88771547Y-113826190D01*
X88819166Y-113730952D01*
X88866785Y-113683333D01*
X88962023Y-113635714D01*
X89104880Y-113635714D01*
X89200119Y-113683333D01*
X89247738Y-113730952D01*
X89295357Y-113826190D01*
X89295357Y-114111904D01*
X89247738Y-114207142D01*
X89200119Y-114254761D01*
X89104880Y-114302380D01*
X88962023Y-114302380D01*
X89866785Y-114302380D02*
X89771547Y-114254761D01*
X89723928Y-114159523D01*
X89723928Y-113302380D01*
X90390595Y-114302380D02*
X90295357Y-114254761D01*
X90247738Y-114159523D01*
X90247738Y-113302380D01*
X91152500Y-114254761D02*
X91057261Y-114302380D01*
X90866785Y-114302380D01*
X90771547Y-114254761D01*
X90723928Y-114159523D01*
X90723928Y-113778571D01*
X90771547Y-113683333D01*
X90866785Y-113635714D01*
X91057261Y-113635714D01*
X91152500Y-113683333D01*
X91200119Y-113778571D01*
X91200119Y-113873809D01*
X90723928Y-113969047D01*
X92057261Y-113635714D02*
X92057261Y-114445238D01*
X92009642Y-114540476D01*
X91962023Y-114588095D01*
X91866785Y-114635714D01*
X91723928Y-114635714D01*
X91628690Y-114588095D01*
X92057261Y-114254761D02*
X91962023Y-114302380D01*
X91771547Y-114302380D01*
X91676309Y-114254761D01*
X91628690Y-114207142D01*
X91581071Y-114111904D01*
X91581071Y-113826190D01*
X91628690Y-113730952D01*
X91676309Y-113683333D01*
X91771547Y-113635714D01*
X91962023Y-113635714D01*
X92057261Y-113683333D01*
X92914404Y-114254761D02*
X92819166Y-114302380D01*
X92628690Y-114302380D01*
X92533452Y-114254761D01*
X92485833Y-114159523D01*
X92485833Y-113778571D01*
X92533452Y-113683333D01*
X92628690Y-113635714D01*
X92819166Y-113635714D01*
X92914404Y-113683333D01*
X92962023Y-113778571D01*
X92962023Y-113873809D01*
X92485833Y-113969047D01*
X78485833Y-115952380D02*
X78485833Y-114952380D01*
X78866785Y-114952380D01*
X78962023Y-115000000D01*
X79009642Y-115047619D01*
X79057261Y-115142857D01*
X79057261Y-115285714D01*
X79009642Y-115380952D01*
X78962023Y-115428571D01*
X78866785Y-115476190D01*
X78485833Y-115476190D01*
X79485833Y-115952380D02*
X79485833Y-114952380D01*
X79914404Y-115952380D02*
X79914404Y-115428571D01*
X79866785Y-115333333D01*
X79771547Y-115285714D01*
X79628690Y-115285714D01*
X79533452Y-115333333D01*
X79485833Y-115380952D01*
X80295357Y-115285714D02*
X80533452Y-115952380D01*
X80771547Y-115285714D02*
X80533452Y-115952380D01*
X80438214Y-116190476D01*
X80390595Y-116238095D01*
X80295357Y-116285714D01*
X81104880Y-115904761D02*
X81200119Y-115952380D01*
X81390595Y-115952380D01*
X81485833Y-115904761D01*
X81533452Y-115809523D01*
X81533452Y-115761904D01*
X81485833Y-115666666D01*
X81390595Y-115619047D01*
X81247738Y-115619047D01*
X81152500Y-115571428D01*
X81104880Y-115476190D01*
X81104880Y-115428571D01*
X81152500Y-115333333D01*
X81247738Y-115285714D01*
X81390595Y-115285714D01*
X81485833Y-115333333D01*
X81962023Y-115952380D02*
X81962023Y-115285714D01*
X81962023Y-114952380D02*
X81914404Y-115000000D01*
X81962023Y-115047619D01*
X82009642Y-115000000D01*
X81962023Y-114952380D01*
X81962023Y-115047619D01*
X82866785Y-115904761D02*
X82771547Y-115952380D01*
X82581071Y-115952380D01*
X82485833Y-115904761D01*
X82438214Y-115857142D01*
X82390595Y-115761904D01*
X82390595Y-115476190D01*
X82438214Y-115380952D01*
X82485833Y-115333333D01*
X82581071Y-115285714D01*
X82771547Y-115285714D01*
X82866785Y-115333333D01*
X83247738Y-115904761D02*
X83342976Y-115952380D01*
X83533452Y-115952380D01*
X83628690Y-115904761D01*
X83676309Y-115809523D01*
X83676309Y-115761904D01*
X83628690Y-115666666D01*
X83533452Y-115619047D01*
X83390595Y-115619047D01*
X83295357Y-115571428D01*
X83247738Y-115476190D01*
X83247738Y-115428571D01*
X83295357Y-115333333D01*
X83390595Y-115285714D01*
X83533452Y-115285714D01*
X83628690Y-115333333D01*
X84866785Y-115952380D02*
X84866785Y-114952380D01*
X85104880Y-114952380D01*
X85247738Y-115000000D01*
X85342976Y-115095238D01*
X85390595Y-115190476D01*
X85438214Y-115380952D01*
X85438214Y-115523809D01*
X85390595Y-115714285D01*
X85342976Y-115809523D01*
X85247738Y-115904761D01*
X85104880Y-115952380D01*
X84866785Y-115952380D01*
X86247738Y-115904761D02*
X86152500Y-115952380D01*
X85962023Y-115952380D01*
X85866785Y-115904761D01*
X85819166Y-115809523D01*
X85819166Y-115428571D01*
X85866785Y-115333333D01*
X85962023Y-115285714D01*
X86152500Y-115285714D01*
X86247738Y-115333333D01*
X86295357Y-115428571D01*
X86295357Y-115523809D01*
X85819166Y-115619047D01*
X86723928Y-115285714D02*
X86723928Y-116285714D01*
X86723928Y-115333333D02*
X86819166Y-115285714D01*
X87009642Y-115285714D01*
X87104880Y-115333333D01*
X87152500Y-115380952D01*
X87200119Y-115476190D01*
X87200119Y-115761904D01*
X87152500Y-115857142D01*
X87104880Y-115904761D01*
X87009642Y-115952380D01*
X86819166Y-115952380D01*
X86723928Y-115904761D01*
X88057261Y-115952380D02*
X88057261Y-115428571D01*
X88009642Y-115333333D01*
X87914404Y-115285714D01*
X87723928Y-115285714D01*
X87628690Y-115333333D01*
X88057261Y-115904761D02*
X87962023Y-115952380D01*
X87723928Y-115952380D01*
X87628690Y-115904761D01*
X87581071Y-115809523D01*
X87581071Y-115714285D01*
X87628690Y-115619047D01*
X87723928Y-115571428D01*
X87962023Y-115571428D01*
X88057261Y-115523809D01*
X88533452Y-115952380D02*
X88533452Y-115285714D01*
X88533452Y-115476190D02*
X88581071Y-115380952D01*
X88628690Y-115333333D01*
X88723928Y-115285714D01*
X88819166Y-115285714D01*
X89009642Y-115285714D02*
X89390595Y-115285714D01*
X89152500Y-114952380D02*
X89152500Y-115809523D01*
X89200119Y-115904761D01*
X89295357Y-115952380D01*
X89390595Y-115952380D01*
X89723928Y-115952380D02*
X89723928Y-115285714D01*
X89723928Y-115380952D02*
X89771547Y-115333333D01*
X89866785Y-115285714D01*
X90009642Y-115285714D01*
X90104880Y-115333333D01*
X90152500Y-115428571D01*
X90152500Y-115952380D01*
X90152500Y-115428571D02*
X90200119Y-115333333D01*
X90295357Y-115285714D01*
X90438214Y-115285714D01*
X90533452Y-115333333D01*
X90581071Y-115428571D01*
X90581071Y-115952380D01*
X91438214Y-115904761D02*
X91342976Y-115952380D01*
X91152500Y-115952380D01*
X91057261Y-115904761D01*
X91009642Y-115809523D01*
X91009642Y-115428571D01*
X91057261Y-115333333D01*
X91152500Y-115285714D01*
X91342976Y-115285714D01*
X91438214Y-115333333D01*
X91485833Y-115428571D01*
X91485833Y-115523809D01*
X91009642Y-115619047D01*
X91914404Y-115285714D02*
X91914404Y-115952380D01*
X91914404Y-115380952D02*
X91962023Y-115333333D01*
X92057261Y-115285714D01*
X92200119Y-115285714D01*
X92295357Y-115333333D01*
X92342976Y-115428571D01*
X92342976Y-115952380D01*
X92676309Y-115285714D02*
X93057261Y-115285714D01*
X92819166Y-114952380D02*
X92819166Y-115809523D01*
X92866785Y-115904761D01*
X92962023Y-115952380D01*
X93057261Y-115952380D01*
X89533452Y-116697619D02*
X89581071Y-116650000D01*
X89676309Y-116602380D01*
X89914404Y-116602380D01*
X90009642Y-116650000D01*
X90057261Y-116697619D01*
X90104880Y-116792857D01*
X90104880Y-116888095D01*
X90057261Y-117030952D01*
X89485833Y-117602380D01*
X90104880Y-117602380D01*
X90723928Y-116602380D02*
X90819166Y-116602380D01*
X90914404Y-116650000D01*
X90962023Y-116697619D01*
X91009642Y-116792857D01*
X91057261Y-116983333D01*
X91057261Y-117221428D01*
X91009642Y-117411904D01*
X90962023Y-117507142D01*
X90914404Y-117554761D01*
X90819166Y-117602380D01*
X90723928Y-117602380D01*
X90628690Y-117554761D01*
X90581071Y-117507142D01*
X90533452Y-117411904D01*
X90485833Y-117221428D01*
X90485833Y-116983333D01*
X90533452Y-116792857D01*
X90581071Y-116697619D01*
X90628690Y-116650000D01*
X90723928Y-116602380D01*
X92009642Y-117602380D02*
X91438214Y-117602380D01*
X91723928Y-117602380D02*
X91723928Y-116602380D01*
X91628690Y-116745238D01*
X91533452Y-116840476D01*
X91438214Y-116888095D01*
X92485833Y-117602380D02*
X92676309Y-117602380D01*
X92771547Y-117554761D01*
X92819166Y-117507142D01*
X92914404Y-117364285D01*
X92962023Y-117173809D01*
X92962023Y-116792857D01*
X92914404Y-116697619D01*
X92866785Y-116650000D01*
X92771547Y-116602380D01*
X92581071Y-116602380D01*
X92485833Y-116650000D01*
X92438214Y-116697619D01*
X92390595Y-116792857D01*
X92390595Y-117030952D01*
X92438214Y-117126190D01*
X92485833Y-117173809D01*
X92581071Y-117221428D01*
X92771547Y-117221428D01*
X92866785Y-117173809D01*
X92914404Y-117126190D01*
X92962023Y-117030952D01*
X66287976Y-114016666D02*
X66764166Y-114016666D01*
X66192738Y-114302380D02*
X66526071Y-113302380D01*
X66859404Y-114302380D01*
X67335595Y-114302380D02*
X67240357Y-114254761D01*
X67192738Y-114159523D01*
X67192738Y-113302380D01*
X68097500Y-114254761D02*
X68002261Y-114302380D01*
X67811785Y-114302380D01*
X67716547Y-114254761D01*
X67668928Y-114159523D01*
X67668928Y-113778571D01*
X67716547Y-113683333D01*
X67811785Y-113635714D01*
X68002261Y-113635714D01*
X68097500Y-113683333D01*
X68145119Y-113778571D01*
X68145119Y-113873809D01*
X67668928Y-113969047D01*
X68478452Y-114302380D02*
X69002261Y-113635714D01*
X68478452Y-113635714D02*
X69002261Y-114302380D01*
X70097500Y-114254761D02*
X70240357Y-114302380D01*
X70478452Y-114302380D01*
X70573690Y-114254761D01*
X70621309Y-114207142D01*
X70668928Y-114111904D01*
X70668928Y-114016666D01*
X70621309Y-113921428D01*
X70573690Y-113873809D01*
X70478452Y-113826190D01*
X70287976Y-113778571D01*
X70192738Y-113730952D01*
X70145119Y-113683333D01*
X70097500Y-113588095D01*
X70097500Y-113492857D01*
X70145119Y-113397619D01*
X70192738Y-113350000D01*
X70287976Y-113302380D01*
X70526071Y-113302380D01*
X70668928Y-113350000D01*
X70954642Y-113635714D02*
X71335595Y-113635714D01*
X71097500Y-113302380D02*
X71097500Y-114159523D01*
X71145119Y-114254761D01*
X71240357Y-114302380D01*
X71335595Y-114302380D01*
X71668928Y-114302380D02*
X71668928Y-113635714D01*
X71668928Y-113826190D02*
X71716547Y-113730952D01*
X71764166Y-113683333D01*
X71859404Y-113635714D01*
X71954642Y-113635714D01*
X72287976Y-114302380D02*
X72287976Y-113635714D01*
X72287976Y-113302380D02*
X72240357Y-113350000D01*
X72287976Y-113397619D01*
X72335595Y-113350000D01*
X72287976Y-113302380D01*
X72287976Y-113397619D01*
X72621309Y-113635714D02*
X73002261Y-113635714D01*
X72764166Y-114302380D02*
X72764166Y-113445238D01*
X72811785Y-113350000D01*
X72907023Y-113302380D01*
X73002261Y-113302380D01*
X73192738Y-113635714D02*
X73573690Y-113635714D01*
X73335595Y-114302380D02*
X73335595Y-113445238D01*
X73383214Y-113350000D01*
X73478452Y-113302380D01*
X73573690Y-113302380D01*
X66335595Y-115428571D02*
X66668928Y-115428571D01*
X66811785Y-115952380D02*
X66335595Y-115952380D01*
X66335595Y-114952380D01*
X66811785Y-114952380D01*
X67668928Y-115952380D02*
X67668928Y-114952380D01*
X67668928Y-115904761D02*
X67573690Y-115952380D01*
X67383214Y-115952380D01*
X67287976Y-115904761D01*
X67240357Y-115857142D01*
X67192738Y-115761904D01*
X67192738Y-115476190D01*
X67240357Y-115380952D01*
X67287976Y-115333333D01*
X67383214Y-115285714D01*
X67573690Y-115285714D01*
X67668928Y-115333333D01*
X68573690Y-115285714D02*
X68573690Y-116095238D01*
X68526071Y-116190476D01*
X68478452Y-116238095D01*
X68383214Y-116285714D01*
X68240357Y-116285714D01*
X68145119Y-116238095D01*
X68573690Y-115904761D02*
X68478452Y-115952380D01*
X68287976Y-115952380D01*
X68192738Y-115904761D01*
X68145119Y-115857142D01*
X68097500Y-115761904D01*
X68097500Y-115476190D01*
X68145119Y-115380952D01*
X68192738Y-115333333D01*
X68287976Y-115285714D01*
X68478452Y-115285714D01*
X68573690Y-115333333D01*
X69478452Y-115952380D02*
X69478452Y-115428571D01*
X69430833Y-115333333D01*
X69335595Y-115285714D01*
X69145119Y-115285714D01*
X69049880Y-115333333D01*
X69478452Y-115904761D02*
X69383214Y-115952380D01*
X69145119Y-115952380D01*
X69049880Y-115904761D01*
X69002261Y-115809523D01*
X69002261Y-115714285D01*
X69049880Y-115619047D01*
X69145119Y-115571428D01*
X69383214Y-115571428D01*
X69478452Y-115523809D01*
X69954642Y-115952380D02*
X69954642Y-115285714D01*
X69954642Y-115476190D02*
X70002261Y-115380952D01*
X70049880Y-115333333D01*
X70145119Y-115285714D01*
X70240357Y-115285714D01*
X71335595Y-115952380D02*
X71335595Y-114952380D01*
X71716547Y-114952380D01*
X71811785Y-115000000D01*
X71859404Y-115047619D01*
X71907023Y-115142857D01*
X71907023Y-115285714D01*
X71859404Y-115380952D01*
X71811785Y-115428571D01*
X71716547Y-115476190D01*
X71335595Y-115476190D01*
X72716547Y-115904761D02*
X72621309Y-115952380D01*
X72430833Y-115952380D01*
X72335595Y-115904761D01*
X72287976Y-115809523D01*
X72287976Y-115428571D01*
X72335595Y-115333333D01*
X72430833Y-115285714D01*
X72621309Y-115285714D01*
X72716547Y-115333333D01*
X72764166Y-115428571D01*
X72764166Y-115523809D01*
X72287976Y-115619047D01*
X73192738Y-115952380D02*
X73192738Y-115285714D01*
X73192738Y-115476190D02*
X73240357Y-115380952D01*
X73287976Y-115333333D01*
X73383214Y-115285714D01*
X73478452Y-115285714D01*
X74192738Y-115904761D02*
X74097500Y-115952380D01*
X73907023Y-115952380D01*
X73811785Y-115904761D01*
X73764166Y-115809523D01*
X73764166Y-115428571D01*
X73811785Y-115333333D01*
X73907023Y-115285714D01*
X74097500Y-115285714D01*
X74192738Y-115333333D01*
X74240357Y-115428571D01*
X74240357Y-115523809D01*
X73764166Y-115619047D01*
X74573690Y-115285714D02*
X75097500Y-115285714D01*
X74573690Y-115952380D01*
X75097500Y-115952380D01*
X66811785Y-117602380D02*
X66335595Y-117602380D01*
X66335595Y-116602380D01*
X67573690Y-116935714D02*
X67573690Y-117602380D01*
X67145119Y-116935714D02*
X67145119Y-117459523D01*
X67192738Y-117554761D01*
X67287976Y-117602380D01*
X67430833Y-117602380D01*
X67526071Y-117554761D01*
X67573690Y-117507142D01*
X68478452Y-117554761D02*
X68383214Y-117602380D01*
X68192738Y-117602380D01*
X68097500Y-117554761D01*
X68049880Y-117507142D01*
X68002261Y-117411904D01*
X68002261Y-117126190D01*
X68049880Y-117030952D01*
X68097500Y-116983333D01*
X68192738Y-116935714D01*
X68383214Y-116935714D01*
X68478452Y-116983333D01*
X69335595Y-117602380D02*
X69335595Y-117078571D01*
X69287976Y-116983333D01*
X69192738Y-116935714D01*
X69002261Y-116935714D01*
X68907023Y-116983333D01*
X69335595Y-117554761D02*
X69240357Y-117602380D01*
X69002261Y-117602380D01*
X68907023Y-117554761D01*
X68859404Y-117459523D01*
X68859404Y-117364285D01*
X68907023Y-117269047D01*
X69002261Y-117221428D01*
X69240357Y-117221428D01*
X69335595Y-117173809D01*
X69764166Y-117554761D02*
X69859404Y-117602380D01*
X70049880Y-117602380D01*
X70145119Y-117554761D01*
X70192738Y-117459523D01*
X70192738Y-117411904D01*
X70145119Y-117316666D01*
X70049880Y-117269047D01*
X69907023Y-117269047D01*
X69811785Y-117221428D01*
X69764166Y-117126190D01*
X69764166Y-117078571D01*
X69811785Y-116983333D01*
X69907023Y-116935714D01*
X70049880Y-116935714D01*
X70145119Y-116983333D01*
X71383214Y-117602380D02*
X71383214Y-116602380D01*
X72002261Y-117602380D02*
X71907023Y-117554761D01*
X71859404Y-117459523D01*
X71859404Y-116602380D01*
X72526071Y-117602380D02*
X72430833Y-117554761D01*
X72383214Y-117459523D01*
X72383214Y-116602380D01*
X72907023Y-117602380D02*
X72907023Y-116935714D01*
X72907023Y-116602380D02*
X72859404Y-116650000D01*
X72907023Y-116697619D01*
X72954642Y-116650000D01*
X72907023Y-116602380D01*
X72907023Y-116697619D01*
X73383214Y-116935714D02*
X73383214Y-117602380D01*
X73383214Y-117030952D02*
X73430833Y-116983333D01*
X73526071Y-116935714D01*
X73668928Y-116935714D01*
X73764166Y-116983333D01*
X73811785Y-117078571D01*
X73811785Y-117602380D01*
X74716547Y-116935714D02*
X74716547Y-117745238D01*
X74668928Y-117840476D01*
X74621309Y-117888095D01*
X74526071Y-117935714D01*
X74383214Y-117935714D01*
X74287976Y-117888095D01*
X74716547Y-117554761D02*
X74621309Y-117602380D01*
X74430833Y-117602380D01*
X74335595Y-117554761D01*
X74287976Y-117507142D01*
X74240357Y-117411904D01*
X74240357Y-117126190D01*
X74287976Y-117030952D01*
X74335595Y-116983333D01*
X74430833Y-116935714D01*
X74621309Y-116935714D01*
X74716547Y-116983333D01*
D12*
X65880952Y-109154761D02*
X67023809Y-109154761D01*
X66452380Y-111154761D02*
X66452380Y-109154761D01*
X67690476Y-111154761D02*
X67690476Y-109821428D01*
X67690476Y-109154761D02*
X67595238Y-109250000D01*
X67690476Y-109345238D01*
X67785714Y-109250000D01*
X67690476Y-109154761D01*
X67690476Y-109345238D01*
X68642857Y-111154761D02*
X68642857Y-109821428D01*
X68642857Y-110011904D02*
X68738095Y-109916666D01*
X68928571Y-109821428D01*
X69214285Y-109821428D01*
X69404761Y-109916666D01*
X69500000Y-110107142D01*
X69500000Y-111154761D01*
X69500000Y-110107142D02*
X69595238Y-109916666D01*
X69785714Y-109821428D01*
X70071428Y-109821428D01*
X70261904Y-109916666D01*
X70357142Y-110107142D01*
X70357142Y-111154761D01*
X72071428Y-111059523D02*
X71880952Y-111154761D01*
X71500000Y-111154761D01*
X71309523Y-111059523D01*
X71214285Y-110869047D01*
X71214285Y-110107142D01*
X71309523Y-109916666D01*
X71500000Y-109821428D01*
X71880952Y-109821428D01*
X72071428Y-109916666D01*
X72166666Y-110107142D01*
X72166666Y-110297619D01*
X71214285Y-110488095D01*
X74547619Y-111154761D02*
X74547619Y-109154761D01*
X75023809Y-109154761D01*
X75309523Y-109250000D01*
X75500000Y-109440476D01*
X75595238Y-109630952D01*
X75690476Y-110011904D01*
X75690476Y-110297619D01*
X75595238Y-110678571D01*
X75500000Y-110869047D01*
X75309523Y-111059523D01*
X75023809Y-111154761D01*
X74547619Y-111154761D01*
X77309523Y-111059523D02*
X77119047Y-111154761D01*
X76738095Y-111154761D01*
X76547619Y-111059523D01*
X76452380Y-110869047D01*
X76452380Y-110107142D01*
X76547619Y-109916666D01*
X76738095Y-109821428D01*
X77119047Y-109821428D01*
X77309523Y-109916666D01*
X77404761Y-110107142D01*
X77404761Y-110297619D01*
X76452380Y-110488095D01*
X78547619Y-111154761D02*
X78357142Y-111059523D01*
X78261904Y-110869047D01*
X78261904Y-109154761D01*
X80166666Y-111154761D02*
X80166666Y-110107142D01*
X80071428Y-109916666D01*
X79880952Y-109821428D01*
X79500000Y-109821428D01*
X79309523Y-109916666D01*
X80166666Y-111059523D02*
X79976190Y-111154761D01*
X79500000Y-111154761D01*
X79309523Y-111059523D01*
X79214285Y-110869047D01*
X79214285Y-110678571D01*
X79309523Y-110488095D01*
X79500000Y-110392857D01*
X79976190Y-110392857D01*
X80166666Y-110297619D01*
X80928571Y-109821428D02*
X81404761Y-111154761D01*
X81880952Y-109821428D02*
X81404761Y-111154761D01*
X81214285Y-111630952D01*
X81119047Y-111726190D01*
X80928571Y-111821428D01*
X84166666Y-111154761D02*
X84166666Y-109154761D01*
X84642857Y-109154761D01*
X84928571Y-109250000D01*
X85119047Y-109440476D01*
X85214285Y-109630952D01*
X85309523Y-110011904D01*
X85309523Y-110297619D01*
X85214285Y-110678571D01*
X85119047Y-110869047D01*
X84928571Y-111059523D01*
X84642857Y-111154761D01*
X84166666Y-111154761D01*
X86928571Y-111059523D02*
X86738095Y-111154761D01*
X86357142Y-111154761D01*
X86166666Y-111059523D01*
X86071428Y-110869047D01*
X86071428Y-110107142D01*
X86166666Y-109916666D01*
X86357142Y-109821428D01*
X86738095Y-109821428D01*
X86928571Y-109916666D01*
X87023809Y-110107142D01*
X87023809Y-110297619D01*
X86071428Y-110488095D01*
X87690476Y-109821428D02*
X88166666Y-111154761D01*
X88642857Y-109821428D01*
X89404761Y-111154761D02*
X89404761Y-109821428D01*
X89404761Y-109154761D02*
X89309523Y-109250000D01*
X89404761Y-109345238D01*
X89500000Y-109250000D01*
X89404761Y-109154761D01*
X89404761Y-109345238D01*
X91214285Y-111059523D02*
X91023809Y-111154761D01*
X90642857Y-111154761D01*
X90452380Y-111059523D01*
X90357142Y-110964285D01*
X90261904Y-110773809D01*
X90261904Y-110202380D01*
X90357142Y-110011904D01*
X90452380Y-109916666D01*
X90642857Y-109821428D01*
X91023809Y-109821428D01*
X91214285Y-109916666D01*
X92833333Y-111059523D02*
X92642857Y-111154761D01*
X92261904Y-111154761D01*
X92071428Y-111059523D01*
X91976190Y-110869047D01*
X91976190Y-110107142D01*
X92071428Y-109916666D01*
X92261904Y-109821428D01*
X92642857Y-109821428D01*
X92833333Y-109916666D01*
X92928571Y-110107142D01*
X92928571Y-110297619D01*
X91976190Y-110488095D01*
D10*
X139743392Y-71839285D02*
X139837142Y-71089285D01*
X140015714Y-71089285D01*
X140118392Y-71125000D01*
X140180892Y-71196428D01*
X140207678Y-71267857D01*
X140225535Y-71410714D01*
X140212142Y-71517857D01*
X140158571Y-71660714D01*
X140113928Y-71732142D01*
X140033571Y-71803571D01*
X139921964Y-71839285D01*
X139743392Y-71839285D01*
X140587142Y-71089285D02*
X140511250Y-71696428D01*
X140538035Y-71767857D01*
X140569285Y-71803571D01*
X140636250Y-71839285D01*
X140779107Y-71839285D01*
X140855000Y-71803571D01*
X140895178Y-71767857D01*
X140939821Y-71696428D01*
X141015714Y-71089285D01*
X141328214Y-71446428D02*
X141578214Y-71446428D01*
X141636250Y-71839285D02*
X141279107Y-71839285D01*
X141372857Y-71089285D01*
X141730000Y-71089285D01*
X71585714Y-140701785D02*
X71728571Y-140701785D01*
X71795535Y-140737500D01*
X71858035Y-140808928D01*
X71875892Y-140951785D01*
X71844642Y-141201785D01*
X71791071Y-141344642D01*
X71710714Y-141416071D01*
X71634821Y-141451785D01*
X71491964Y-141451785D01*
X71425000Y-141416071D01*
X71362500Y-141344642D01*
X71344642Y-141201785D01*
X71375892Y-140951785D01*
X71429464Y-140808928D01*
X71509821Y-140737500D01*
X71585714Y-140701785D01*
X72491964Y-141451785D02*
X72134821Y-141451785D01*
X72228571Y-140701785D01*
X72791071Y-141058928D02*
X73041071Y-141058928D01*
X73099107Y-141451785D02*
X72741964Y-141451785D01*
X72835714Y-140701785D01*
X73192857Y-140701785D01*
X73420535Y-141451785D02*
X73514285Y-140701785D01*
X73692857Y-140701785D01*
X73795535Y-140737500D01*
X73858035Y-140808928D01*
X73884821Y-140880357D01*
X73902678Y-141023214D01*
X73889285Y-141130357D01*
X73835714Y-141273214D01*
X73791071Y-141344642D01*
X73710714Y-141416071D01*
X73599107Y-141451785D01*
X73420535Y-141451785D01*
X70134821Y-142726785D02*
X70228571Y-141976785D01*
X70407142Y-141976785D01*
X70509821Y-142012500D01*
X70572321Y-142083928D01*
X70599107Y-142155357D01*
X70616964Y-142298214D01*
X70603571Y-142405357D01*
X70550000Y-142548214D01*
X70505357Y-142619642D01*
X70425000Y-142691071D01*
X70313392Y-142726785D01*
X70134821Y-142726785D01*
X70884821Y-142726785D02*
X70947321Y-142226785D01*
X70978571Y-141976785D02*
X70938392Y-142012500D01*
X70969642Y-142048214D01*
X71009821Y-142012500D01*
X70978571Y-141976785D01*
X70969642Y-142048214D01*
X71210714Y-142691071D02*
X71277678Y-142726785D01*
X71420535Y-142726785D01*
X71496428Y-142691071D01*
X71541071Y-142619642D01*
X71545535Y-142583928D01*
X71518750Y-142512500D01*
X71451785Y-142476785D01*
X71344642Y-142476785D01*
X71277678Y-142441071D01*
X71250892Y-142369642D01*
X71255357Y-142333928D01*
X71300000Y-142262500D01*
X71375892Y-142226785D01*
X71483035Y-142226785D01*
X71550000Y-142262500D01*
X71911607Y-142226785D02*
X71817857Y-142976785D01*
X71907142Y-142262500D02*
X71983035Y-142226785D01*
X72125892Y-142226785D01*
X72192857Y-142262500D01*
X72224107Y-142298214D01*
X72250892Y-142369642D01*
X72224107Y-142583928D01*
X72179464Y-142655357D01*
X72139285Y-142691071D01*
X72063392Y-142726785D01*
X71920535Y-142726785D01*
X71853571Y-142691071D01*
X72634821Y-142726785D02*
X72567857Y-142691071D01*
X72541071Y-142619642D01*
X72621428Y-141976785D01*
X73241964Y-142726785D02*
X73291071Y-142333928D01*
X73264285Y-142262500D01*
X73197321Y-142226785D01*
X73054464Y-142226785D01*
X72978571Y-142262500D01*
X73246428Y-142691071D02*
X73170535Y-142726785D01*
X72991964Y-142726785D01*
X72925000Y-142691071D01*
X72898214Y-142619642D01*
X72907142Y-142548214D01*
X72951785Y-142476785D01*
X73027678Y-142441071D01*
X73206250Y-142441071D01*
X73282142Y-142405357D01*
X73590178Y-142226785D02*
X73706250Y-142726785D01*
X73947321Y-142226785D02*
X73706250Y-142726785D01*
X73612500Y-142905357D01*
X73572321Y-142941071D01*
X73496428Y-142976785D01*
X88247857Y-139339285D02*
X88404107Y-140089285D01*
X88747857Y-139339285D01*
X88904107Y-140089285D02*
X88966607Y-139589285D01*
X88997857Y-139339285D02*
X88957678Y-139375000D01*
X88988928Y-139410714D01*
X89029107Y-139375000D01*
X88997857Y-139339285D01*
X88988928Y-139410714D01*
X89323750Y-139589285D02*
X89261250Y-140089285D01*
X89314821Y-139660714D02*
X89355000Y-139625000D01*
X89430892Y-139589285D01*
X89538035Y-139589285D01*
X89605000Y-139625000D01*
X89631785Y-139696428D01*
X89582678Y-140089285D01*
X85408571Y-139339285D02*
X85872857Y-139339285D01*
X85587142Y-139625000D01*
X85694285Y-139625000D01*
X85761250Y-139660714D01*
X85792500Y-139696428D01*
X85819285Y-139767857D01*
X85796964Y-139946428D01*
X85752321Y-140017857D01*
X85712142Y-140053571D01*
X85636250Y-140089285D01*
X85421964Y-140089285D01*
X85355000Y-140053571D01*
X85323750Y-140017857D01*
X86109464Y-140017857D02*
X86140714Y-140053571D01*
X86100535Y-140089285D01*
X86069285Y-140053571D01*
X86109464Y-140017857D01*
X86100535Y-140089285D01*
X86480000Y-139339285D02*
X86944285Y-139339285D01*
X86658571Y-139625000D01*
X86765714Y-139625000D01*
X86832678Y-139660714D01*
X86863928Y-139696428D01*
X86890714Y-139767857D01*
X86868392Y-139946428D01*
X86823750Y-140017857D01*
X86783571Y-140053571D01*
X86707678Y-140089285D01*
X86493392Y-140089285D01*
X86426428Y-140053571D01*
X86395178Y-140017857D01*
X87158571Y-139339285D02*
X87314821Y-140089285D01*
X87658571Y-139339285D01*
X83189821Y-139375000D02*
X83122857Y-139339285D01*
X83015714Y-139339285D01*
X82904107Y-139375000D01*
X82823750Y-139446428D01*
X82779107Y-139517857D01*
X82725535Y-139660714D01*
X82712142Y-139767857D01*
X82730000Y-139910714D01*
X82756785Y-139982142D01*
X82819285Y-140053571D01*
X82921964Y-140089285D01*
X82993392Y-140089285D01*
X83105000Y-140053571D01*
X83145178Y-140017857D01*
X83176428Y-139767857D01*
X83033571Y-139767857D01*
X83457678Y-140089285D02*
X83551428Y-139339285D01*
X83886250Y-140089285D01*
X83980000Y-139339285D01*
X84243392Y-140089285D02*
X84337142Y-139339285D01*
X84515714Y-139339285D01*
X84618392Y-139375000D01*
X84680892Y-139446428D01*
X84707678Y-139517857D01*
X84725535Y-139660714D01*
X84712142Y-139767857D01*
X84658571Y-139910714D01*
X84613928Y-139982142D01*
X84533571Y-140053571D01*
X84421964Y-140089285D01*
X84243392Y-140089285D01*
X80761250Y-140089285D02*
X80555892Y-139732142D01*
X80332678Y-140089285D02*
X80426428Y-139339285D01*
X80712142Y-139339285D01*
X80779107Y-139375000D01*
X80810357Y-139410714D01*
X80837142Y-139482142D01*
X80823750Y-139589285D01*
X80779107Y-139660714D01*
X80738928Y-139696428D01*
X80663035Y-139732142D01*
X80377321Y-139732142D01*
X81051428Y-140053571D02*
X81154107Y-140089285D01*
X81332678Y-140089285D01*
X81408571Y-140053571D01*
X81448750Y-140017857D01*
X81493392Y-139946428D01*
X81502321Y-139875000D01*
X81475535Y-139803571D01*
X81444285Y-139767857D01*
X81377321Y-139732142D01*
X81238928Y-139696428D01*
X81171964Y-139660714D01*
X81140714Y-139625000D01*
X81113928Y-139553571D01*
X81122857Y-139482142D01*
X81167500Y-139410714D01*
X81207678Y-139375000D01*
X81283571Y-139339285D01*
X81462142Y-139339285D01*
X81564821Y-139375000D01*
X81783571Y-139339285D02*
X82212142Y-139339285D01*
X81904107Y-140089285D02*
X81997857Y-139339285D01*
X75015714Y-140053571D02*
X75118392Y-140089285D01*
X75296964Y-140089285D01*
X75372857Y-140053571D01*
X75413035Y-140017857D01*
X75457678Y-139946428D01*
X75466607Y-139875000D01*
X75439821Y-139803571D01*
X75408571Y-139767857D01*
X75341607Y-139732142D01*
X75203214Y-139696428D01*
X75136250Y-139660714D01*
X75105000Y-139625000D01*
X75078214Y-139553571D01*
X75087142Y-139482142D01*
X75131785Y-139410714D01*
X75171964Y-139375000D01*
X75247857Y-139339285D01*
X75426428Y-139339285D01*
X75529107Y-139375000D01*
X75761250Y-140089285D02*
X75855000Y-139339285D01*
X76033571Y-139339285D01*
X76136250Y-139375000D01*
X76198750Y-139446428D01*
X76225535Y-139517857D01*
X76243392Y-139660714D01*
X76230000Y-139767857D01*
X76176428Y-139910714D01*
X76131785Y-139982142D01*
X76051428Y-140053571D01*
X75939821Y-140089285D01*
X75761250Y-140089285D01*
X76502321Y-139875000D02*
X76859464Y-139875000D01*
X76404107Y-140089285D02*
X76747857Y-139339285D01*
X76904107Y-140089285D01*
X77783571Y-140053571D02*
X77886250Y-140089285D01*
X78064821Y-140089285D01*
X78140714Y-140053571D01*
X78180892Y-140017857D01*
X78225535Y-139946428D01*
X78234464Y-139875000D01*
X78207678Y-139803571D01*
X78176428Y-139767857D01*
X78109464Y-139732142D01*
X77971071Y-139696428D01*
X77904107Y-139660714D01*
X77872857Y-139625000D01*
X77846071Y-139553571D01*
X77855000Y-139482142D01*
X77899642Y-139410714D01*
X77939821Y-139375000D01*
X78015714Y-139339285D01*
X78194285Y-139339285D01*
X78296964Y-139375000D01*
X78966607Y-140017857D02*
X78926428Y-140053571D01*
X78814821Y-140089285D01*
X78743392Y-140089285D01*
X78640714Y-140053571D01*
X78578214Y-139982142D01*
X78551428Y-139910714D01*
X78533571Y-139767857D01*
X78546964Y-139660714D01*
X78600535Y-139517857D01*
X78645178Y-139446428D01*
X78725535Y-139375000D01*
X78837142Y-139339285D01*
X78908571Y-139339285D01*
X79011250Y-139375000D01*
X79042500Y-139410714D01*
X79636250Y-140089285D02*
X79279107Y-140089285D01*
X79372857Y-139339285D01*
X100511250Y-121654285D02*
X100605000Y-120904285D01*
X100783571Y-120904285D01*
X100886250Y-120940000D01*
X100948750Y-121011428D01*
X100975535Y-121082857D01*
X100993392Y-121225714D01*
X100980000Y-121332857D01*
X100926428Y-121475714D01*
X100881785Y-121547142D01*
X100801428Y-121618571D01*
X100689821Y-121654285D01*
X100511250Y-121654285D01*
X101654107Y-121654285D02*
X101225535Y-121654285D01*
X101439821Y-121654285D02*
X101533571Y-120904285D01*
X101448750Y-121011428D01*
X101368392Y-121082857D01*
X101292500Y-121118571D01*
X101997857Y-120904285D02*
X102462142Y-120904285D01*
X102176428Y-121190000D01*
X102283571Y-121190000D01*
X102350535Y-121225714D01*
X102381785Y-121261428D01*
X102408571Y-121332857D01*
X102386250Y-121511428D01*
X102341607Y-121582857D01*
X102301428Y-121618571D01*
X102225535Y-121654285D01*
X102011250Y-121654285D01*
X101944285Y-121618571D01*
X101913035Y-121582857D01*
X106102395Y-82377380D02*
X105530967Y-82377380D01*
X105816681Y-82377380D02*
X105941681Y-81377380D01*
X105828586Y-81520238D01*
X105721443Y-81615476D01*
X105620252Y-81663095D01*
X107042872Y-81710714D02*
X106959538Y-82377380D01*
X106852395Y-81329761D02*
X106525014Y-82044047D01*
X107144062Y-82044047D01*
X108245252Y-82377380D02*
X108370252Y-81377380D01*
X108322633Y-81758333D02*
X108423824Y-81710714D01*
X108614300Y-81710714D01*
X108703586Y-81758333D01*
X108745252Y-81805952D01*
X108780967Y-81901190D01*
X108745252Y-82186904D01*
X108685729Y-82282142D01*
X108632157Y-82329761D01*
X108530967Y-82377380D01*
X108340491Y-82377380D01*
X108251205Y-82329761D01*
X109150014Y-82377380D02*
X109233348Y-81710714D01*
X109275014Y-81377380D02*
X109221443Y-81425000D01*
X109263110Y-81472619D01*
X109316681Y-81425000D01*
X109275014Y-81377380D01*
X109263110Y-81472619D01*
X109566681Y-81710714D02*
X109947633Y-81710714D01*
X109751205Y-81377380D02*
X109644062Y-82234523D01*
X109679776Y-82329761D01*
X109769062Y-82377380D01*
X109864300Y-82377380D01*
X105751205Y-83027380D02*
X105560729Y-83027380D01*
X105459538Y-83075000D01*
X105405967Y-83122619D01*
X105292872Y-83265476D01*
X105221443Y-83455952D01*
X105173824Y-83836904D01*
X105209538Y-83932142D01*
X105251205Y-83979761D01*
X105340491Y-84027380D01*
X105530967Y-84027380D01*
X105632157Y-83979761D01*
X105685729Y-83932142D01*
X105745252Y-83836904D01*
X105775014Y-83598809D01*
X105739300Y-83503571D01*
X105697633Y-83455952D01*
X105608348Y-83408333D01*
X105417872Y-83408333D01*
X105316681Y-83455952D01*
X105263110Y-83503571D01*
X105203586Y-83598809D01*
X106911919Y-84027380D02*
X107036919Y-83027380D01*
X107280967Y-83741666D01*
X107703586Y-83027380D01*
X107578586Y-84027380D01*
X108013110Y-83979761D02*
X108102395Y-84027380D01*
X108292872Y-84027380D01*
X108394062Y-83979761D01*
X108453586Y-83884523D01*
X108459538Y-83836904D01*
X108423824Y-83741666D01*
X108334538Y-83694047D01*
X108191681Y-83694047D01*
X108102395Y-83646428D01*
X108066681Y-83551190D01*
X108072633Y-83503571D01*
X108132157Y-83408333D01*
X108233348Y-83360714D01*
X108376205Y-83360714D01*
X108465491Y-83408333D01*
X108947633Y-83360714D02*
X108822633Y-84360714D01*
X108941681Y-83408333D02*
X109042872Y-83360714D01*
X109233348Y-83360714D01*
X109322633Y-83408333D01*
X109364300Y-83455952D01*
X109400014Y-83551190D01*
X109364300Y-83836904D01*
X109304776Y-83932142D01*
X109251205Y-83979761D01*
X109150014Y-84027380D01*
X108959538Y-84027380D01*
X108870252Y-83979761D01*
X109727395Y-83979761D02*
X109816681Y-84027380D01*
X110007157Y-84027380D01*
X110108348Y-83979761D01*
X110167872Y-83884523D01*
X110173824Y-83836904D01*
X110138110Y-83741666D01*
X110048824Y-83694047D01*
X109905967Y-83694047D01*
X109816681Y-83646428D01*
X109780967Y-83551190D01*
X109786919Y-83503571D01*
X109846443Y-83408333D01*
X109947633Y-83360714D01*
X110090491Y-83360714D01*
X110179776Y-83408333D01*
X98750000Y-52000000D02*
X98250000Y-52250000D01*
X98750000Y-52000000D02*
X98250000Y-51750000D01*
X86250000Y-52000000D02*
X86750000Y-52250000D01*
X86250000Y-52000000D02*
X86750000Y-51750000D01*
X88500000Y-52000000D02*
X86250000Y-52000000D01*
X98750000Y-52000000D02*
X96000000Y-52000000D01*
X94619047Y-51571428D02*
X95380952Y-51571428D01*
X94619047Y-52321428D02*
X95380952Y-52321428D01*
X95000000Y-52702380D02*
X95000000Y-51940476D01*
X93986889Y-52452380D02*
X93933318Y-52500000D01*
X93832127Y-52547619D01*
X93594032Y-52547619D01*
X93504747Y-52500000D01*
X93463080Y-52452380D01*
X93427366Y-52357142D01*
X93439270Y-52261904D01*
X93504747Y-52119047D01*
X94147604Y-51547619D01*
X93528556Y-51547619D01*
X93088080Y-51642857D02*
X93046413Y-51595238D01*
X93099985Y-51547619D01*
X93141651Y-51595238D01*
X93088080Y-51642857D01*
X93099985Y-51547619D01*
X92022604Y-52547619D02*
X92498794Y-52547619D01*
X92605937Y-52071428D01*
X92552366Y-52119047D01*
X92451175Y-52166666D01*
X92213080Y-52166666D01*
X92123794Y-52119047D01*
X92082127Y-52071428D01*
X92046413Y-51976190D01*
X92076175Y-51738095D01*
X92135699Y-51642857D01*
X92189270Y-51595238D01*
X92290461Y-51547619D01*
X92528556Y-51547619D01*
X92617842Y-51595238D01*
X92659508Y-51642857D01*
X91689270Y-52547619D02*
X91480937Y-51547619D01*
X91022604Y-52547619D01*
X90052366Y-51547619D02*
X89969032Y-52214285D01*
X89927366Y-52547619D02*
X89980937Y-52500000D01*
X89939270Y-52452380D01*
X89885699Y-52500000D01*
X89927366Y-52547619D01*
X89939270Y-52452380D01*
X89492842Y-52214285D02*
X89576175Y-51547619D01*
X89504747Y-52119047D02*
X89451175Y-52166666D01*
X89349985Y-52214285D01*
X89207127Y-52214285D01*
X89117842Y-52166666D01*
X89082127Y-52071428D01*
X89147604Y-51547619D01*
X108750000Y-51250000D02*
X108250000Y-51250000D01*
X108750000Y-52750000D02*
X108750000Y-51250000D01*
X110000000Y-52750000D02*
X108750000Y-52750000D01*
X110000000Y-51250000D02*
X110000000Y-52750000D01*
X110500000Y-51250000D02*
X110000000Y-51250000D01*
D13*
X112089397Y-51660714D02*
X112017968Y-51660714D01*
X111951004Y-51625000D01*
X111919754Y-51589285D01*
X111892968Y-51517857D01*
X111875111Y-51375000D01*
X111897433Y-51196428D01*
X111951004Y-51053571D01*
X111995647Y-50982142D01*
X112035825Y-50946428D01*
X112111718Y-50910714D01*
X112183147Y-50910714D01*
X112250111Y-50946428D01*
X112281361Y-50982142D01*
X112308147Y-51053571D01*
X112326004Y-51196428D01*
X112303683Y-51375000D01*
X112250111Y-51517857D01*
X112205468Y-51589285D01*
X112165290Y-51625000D01*
X112089397Y-51660714D01*
X111625111Y-51660714D02*
X111468861Y-50910714D01*
X111125111Y-51660714D01*
X112839397Y-52910714D02*
X112375111Y-52910714D01*
X112660825Y-52625000D01*
X112553683Y-52625000D01*
X112486718Y-52589285D01*
X112455468Y-52553571D01*
X112428683Y-52482142D01*
X112451004Y-52303571D01*
X112495647Y-52232142D01*
X112535825Y-52196428D01*
X112611718Y-52160714D01*
X112826004Y-52160714D01*
X112892968Y-52196428D01*
X112924218Y-52232142D01*
X112138504Y-52232142D02*
X112107254Y-52196428D01*
X112147433Y-52160714D01*
X112178683Y-52196428D01*
X112138504Y-52232142D01*
X112147433Y-52160714D01*
X111767968Y-52910714D02*
X111303683Y-52910714D01*
X111589397Y-52625000D01*
X111482254Y-52625000D01*
X111415290Y-52589285D01*
X111384040Y-52553571D01*
X111357254Y-52482142D01*
X111379575Y-52303571D01*
X111424218Y-52232142D01*
X111464397Y-52196428D01*
X111540290Y-52160714D01*
X111754575Y-52160714D01*
X111821540Y-52196428D01*
X111852790Y-52232142D01*
X111089397Y-52910714D02*
X110933147Y-52160714D01*
X110589397Y-52910714D01*
D10*
X61250000Y-61750000D02*
X63000000Y-63500000D01*
X55966071Y-71326785D02*
X55966071Y-71076785D01*
X55573214Y-71027678D02*
X56323214Y-71121428D01*
X56323214Y-71478571D01*
X55573214Y-71777678D02*
X55608928Y-71710714D01*
X55644642Y-71679464D01*
X55716071Y-71652678D01*
X55930357Y-71679464D01*
X56001785Y-71724107D01*
X56037500Y-71764285D01*
X56073214Y-71840178D01*
X56073214Y-71947321D01*
X56037500Y-72014285D01*
X56001785Y-72045535D01*
X55930357Y-72072321D01*
X55716071Y-72045535D01*
X55644642Y-72000892D01*
X55608928Y-71960714D01*
X55573214Y-71884821D01*
X55573214Y-71777678D01*
X55573214Y-72349107D02*
X56073214Y-72411607D01*
X55930357Y-72393750D02*
X56001785Y-72438392D01*
X56037500Y-72478571D01*
X56073214Y-72554464D01*
X56073214Y-72625892D01*
X55608928Y-73675000D02*
X55573214Y-73599107D01*
X55573214Y-73456250D01*
X55608928Y-73389285D01*
X55680357Y-73362500D01*
X55966071Y-73398214D01*
X56037500Y-73442857D01*
X56073214Y-73518750D01*
X56073214Y-73661607D01*
X56037500Y-73728571D01*
X55966071Y-73755357D01*
X55894642Y-73746428D01*
X55823214Y-73380357D01*
X55573214Y-73956250D02*
X56073214Y-74411607D01*
X56073214Y-74018750D02*
X55573214Y-74349107D01*
X56073214Y-74590178D02*
X56073214Y-74875892D01*
X56323214Y-74728571D02*
X55680357Y-74648214D01*
X55608928Y-74675000D01*
X55573214Y-74741964D01*
X55573214Y-74813392D01*
X55608928Y-75353571D02*
X55573214Y-75277678D01*
X55573214Y-75134821D01*
X55608928Y-75067857D01*
X55680357Y-75041071D01*
X55966071Y-75076785D01*
X56037500Y-75121428D01*
X56073214Y-75197321D01*
X56073214Y-75340178D01*
X56037500Y-75407142D01*
X55966071Y-75433928D01*
X55894642Y-75425000D01*
X55823214Y-75058928D01*
X55573214Y-75706250D02*
X56073214Y-75768750D01*
X55930357Y-75750892D02*
X56001785Y-75795535D01*
X56037500Y-75835714D01*
X56073214Y-75911607D01*
X56073214Y-75983035D01*
X56073214Y-76233035D02*
X55573214Y-76170535D01*
X56001785Y-76224107D02*
X56037500Y-76264285D01*
X56073214Y-76340178D01*
X56073214Y-76447321D01*
X56037500Y-76514285D01*
X55966071Y-76541071D01*
X55573214Y-76491964D01*
X55573214Y-77170535D02*
X55966071Y-77219642D01*
X56037500Y-77192857D01*
X56073214Y-77125892D01*
X56073214Y-76983035D01*
X56037500Y-76907142D01*
X55608928Y-77175000D02*
X55573214Y-77099107D01*
X55573214Y-76920535D01*
X55608928Y-76853571D01*
X55680357Y-76826785D01*
X55751785Y-76835714D01*
X55823214Y-76880357D01*
X55858928Y-76956250D01*
X55858928Y-77134821D01*
X55894642Y-77210714D01*
X55573214Y-77634821D02*
X55608928Y-77567857D01*
X55680357Y-77541071D01*
X56323214Y-77621428D01*
X54333928Y-68603571D02*
X54298214Y-68670535D01*
X54298214Y-68813392D01*
X54333928Y-68889285D01*
X54405357Y-68933928D01*
X54441071Y-68938392D01*
X54512500Y-68911607D01*
X54548214Y-68844642D01*
X54548214Y-68737500D01*
X54583928Y-68670535D01*
X54655357Y-68643750D01*
X54691071Y-68648214D01*
X54762500Y-68692857D01*
X54798214Y-68768750D01*
X54798214Y-68875892D01*
X54762500Y-68942857D01*
X54798214Y-69625892D02*
X54298214Y-69563392D01*
X54798214Y-69304464D02*
X54405357Y-69255357D01*
X54333928Y-69282142D01*
X54298214Y-69349107D01*
X54298214Y-69456250D01*
X54333928Y-69532142D01*
X54369642Y-69572321D01*
X54798214Y-69983035D02*
X54048214Y-69889285D01*
X54762500Y-69978571D02*
X54798214Y-70054464D01*
X54798214Y-70197321D01*
X54762500Y-70264285D01*
X54726785Y-70295535D01*
X54655357Y-70322321D01*
X54441071Y-70295535D01*
X54369642Y-70250892D01*
X54333928Y-70210714D01*
X54298214Y-70134821D01*
X54298214Y-69991964D01*
X54333928Y-69925000D01*
X54798214Y-70661607D02*
X54048214Y-70567857D01*
X54762500Y-70657142D02*
X54798214Y-70733035D01*
X54798214Y-70875892D01*
X54762500Y-70942857D01*
X54726785Y-70974107D01*
X54655357Y-71000892D01*
X54441071Y-70974107D01*
X54369642Y-70929464D01*
X54333928Y-70889285D01*
X54298214Y-70813392D01*
X54298214Y-70670535D01*
X54333928Y-70603571D01*
X54298214Y-71384821D02*
X54333928Y-71317857D01*
X54405357Y-71291071D01*
X55048214Y-71371428D01*
X54298214Y-71670535D02*
X54798214Y-71733035D01*
X55048214Y-71764285D02*
X55012500Y-71724107D01*
X54976785Y-71755357D01*
X55012500Y-71795535D01*
X55048214Y-71764285D01*
X54976785Y-71755357D01*
X54333928Y-72317857D02*
X54298214Y-72241964D01*
X54298214Y-72099107D01*
X54333928Y-72032142D01*
X54405357Y-72005357D01*
X54691071Y-72041071D01*
X54762500Y-72085714D01*
X54798214Y-72161607D01*
X54798214Y-72304464D01*
X54762500Y-72371428D01*
X54691071Y-72398214D01*
X54619642Y-72389285D01*
X54548214Y-72023214D01*
X54333928Y-72639285D02*
X54298214Y-72706250D01*
X54298214Y-72849107D01*
X54333928Y-72925000D01*
X54405357Y-72969642D01*
X54441071Y-72974107D01*
X54512500Y-72947321D01*
X54548214Y-72880357D01*
X54548214Y-72773214D01*
X54583928Y-72706250D01*
X54655357Y-72679464D01*
X54691071Y-72683928D01*
X54762500Y-72728571D01*
X54798214Y-72804464D01*
X54798214Y-72911607D01*
X54762500Y-72978571D01*
X54333928Y-73317857D02*
X54298214Y-73313392D01*
X54226785Y-73268750D01*
X54191071Y-73228571D01*
X54298214Y-74527678D02*
X55048214Y-74621428D01*
X54333928Y-74532142D02*
X54298214Y-74456250D01*
X54298214Y-74313392D01*
X54333928Y-74246428D01*
X54369642Y-74215178D01*
X54441071Y-74188392D01*
X54655357Y-74215178D01*
X54726785Y-74259821D01*
X54762500Y-74300000D01*
X54798214Y-74375892D01*
X54798214Y-74518750D01*
X54762500Y-74585714D01*
X54298214Y-74991964D02*
X54333928Y-74925000D01*
X54369642Y-74893750D01*
X54441071Y-74866964D01*
X54655357Y-74893750D01*
X54726785Y-74938392D01*
X54762500Y-74978571D01*
X54798214Y-75054464D01*
X54798214Y-75161607D01*
X54762500Y-75228571D01*
X54726785Y-75259821D01*
X54655357Y-75286607D01*
X54441071Y-75259821D01*
X54369642Y-75215178D01*
X54333928Y-75175000D01*
X54298214Y-75099107D01*
X54298214Y-74991964D01*
X54798214Y-76197321D02*
X54298214Y-76134821D01*
X54726785Y-76188392D02*
X54762500Y-76228571D01*
X54798214Y-76304464D01*
X54798214Y-76411607D01*
X54762500Y-76478571D01*
X54691071Y-76505357D01*
X54298214Y-76456250D01*
X54298214Y-76920535D02*
X54333928Y-76853571D01*
X54369642Y-76822321D01*
X54441071Y-76795535D01*
X54655357Y-76822321D01*
X54726785Y-76866964D01*
X54762500Y-76907142D01*
X54798214Y-76983035D01*
X54798214Y-77090178D01*
X54762500Y-77157142D01*
X54726785Y-77188392D01*
X54655357Y-77215178D01*
X54441071Y-77188392D01*
X54369642Y-77143750D01*
X54333928Y-77103571D01*
X54298214Y-77027678D01*
X54298214Y-76920535D01*
X54798214Y-77447321D02*
X54798214Y-77733035D01*
X55048214Y-77585714D02*
X54405357Y-77505357D01*
X54333928Y-77532142D01*
X54298214Y-77599107D01*
X54298214Y-77670535D01*
X53523214Y-64625892D02*
X52773214Y-64532142D01*
X53487500Y-64621428D02*
X53523214Y-64697321D01*
X53523214Y-64840178D01*
X53487500Y-64907142D01*
X53451785Y-64938392D01*
X53380357Y-64965178D01*
X53166071Y-64938392D01*
X53094642Y-64893750D01*
X53058928Y-64853571D01*
X53023214Y-64777678D01*
X53023214Y-64634821D01*
X53058928Y-64567857D01*
X53023214Y-65349107D02*
X53058928Y-65282142D01*
X53094642Y-65250892D01*
X53166071Y-65224107D01*
X53380357Y-65250892D01*
X53451785Y-65295535D01*
X53487500Y-65335714D01*
X53523214Y-65411607D01*
X53523214Y-65518750D01*
X53487500Y-65585714D01*
X53451785Y-65616964D01*
X53380357Y-65643750D01*
X53166071Y-65616964D01*
X53094642Y-65572321D01*
X53058928Y-65532142D01*
X53023214Y-65456250D01*
X53023214Y-65349107D01*
X53523214Y-65983035D02*
X52773214Y-65889285D01*
X53487500Y-65978571D02*
X53523214Y-66054464D01*
X53523214Y-66197321D01*
X53487500Y-66264285D01*
X53451785Y-66295535D01*
X53380357Y-66322321D01*
X53166071Y-66295535D01*
X53094642Y-66250892D01*
X53058928Y-66210714D01*
X53023214Y-66134821D01*
X53023214Y-65991964D01*
X53058928Y-65925000D01*
X53523214Y-66983035D02*
X53023214Y-66920535D01*
X53523214Y-66661607D02*
X53130357Y-66612500D01*
X53058928Y-66639285D01*
X53023214Y-66706250D01*
X53023214Y-66813392D01*
X53058928Y-66889285D01*
X53094642Y-66929464D01*
X53023214Y-67384821D02*
X53058928Y-67317857D01*
X53130357Y-67291071D01*
X53773214Y-67371428D01*
X53023214Y-67991964D02*
X53416071Y-68041071D01*
X53487500Y-68014285D01*
X53523214Y-67947321D01*
X53523214Y-67804464D01*
X53487500Y-67728571D01*
X53058928Y-67996428D02*
X53023214Y-67920535D01*
X53023214Y-67741964D01*
X53058928Y-67675000D01*
X53130357Y-67648214D01*
X53201785Y-67657142D01*
X53273214Y-67701785D01*
X53308928Y-67777678D01*
X53308928Y-67956250D01*
X53344642Y-68032142D01*
X53523214Y-68304464D02*
X53523214Y-68590178D01*
X53773214Y-68442857D02*
X53130357Y-68362500D01*
X53058928Y-68389285D01*
X53023214Y-68456250D01*
X53023214Y-68527678D01*
X53058928Y-69067857D02*
X53023214Y-68991964D01*
X53023214Y-68849107D01*
X53058928Y-68782142D01*
X53130357Y-68755357D01*
X53416071Y-68791071D01*
X53487500Y-68835714D01*
X53523214Y-68911607D01*
X53523214Y-69054464D01*
X53487500Y-69121428D01*
X53416071Y-69148214D01*
X53344642Y-69139285D01*
X53273214Y-68773214D01*
X53058928Y-70317857D02*
X53023214Y-70241964D01*
X53023214Y-70099107D01*
X53058928Y-70032142D01*
X53094642Y-70000892D01*
X53166071Y-69974107D01*
X53380357Y-70000892D01*
X53451785Y-70045535D01*
X53487500Y-70085714D01*
X53523214Y-70161607D01*
X53523214Y-70304464D01*
X53487500Y-70371428D01*
X53023214Y-70741964D02*
X53058928Y-70675000D01*
X53094642Y-70643750D01*
X53166071Y-70616964D01*
X53380357Y-70643750D01*
X53451785Y-70688392D01*
X53487500Y-70728571D01*
X53523214Y-70804464D01*
X53523214Y-70911607D01*
X53487500Y-70978571D01*
X53451785Y-71009821D01*
X53380357Y-71036607D01*
X53166071Y-71009821D01*
X53094642Y-70965178D01*
X53058928Y-70925000D01*
X53023214Y-70849107D01*
X53023214Y-70741964D01*
X53023214Y-71313392D02*
X53523214Y-71375892D01*
X53380357Y-71358035D02*
X53451785Y-71402678D01*
X53487500Y-71442857D01*
X53523214Y-71518750D01*
X53523214Y-71590178D01*
X53023214Y-71777678D02*
X53523214Y-71840178D01*
X53380357Y-71822321D02*
X53451785Y-71866964D01*
X53487500Y-71907142D01*
X53523214Y-71983035D01*
X53523214Y-72054464D01*
X53058928Y-72532142D02*
X53023214Y-72456250D01*
X53023214Y-72313392D01*
X53058928Y-72246428D01*
X53130357Y-72219642D01*
X53416071Y-72255357D01*
X53487500Y-72300000D01*
X53523214Y-72375892D01*
X53523214Y-72518750D01*
X53487500Y-72585714D01*
X53416071Y-72612500D01*
X53344642Y-72603571D01*
X53273214Y-72237500D01*
X53058928Y-72853571D02*
X53023214Y-72920535D01*
X53023214Y-73063392D01*
X53058928Y-73139285D01*
X53130357Y-73183928D01*
X53166071Y-73188392D01*
X53237500Y-73161607D01*
X53273214Y-73094642D01*
X53273214Y-72987500D01*
X53308928Y-72920535D01*
X53380357Y-72893750D01*
X53416071Y-72898214D01*
X53487500Y-72942857D01*
X53523214Y-73018750D01*
X53523214Y-73125892D01*
X53487500Y-73192857D01*
X53523214Y-73554464D02*
X52773214Y-73460714D01*
X53487500Y-73550000D02*
X53523214Y-73625892D01*
X53523214Y-73768750D01*
X53487500Y-73835714D01*
X53451785Y-73866964D01*
X53380357Y-73893750D01*
X53166071Y-73866964D01*
X53094642Y-73822321D01*
X53058928Y-73782142D01*
X53023214Y-73706250D01*
X53023214Y-73563392D01*
X53058928Y-73496428D01*
X53023214Y-74277678D02*
X53058928Y-74210714D01*
X53094642Y-74179464D01*
X53166071Y-74152678D01*
X53380357Y-74179464D01*
X53451785Y-74224107D01*
X53487500Y-74264285D01*
X53523214Y-74340178D01*
X53523214Y-74447321D01*
X53487500Y-74514285D01*
X53451785Y-74545535D01*
X53380357Y-74572321D01*
X53166071Y-74545535D01*
X53094642Y-74500892D01*
X53058928Y-74460714D01*
X53023214Y-74384821D01*
X53023214Y-74277678D01*
X53523214Y-74911607D02*
X53023214Y-74849107D01*
X53451785Y-74902678D02*
X53487500Y-74942857D01*
X53523214Y-75018750D01*
X53523214Y-75125892D01*
X53487500Y-75192857D01*
X53416071Y-75219642D01*
X53023214Y-75170535D01*
X53023214Y-75849107D02*
X53773214Y-75942857D01*
X53058928Y-75853571D02*
X53023214Y-75777678D01*
X53023214Y-75634821D01*
X53058928Y-75567857D01*
X53094642Y-75536607D01*
X53166071Y-75509821D01*
X53380357Y-75536607D01*
X53451785Y-75581250D01*
X53487500Y-75621428D01*
X53523214Y-75697321D01*
X53523214Y-75840178D01*
X53487500Y-75907142D01*
X53023214Y-76206250D02*
X53523214Y-76268750D01*
X53773214Y-76300000D02*
X53737500Y-76259821D01*
X53701785Y-76291071D01*
X53737500Y-76331250D01*
X53773214Y-76300000D01*
X53701785Y-76291071D01*
X53523214Y-76625892D02*
X53023214Y-76563392D01*
X53451785Y-76616964D02*
X53487500Y-76657142D01*
X53523214Y-76733035D01*
X53523214Y-76840178D01*
X53487500Y-76907142D01*
X53416071Y-76933928D01*
X53023214Y-76884821D01*
X53523214Y-77625892D02*
X52916071Y-77550000D01*
X52844642Y-77505357D01*
X52808928Y-77465178D01*
X52773214Y-77389285D01*
X52773214Y-77282142D01*
X52808928Y-77215178D01*
X53058928Y-77567857D02*
X53023214Y-77491964D01*
X53023214Y-77349107D01*
X53058928Y-77282142D01*
X53094642Y-77250892D01*
X53166071Y-77224107D01*
X53380357Y-77250892D01*
X53451785Y-77295535D01*
X53487500Y-77335714D01*
X53523214Y-77411607D01*
X53523214Y-77554464D01*
X53487500Y-77621428D01*
X51748214Y-65563392D02*
X52248214Y-65625892D01*
X52105357Y-65608035D02*
X52176785Y-65652678D01*
X52212500Y-65692857D01*
X52248214Y-65768750D01*
X52248214Y-65840178D01*
X51783928Y-66317857D02*
X51748214Y-66241964D01*
X51748214Y-66099107D01*
X51783928Y-66032142D01*
X51855357Y-66005357D01*
X52141071Y-66041071D01*
X52212500Y-66085714D01*
X52248214Y-66161607D01*
X52248214Y-66304464D01*
X52212500Y-66371428D01*
X52141071Y-66398214D01*
X52069642Y-66389285D01*
X51998214Y-66023214D01*
X52248214Y-67054464D02*
X51641071Y-66978571D01*
X51569642Y-66933928D01*
X51533928Y-66893750D01*
X51498214Y-66817857D01*
X51498214Y-66710714D01*
X51533928Y-66643750D01*
X51783928Y-66996428D02*
X51748214Y-66920535D01*
X51748214Y-66777678D01*
X51783928Y-66710714D01*
X51819642Y-66679464D01*
X51891071Y-66652678D01*
X52105357Y-66679464D01*
X52176785Y-66724107D01*
X52212500Y-66764285D01*
X52248214Y-66840178D01*
X52248214Y-66983035D01*
X52212500Y-67050000D01*
X52248214Y-67733035D02*
X51748214Y-67670535D01*
X52248214Y-67411607D02*
X51855357Y-67362500D01*
X51783928Y-67389285D01*
X51748214Y-67456250D01*
X51748214Y-67563392D01*
X51783928Y-67639285D01*
X51819642Y-67679464D01*
X51748214Y-68134821D02*
X51783928Y-68067857D01*
X51855357Y-68041071D01*
X52498214Y-68121428D01*
X51748214Y-68741964D02*
X52141071Y-68791071D01*
X52212500Y-68764285D01*
X52248214Y-68697321D01*
X52248214Y-68554464D01*
X52212500Y-68478571D01*
X51783928Y-68746428D02*
X51748214Y-68670535D01*
X51748214Y-68491964D01*
X51783928Y-68425000D01*
X51855357Y-68398214D01*
X51926785Y-68407142D01*
X51998214Y-68451785D01*
X52033928Y-68527678D01*
X52033928Y-68706250D01*
X52069642Y-68782142D01*
X52248214Y-69054464D02*
X52248214Y-69340178D01*
X52498214Y-69192857D02*
X51855357Y-69112500D01*
X51783928Y-69139285D01*
X51748214Y-69206250D01*
X51748214Y-69277678D01*
X51748214Y-69634821D02*
X51783928Y-69567857D01*
X51819642Y-69536607D01*
X51891071Y-69509821D01*
X52105357Y-69536607D01*
X52176785Y-69581250D01*
X52212500Y-69621428D01*
X52248214Y-69697321D01*
X52248214Y-69804464D01*
X52212500Y-69871428D01*
X52176785Y-69902678D01*
X52105357Y-69929464D01*
X51891071Y-69902678D01*
X51819642Y-69858035D01*
X51783928Y-69817857D01*
X51748214Y-69741964D01*
X51748214Y-69634821D01*
X51748214Y-70206250D02*
X52248214Y-70268750D01*
X52105357Y-70250892D02*
X52176785Y-70295535D01*
X52212500Y-70335714D01*
X52248214Y-70411607D01*
X52248214Y-70483035D01*
X51783928Y-70639285D02*
X51748214Y-70706250D01*
X51748214Y-70849107D01*
X51783928Y-70925000D01*
X51855357Y-70969642D01*
X51891071Y-70974107D01*
X51962500Y-70947321D01*
X51998214Y-70880357D01*
X51998214Y-70773214D01*
X52033928Y-70706250D01*
X52105357Y-70679464D01*
X52141071Y-70683928D01*
X52212500Y-70728571D01*
X52248214Y-70804464D01*
X52248214Y-70911607D01*
X52212500Y-70978571D01*
X51462500Y-72027678D02*
X51498214Y-71996428D01*
X51605357Y-71938392D01*
X51676785Y-71911607D01*
X51783928Y-71889285D01*
X51962500Y-71875892D01*
X52105357Y-71893750D01*
X52283928Y-71951785D01*
X52391071Y-72000892D01*
X52462500Y-72045535D01*
X52569642Y-72130357D01*
X52605357Y-72170535D01*
X51783928Y-72317857D02*
X51748214Y-72384821D01*
X51748214Y-72527678D01*
X51783928Y-72603571D01*
X51855357Y-72648214D01*
X51891071Y-72652678D01*
X51962500Y-72625892D01*
X51998214Y-72558928D01*
X51998214Y-72451785D01*
X52033928Y-72384821D01*
X52105357Y-72358035D01*
X52141071Y-72362500D01*
X52212500Y-72407142D01*
X52248214Y-72483035D01*
X52248214Y-72590178D01*
X52212500Y-72657142D01*
X51783928Y-73246428D02*
X51748214Y-73170535D01*
X51748214Y-73027678D01*
X51783928Y-72960714D01*
X51855357Y-72933928D01*
X52141071Y-72969642D01*
X52212500Y-73014285D01*
X52248214Y-73090178D01*
X52248214Y-73233035D01*
X52212500Y-73300000D01*
X52141071Y-73326785D01*
X52069642Y-73317857D01*
X51998214Y-72951785D01*
X51783928Y-73889285D02*
X51748214Y-73813392D01*
X51748214Y-73670535D01*
X51783928Y-73603571D01*
X51855357Y-73576785D01*
X52141071Y-73612500D01*
X52212500Y-73657142D01*
X52248214Y-73733035D01*
X52248214Y-73875892D01*
X52212500Y-73942857D01*
X52141071Y-73969642D01*
X52069642Y-73960714D01*
X51998214Y-73594642D01*
X51748214Y-74813392D02*
X52498214Y-74907142D01*
X52212500Y-74871428D02*
X52248214Y-74947321D01*
X52248214Y-75090178D01*
X52212500Y-75157142D01*
X52176785Y-75188392D01*
X52105357Y-75215178D01*
X51891071Y-75188392D01*
X51819642Y-75143750D01*
X51783928Y-75103571D01*
X51748214Y-75027678D01*
X51748214Y-74884821D01*
X51783928Y-74817857D01*
X51748214Y-75813392D02*
X52141071Y-75862500D01*
X52212500Y-75835714D01*
X52248214Y-75768750D01*
X52248214Y-75625892D01*
X52212500Y-75550000D01*
X51783928Y-75817857D02*
X51748214Y-75741964D01*
X51748214Y-75563392D01*
X51783928Y-75496428D01*
X51855357Y-75469642D01*
X51926785Y-75478571D01*
X51998214Y-75523214D01*
X52033928Y-75599107D01*
X52033928Y-75777678D01*
X52069642Y-75853571D01*
X51783928Y-76496428D02*
X51748214Y-76420535D01*
X51748214Y-76277678D01*
X51783928Y-76210714D01*
X51819642Y-76179464D01*
X51891071Y-76152678D01*
X52105357Y-76179464D01*
X52176785Y-76224107D01*
X52212500Y-76264285D01*
X52248214Y-76340178D01*
X52248214Y-76483035D01*
X52212500Y-76550000D01*
X51748214Y-76813392D02*
X52498214Y-76907142D01*
X52033928Y-76920535D02*
X51748214Y-77099107D01*
X52248214Y-77161607D02*
X51962500Y-76840178D01*
X51462500Y-77313392D02*
X51498214Y-77353571D01*
X51605357Y-77438392D01*
X51676785Y-77483035D01*
X51783928Y-77532142D01*
X51962500Y-77590178D01*
X52105357Y-77608035D01*
X52283928Y-77594642D01*
X52391071Y-77572321D01*
X52462500Y-77545535D01*
X52569642Y-77487500D01*
X52605357Y-77456250D01*
X94298824Y-96127380D02*
X94917872Y-96127380D01*
X94536919Y-96508333D01*
X94679776Y-96508333D01*
X94769062Y-96555952D01*
X94810729Y-96603571D01*
X94846443Y-96698809D01*
X94816681Y-96936904D01*
X94757157Y-97032142D01*
X94703586Y-97079761D01*
X94602395Y-97127380D01*
X94316681Y-97127380D01*
X94227395Y-97079761D01*
X94185729Y-97032142D01*
X95233348Y-97032142D02*
X95275014Y-97079761D01*
X95221443Y-97127380D01*
X95179776Y-97079761D01*
X95233348Y-97032142D01*
X95221443Y-97127380D01*
X95727395Y-96127380D02*
X96346443Y-96127380D01*
X95965491Y-96508333D01*
X96108348Y-96508333D01*
X96197633Y-96555952D01*
X96239300Y-96603571D01*
X96275014Y-96698809D01*
X96245252Y-96936904D01*
X96185729Y-97032142D01*
X96132157Y-97079761D01*
X96030967Y-97127380D01*
X95745252Y-97127380D01*
X95655967Y-97079761D01*
X95614300Y-97032142D01*
X96632157Y-96127380D02*
X96840491Y-97127380D01*
X97298824Y-96127380D01*
X94840491Y-98777380D02*
X94566681Y-98301190D01*
X94269062Y-98777380D02*
X94394062Y-97777380D01*
X94775014Y-97777380D01*
X94864300Y-97825000D01*
X94905967Y-97872619D01*
X94941681Y-97967857D01*
X94923824Y-98110714D01*
X94864300Y-98205952D01*
X94810729Y-98253571D01*
X94709538Y-98301190D01*
X94328586Y-98301190D01*
X95655967Y-98729761D02*
X95554776Y-98777380D01*
X95364300Y-98777380D01*
X95275014Y-98729761D01*
X95239300Y-98634523D01*
X95286919Y-98253571D01*
X95346443Y-98158333D01*
X95447633Y-98110714D01*
X95638110Y-98110714D01*
X95727395Y-98158333D01*
X95763110Y-98253571D01*
X95751205Y-98348809D01*
X95263110Y-98444047D01*
X96638110Y-98110714D02*
X96536919Y-98920238D01*
X96477395Y-99015476D01*
X96423824Y-99063095D01*
X96322633Y-99110714D01*
X96179776Y-99110714D01*
X96090491Y-99063095D01*
X96560729Y-98729761D02*
X96459538Y-98777380D01*
X96269062Y-98777380D01*
X96179776Y-98729761D01*
X96138110Y-98682142D01*
X96102395Y-98586904D01*
X96138110Y-98301190D01*
X96197633Y-98205952D01*
X96251205Y-98158333D01*
X96352395Y-98110714D01*
X96542872Y-98110714D01*
X96632157Y-98158333D01*
X97042872Y-98682142D02*
X97084538Y-98729761D01*
X97030967Y-98777380D01*
X96989300Y-98729761D01*
X97042872Y-98682142D01*
X97030967Y-98777380D01*
X95584538Y-80377380D02*
X95108348Y-80377380D01*
X95001205Y-80853571D01*
X95054776Y-80805952D01*
X95155967Y-80758333D01*
X95394062Y-80758333D01*
X95483348Y-80805952D01*
X95525014Y-80853571D01*
X95560729Y-80948809D01*
X95530967Y-81186904D01*
X95471443Y-81282142D01*
X95417872Y-81329761D01*
X95316681Y-81377380D01*
X95078586Y-81377380D01*
X94989300Y-81329761D01*
X94947633Y-81282142D01*
X95917872Y-80377380D02*
X96126205Y-81377380D01*
X96584538Y-80377380D01*
X94840491Y-83027380D02*
X94566681Y-82551190D01*
X94269062Y-83027380D02*
X94394062Y-82027380D01*
X94775014Y-82027380D01*
X94864300Y-82075000D01*
X94905967Y-82122619D01*
X94941681Y-82217857D01*
X94923824Y-82360714D01*
X94864300Y-82455952D01*
X94810729Y-82503571D01*
X94709538Y-82551190D01*
X94328586Y-82551190D01*
X95655967Y-82979761D02*
X95554776Y-83027380D01*
X95364300Y-83027380D01*
X95275014Y-82979761D01*
X95239300Y-82884523D01*
X95286919Y-82503571D01*
X95346443Y-82408333D01*
X95447633Y-82360714D01*
X95638110Y-82360714D01*
X95727395Y-82408333D01*
X95763110Y-82503571D01*
X95751205Y-82598809D01*
X95263110Y-82694047D01*
X96638110Y-82360714D02*
X96536919Y-83170238D01*
X96477395Y-83265476D01*
X96423824Y-83313095D01*
X96322633Y-83360714D01*
X96179776Y-83360714D01*
X96090491Y-83313095D01*
X96560729Y-82979761D02*
X96459538Y-83027380D01*
X96269062Y-83027380D01*
X96179776Y-82979761D01*
X96138110Y-82932142D01*
X96102395Y-82836904D01*
X96138110Y-82551190D01*
X96197633Y-82455952D01*
X96251205Y-82408333D01*
X96352395Y-82360714D01*
X96542872Y-82360714D01*
X96632157Y-82408333D01*
X97042872Y-82932142D02*
X97084538Y-82979761D01*
X97030967Y-83027380D01*
X96989300Y-82979761D01*
X97042872Y-82932142D01*
X97030967Y-83027380D01*
X50910714Y-95408571D02*
X50910714Y-95872857D01*
X50625000Y-95587142D01*
X50625000Y-95694285D01*
X50589285Y-95761250D01*
X50553571Y-95792500D01*
X50482142Y-95819285D01*
X50303571Y-95796964D01*
X50232142Y-95752321D01*
X50196428Y-95712142D01*
X50160714Y-95636250D01*
X50160714Y-95421964D01*
X50196428Y-95355000D01*
X50232142Y-95323750D01*
X50232142Y-96109464D02*
X50196428Y-96140714D01*
X50160714Y-96100535D01*
X50196428Y-96069285D01*
X50232142Y-96109464D01*
X50160714Y-96100535D01*
X50910714Y-96480000D02*
X50910714Y-96944285D01*
X50625000Y-96658571D01*
X50625000Y-96765714D01*
X50589285Y-96832678D01*
X50553571Y-96863928D01*
X50482142Y-96890714D01*
X50303571Y-96868392D01*
X50232142Y-96823750D01*
X50196428Y-96783571D01*
X50160714Y-96707678D01*
X50160714Y-96493392D01*
X50196428Y-96426428D01*
X50232142Y-96395178D01*
X50910714Y-97158571D02*
X50160714Y-97314821D01*
X50910714Y-97658571D01*
X50446428Y-90243392D02*
X50446428Y-90814821D01*
X50910714Y-91587142D02*
X50910714Y-91230000D01*
X50553571Y-91149642D01*
X50589285Y-91189821D01*
X50625000Y-91265714D01*
X50625000Y-91444285D01*
X50589285Y-91511250D01*
X50553571Y-91542500D01*
X50482142Y-91569285D01*
X50303571Y-91546964D01*
X50232142Y-91502321D01*
X50196428Y-91462142D01*
X50160714Y-91386250D01*
X50160714Y-91207678D01*
X50196428Y-91140714D01*
X50232142Y-91109464D01*
X50910714Y-91837142D02*
X50160714Y-91993392D01*
X50910714Y-92337142D01*
X50446428Y-85243392D02*
X50446428Y-85814821D01*
X50160714Y-85493392D02*
X50732142Y-85564821D01*
X50910714Y-86587142D02*
X50910714Y-86230000D01*
X50553571Y-86149642D01*
X50589285Y-86189821D01*
X50625000Y-86265714D01*
X50625000Y-86444285D01*
X50589285Y-86511250D01*
X50553571Y-86542500D01*
X50482142Y-86569285D01*
X50303571Y-86546964D01*
X50232142Y-86502321D01*
X50196428Y-86462142D01*
X50160714Y-86386250D01*
X50160714Y-86207678D01*
X50196428Y-86140714D01*
X50232142Y-86109464D01*
X50910714Y-86837142D02*
X50160714Y-86993392D01*
X50910714Y-87337142D01*
X50875000Y-79788392D02*
X50910714Y-79721428D01*
X50910714Y-79614285D01*
X50875000Y-79502678D01*
X50803571Y-79422321D01*
X50732142Y-79377678D01*
X50589285Y-79324107D01*
X50482142Y-79310714D01*
X50339285Y-79328571D01*
X50267857Y-79355357D01*
X50196428Y-79417857D01*
X50160714Y-79520535D01*
X50160714Y-79591964D01*
X50196428Y-79703571D01*
X50232142Y-79743750D01*
X50482142Y-79775000D01*
X50482142Y-79632142D01*
X50160714Y-80056250D02*
X50660714Y-80118750D01*
X50517857Y-80100892D02*
X50589285Y-80145535D01*
X50625000Y-80185714D01*
X50660714Y-80261607D01*
X50660714Y-80333035D01*
X50160714Y-80627678D02*
X50196428Y-80560714D01*
X50232142Y-80529464D01*
X50303571Y-80502678D01*
X50517857Y-80529464D01*
X50589285Y-80574107D01*
X50625000Y-80614285D01*
X50660714Y-80690178D01*
X50660714Y-80797321D01*
X50625000Y-80864285D01*
X50589285Y-80895535D01*
X50517857Y-80922321D01*
X50303571Y-80895535D01*
X50232142Y-80850892D01*
X50196428Y-80810714D01*
X50160714Y-80734821D01*
X50160714Y-80627678D01*
X50660714Y-81583035D02*
X50160714Y-81520535D01*
X50660714Y-81261607D02*
X50267857Y-81212500D01*
X50196428Y-81239285D01*
X50160714Y-81306250D01*
X50160714Y-81413392D01*
X50196428Y-81489285D01*
X50232142Y-81529464D01*
X50660714Y-81940178D02*
X50160714Y-81877678D01*
X50589285Y-81931250D02*
X50625000Y-81971428D01*
X50660714Y-82047321D01*
X50660714Y-82154464D01*
X50625000Y-82221428D01*
X50553571Y-82248214D01*
X50160714Y-82199107D01*
X50160714Y-82877678D02*
X50910714Y-82971428D01*
X50196428Y-82882142D02*
X50160714Y-82806250D01*
X50160714Y-82663392D01*
X50196428Y-82596428D01*
X50232142Y-82565178D01*
X50303571Y-82538392D01*
X50517857Y-82565178D01*
X50589285Y-82609821D01*
X50625000Y-82650000D01*
X50660714Y-82725892D01*
X50660714Y-82868750D01*
X50625000Y-82935714D01*
X63000000Y-63500000D02*
X64500000Y-63500000D01*
D12*
X52245714Y-60428571D02*
X51960000Y-60428571D01*
X51808214Y-60500000D01*
X51727857Y-60571428D01*
X51558214Y-60785714D01*
X51451071Y-61071428D01*
X51379642Y-61642857D01*
X51433214Y-61785714D01*
X51495714Y-61857142D01*
X51629642Y-61928571D01*
X51915357Y-61928571D01*
X52067142Y-61857142D01*
X52147500Y-61785714D01*
X52236785Y-61642857D01*
X52281428Y-61285714D01*
X52227857Y-61142857D01*
X52165357Y-61071428D01*
X52031428Y-61000000D01*
X51745714Y-61000000D01*
X51593928Y-61071428D01*
X51513571Y-61142857D01*
X51424285Y-61285714D01*
X53897500Y-60928571D02*
X54468928Y-60928571D01*
X54174285Y-60428571D02*
X54013571Y-61714285D01*
X54067142Y-61857142D01*
X54201071Y-61928571D01*
X54343928Y-61928571D01*
X55058214Y-61928571D02*
X54924285Y-61857142D01*
X54861785Y-61785714D01*
X54808214Y-61642857D01*
X54861785Y-61214285D01*
X54951071Y-61071428D01*
X55031428Y-61000000D01*
X55183214Y-60928571D01*
X55397500Y-60928571D01*
X55531428Y-61000000D01*
X55593928Y-61071428D01*
X55647500Y-61214285D01*
X55593928Y-61642857D01*
X55504642Y-61785714D01*
X55424285Y-61857142D01*
X55272500Y-61928571D01*
X55058214Y-61928571D01*
X57442142Y-60571428D02*
X57522500Y-60500000D01*
X57674285Y-60428571D01*
X58031428Y-60428571D01*
X58165357Y-60500000D01*
X58227857Y-60571428D01*
X58281428Y-60714285D01*
X58263571Y-60857142D01*
X58165357Y-61071428D01*
X57201071Y-61928571D01*
X58129642Y-61928571D01*
X59674285Y-60428571D02*
X58960000Y-60428571D01*
X58799285Y-61142857D01*
X58879642Y-61071428D01*
X59031428Y-61000000D01*
X59388571Y-61000000D01*
X59522500Y-61071428D01*
X59585000Y-61142857D01*
X59638571Y-61285714D01*
X59593928Y-61642857D01*
X59504642Y-61785714D01*
X59424285Y-61857142D01*
X59272500Y-61928571D01*
X58915357Y-61928571D01*
X58781428Y-61857142D01*
X58718928Y-61785714D01*
X60174285Y-60428571D02*
X60486785Y-61928571D01*
X61174285Y-60428571D01*
D10*
X62247205Y-67778380D02*
X62455538Y-68778380D01*
X62913872Y-67778380D01*
X63122205Y-68778380D02*
X63205538Y-68111714D01*
X63247205Y-67778380D02*
X63193633Y-67826000D01*
X63235300Y-67873619D01*
X63288872Y-67826000D01*
X63247205Y-67778380D01*
X63235300Y-67873619D01*
X63681729Y-68111714D02*
X63598395Y-68778380D01*
X63669824Y-68206952D02*
X63723395Y-68159333D01*
X63824586Y-68111714D01*
X63967443Y-68111714D01*
X64056729Y-68159333D01*
X64092443Y-68254571D01*
X64026967Y-68778380D01*
X133298824Y-86952380D02*
X133917872Y-86952380D01*
X133536919Y-87333333D01*
X133679776Y-87333333D01*
X133769062Y-87380952D01*
X133810729Y-87428571D01*
X133846443Y-87523809D01*
X133816681Y-87761904D01*
X133757157Y-87857142D01*
X133703586Y-87904761D01*
X133602395Y-87952380D01*
X133316681Y-87952380D01*
X133227395Y-87904761D01*
X133185729Y-87857142D01*
X134233348Y-87857142D02*
X134275014Y-87904761D01*
X134221443Y-87952380D01*
X134179776Y-87904761D01*
X134233348Y-87857142D01*
X134221443Y-87952380D01*
X134727395Y-86952380D02*
X135346443Y-86952380D01*
X134965491Y-87333333D01*
X135108348Y-87333333D01*
X135197633Y-87380952D01*
X135239300Y-87428571D01*
X135275014Y-87523809D01*
X135245252Y-87761904D01*
X135185729Y-87857142D01*
X135132157Y-87904761D01*
X135030967Y-87952380D01*
X134745252Y-87952380D01*
X134655967Y-87904761D01*
X134614300Y-87857142D01*
X135632157Y-86952380D02*
X135840491Y-87952380D01*
X136298824Y-86952380D01*
X132816681Y-72952380D02*
X132941681Y-71952380D01*
X133185729Y-72666666D01*
X133608348Y-71952380D01*
X133483348Y-72952380D01*
X134084538Y-71952380D02*
X133983348Y-72761904D01*
X134019062Y-72857142D01*
X134060729Y-72904761D01*
X134150014Y-72952380D01*
X134340491Y-72952380D01*
X134441681Y-72904761D01*
X134495252Y-72857142D01*
X134554776Y-72761904D01*
X134655967Y-71952380D01*
X135036919Y-71952380D02*
X135578586Y-72952380D01*
X135703586Y-71952380D02*
X134911919Y-72952380D01*
X125423824Y-80532142D02*
X125370252Y-80579761D01*
X125221443Y-80627380D01*
X125126205Y-80627380D01*
X124989300Y-80579761D01*
X124905967Y-80484523D01*
X124870252Y-80389285D01*
X124846443Y-80198809D01*
X124864300Y-80055952D01*
X124935729Y-79865476D01*
X124995252Y-79770238D01*
X125102395Y-79675000D01*
X125251205Y-79627380D01*
X125346443Y-79627380D01*
X125483348Y-79675000D01*
X125525014Y-79722619D01*
X125983348Y-80627380D02*
X125894062Y-80579761D01*
X125858348Y-80484523D01*
X125965491Y-79627380D01*
X126507157Y-80627380D02*
X126417872Y-80579761D01*
X126376205Y-80532142D01*
X126340491Y-80436904D01*
X126376205Y-80151190D01*
X126435729Y-80055952D01*
X126489300Y-80008333D01*
X126590491Y-79960714D01*
X126733348Y-79960714D01*
X126822633Y-80008333D01*
X126864300Y-80055952D01*
X126900014Y-80151190D01*
X126864300Y-80436904D01*
X126804776Y-80532142D01*
X126751205Y-80579761D01*
X126650014Y-80627380D01*
X126507157Y-80627380D01*
X127703586Y-80579761D02*
X127602395Y-80627380D01*
X127411919Y-80627380D01*
X127322633Y-80579761D01*
X127280967Y-80532142D01*
X127245252Y-80436904D01*
X127280967Y-80151190D01*
X127340491Y-80055952D01*
X127394062Y-80008333D01*
X127495252Y-79960714D01*
X127685729Y-79960714D01*
X127775014Y-80008333D01*
X128126205Y-80627380D02*
X128251205Y-79627380D01*
X128269062Y-80246428D02*
X128507157Y-80627380D01*
X128590491Y-79960714D02*
X128161919Y-80341666D01*
X125025014Y-81753571D02*
X125161919Y-81801190D01*
X125203586Y-81848809D01*
X125239300Y-81944047D01*
X125221443Y-82086904D01*
X125161919Y-82182142D01*
X125108348Y-82229761D01*
X125007157Y-82277380D01*
X124626205Y-82277380D01*
X124751205Y-81277380D01*
X125084538Y-81277380D01*
X125173824Y-81325000D01*
X125215491Y-81372619D01*
X125251205Y-81467857D01*
X125239300Y-81563095D01*
X125179776Y-81658333D01*
X125126205Y-81705952D01*
X125025014Y-81753571D01*
X124691681Y-81753571D01*
X126138110Y-81610714D02*
X126054776Y-82277380D01*
X125709538Y-81610714D02*
X125644062Y-82134523D01*
X125679776Y-82229761D01*
X125769062Y-82277380D01*
X125911919Y-82277380D01*
X126013110Y-82229761D01*
X126066681Y-82182142D01*
X126471443Y-81610714D02*
X126852395Y-81610714D01*
X126530967Y-82277380D02*
X126638110Y-81420238D01*
X126697633Y-81325000D01*
X126798824Y-81277380D01*
X126894062Y-81277380D01*
X127042872Y-81610714D02*
X127423824Y-81610714D01*
X127102395Y-82277380D02*
X127209538Y-81420238D01*
X127269062Y-81325000D01*
X127370252Y-81277380D01*
X127465491Y-81277380D01*
X128060729Y-82229761D02*
X127959538Y-82277380D01*
X127769062Y-82277380D01*
X127679776Y-82229761D01*
X127644062Y-82134523D01*
X127691681Y-81753571D01*
X127751205Y-81658333D01*
X127852395Y-81610714D01*
X128042872Y-81610714D01*
X128132157Y-81658333D01*
X128167872Y-81753571D01*
X128155967Y-81848809D01*
X127667872Y-81944047D01*
X128530967Y-82277380D02*
X128614300Y-81610714D01*
X128590491Y-81801190D02*
X128650014Y-81705952D01*
X128703586Y-81658333D01*
X128804776Y-81610714D01*
X128900014Y-81610714D01*
D12*
X117274107Y-128254761D02*
X117524107Y-126254761D01*
X118000297Y-126254761D01*
X118274107Y-126350000D01*
X118440773Y-126540476D01*
X118512202Y-126730952D01*
X118559821Y-127111904D01*
X118524107Y-127397619D01*
X118381250Y-127778571D01*
X118262202Y-127969047D01*
X118047916Y-128159523D01*
X117750297Y-128254761D01*
X117274107Y-128254761D01*
X120047916Y-128159523D02*
X119845535Y-128254761D01*
X119464583Y-128254761D01*
X119286011Y-128159523D01*
X119214583Y-127969047D01*
X119309821Y-127207142D01*
X119428869Y-127016666D01*
X119631250Y-126921428D01*
X120012202Y-126921428D01*
X120190773Y-127016666D01*
X120262202Y-127207142D01*
X120238392Y-127397619D01*
X119262202Y-127588095D01*
X121274107Y-128254761D02*
X121095535Y-128159523D01*
X121024107Y-127969047D01*
X121238392Y-126254761D01*
X122893154Y-128254761D02*
X123024107Y-127207142D01*
X122952678Y-127016666D01*
X122774107Y-126921428D01*
X122393154Y-126921428D01*
X122190773Y-127016666D01*
X122905059Y-128159523D02*
X122702678Y-128254761D01*
X122226488Y-128254761D01*
X122047916Y-128159523D01*
X121976488Y-127969047D01*
X122000297Y-127778571D01*
X122119345Y-127588095D01*
X122321726Y-127492857D01*
X122797916Y-127492857D01*
X123000297Y-127397619D01*
X123821726Y-126921428D02*
X124131250Y-128254761D01*
X124774107Y-126921428D02*
X124131250Y-128254761D01*
X123881250Y-128730952D01*
X123774107Y-128826190D01*
X123571726Y-128921428D01*
X116297916Y-130983333D02*
X117250297Y-130983333D01*
X116036011Y-131554761D02*
X116952678Y-129554761D01*
X117369345Y-131554761D01*
X118893154Y-131554761D02*
X119143154Y-129554761D01*
X118905059Y-131459523D02*
X118702678Y-131554761D01*
X118321726Y-131554761D01*
X118143154Y-131459523D01*
X118059821Y-131364285D01*
X117988392Y-131173809D01*
X118059821Y-130602380D01*
X118178869Y-130411904D01*
X118286011Y-130316666D01*
X118488392Y-130221428D01*
X118869345Y-130221428D01*
X119047916Y-130316666D01*
X120012202Y-130221428D02*
X119797916Y-131935714D01*
X119678869Y-132126190D01*
X119476488Y-132221428D01*
X119381250Y-132221428D01*
X120095535Y-129554761D02*
X119988392Y-129650000D01*
X120071726Y-129745238D01*
X120178869Y-129650000D01*
X120095535Y-129554761D01*
X120071726Y-129745238D01*
X121821726Y-130221428D02*
X121655059Y-131554761D01*
X120964583Y-130221428D02*
X120833630Y-131269047D01*
X120905059Y-131459523D01*
X121083630Y-131554761D01*
X121369345Y-131554761D01*
X121571726Y-131459523D01*
X121678869Y-131364285D01*
X122524107Y-131459523D02*
X122702678Y-131554761D01*
X123083630Y-131554761D01*
X123286011Y-131459523D01*
X123405059Y-131269047D01*
X123416964Y-131173809D01*
X123345535Y-130983333D01*
X123166964Y-130888095D01*
X122881250Y-130888095D01*
X122702678Y-130792857D01*
X122631250Y-130602380D01*
X122643154Y-130507142D01*
X122762202Y-130316666D01*
X122964583Y-130221428D01*
X123250297Y-130221428D01*
X123428869Y-130316666D01*
X124107440Y-130221428D02*
X124869345Y-130221428D01*
X124476488Y-129554761D02*
X124262202Y-131269047D01*
X124333630Y-131459523D01*
X124512202Y-131554761D01*
X124702678Y-131554761D01*
D10*
X106657455Y-80148333D02*
X107609836Y-80148333D01*
X106395550Y-80719761D02*
X107312217Y-78719761D01*
X107728883Y-80719761D01*
X108395550Y-80719761D02*
X108645550Y-78719761D01*
X109121741Y-78719761D01*
X109395550Y-78815000D01*
X109562217Y-79005476D01*
X109633645Y-79195952D01*
X109681264Y-79576904D01*
X109645550Y-79862619D01*
X109502693Y-80243571D01*
X109383645Y-80434047D01*
X109169360Y-80624523D01*
X108871741Y-80719761D01*
X108395550Y-80719761D01*
X111562217Y-80529285D02*
X111455074Y-80624523D01*
X111157455Y-80719761D01*
X110966979Y-80719761D01*
X110693169Y-80624523D01*
X110526502Y-80434047D01*
X110455074Y-80243571D01*
X110407455Y-79862619D01*
X110443169Y-79576904D01*
X110586026Y-79195952D01*
X110705074Y-79005476D01*
X110919360Y-78815000D01*
X111216979Y-78719761D01*
X111407455Y-78719761D01*
X111681264Y-78815000D01*
X111764598Y-78910238D01*
X102557931Y-91922142D02*
X101891264Y-91922142D01*
X101760312Y-92969761D02*
X102010312Y-90969761D01*
X102962693Y-90969761D01*
X103474598Y-92969761D02*
X103724598Y-90969761D01*
X105224598Y-91922142D02*
X104557931Y-91922142D01*
X104426979Y-92969761D02*
X104676979Y-90969761D01*
X105629360Y-90969761D01*
X106772217Y-90969761D02*
X107153169Y-90969761D01*
X107331741Y-91065000D01*
X107498407Y-91255476D01*
X107546026Y-91636428D01*
X107462693Y-92303095D01*
X107319836Y-92684047D01*
X107105550Y-92874523D01*
X106903169Y-92969761D01*
X106522217Y-92969761D01*
X106343645Y-92874523D01*
X106176979Y-92684047D01*
X106129360Y-92303095D01*
X106212693Y-91636428D01*
X106355550Y-91255476D01*
X106569836Y-91065000D01*
X106772217Y-90969761D01*
X134078392Y-121654285D02*
X134172142Y-120904285D01*
X134350714Y-120904285D01*
X134453392Y-120940000D01*
X134515892Y-121011428D01*
X134542678Y-121082857D01*
X134560535Y-121225714D01*
X134547142Y-121332857D01*
X134493571Y-121475714D01*
X134448928Y-121547142D01*
X134368571Y-121618571D01*
X134256964Y-121654285D01*
X134078392Y-121654285D01*
X135065000Y-120904285D02*
X135136428Y-120904285D01*
X135203392Y-120940000D01*
X135234642Y-120975714D01*
X135261428Y-121047142D01*
X135279285Y-121190000D01*
X135256964Y-121368571D01*
X135203392Y-121511428D01*
X135158750Y-121582857D01*
X135118571Y-121618571D01*
X135042678Y-121654285D01*
X134971250Y-121654285D01*
X134904285Y-121618571D01*
X134873035Y-121582857D01*
X134846250Y-121511428D01*
X134828392Y-121368571D01*
X134850714Y-121190000D01*
X134904285Y-121047142D01*
X134948928Y-120975714D01*
X134989107Y-120940000D01*
X135065000Y-120904285D01*
X134194464Y-111725714D02*
X134127500Y-111690000D01*
X134065000Y-111618571D01*
X133971250Y-111511428D01*
X133904285Y-111475714D01*
X133832857Y-111475714D01*
X133846250Y-111654285D02*
X133779285Y-111618571D01*
X133716785Y-111547142D01*
X133698928Y-111404285D01*
X133730178Y-111154285D01*
X133783750Y-111011428D01*
X133864107Y-110940000D01*
X133940000Y-110904285D01*
X134082857Y-110904285D01*
X134149821Y-110940000D01*
X134212321Y-111011428D01*
X134230178Y-111154285D01*
X134198928Y-111404285D01*
X134145357Y-111547142D01*
X134065000Y-111618571D01*
X133989107Y-111654285D01*
X133846250Y-111654285D01*
X134881964Y-111654285D02*
X134453392Y-111654285D01*
X134667678Y-111654285D02*
X134761428Y-110904285D01*
X134676607Y-111011428D01*
X134596250Y-111082857D01*
X134520357Y-111118571D01*
X135225714Y-110904285D02*
X135725714Y-110904285D01*
X135310535Y-111654285D01*
X101301607Y-111725714D02*
X101234642Y-111690000D01*
X101172142Y-111618571D01*
X101078392Y-111511428D01*
X101011428Y-111475714D01*
X100940000Y-111475714D01*
X100953392Y-111654285D02*
X100886428Y-111618571D01*
X100823928Y-111547142D01*
X100806071Y-111404285D01*
X100837321Y-111154285D01*
X100890892Y-111011428D01*
X100971250Y-110940000D01*
X101047142Y-110904285D01*
X101190000Y-110904285D01*
X101256964Y-110940000D01*
X101319464Y-111011428D01*
X101337321Y-111154285D01*
X101306071Y-111404285D01*
X101252500Y-111547142D01*
X101172142Y-111618571D01*
X101096250Y-111654285D01*
X100953392Y-111654285D01*
X101980178Y-111154285D02*
X101917678Y-111654285D01*
X101837321Y-110868571D02*
X101591785Y-111404285D01*
X102056071Y-111404285D01*
D11*
X123610000Y-91265000D02*
G75*
G03X123610000Y-91265000I-100000J0D01*
G01*
D14*
X100150000Y-116350000D02*
X100250000Y-116450000D01*
X100150000Y-116250000D02*
X100250000Y-116150000D01*
D10*
X100150000Y-116300000D02*
X94950000Y-116300000D01*
X95494138Y-117752380D02*
X95619138Y-116752380D01*
X95857233Y-116752380D01*
X95994138Y-116800000D01*
X96077472Y-116895238D01*
X96113186Y-116990476D01*
X96136995Y-117180952D01*
X96119138Y-117323809D01*
X96047710Y-117514285D01*
X95988186Y-117609523D01*
X95881043Y-117704761D01*
X95732233Y-117752380D01*
X95494138Y-117752380D01*
X96482233Y-117466666D02*
X96958424Y-117466666D01*
X96351281Y-117752380D02*
X96809614Y-116752380D01*
X97017948Y-117752380D01*
X97934614Y-117657142D02*
X97881043Y-117704761D01*
X97732233Y-117752380D01*
X97636995Y-117752380D01*
X97500091Y-117704761D01*
X97416757Y-117609523D01*
X97381043Y-117514285D01*
X97357233Y-117323809D01*
X97375091Y-117180952D01*
X97446519Y-116990476D01*
X97506043Y-116895238D01*
X97613186Y-116800000D01*
X97761995Y-116752380D01*
X97857233Y-116752380D01*
X97994138Y-116800000D01*
X98035805Y-116847619D01*
X96232233Y-119402380D02*
X96357233Y-118402380D01*
X96791757Y-118735714D02*
X96708424Y-119402380D01*
X96779852Y-118830952D02*
X96833424Y-118783333D01*
X96934614Y-118735714D01*
X97077472Y-118735714D01*
X97166757Y-118783333D01*
X97202472Y-118878571D01*
X97136995Y-119402380D01*
X95702472Y-113528571D02*
X95369138Y-113528571D01*
X95303662Y-114052380D02*
X95428662Y-113052380D01*
X95904852Y-113052380D01*
X96160805Y-114052380D02*
X96285805Y-113052380D01*
X97035805Y-113528571D02*
X96702472Y-113528571D01*
X96636995Y-114052380D02*
X96761995Y-113052380D01*
X97238186Y-113052380D01*
X97809614Y-113052380D02*
X98000091Y-113052380D01*
X98089376Y-113100000D01*
X98172710Y-113195238D01*
X98196519Y-113385714D01*
X98154852Y-113719047D01*
X98083424Y-113909523D01*
X97976281Y-114004761D01*
X97875091Y-114052380D01*
X97684614Y-114052380D01*
X97595329Y-114004761D01*
X97511995Y-113909523D01*
X97488186Y-113719047D01*
X97529852Y-113385714D01*
X97601281Y-113195238D01*
X97708424Y-113100000D01*
X97809614Y-113052380D01*
X95976281Y-114702380D02*
X96166757Y-114702380D01*
X96256043Y-114750000D01*
X96339376Y-114845238D01*
X96363186Y-115035714D01*
X96321519Y-115369047D01*
X96250091Y-115559523D01*
X96142948Y-115654761D01*
X96041757Y-115702380D01*
X95851281Y-115702380D01*
X95761995Y-115654761D01*
X95678662Y-115559523D01*
X95654852Y-115369047D01*
X95696519Y-115035714D01*
X95767948Y-114845238D01*
X95875091Y-114750000D01*
X95976281Y-114702380D01*
X97220329Y-115035714D02*
X97136995Y-115702380D01*
X96791757Y-115035714D02*
X96726281Y-115559523D01*
X96761995Y-115654761D01*
X96851281Y-115702380D01*
X96994138Y-115702380D01*
X97095329Y-115654761D01*
X97148900Y-115607142D01*
X97553662Y-115035714D02*
X97934614Y-115035714D01*
X97738186Y-114702380D02*
X97631043Y-115559523D01*
X97666757Y-115654761D01*
X97756043Y-115702380D01*
X97851281Y-115702380D01*
X107534062Y-136431380D02*
X107260252Y-135955190D01*
X106962633Y-136431380D02*
X107087633Y-135431380D01*
X107468586Y-135431380D01*
X107557872Y-135479000D01*
X107599538Y-135526619D01*
X107635252Y-135621857D01*
X107617395Y-135764714D01*
X107557872Y-135859952D01*
X107504300Y-135907571D01*
X107403110Y-135955190D01*
X107022157Y-135955190D01*
X108349538Y-136383761D02*
X108248348Y-136431380D01*
X108057872Y-136431380D01*
X107968586Y-136383761D01*
X107932872Y-136288523D01*
X107980491Y-135907571D01*
X108040014Y-135812333D01*
X108141205Y-135764714D01*
X108331681Y-135764714D01*
X108420967Y-135812333D01*
X108456681Y-135907571D01*
X108444776Y-136002809D01*
X107956681Y-136098047D01*
X108760252Y-135764714D02*
X109141205Y-135764714D01*
X108819776Y-136431380D02*
X108926919Y-135574238D01*
X108986443Y-135479000D01*
X109087633Y-135431380D01*
X109182872Y-135431380D01*
X109778110Y-136383761D02*
X109676919Y-136431380D01*
X109486443Y-136431380D01*
X109397157Y-136383761D01*
X109361443Y-136288523D01*
X109409062Y-135907571D01*
X109468586Y-135812333D01*
X109569776Y-135764714D01*
X109760252Y-135764714D01*
X109849538Y-135812333D01*
X109885252Y-135907571D01*
X109873348Y-136002809D01*
X109385252Y-136098047D01*
X110248348Y-136431380D02*
X110331681Y-135764714D01*
X110307872Y-135955190D02*
X110367395Y-135859952D01*
X110420967Y-135812333D01*
X110522157Y-135764714D01*
X110617395Y-135764714D01*
X111254300Y-136383761D02*
X111153110Y-136431380D01*
X110962633Y-136431380D01*
X110873348Y-136383761D01*
X110837633Y-136288523D01*
X110885252Y-135907571D01*
X110944776Y-135812333D01*
X111045967Y-135764714D01*
X111236443Y-135764714D01*
X111325729Y-135812333D01*
X111361443Y-135907571D01*
X111349538Y-136002809D01*
X110861443Y-136098047D01*
X111807872Y-135764714D02*
X111724538Y-136431380D01*
X111795967Y-135859952D02*
X111849538Y-135812333D01*
X111950729Y-135764714D01*
X112093586Y-135764714D01*
X112182872Y-135812333D01*
X112218586Y-135907571D01*
X112153110Y-136431380D01*
X113063824Y-136383761D02*
X112962633Y-136431380D01*
X112772157Y-136431380D01*
X112682872Y-136383761D01*
X112641205Y-136336142D01*
X112605491Y-136240904D01*
X112641205Y-135955190D01*
X112700729Y-135859952D01*
X112754300Y-135812333D01*
X112855491Y-135764714D01*
X113045967Y-135764714D01*
X113135252Y-135812333D01*
X113873348Y-136383761D02*
X113772157Y-136431380D01*
X113581681Y-136431380D01*
X113492395Y-136383761D01*
X113456681Y-136288523D01*
X113504300Y-135907571D01*
X113563824Y-135812333D01*
X113665014Y-135764714D01*
X113855491Y-135764714D01*
X113944776Y-135812333D01*
X113980491Y-135907571D01*
X113968586Y-136002809D01*
X113480491Y-136098047D01*
X108379300Y-137795666D02*
X108855491Y-137795666D01*
X108248348Y-138081380D02*
X108706681Y-137081380D01*
X108915014Y-138081380D01*
X109676919Y-138081380D02*
X109801919Y-137081380D01*
X109682872Y-138033761D02*
X109581681Y-138081380D01*
X109391205Y-138081380D01*
X109301919Y-138033761D01*
X109260252Y-137986142D01*
X109224538Y-137890904D01*
X109260252Y-137605190D01*
X109319776Y-137509952D01*
X109373348Y-137462333D01*
X109474538Y-137414714D01*
X109665014Y-137414714D01*
X109754300Y-137462333D01*
X110236443Y-137414714D02*
X110129300Y-138271857D01*
X110069776Y-138367095D01*
X109968586Y-138414714D01*
X109920967Y-138414714D01*
X110278110Y-137081380D02*
X110224538Y-137129000D01*
X110266205Y-137176619D01*
X110319776Y-137129000D01*
X110278110Y-137081380D01*
X110266205Y-137176619D01*
X111141205Y-137414714D02*
X111057872Y-138081380D01*
X110712633Y-137414714D02*
X110647157Y-137938523D01*
X110682872Y-138033761D01*
X110772157Y-138081380D01*
X110915014Y-138081380D01*
X111016205Y-138033761D01*
X111069776Y-137986142D01*
X111492395Y-138033761D02*
X111581681Y-138081380D01*
X111772157Y-138081380D01*
X111873348Y-138033761D01*
X111932872Y-137938523D01*
X111938824Y-137890904D01*
X111903110Y-137795666D01*
X111813824Y-137748047D01*
X111670967Y-137748047D01*
X111581681Y-137700428D01*
X111545967Y-137605190D01*
X111551919Y-137557571D01*
X111611443Y-137462333D01*
X111712633Y-137414714D01*
X111855491Y-137414714D01*
X111944776Y-137462333D01*
X112284062Y-137414714D02*
X112665014Y-137414714D01*
X112468586Y-137081380D02*
X112361443Y-137938523D01*
X112397157Y-138033761D01*
X112486443Y-138081380D01*
X112581681Y-138081380D01*
D12*
X124933095Y-143004761D02*
X125183095Y-141004761D01*
X125659285Y-141004761D01*
X125933095Y-141100000D01*
X126099761Y-141290476D01*
X126171190Y-141480952D01*
X126218809Y-141861904D01*
X126183095Y-142147619D01*
X126040238Y-142528571D01*
X125921190Y-142719047D01*
X125706904Y-142909523D01*
X125409285Y-143004761D01*
X124933095Y-143004761D01*
X127706904Y-142909523D02*
X127504523Y-143004761D01*
X127123571Y-143004761D01*
X126945000Y-142909523D01*
X126873571Y-142719047D01*
X126968809Y-141957142D01*
X127087857Y-141766666D01*
X127290238Y-141671428D01*
X127671190Y-141671428D01*
X127849761Y-141766666D01*
X127921190Y-141957142D01*
X127897380Y-142147619D01*
X126921190Y-142338095D01*
X128933095Y-143004761D02*
X128754523Y-142909523D01*
X128683095Y-142719047D01*
X128897380Y-141004761D01*
X130552142Y-143004761D02*
X130683095Y-141957142D01*
X130611666Y-141766666D01*
X130433095Y-141671428D01*
X130052142Y-141671428D01*
X129849761Y-141766666D01*
X130564047Y-142909523D02*
X130361666Y-143004761D01*
X129885476Y-143004761D01*
X129706904Y-142909523D01*
X129635476Y-142719047D01*
X129659285Y-142528571D01*
X129778333Y-142338095D01*
X129980714Y-142242857D01*
X130456904Y-142242857D01*
X130659285Y-142147619D01*
X131480714Y-141671428D02*
X131790238Y-143004761D01*
X132433095Y-141671428D02*
X131790238Y-143004761D01*
X131540238Y-143480952D01*
X131433095Y-143576190D01*
X131230714Y-143671428D01*
X133802142Y-142909523D02*
X133599761Y-143004761D01*
X133218809Y-143004761D01*
X133040238Y-142909523D01*
X132968809Y-142719047D01*
X133064047Y-141957142D01*
X133183095Y-141766666D01*
X133385476Y-141671428D01*
X133766428Y-141671428D01*
X133945000Y-141766666D01*
X134016428Y-141957142D01*
X133992619Y-142147619D01*
X133016428Y-142338095D01*
X135599761Y-143004761D02*
X135849761Y-141004761D01*
X135611666Y-142909523D02*
X135409285Y-143004761D01*
X135028333Y-143004761D01*
X134849761Y-142909523D01*
X134766428Y-142814285D01*
X134695000Y-142623809D01*
X134766428Y-142052380D01*
X134885476Y-141861904D01*
X134992619Y-141766666D01*
X135195000Y-141671428D01*
X135575952Y-141671428D01*
X135754523Y-141766666D01*
X125564047Y-144304761D02*
X125945000Y-144304761D01*
X126123571Y-144400000D01*
X126290238Y-144590476D01*
X126337857Y-144971428D01*
X126254523Y-145638095D01*
X126111666Y-146019047D01*
X125897380Y-146209523D01*
X125695000Y-146304761D01*
X125314047Y-146304761D01*
X125135476Y-146209523D01*
X124968809Y-146019047D01*
X124921190Y-145638095D01*
X125004523Y-144971428D01*
X125147380Y-144590476D01*
X125361666Y-144400000D01*
X125564047Y-144304761D01*
X128052142Y-144971428D02*
X127885476Y-146304761D01*
X127195000Y-144971428D02*
X127064047Y-146019047D01*
X127135476Y-146209523D01*
X127314047Y-146304761D01*
X127599761Y-146304761D01*
X127802142Y-146209523D01*
X127909285Y-146114285D01*
X128718809Y-144971428D02*
X129480714Y-144971428D01*
X129087857Y-144304761D02*
X128873571Y-146019047D01*
X128945000Y-146209523D01*
X129123571Y-146304761D01*
X129314047Y-146304761D01*
X130147380Y-144971428D02*
X129897380Y-146971428D01*
X130135476Y-145066666D02*
X130337857Y-144971428D01*
X130718809Y-144971428D01*
X130897380Y-145066666D01*
X130980714Y-145161904D01*
X131052142Y-145352380D01*
X130980714Y-145923809D01*
X130861666Y-146114285D01*
X130754523Y-146209523D01*
X130552142Y-146304761D01*
X130171190Y-146304761D01*
X129992619Y-146209523D01*
X132814047Y-144971428D02*
X132647380Y-146304761D01*
X131956904Y-144971428D02*
X131825952Y-146019047D01*
X131897380Y-146209523D01*
X132075952Y-146304761D01*
X132361666Y-146304761D01*
X132564047Y-146209523D01*
X132671190Y-146114285D01*
X133480714Y-144971428D02*
X134242619Y-144971428D01*
X133849761Y-144304761D02*
X133635476Y-146019047D01*
X133706904Y-146209523D01*
X133885476Y-146304761D01*
X134075952Y-146304761D01*
D10*
X103661919Y-130821428D02*
X104423824Y-130821428D01*
X105453586Y-130202380D02*
X104977395Y-130202380D01*
X104870252Y-130678571D01*
X104923824Y-130630952D01*
X105025014Y-130583333D01*
X105263110Y-130583333D01*
X105352395Y-130630952D01*
X105394062Y-130678571D01*
X105429776Y-130773809D01*
X105400014Y-131011904D01*
X105340491Y-131107142D01*
X105286919Y-131154761D01*
X105185729Y-131202380D01*
X104947633Y-131202380D01*
X104858348Y-131154761D01*
X104816681Y-131107142D01*
X105786919Y-130202380D02*
X105995252Y-131202380D01*
X106453586Y-130202380D01*
X93945919Y-89579428D02*
X94707824Y-89579428D01*
X95737586Y-88960380D02*
X95261395Y-88960380D01*
X95154252Y-89436571D01*
X95207824Y-89388952D01*
X95309014Y-89341333D01*
X95547110Y-89341333D01*
X95636395Y-89388952D01*
X95678062Y-89436571D01*
X95713776Y-89531809D01*
X95684014Y-89769904D01*
X95624491Y-89865142D01*
X95570919Y-89912761D01*
X95469729Y-89960380D01*
X95231633Y-89960380D01*
X95142348Y-89912761D01*
X95100681Y-89865142D01*
X96070919Y-88960380D02*
X96279252Y-89960380D01*
X96737586Y-88960380D01*
X76072678Y-104001285D02*
X76121785Y-103608428D01*
X76095000Y-103537000D01*
X76028035Y-103501285D01*
X75885178Y-103501285D01*
X75809285Y-103537000D01*
X76077142Y-103965571D02*
X76001250Y-104001285D01*
X75822678Y-104001285D01*
X75755714Y-103965571D01*
X75728928Y-103894142D01*
X75737857Y-103822714D01*
X75782500Y-103751285D01*
X75858392Y-103715571D01*
X76036964Y-103715571D01*
X76112857Y-103679857D01*
X87125000Y-103965571D02*
X87049107Y-104001285D01*
X86906250Y-104001285D01*
X86839285Y-103965571D01*
X86808035Y-103929857D01*
X86781250Y-103858428D01*
X86808035Y-103644142D01*
X86852678Y-103572714D01*
X86892857Y-103537000D01*
X86968750Y-103501285D01*
X87111607Y-103501285D01*
X87178571Y-103537000D01*
X81281250Y-104001285D02*
X81375000Y-103251285D01*
X81339285Y-103537000D02*
X81415178Y-103501285D01*
X81558035Y-103501285D01*
X81625000Y-103537000D01*
X81656250Y-103572714D01*
X81683035Y-103644142D01*
X81656250Y-103858428D01*
X81611607Y-103929857D01*
X81571428Y-103965571D01*
X81495535Y-104001285D01*
X81352678Y-104001285D01*
X81285714Y-103965571D01*
X87125000Y-88471571D02*
X87049107Y-88507285D01*
X86906250Y-88507285D01*
X86839285Y-88471571D01*
X86808035Y-88435857D01*
X86781250Y-88364428D01*
X86808035Y-88150142D01*
X86852678Y-88078714D01*
X86892857Y-88043000D01*
X86968750Y-88007285D01*
X87111607Y-88007285D01*
X87178571Y-88043000D01*
X81281250Y-88507285D02*
X81375000Y-87757285D01*
X81339285Y-88043000D02*
X81415178Y-88007285D01*
X81558035Y-88007285D01*
X81625000Y-88043000D01*
X81656250Y-88078714D01*
X81683035Y-88150142D01*
X81656250Y-88364428D01*
X81611607Y-88435857D01*
X81571428Y-88471571D01*
X81495535Y-88507285D01*
X81352678Y-88507285D01*
X81285714Y-88471571D01*
X76072678Y-88507285D02*
X76121785Y-88114428D01*
X76095000Y-88043000D01*
X76028035Y-88007285D01*
X75885178Y-88007285D01*
X75809285Y-88043000D01*
X76077142Y-88471571D02*
X76001250Y-88507285D01*
X75822678Y-88507285D01*
X75755714Y-88471571D01*
X75728928Y-88400142D01*
X75737857Y-88328714D01*
X75782500Y-88257285D01*
X75858392Y-88221571D01*
X76036964Y-88221571D01*
X76112857Y-88185857D01*
X68298824Y-102952380D02*
X68917872Y-102952380D01*
X68536919Y-103333333D01*
X68679776Y-103333333D01*
X68769062Y-103380952D01*
X68810729Y-103428571D01*
X68846443Y-103523809D01*
X68816681Y-103761904D01*
X68757157Y-103857142D01*
X68703586Y-103904761D01*
X68602395Y-103952380D01*
X68316681Y-103952380D01*
X68227395Y-103904761D01*
X68185729Y-103857142D01*
X69233348Y-103857142D02*
X69275014Y-103904761D01*
X69221443Y-103952380D01*
X69179776Y-103904761D01*
X69233348Y-103857142D01*
X69221443Y-103952380D01*
X69727395Y-102952380D02*
X70346443Y-102952380D01*
X69965491Y-103333333D01*
X70108348Y-103333333D01*
X70197633Y-103380952D01*
X70239300Y-103428571D01*
X70275014Y-103523809D01*
X70245252Y-103761904D01*
X70185729Y-103857142D01*
X70132157Y-103904761D01*
X70030967Y-103952380D01*
X69745252Y-103952380D01*
X69655967Y-103904761D01*
X69614300Y-103857142D01*
X70632157Y-102952380D02*
X70840491Y-103952380D01*
X71298824Y-102952380D01*
X60935919Y-85699428D02*
X61697824Y-85699428D01*
X61269252Y-86080380D02*
X61364491Y-85318476D01*
X62727586Y-85080380D02*
X62251395Y-85080380D01*
X62144252Y-85556571D01*
X62197824Y-85508952D01*
X62299014Y-85461333D01*
X62537110Y-85461333D01*
X62626395Y-85508952D01*
X62668062Y-85556571D01*
X62703776Y-85651809D01*
X62674014Y-85889904D01*
X62614491Y-85985142D01*
X62560919Y-86032761D01*
X62459729Y-86080380D01*
X62221633Y-86080380D01*
X62132348Y-86032761D01*
X62090681Y-85985142D01*
X63060919Y-85080380D02*
X63269252Y-86080380D01*
X63727586Y-85080380D01*
X78615219Y-69860000D02*
G75*
G03X78615219Y-69860000I-803219J0D01*
G01*
D15*
X77304000Y-69860000D02*
X78320000Y-69860000D01*
D10*
X128132824Y-62474380D02*
X128751872Y-62474380D01*
X128370919Y-62855333D01*
X128513776Y-62855333D01*
X128603062Y-62902952D01*
X128644729Y-62950571D01*
X128680443Y-63045809D01*
X128650681Y-63283904D01*
X128591157Y-63379142D01*
X128537586Y-63426761D01*
X128436395Y-63474380D01*
X128150681Y-63474380D01*
X128061395Y-63426761D01*
X128019729Y-63379142D01*
X129067348Y-63379142D02*
X129109014Y-63426761D01*
X129055443Y-63474380D01*
X129013776Y-63426761D01*
X129067348Y-63379142D01*
X129055443Y-63474380D01*
X129561395Y-62474380D02*
X130180443Y-62474380D01*
X129799491Y-62855333D01*
X129942348Y-62855333D01*
X130031633Y-62902952D01*
X130073300Y-62950571D01*
X130109014Y-63045809D01*
X130079252Y-63283904D01*
X130019729Y-63379142D01*
X129966157Y-63426761D01*
X129864967Y-63474380D01*
X129579252Y-63474380D01*
X129489967Y-63426761D01*
X129448300Y-63379142D01*
X130466157Y-62474380D02*
X130674491Y-63474380D01*
X131132824Y-62474380D01*
X133735547Y-56807380D02*
X133860547Y-55807380D01*
X134295071Y-56140714D02*
X134211738Y-56807380D01*
X134283166Y-56235952D02*
X134336738Y-56188333D01*
X134437928Y-56140714D01*
X134580785Y-56140714D01*
X134670071Y-56188333D01*
X134705785Y-56283571D01*
X134640309Y-56807380D01*
X135199833Y-56140714D02*
X135074833Y-57140714D01*
X135193880Y-56188333D02*
X135295071Y-56140714D01*
X135485547Y-56140714D01*
X135574833Y-56188333D01*
X135616500Y-56235952D01*
X135652214Y-56331190D01*
X135616500Y-56616904D01*
X135556976Y-56712142D01*
X135503404Y-56759761D01*
X135402214Y-56807380D01*
X135211738Y-56807380D01*
X135122452Y-56759761D01*
X136533166Y-56140714D02*
X136449833Y-56807380D01*
X136104595Y-56140714D02*
X136039119Y-56664523D01*
X136074833Y-56759761D01*
X136164119Y-56807380D01*
X136306976Y-56807380D01*
X136408166Y-56759761D01*
X136461738Y-56712142D01*
X136866500Y-56140714D02*
X137247452Y-56140714D01*
X137051023Y-55807380D02*
X136943880Y-56664523D01*
X136979595Y-56759761D01*
X137068880Y-56807380D01*
X137164119Y-56807380D01*
X134051023Y-57457380D02*
X134241500Y-57457380D01*
X134330785Y-57505000D01*
X134414119Y-57600238D01*
X134437928Y-57790714D01*
X134396261Y-58124047D01*
X134324833Y-58314523D01*
X134217690Y-58409761D01*
X134116500Y-58457380D01*
X133926023Y-58457380D01*
X133836738Y-58409761D01*
X133753404Y-58314523D01*
X133729595Y-58124047D01*
X133771261Y-57790714D01*
X133842690Y-57600238D01*
X133949833Y-57505000D01*
X134051023Y-57457380D01*
X134771261Y-57790714D02*
X134926023Y-58457380D01*
X135247452Y-57790714D01*
X135931976Y-58409761D02*
X135830785Y-58457380D01*
X135640309Y-58457380D01*
X135551023Y-58409761D01*
X135515309Y-58314523D01*
X135562928Y-57933571D01*
X135622452Y-57838333D01*
X135723642Y-57790714D01*
X135914119Y-57790714D01*
X136003404Y-57838333D01*
X136039119Y-57933571D01*
X136027214Y-58028809D01*
X135539119Y-58124047D01*
X136402214Y-58457380D02*
X136485547Y-57790714D01*
X136461738Y-57981190D02*
X136521261Y-57885952D01*
X136574833Y-57838333D01*
X136676023Y-57790714D01*
X136771261Y-57790714D01*
X136961738Y-57790714D02*
X137342690Y-57790714D01*
X137021261Y-58457380D02*
X137128404Y-57600238D01*
X137187928Y-57505000D01*
X137289119Y-57457380D01*
X137384357Y-57457380D01*
X137735547Y-58457380D02*
X137646261Y-58409761D01*
X137610547Y-58314523D01*
X137717690Y-57457380D01*
X138259357Y-58457380D02*
X138170071Y-58409761D01*
X138128404Y-58362142D01*
X138092690Y-58266904D01*
X138128404Y-57981190D01*
X138187928Y-57885952D01*
X138241500Y-57838333D01*
X138342690Y-57790714D01*
X138485547Y-57790714D01*
X138574833Y-57838333D01*
X138616500Y-57885952D01*
X138652214Y-57981190D01*
X138616500Y-58266904D01*
X138556976Y-58362142D01*
X138503404Y-58409761D01*
X138402214Y-58457380D01*
X138259357Y-58457380D01*
X139009357Y-57790714D02*
X139116500Y-58457380D01*
X139366500Y-57981190D01*
X139497452Y-58457380D01*
X139771261Y-57790714D01*
D12*
X125153648Y-57640285D02*
X125046505Y-57735523D01*
X124748886Y-57830761D01*
X124558410Y-57830761D01*
X124284601Y-57735523D01*
X124117934Y-57545047D01*
X124046505Y-57354571D01*
X123998886Y-56973619D01*
X124034601Y-56687904D01*
X124177458Y-56306952D01*
X124296505Y-56116476D01*
X124510791Y-55926000D01*
X124808410Y-55830761D01*
X124998886Y-55830761D01*
X125272696Y-55926000D01*
X125356029Y-56021238D01*
X126272696Y-57830761D02*
X126094125Y-57735523D01*
X126022696Y-57545047D01*
X126236982Y-55830761D01*
X127320315Y-57830761D02*
X127141744Y-57735523D01*
X127058410Y-57640285D01*
X126986982Y-57449809D01*
X127058410Y-56878380D01*
X127177458Y-56687904D01*
X127284601Y-56592666D01*
X127486982Y-56497428D01*
X127772696Y-56497428D01*
X127951267Y-56592666D01*
X128034601Y-56687904D01*
X128106029Y-56878380D01*
X128034601Y-57449809D01*
X127915553Y-57640285D01*
X127808410Y-57735523D01*
X127606029Y-57830761D01*
X127320315Y-57830761D01*
X129713172Y-57735523D02*
X129510791Y-57830761D01*
X129129839Y-57830761D01*
X128951267Y-57735523D01*
X128867934Y-57640285D01*
X128796505Y-57449809D01*
X128867934Y-56878380D01*
X128986982Y-56687904D01*
X129094125Y-56592666D01*
X129296505Y-56497428D01*
X129677458Y-56497428D01*
X129856029Y-56592666D01*
X130558410Y-57830761D02*
X130808410Y-55830761D01*
X130844125Y-57068857D02*
X131320315Y-57830761D01*
X131486982Y-56497428D02*
X130629839Y-57259333D01*
X120652351Y-51385714D02*
X120759494Y-51290476D01*
X121057113Y-51195238D01*
X121247589Y-51195238D01*
X121521398Y-51290476D01*
X121688065Y-51480952D01*
X121759494Y-51671428D01*
X121807113Y-52052380D01*
X121771398Y-52338095D01*
X121628541Y-52719047D01*
X121509494Y-52909523D01*
X121295208Y-53100000D01*
X120997589Y-53195238D01*
X120807113Y-53195238D01*
X120533303Y-53100000D01*
X120449970Y-53004761D01*
X119533303Y-51195238D02*
X119711875Y-51290476D01*
X119783303Y-51480952D01*
X119569017Y-53195238D01*
X118485684Y-51195238D02*
X118664255Y-51290476D01*
X118747589Y-51385714D01*
X118819017Y-51576190D01*
X118747589Y-52147619D01*
X118628541Y-52338095D01*
X118521398Y-52433333D01*
X118319017Y-52528571D01*
X118033303Y-52528571D01*
X117854732Y-52433333D01*
X117771398Y-52338095D01*
X117699970Y-52147619D01*
X117771398Y-51576190D01*
X117890446Y-51385714D01*
X117997589Y-51290476D01*
X118199970Y-51195238D01*
X118485684Y-51195238D01*
X116092827Y-51290476D02*
X116295208Y-51195238D01*
X116676160Y-51195238D01*
X116854732Y-51290476D01*
X116938065Y-51385714D01*
X117009494Y-51576190D01*
X116938065Y-52147619D01*
X116819017Y-52338095D01*
X116711875Y-52433333D01*
X116509494Y-52528571D01*
X116128541Y-52528571D01*
X115949970Y-52433333D01*
X115247589Y-51195238D02*
X114997589Y-53195238D01*
X114961875Y-51957142D02*
X114485684Y-51195238D01*
X114319017Y-52528571D02*
X115176160Y-51766666D01*
D10*
X107994000Y-60990000D02*
X107486000Y-60990000D01*
X107486000Y-61498000D02*
X107486000Y-60990000D01*
X107486000Y-60990000D02*
X107486000Y-61498000D01*
X77514000Y-61498000D02*
X77514000Y-60990000D01*
X77006000Y-60990000D02*
X77514000Y-60990000D01*
X77514000Y-60990000D02*
X77006000Y-60990000D01*
X76498000Y-62006000D02*
X77514000Y-60990000D01*
X76498000Y-63530000D02*
X76498000Y-62006000D01*
X108502000Y-62006000D02*
X107486000Y-60990000D01*
X108502000Y-63530000D02*
X108502000Y-62006000D01*
D12*
X108502000Y-66806000D02*
X108502000Y-64266000D01*
D10*
X110205884Y-65562000D02*
G75*
G03X110205884Y-65562000I-1703884J0D01*
G01*
D12*
X107232000Y-65562000D02*
X109772000Y-65562000D01*
X101000000Y-53370000D02*
X101000000Y-50830000D01*
D10*
X102703884Y-52126000D02*
G75*
G03X102703884Y-52126000I-1703884J0D01*
G01*
D12*
X99730000Y-52126000D02*
X102270000Y-52126000D01*
D10*
X85703884Y-52126000D02*
G75*
G03X85703884Y-52126000I-1703884J0D01*
G01*
D12*
X82730000Y-52126000D02*
X85270000Y-52126000D01*
X75228000Y-65562000D02*
X77768000Y-65562000D01*
D10*
X78201884Y-65562000D02*
G75*
G03X78201884Y-65562000I-1703884J0D01*
G01*
X87971547Y-70377380D02*
X88096547Y-69377380D01*
X88334642Y-69377380D01*
X88471547Y-69425000D01*
X88554880Y-69520238D01*
X88590595Y-69615476D01*
X88614404Y-69805952D01*
X88596547Y-69948809D01*
X88525119Y-70139285D01*
X88465595Y-70234523D01*
X88358452Y-70329761D01*
X88209642Y-70377380D01*
X87971547Y-70377380D01*
X88971547Y-70377380D02*
X89054880Y-69710714D01*
X89096547Y-69377380D02*
X89042976Y-69425000D01*
X89084642Y-69472619D01*
X89138214Y-69425000D01*
X89096547Y-69377380D01*
X89084642Y-69472619D01*
X89388214Y-69710714D02*
X89769166Y-69710714D01*
X89447738Y-70377380D02*
X89554880Y-69520238D01*
X89614404Y-69425000D01*
X89715595Y-69377380D01*
X89810833Y-69377380D01*
X89959642Y-69710714D02*
X90340595Y-69710714D01*
X90019166Y-70377380D02*
X90126309Y-69520238D01*
X90185833Y-69425000D01*
X90287023Y-69377380D01*
X90382261Y-69377380D01*
X90977500Y-70329761D02*
X90876309Y-70377380D01*
X90685833Y-70377380D01*
X90596547Y-70329761D01*
X90560833Y-70234523D01*
X90608452Y-69853571D01*
X90667976Y-69758333D01*
X90769166Y-69710714D01*
X90959642Y-69710714D01*
X91048928Y-69758333D01*
X91084642Y-69853571D01*
X91072738Y-69948809D01*
X90584642Y-70044047D01*
X91447738Y-70377380D02*
X91531071Y-69710714D01*
X91507261Y-69901190D02*
X91566785Y-69805952D01*
X91620357Y-69758333D01*
X91721547Y-69710714D01*
X91816785Y-69710714D01*
X92453690Y-70329761D02*
X92352500Y-70377380D01*
X92162023Y-70377380D01*
X92072738Y-70329761D01*
X92037023Y-70234523D01*
X92084642Y-69853571D01*
X92144166Y-69758333D01*
X92245357Y-69710714D01*
X92435833Y-69710714D01*
X92525119Y-69758333D01*
X92560833Y-69853571D01*
X92548928Y-69948809D01*
X92060833Y-70044047D01*
X93007261Y-69710714D02*
X92923928Y-70377380D01*
X92995357Y-69805952D02*
X93048928Y-69758333D01*
X93150119Y-69710714D01*
X93292976Y-69710714D01*
X93382261Y-69758333D01*
X93417976Y-69853571D01*
X93352500Y-70377380D01*
X93769166Y-69710714D02*
X94150119Y-69710714D01*
X93953690Y-69377380D02*
X93846547Y-70234523D01*
X93882261Y-70329761D01*
X93971547Y-70377380D01*
X94066785Y-70377380D01*
X94400119Y-70377380D02*
X94483452Y-69710714D01*
X94525119Y-69377380D02*
X94471547Y-69425000D01*
X94513214Y-69472619D01*
X94566785Y-69425000D01*
X94525119Y-69377380D01*
X94513214Y-69472619D01*
X95304880Y-70377380D02*
X95370357Y-69853571D01*
X95334642Y-69758333D01*
X95245357Y-69710714D01*
X95054880Y-69710714D01*
X94953690Y-69758333D01*
X95310833Y-70329761D02*
X95209642Y-70377380D01*
X94971547Y-70377380D01*
X94882261Y-70329761D01*
X94846547Y-70234523D01*
X94858452Y-70139285D01*
X94917976Y-70044047D01*
X95019166Y-69996428D01*
X95257261Y-69996428D01*
X95358452Y-69948809D01*
X95923928Y-70377380D02*
X95834642Y-70329761D01*
X95798928Y-70234523D01*
X95906071Y-69377380D01*
X87971547Y-72027380D02*
X88096547Y-71027380D01*
X88531071Y-71360714D02*
X88447738Y-72027380D01*
X88519166Y-71455952D02*
X88572738Y-71408333D01*
X88673928Y-71360714D01*
X88816785Y-71360714D01*
X88906071Y-71408333D01*
X88941785Y-71503571D01*
X88876309Y-72027380D01*
X89435833Y-71360714D02*
X89310833Y-72360714D01*
X89429880Y-71408333D02*
X89531071Y-71360714D01*
X89721547Y-71360714D01*
X89810833Y-71408333D01*
X89852500Y-71455952D01*
X89888214Y-71551190D01*
X89852500Y-71836904D01*
X89792976Y-71932142D01*
X89739404Y-71979761D01*
X89638214Y-72027380D01*
X89447738Y-72027380D01*
X89358452Y-71979761D01*
X90769166Y-71360714D02*
X90685833Y-72027380D01*
X90340595Y-71360714D02*
X90275119Y-71884523D01*
X90310833Y-71979761D01*
X90400119Y-72027380D01*
X90542976Y-72027380D01*
X90644166Y-71979761D01*
X90697738Y-71932142D01*
X91102500Y-71360714D02*
X91483452Y-71360714D01*
X91287023Y-71027380D02*
X91179880Y-71884523D01*
X91215595Y-71979761D01*
X91304880Y-72027380D01*
X91400119Y-72027380D01*
X91691785Y-71979761D02*
X91781071Y-72027380D01*
X91971547Y-72027380D01*
X92072738Y-71979761D01*
X92132261Y-71884523D01*
X92138214Y-71836904D01*
X92102500Y-71741666D01*
X92013214Y-71694047D01*
X91870357Y-71694047D01*
X91781071Y-71646428D01*
X91745357Y-71551190D01*
X91751309Y-71503571D01*
X91810833Y-71408333D01*
X91912023Y-71360714D01*
X92054880Y-71360714D01*
X92144166Y-71408333D01*
X72736910Y-70329761D02*
X72873815Y-70377380D01*
X73111910Y-70377380D01*
X73213101Y-70329761D01*
X73266672Y-70282142D01*
X73326196Y-70186904D01*
X73338101Y-70091666D01*
X73302386Y-69996428D01*
X73260720Y-69948809D01*
X73171434Y-69901190D01*
X72986910Y-69853571D01*
X72897625Y-69805952D01*
X72855958Y-69758333D01*
X72820244Y-69663095D01*
X72832148Y-69567857D01*
X72891672Y-69472619D01*
X72945244Y-69425000D01*
X73046434Y-69377380D01*
X73284529Y-69377380D01*
X73421434Y-69425000D01*
X73730958Y-70377380D02*
X73855958Y-69377380D01*
X74159529Y-70377380D02*
X74225005Y-69853571D01*
X74189291Y-69758333D01*
X74100005Y-69710714D01*
X73957148Y-69710714D01*
X73855958Y-69758333D01*
X73802386Y-69805952D01*
X74778577Y-70377380D02*
X74689291Y-70329761D01*
X74647625Y-70282142D01*
X74611910Y-70186904D01*
X74647625Y-69901190D01*
X74707148Y-69805952D01*
X74760720Y-69758333D01*
X74861910Y-69710714D01*
X75004767Y-69710714D01*
X75094053Y-69758333D01*
X75135720Y-69805952D01*
X75171434Y-69901190D01*
X75135720Y-70186904D01*
X75076196Y-70282142D01*
X75022625Y-70329761D01*
X74921434Y-70377380D01*
X74778577Y-70377380D01*
X75540482Y-70377380D02*
X75623815Y-69710714D01*
X75600005Y-69901190D02*
X75659529Y-69805952D01*
X75713101Y-69758333D01*
X75814291Y-69710714D01*
X75909529Y-69710714D01*
X76100005Y-69710714D02*
X76480958Y-69710714D01*
X76284529Y-69377380D02*
X76177386Y-70234523D01*
X76213101Y-70329761D01*
X76302386Y-70377380D01*
X76397625Y-70377380D01*
X73671434Y-71360714D02*
X74052386Y-71360714D01*
X73855958Y-71027380D02*
X73748815Y-71884523D01*
X73784529Y-71979761D01*
X73873815Y-72027380D01*
X73969053Y-72027380D01*
X74445244Y-72027380D02*
X74355958Y-71979761D01*
X74314291Y-71932142D01*
X74278577Y-71836904D01*
X74314291Y-71551190D01*
X74373815Y-71455952D01*
X74427386Y-71408333D01*
X74528577Y-71360714D01*
X74671434Y-71360714D01*
X74760720Y-71408333D01*
X74802386Y-71455952D01*
X74838101Y-71551190D01*
X74802386Y-71836904D01*
X74742863Y-71932142D01*
X74689291Y-71979761D01*
X74588101Y-72027380D01*
X74445244Y-72027380D01*
X76611910Y-71075000D02*
X76522625Y-71027380D01*
X76379767Y-71027380D01*
X76230958Y-71075000D01*
X76123815Y-71170238D01*
X76064291Y-71265476D01*
X75992863Y-71455952D01*
X75975005Y-71598809D01*
X75998815Y-71789285D01*
X76034529Y-71884523D01*
X76117863Y-71979761D01*
X76254767Y-72027380D01*
X76350005Y-72027380D01*
X76498815Y-71979761D01*
X76552386Y-71932142D01*
X76594053Y-71598809D01*
X76403577Y-71598809D01*
X76969053Y-72027380D02*
X77094053Y-71027380D01*
X77540482Y-72027380D01*
X77665482Y-71027380D01*
X78016672Y-72027380D02*
X78141672Y-71027380D01*
X78379767Y-71027380D01*
X78516672Y-71075000D01*
X78600005Y-71170238D01*
X78635720Y-71265476D01*
X78659529Y-71455952D01*
X78641672Y-71598809D01*
X78570244Y-71789285D01*
X78510720Y-71884523D01*
X78403577Y-71979761D01*
X78254767Y-72027380D01*
X78016672Y-72027380D01*
D16*
X90194000Y-140692000D02*
X90194000Y-142022000D01*
X88864000Y-140692000D02*
X90194000Y-140692000D01*
X87594000Y-140692000D02*
X87594000Y-143352000D01*
X87594000Y-143352000D02*
X74834000Y-143352000D01*
X87594000Y-140692000D02*
X74834000Y-140692000D01*
X74834000Y-140692000D02*
X74834000Y-143352000D01*
X113045000Y-134651000D02*
X107975000Y-134651000D01*
X108515000Y-124881000D02*
X107975000Y-124881000D01*
X107975000Y-124881000D02*
X107975000Y-134651000D01*
X113045000Y-124881000D02*
X113045000Y-134651000D01*
X113045000Y-124881000D02*
X109515000Y-124881000D01*
X120880000Y-111606000D02*
X120880000Y-109474000D01*
X126120000Y-111606000D02*
X126120000Y-108866000D01*
X126120000Y-108866000D02*
X123480000Y-108866000D01*
X126120000Y-111606000D02*
X120880000Y-111606000D01*
X123480000Y-108866000D02*
X120880000Y-108866000D01*
X120880000Y-109474000D02*
X120880000Y-108866000D01*
X122763589Y-145287663D02*
G75*
G03X122750000Y-141825000I-4763589J1712663D01*
G01*
X119712663Y-138811411D02*
G75*
G03X116250000Y-138825000I-1712663J-4763589D01*
G01*
X113236411Y-141862337D02*
G75*
G03X113250000Y-145325000I4763589J-1712663D01*
G01*
X116287337Y-148338589D02*
G75*
G03X119750000Y-148325000I1712663J4763589D01*
G01*
X118880000Y-108870000D02*
X118880000Y-108165000D01*
X123120000Y-108870000D02*
X123120000Y-108165000D01*
X123120000Y-108870000D02*
X118880000Y-108870000D01*
X102130000Y-102870000D02*
X102130000Y-97630000D01*
X104870000Y-102870000D02*
X104870000Y-97630000D01*
X102130000Y-102870000D02*
X104870000Y-102870000D01*
X102130000Y-97630000D02*
X104870000Y-97630000D01*
X135739000Y-73557000D02*
X131739000Y-73557000D01*
X135739000Y-76557000D02*
X132739000Y-76557000D01*
X79492800Y-71891200D02*
X79492800Y-70561200D01*
X80822800Y-71891200D02*
X79492800Y-71891200D01*
X82092800Y-71891200D02*
X82092800Y-69231200D01*
X82092800Y-69231200D02*
X87232800Y-69231200D01*
X82092800Y-71891200D02*
X87232800Y-71891200D01*
X87232800Y-71891200D02*
X87232800Y-69231200D01*
X100244600Y-118925000D02*
X100244600Y-113725000D01*
X135924600Y-118925000D02*
X135924600Y-117087000D01*
X100244600Y-118925000D02*
X100814600Y-118925000D01*
X100244600Y-113725000D02*
X100814600Y-113725000D01*
X135354600Y-118925000D02*
X135924600Y-118925000D01*
X135354600Y-113725000D02*
X135924600Y-113725000D01*
X102334600Y-118925000D02*
X103354600Y-118925000D01*
X102334600Y-113725000D02*
X103354600Y-113725000D01*
X104874600Y-118925000D02*
X105894600Y-118925000D01*
X104874600Y-113725000D02*
X105894600Y-113725000D01*
X107414600Y-118925000D02*
X108434600Y-118925000D01*
X107414600Y-113725000D02*
X108434600Y-113725000D01*
X109954600Y-118925000D02*
X110974600Y-118925000D01*
X109954600Y-113725000D02*
X110974600Y-113725000D01*
X112494600Y-118925000D02*
X113514600Y-118925000D01*
X112494600Y-113725000D02*
X113514600Y-113725000D01*
X115034600Y-118925000D02*
X116054600Y-118925000D01*
X115034600Y-113725000D02*
X116054600Y-113725000D01*
X117574600Y-118925000D02*
X118594600Y-118925000D01*
X117574600Y-113725000D02*
X118594600Y-113725000D01*
X120114600Y-118925000D02*
X121134600Y-118925000D01*
X120114600Y-113725000D02*
X121134600Y-113725000D01*
X122654600Y-118925000D02*
X123674600Y-118925000D01*
X122654600Y-113725000D02*
X123674600Y-113725000D01*
X125194600Y-118925000D02*
X126214600Y-118925000D01*
X125194600Y-113725000D02*
X126214600Y-113725000D01*
X127734600Y-118925000D02*
X128754600Y-118925000D01*
X127734600Y-113725000D02*
X128754600Y-113725000D01*
X130274600Y-118925000D02*
X131294600Y-118925000D01*
X130274600Y-113725000D02*
X131294600Y-113725000D01*
X132814600Y-118925000D02*
X133834600Y-118925000D01*
X132814600Y-113725000D02*
X133834600Y-113725000D01*
X135924600Y-115817000D02*
X135924600Y-113725000D01*
X92988000Y-67512000D02*
X91972000Y-67512000D01*
X92988000Y-65988000D02*
X91972000Y-65988000D01*
X122988000Y-75738000D02*
X122988000Y-74722000D01*
X124512000Y-75738000D02*
X124512000Y-74722000D01*
X117485000Y-85976000D02*
X113245000Y-85976000D01*
X117485000Y-85976000D02*
X117485000Y-85271000D01*
X113245000Y-85976000D02*
X113245000Y-85271000D01*
X118130000Y-69370000D02*
X118130000Y-68665000D01*
X122370000Y-69370000D02*
X122370000Y-68665000D01*
X122370000Y-69370000D02*
X118130000Y-69370000D01*
X117620000Y-68665000D02*
X117620000Y-69370000D01*
X113380000Y-68665000D02*
X113380000Y-69370000D01*
X113380000Y-69370000D02*
X117620000Y-69370000D01*
X129330000Y-137250000D02*
X129330000Y-138580000D01*
X129330000Y-135980000D02*
X129330000Y-123220000D01*
X129330000Y-135980000D02*
X126670000Y-135980000D01*
X126670000Y-135980000D02*
X126670000Y-123220000D01*
X129330000Y-123220000D02*
X126670000Y-123220000D01*
X129330000Y-138580000D02*
X128000000Y-138580000D01*
X82287337Y-64763589D02*
G75*
G03X85750000Y-64750000I1712663J4763589D01*
G01*
X79236411Y-58287337D02*
G75*
G03X79250000Y-61750000I4763589J-1712663D01*
G01*
X85712663Y-55236411D02*
G75*
G03X82250000Y-55250000I-1712663J-4763589D01*
G01*
X88763589Y-61712663D02*
G75*
G03X88750000Y-58250000I-4763589J1712663D01*
G01*
X91250000Y-56570000D02*
X91250000Y-57520000D01*
X91250000Y-62310000D02*
X91250000Y-61360000D01*
X90330000Y-57520000D02*
X90330000Y-61360000D01*
X92170000Y-57520000D02*
X90330000Y-57520000D01*
X92170000Y-61360000D02*
X92170000Y-57520000D01*
X90330000Y-61360000D02*
X92170000Y-61360000D01*
X66427942Y-67500000D02*
G75*
G03X66427942Y-67500000I-851942J0D01*
G01*
X124385000Y-85286000D02*
X120145000Y-85286000D01*
X124385000Y-85991000D02*
X124385000Y-85286000D01*
X120145000Y-85991000D02*
X120145000Y-85286000D01*
D10*
X114981800Y-70466400D02*
X113381800Y-70466400D01*
X114981800Y-83262400D02*
X120731800Y-83262400D01*
X114981800Y-69891400D02*
X120731800Y-69891400D01*
X114981800Y-83262400D02*
X114981800Y-82612400D01*
X120731800Y-83262400D02*
X120731800Y-82612400D01*
X120731800Y-69891400D02*
X120731800Y-70541400D01*
X114981800Y-69891400D02*
X114981800Y-70466400D01*
D16*
X110490000Y-103710000D02*
X110490000Y-104285000D01*
X110490000Y-104285000D02*
X111065000Y-104285000D01*
X110490000Y-90640000D02*
X110490000Y-90065000D01*
X110490000Y-90065000D02*
X111065000Y-90065000D01*
X124710000Y-103710000D02*
X124710000Y-104285000D01*
X124710000Y-104285000D02*
X124135000Y-104285000D01*
X124710000Y-90640000D02*
X124710000Y-90065000D01*
X124710000Y-90065000D02*
X124135000Y-90065000D01*
X124135000Y-90065000D02*
X124135000Y-88750000D01*
X107165000Y-98130000D02*
X107870000Y-98130000D01*
X105130000Y-98130000D02*
X105835000Y-98130000D01*
X107165000Y-102370000D02*
X107870000Y-102370000D01*
X105130000Y-102370000D02*
X105835000Y-102370000D01*
X107870000Y-102370000D02*
X107870000Y-98130000D01*
X105130000Y-102370000D02*
X105130000Y-98130000D01*
X84620000Y-67670000D02*
X88460000Y-67670000D01*
X84620000Y-65830000D02*
X88460000Y-65830000D01*
X100380000Y-65830000D02*
X96540000Y-65830000D01*
X100380000Y-67670000D02*
X96540000Y-67670000D01*
X93351942Y-89000000D02*
G75*
G03X93351942Y-89000000I-851942J0D01*
G01*
X62630000Y-89620000D02*
X62630000Y-86880000D01*
X67870000Y-89620000D02*
X67870000Y-86880000D01*
X67870000Y-86880000D02*
X62630000Y-86880000D01*
X67870000Y-89620000D02*
X62630000Y-89620000D01*
X119712663Y-55236411D02*
G75*
G03X116250000Y-55250000I-1712663J-4763589D01*
G01*
X122763589Y-61712663D02*
G75*
G03X122750000Y-58250000I-4763589J1712663D01*
G01*
X116287337Y-64763589D02*
G75*
G03X119750000Y-64750000I1712663J4763589D01*
G01*
X113236411Y-58287337D02*
G75*
G03X113250000Y-61750000I4763589J-1712663D01*
G01*
X124940000Y-74000000D02*
X124940000Y-77450000D01*
X124940000Y-74000000D02*
X124940000Y-72050000D01*
X130060000Y-74000000D02*
X130060000Y-75950000D01*
X130060000Y-74000000D02*
X130060000Y-72050000D01*
X70351942Y-105186000D02*
G75*
G03X70351942Y-105186000I-851942J0D01*
G01*
X66101942Y-85000000D02*
G75*
G03X66101942Y-85000000I-851942J0D01*
G01*
X103351942Y-129750000D02*
G75*
G03X103351942Y-129750000I-851942J0D01*
G01*
X132866942Y-86656000D02*
G75*
G03X132866942Y-86656000I-851942J0D01*
G01*
X127601942Y-62500000D02*
G75*
G03X127601942Y-62500000I-851942J0D01*
G01*
X140750000Y-67680000D02*
X140750000Y-66730000D01*
X140750000Y-61940000D02*
X140750000Y-62890000D01*
X141670000Y-66730000D02*
X141670000Y-62890000D01*
X139830000Y-66730000D02*
X141670000Y-66730000D01*
X139830000Y-62890000D02*
X139830000Y-66730000D01*
X141670000Y-62890000D02*
X139830000Y-62890000D01*
X111042000Y-62336000D02*
X111042000Y-61386000D01*
X111042000Y-56596000D02*
X111042000Y-57546000D01*
X111962000Y-61386000D02*
X111962000Y-57546000D01*
X110122000Y-61386000D02*
X111962000Y-61386000D01*
X110122000Y-57546000D02*
X110122000Y-61386000D01*
X111962000Y-57546000D02*
X110122000Y-57546000D01*
X93750000Y-56570000D02*
X93750000Y-57520000D01*
X93750000Y-62310000D02*
X93750000Y-61360000D01*
X92830000Y-57520000D02*
X92830000Y-61360000D01*
X94670000Y-57520000D02*
X92830000Y-57520000D01*
X94670000Y-61360000D02*
X94670000Y-57520000D01*
X92830000Y-61360000D02*
X94670000Y-61360000D01*
X99287337Y-64763589D02*
G75*
G03X102750000Y-64750000I1712663J4763589D01*
G01*
X96236411Y-58287337D02*
G75*
G03X96250000Y-61750000I4763589J-1712663D01*
G01*
X102712663Y-55236411D02*
G75*
G03X99250000Y-55250000I-1712663J-4763589D01*
G01*
X105763589Y-61712663D02*
G75*
G03X105750000Y-58250000I-4763589J1712663D01*
G01*
X136290000Y-59920000D02*
X136290000Y-59764000D01*
X136290000Y-62236000D02*
X136290000Y-62080000D01*
X133688870Y-59920163D02*
G75*
G02X135770961Y-59920000I1041130J-1079837D01*
G01*
X133688870Y-62079837D02*
G75*
G03X135770961Y-62080000I1041130J1079837D01*
G01*
X133057665Y-59921392D02*
G75*
G02X136290000Y-59764484I1672335J-1078608D01*
G01*
X133057665Y-62078608D02*
G75*
G03X136290000Y-62235516I1672335J1078608D01*
G01*
X62630000Y-98620000D02*
X62630000Y-95880000D01*
X67870000Y-98620000D02*
X67870000Y-95880000D01*
X67870000Y-95880000D02*
X62630000Y-95880000D01*
X67870000Y-98620000D02*
X62630000Y-98620000D01*
X62630000Y-101620000D02*
X62630000Y-98880000D01*
X67870000Y-101620000D02*
X67870000Y-98880000D01*
X67870000Y-98880000D02*
X62630000Y-98880000D01*
X67870000Y-101620000D02*
X62630000Y-101620000D01*
X62630000Y-92620000D02*
X62630000Y-89880000D01*
X67870000Y-92620000D02*
X67870000Y-89880000D01*
X67870000Y-89880000D02*
X62630000Y-89880000D01*
X67870000Y-92620000D02*
X62630000Y-92620000D01*
X62630000Y-95620000D02*
X62630000Y-92880000D01*
X67870000Y-95620000D02*
X67870000Y-92880000D01*
X67870000Y-92880000D02*
X62630000Y-92880000D01*
X67870000Y-95620000D02*
X62630000Y-95620000D01*
X62630000Y-82870000D02*
X62630000Y-80130000D01*
X67870000Y-82870000D02*
X67870000Y-80130000D01*
X67870000Y-80130000D02*
X62630000Y-80130000D01*
X67870000Y-82870000D02*
X62630000Y-82870000D01*
X62630000Y-79870000D02*
X62630000Y-77130000D01*
X67870000Y-79870000D02*
X67870000Y-77130000D01*
X67870000Y-77130000D02*
X62630000Y-77130000D01*
X67870000Y-79870000D02*
X62630000Y-79870000D01*
X135370000Y-100380000D02*
X135370000Y-103120000D01*
X130130000Y-100380000D02*
X130130000Y-103120000D01*
X130130000Y-103120000D02*
X135370000Y-103120000D01*
X130130000Y-100380000D02*
X135370000Y-100380000D01*
X134870000Y-99415000D02*
X134870000Y-100120000D01*
X134870000Y-97380000D02*
X134870000Y-98085000D01*
X130630000Y-99415000D02*
X130630000Y-100120000D01*
X130630000Y-97380000D02*
X130630000Y-98085000D01*
X130630000Y-100120000D02*
X134870000Y-100120000D01*
X130630000Y-97380000D02*
X134870000Y-97380000D01*
X125145000Y-82786000D02*
X127885000Y-82786000D01*
X125145000Y-88026000D02*
X127885000Y-88026000D01*
X127885000Y-88026000D02*
X127885000Y-82786000D01*
X125145000Y-88026000D02*
X125145000Y-82786000D01*
X125880000Y-64130000D02*
X130120000Y-64130000D01*
X125880000Y-66870000D02*
X130120000Y-66870000D01*
X125880000Y-64130000D02*
X125880000Y-64835000D01*
X125880000Y-66165000D02*
X125880000Y-66870000D01*
X130120000Y-64130000D02*
X130120000Y-64835000D01*
X130120000Y-66165000D02*
X130120000Y-66870000D01*
X136120000Y-81915000D02*
X136120000Y-82620000D01*
X136120000Y-79880000D02*
X136120000Y-80585000D01*
X131880000Y-81915000D02*
X131880000Y-82620000D01*
X131880000Y-79880000D02*
X131880000Y-80585000D01*
X131880000Y-82620000D02*
X136120000Y-82620000D01*
X131880000Y-79880000D02*
X136120000Y-79880000D01*
X125880000Y-67130000D02*
X130120000Y-67130000D01*
X125880000Y-69870000D02*
X130120000Y-69870000D01*
X125880000Y-67130000D02*
X125880000Y-67835000D01*
X125880000Y-69165000D02*
X125880000Y-69870000D01*
X130120000Y-67130000D02*
X130120000Y-67835000D01*
X130120000Y-69165000D02*
X130120000Y-69870000D01*
X136120000Y-78915000D02*
X136120000Y-79620000D01*
X136120000Y-76880000D02*
X136120000Y-77585000D01*
X131880000Y-78915000D02*
X131880000Y-79620000D01*
X131880000Y-76880000D02*
X131880000Y-77585000D01*
X131880000Y-79620000D02*
X136120000Y-79620000D01*
X131880000Y-76880000D02*
X136120000Y-76880000D01*
X112120000Y-77165000D02*
X112120000Y-77870000D01*
X112120000Y-75130000D02*
X112120000Y-75835000D01*
X107880000Y-77165000D02*
X107880000Y-77870000D01*
X107880000Y-75130000D02*
X107880000Y-75835000D01*
X107880000Y-77870000D02*
X112120000Y-77870000D01*
X107880000Y-75130000D02*
X112120000Y-75130000D01*
X107880000Y-72835000D02*
X107880000Y-72130000D01*
X107880000Y-74870000D02*
X107880000Y-74165000D01*
X112120000Y-72835000D02*
X112120000Y-72130000D01*
X112120000Y-74870000D02*
X112120000Y-74165000D01*
X112120000Y-72130000D02*
X107880000Y-72130000D01*
X112120000Y-74870000D02*
X107880000Y-74870000D01*
D10*
X69166666Y-65952380D02*
X69166666Y-66666666D01*
X69119047Y-66809523D01*
X69023809Y-66904761D01*
X68880952Y-66952380D01*
X68785714Y-66952380D01*
X70119047Y-65952380D02*
X69642857Y-65952380D01*
X69595238Y-66428571D01*
X69642857Y-66380952D01*
X69738095Y-66333333D01*
X69976190Y-66333333D01*
X70071428Y-66380952D01*
X70119047Y-66428571D01*
X70166666Y-66523809D01*
X70166666Y-66761904D01*
X70119047Y-66857142D01*
X70071428Y-66904761D01*
X69976190Y-66952380D01*
X69738095Y-66952380D01*
X69642857Y-66904761D01*
X69595238Y-66857142D01*
X105654761Y-127202380D02*
X105321428Y-126726190D01*
X105083333Y-127202380D02*
X105083333Y-126202380D01*
X105464285Y-126202380D01*
X105559523Y-126250000D01*
X105607142Y-126297619D01*
X105654761Y-126392857D01*
X105654761Y-126535714D01*
X105607142Y-126630952D01*
X105559523Y-126678571D01*
X105464285Y-126726190D01*
X105083333Y-126726190D01*
X105940476Y-126202380D02*
X106273809Y-127202380D01*
X106607142Y-126202380D01*
X107464285Y-127202380D02*
X106892857Y-127202380D01*
X107178571Y-127202380D02*
X107178571Y-126202380D01*
X107083333Y-126345238D01*
X106988095Y-126440476D01*
X106892857Y-126488095D01*
X127107142Y-110607142D02*
X127059523Y-110654761D01*
X126916666Y-110702380D01*
X126821428Y-110702380D01*
X126678571Y-110654761D01*
X126583333Y-110559523D01*
X126535714Y-110464285D01*
X126488095Y-110273809D01*
X126488095Y-110130952D01*
X126535714Y-109940476D01*
X126583333Y-109845238D01*
X126678571Y-109750000D01*
X126821428Y-109702380D01*
X126916666Y-109702380D01*
X127059523Y-109750000D01*
X127107142Y-109797619D01*
X128059523Y-110702380D02*
X127488095Y-110702380D01*
X127773809Y-110702380D02*
X127773809Y-109702380D01*
X127678571Y-109845238D01*
X127583333Y-109940476D01*
X127488095Y-109988095D01*
X128535714Y-110702380D02*
X128726190Y-110702380D01*
X128821428Y-110654761D01*
X128869047Y-110607142D01*
X128964285Y-110464285D01*
X129011904Y-110273809D01*
X129011904Y-109892857D01*
X128964285Y-109797619D01*
X128916666Y-109750000D01*
X128821428Y-109702380D01*
X128630952Y-109702380D01*
X128535714Y-109750000D01*
X128488095Y-109797619D01*
X128440476Y-109892857D01*
X128440476Y-110130952D01*
X128488095Y-110226190D01*
X128535714Y-110273809D01*
X128630952Y-110321428D01*
X128821428Y-110321428D01*
X128916666Y-110273809D01*
X128964285Y-110226190D01*
X129011904Y-110130952D01*
X110666666Y-143002380D02*
X110666666Y-143716666D01*
X110619047Y-143859523D01*
X110523809Y-143954761D01*
X110380952Y-144002380D01*
X110285714Y-144002380D01*
X111571428Y-143335714D02*
X111571428Y-144002380D01*
X111333333Y-142954761D02*
X111095238Y-143669047D01*
X111714285Y-143669047D01*
X124317142Y-107857142D02*
X124269523Y-107904761D01*
X124126666Y-107952380D01*
X124031428Y-107952380D01*
X123888571Y-107904761D01*
X123793333Y-107809523D01*
X123745714Y-107714285D01*
X123698095Y-107523809D01*
X123698095Y-107380952D01*
X123745714Y-107190476D01*
X123793333Y-107095238D01*
X123888571Y-107000000D01*
X124031428Y-106952380D01*
X124126666Y-106952380D01*
X124269523Y-107000000D01*
X124317142Y-107047619D01*
X125269523Y-107952380D02*
X124698095Y-107952380D01*
X124983809Y-107952380D02*
X124983809Y-106952380D01*
X124888571Y-107095238D01*
X124793333Y-107190476D01*
X124698095Y-107238095D01*
X125840952Y-107380952D02*
X125745714Y-107333333D01*
X125698095Y-107285714D01*
X125650476Y-107190476D01*
X125650476Y-107142857D01*
X125698095Y-107047619D01*
X125745714Y-107000000D01*
X125840952Y-106952380D01*
X126031428Y-106952380D01*
X126126666Y-107000000D01*
X126174285Y-107047619D01*
X126221904Y-107142857D01*
X126221904Y-107190476D01*
X126174285Y-107285714D01*
X126126666Y-107333333D01*
X126031428Y-107380952D01*
X125840952Y-107380952D01*
X125745714Y-107428571D01*
X125698095Y-107476190D01*
X125650476Y-107571428D01*
X125650476Y-107761904D01*
X125698095Y-107857142D01*
X125745714Y-107904761D01*
X125840952Y-107952380D01*
X126031428Y-107952380D01*
X126126666Y-107904761D01*
X126174285Y-107857142D01*
X126221904Y-107761904D01*
X126221904Y-107571428D01*
X126174285Y-107476190D01*
X126126666Y-107428571D01*
X126031428Y-107380952D01*
X102769142Y-96977142D02*
X102721523Y-97024761D01*
X102578666Y-97072380D01*
X102483428Y-97072380D01*
X102340571Y-97024761D01*
X102245333Y-96929523D01*
X102197714Y-96834285D01*
X102150095Y-96643809D01*
X102150095Y-96500952D01*
X102197714Y-96310476D01*
X102245333Y-96215238D01*
X102340571Y-96120000D01*
X102483428Y-96072380D01*
X102578666Y-96072380D01*
X102721523Y-96120000D01*
X102769142Y-96167619D01*
X103721523Y-97072380D02*
X103150095Y-97072380D01*
X103435809Y-97072380D02*
X103435809Y-96072380D01*
X103340571Y-96215238D01*
X103245333Y-96310476D01*
X103150095Y-96358095D01*
X104054857Y-96072380D02*
X104721523Y-96072380D01*
X104292952Y-97072380D01*
X133488095Y-70452380D02*
X133488095Y-71261904D01*
X133535714Y-71357142D01*
X133583333Y-71404761D01*
X133678571Y-71452380D01*
X133869047Y-71452380D01*
X133964285Y-71404761D01*
X134011904Y-71357142D01*
X134059523Y-71261904D01*
X134059523Y-70452380D01*
X135059523Y-71452380D02*
X134488095Y-71452380D01*
X134773809Y-71452380D02*
X134773809Y-70452380D01*
X134678571Y-70595238D01*
X134583333Y-70690476D01*
X134488095Y-70738095D01*
X82478666Y-72702380D02*
X82478666Y-73416666D01*
X82431047Y-73559523D01*
X82335809Y-73654761D01*
X82192952Y-73702380D01*
X82097714Y-73702380D01*
X82954857Y-73702380D02*
X82954857Y-72702380D01*
X83335809Y-72702380D01*
X83431047Y-72750000D01*
X83478666Y-72797619D01*
X83526285Y-72892857D01*
X83526285Y-73035714D01*
X83478666Y-73130952D01*
X83431047Y-73178571D01*
X83335809Y-73226190D01*
X82954857Y-73226190D01*
X84478666Y-73702380D02*
X83907238Y-73702380D01*
X84192952Y-73702380D02*
X84192952Y-72702380D01*
X84097714Y-72845238D01*
X84002476Y-72940476D01*
X83907238Y-72988095D01*
X92333333Y-65411142D02*
X92285714Y-65458761D01*
X92142857Y-65506380D01*
X92047619Y-65506380D01*
X91904761Y-65458761D01*
X91809523Y-65363523D01*
X91761904Y-65268285D01*
X91714285Y-65077809D01*
X91714285Y-64934952D01*
X91761904Y-64744476D01*
X91809523Y-64649238D01*
X91904761Y-64554000D01*
X92047619Y-64506380D01*
X92142857Y-64506380D01*
X92285714Y-64554000D01*
X92333333Y-64601619D01*
X93190476Y-64839714D02*
X93190476Y-65506380D01*
X92952380Y-64458761D02*
X92714285Y-65173047D01*
X93333333Y-65173047D01*
X123597142Y-78943142D02*
X123549523Y-78990761D01*
X123406666Y-79038380D01*
X123311428Y-79038380D01*
X123168571Y-78990761D01*
X123073333Y-78895523D01*
X123025714Y-78800285D01*
X122978095Y-78609809D01*
X122978095Y-78466952D01*
X123025714Y-78276476D01*
X123073333Y-78181238D01*
X123168571Y-78086000D01*
X123311428Y-78038380D01*
X123406666Y-78038380D01*
X123549523Y-78086000D01*
X123597142Y-78133619D01*
X124549523Y-79038380D02*
X123978095Y-79038380D01*
X124263809Y-79038380D02*
X124263809Y-78038380D01*
X124168571Y-78181238D01*
X124073333Y-78276476D01*
X123978095Y-78324095D01*
X125501904Y-79038380D02*
X124930476Y-79038380D01*
X125216190Y-79038380D02*
X125216190Y-78038380D01*
X125120952Y-78181238D01*
X125025714Y-78276476D01*
X124930476Y-78324095D01*
X86357142Y-105359142D02*
X86309523Y-105406761D01*
X86166666Y-105454380D01*
X86071428Y-105454380D01*
X85928571Y-105406761D01*
X85833333Y-105311523D01*
X85785714Y-105216285D01*
X85738095Y-105025809D01*
X85738095Y-104882952D01*
X85785714Y-104692476D01*
X85833333Y-104597238D01*
X85928571Y-104502000D01*
X86071428Y-104454380D01*
X86166666Y-104454380D01*
X86309523Y-104502000D01*
X86357142Y-104549619D01*
X86690476Y-104454380D02*
X87309523Y-104454380D01*
X86976190Y-104835333D01*
X87119047Y-104835333D01*
X87214285Y-104882952D01*
X87261904Y-104930571D01*
X87309523Y-105025809D01*
X87309523Y-105263904D01*
X87261904Y-105359142D01*
X87214285Y-105406761D01*
X87119047Y-105454380D01*
X86833333Y-105454380D01*
X86738095Y-105406761D01*
X86690476Y-105359142D01*
X88261904Y-105454380D02*
X87690476Y-105454380D01*
X87976190Y-105454380D02*
X87976190Y-104454380D01*
X87880952Y-104597238D01*
X87785714Y-104692476D01*
X87690476Y-104740095D01*
X80857142Y-105359142D02*
X80809523Y-105406761D01*
X80666666Y-105454380D01*
X80571428Y-105454380D01*
X80428571Y-105406761D01*
X80333333Y-105311523D01*
X80285714Y-105216285D01*
X80238095Y-105025809D01*
X80238095Y-104882952D01*
X80285714Y-104692476D01*
X80333333Y-104597238D01*
X80428571Y-104502000D01*
X80571428Y-104454380D01*
X80666666Y-104454380D01*
X80809523Y-104502000D01*
X80857142Y-104549619D01*
X81238095Y-104549619D02*
X81285714Y-104502000D01*
X81380952Y-104454380D01*
X81619047Y-104454380D01*
X81714285Y-104502000D01*
X81761904Y-104549619D01*
X81809523Y-104644857D01*
X81809523Y-104740095D01*
X81761904Y-104882952D01*
X81190476Y-105454380D01*
X81809523Y-105454380D01*
X82142857Y-104454380D02*
X82809523Y-104454380D01*
X82380952Y-105454380D01*
X75357142Y-105359142D02*
X75309523Y-105406761D01*
X75166666Y-105454380D01*
X75071428Y-105454380D01*
X74928571Y-105406761D01*
X74833333Y-105311523D01*
X74785714Y-105216285D01*
X74738095Y-105025809D01*
X74738095Y-104882952D01*
X74785714Y-104692476D01*
X74833333Y-104597238D01*
X74928571Y-104502000D01*
X75071428Y-104454380D01*
X75166666Y-104454380D01*
X75309523Y-104502000D01*
X75357142Y-104549619D01*
X75738095Y-104549619D02*
X75785714Y-104502000D01*
X75880952Y-104454380D01*
X76119047Y-104454380D01*
X76214285Y-104502000D01*
X76261904Y-104549619D01*
X76309523Y-104644857D01*
X76309523Y-104740095D01*
X76261904Y-104882952D01*
X75690476Y-105454380D01*
X76309523Y-105454380D01*
X77214285Y-104454380D02*
X76738095Y-104454380D01*
X76690476Y-104930571D01*
X76738095Y-104882952D01*
X76833333Y-104835333D01*
X77071428Y-104835333D01*
X77166666Y-104882952D01*
X77214285Y-104930571D01*
X77261904Y-105025809D01*
X77261904Y-105263904D01*
X77214285Y-105359142D01*
X77166666Y-105406761D01*
X77071428Y-105454380D01*
X76833333Y-105454380D01*
X76738095Y-105406761D01*
X76690476Y-105359142D01*
X111627333Y-85039142D02*
X111579714Y-85086761D01*
X111436857Y-85134380D01*
X111341619Y-85134380D01*
X111198761Y-85086761D01*
X111103523Y-84991523D01*
X111055904Y-84896285D01*
X111008285Y-84705809D01*
X111008285Y-84562952D01*
X111055904Y-84372476D01*
X111103523Y-84277238D01*
X111198761Y-84182000D01*
X111341619Y-84134380D01*
X111436857Y-84134380D01*
X111579714Y-84182000D01*
X111627333Y-84229619D01*
X111960666Y-84134380D02*
X112627333Y-84134380D01*
X112198761Y-85134380D01*
X94261904Y-94202380D02*
X94261904Y-95011904D01*
X94309523Y-95107142D01*
X94357142Y-95154761D01*
X94452380Y-95202380D01*
X94642857Y-95202380D01*
X94738095Y-95154761D01*
X94785714Y-95107142D01*
X94833333Y-95011904D01*
X94833333Y-94202380D01*
X95833333Y-95202380D02*
X95261904Y-95202380D01*
X95547619Y-95202380D02*
X95547619Y-94202380D01*
X95452380Y-94345238D01*
X95357142Y-94440476D01*
X95261904Y-94488095D01*
X96166666Y-94202380D02*
X96785714Y-94202380D01*
X96452380Y-94583333D01*
X96595238Y-94583333D01*
X96690476Y-94630952D01*
X96738095Y-94678571D01*
X96785714Y-94773809D01*
X96785714Y-95011904D01*
X96738095Y-95107142D01*
X96690476Y-95154761D01*
X96595238Y-95202380D01*
X96309523Y-95202380D01*
X96214285Y-95154761D01*
X96166666Y-95107142D01*
X94261904Y-78452380D02*
X94261904Y-79261904D01*
X94309523Y-79357142D01*
X94357142Y-79404761D01*
X94452380Y-79452380D01*
X94642857Y-79452380D01*
X94738095Y-79404761D01*
X94785714Y-79357142D01*
X94833333Y-79261904D01*
X94833333Y-78452380D01*
X95833333Y-79452380D02*
X95261904Y-79452380D01*
X95547619Y-79452380D02*
X95547619Y-78452380D01*
X95452380Y-78595238D01*
X95357142Y-78690476D01*
X95261904Y-78738095D01*
X96214285Y-78547619D02*
X96261904Y-78500000D01*
X96357142Y-78452380D01*
X96595238Y-78452380D01*
X96690476Y-78500000D01*
X96738095Y-78547619D01*
X96785714Y-78642857D01*
X96785714Y-78738095D01*
X96738095Y-78880952D01*
X96166666Y-79452380D01*
X96785714Y-79452380D01*
X119607142Y-66681142D02*
X119559523Y-66728761D01*
X119416666Y-66776380D01*
X119321428Y-66776380D01*
X119178571Y-66728761D01*
X119083333Y-66633523D01*
X119035714Y-66538285D01*
X118988095Y-66347809D01*
X118988095Y-66204952D01*
X119035714Y-66014476D01*
X119083333Y-65919238D01*
X119178571Y-65824000D01*
X119321428Y-65776380D01*
X119416666Y-65776380D01*
X119559523Y-65824000D01*
X119607142Y-65871619D01*
X120559523Y-66776380D02*
X119988095Y-66776380D01*
X120273809Y-66776380D02*
X120273809Y-65776380D01*
X120178571Y-65919238D01*
X120083333Y-66014476D01*
X119988095Y-66062095D01*
X121178571Y-65776380D02*
X121273809Y-65776380D01*
X121369047Y-65824000D01*
X121416666Y-65871619D01*
X121464285Y-65966857D01*
X121511904Y-66157333D01*
X121511904Y-66395428D01*
X121464285Y-66585904D01*
X121416666Y-66681142D01*
X121369047Y-66728761D01*
X121273809Y-66776380D01*
X121178571Y-66776380D01*
X121083333Y-66728761D01*
X121035714Y-66681142D01*
X120988095Y-66585904D01*
X120940476Y-66395428D01*
X120940476Y-66157333D01*
X120988095Y-65966857D01*
X121035714Y-65871619D01*
X121083333Y-65824000D01*
X121178571Y-65776380D01*
X115333333Y-66681142D02*
X115285714Y-66728761D01*
X115142857Y-66776380D01*
X115047619Y-66776380D01*
X114904761Y-66728761D01*
X114809523Y-66633523D01*
X114761904Y-66538285D01*
X114714285Y-66347809D01*
X114714285Y-66204952D01*
X114761904Y-66014476D01*
X114809523Y-65919238D01*
X114904761Y-65824000D01*
X115047619Y-65776380D01*
X115142857Y-65776380D01*
X115285714Y-65824000D01*
X115333333Y-65871619D01*
X116285714Y-66776380D02*
X115714285Y-66776380D01*
X116000000Y-66776380D02*
X116000000Y-65776380D01*
X115904761Y-65919238D01*
X115809523Y-66014476D01*
X115714285Y-66062095D01*
X126666666Y-122604761D02*
X126809523Y-122652380D01*
X127047619Y-122652380D01*
X127142857Y-122604761D01*
X127190476Y-122557142D01*
X127238095Y-122461904D01*
X127238095Y-122366666D01*
X127190476Y-122271428D01*
X127142857Y-122223809D01*
X127047619Y-122176190D01*
X126857142Y-122128571D01*
X126761904Y-122080952D01*
X126714285Y-122033333D01*
X126666666Y-121938095D01*
X126666666Y-121842857D01*
X126714285Y-121747619D01*
X126761904Y-121700000D01*
X126857142Y-121652380D01*
X127095238Y-121652380D01*
X127238095Y-121700000D01*
X127571428Y-121652380D02*
X127809523Y-122652380D01*
X128000000Y-121938095D01*
X128190476Y-122652380D01*
X128428571Y-121652380D01*
X129333333Y-122652380D02*
X128761904Y-122652380D01*
X129047619Y-122652380D02*
X129047619Y-121652380D01*
X128952380Y-121795238D01*
X128857142Y-121890476D01*
X128761904Y-121938095D01*
X60098857Y-70189285D02*
X60098857Y-69439285D01*
X60348857Y-69975000D01*
X60598857Y-69439285D01*
X60598857Y-70189285D01*
X60884571Y-69439285D02*
X61348857Y-69439285D01*
X61098857Y-69725000D01*
X61206000Y-69725000D01*
X61277428Y-69760714D01*
X61313142Y-69796428D01*
X61348857Y-69867857D01*
X61348857Y-70046428D01*
X61313142Y-70117857D01*
X61277428Y-70153571D01*
X61206000Y-70189285D01*
X60991714Y-70189285D01*
X60920285Y-70153571D01*
X60884571Y-70117857D01*
X77246666Y-59422380D02*
X77246666Y-60136666D01*
X77199047Y-60279523D01*
X77103809Y-60374761D01*
X76960952Y-60422380D01*
X76865714Y-60422380D01*
X77675238Y-59517619D02*
X77722857Y-59470000D01*
X77818095Y-59422380D01*
X78056190Y-59422380D01*
X78151428Y-59470000D01*
X78199047Y-59517619D01*
X78246666Y-59612857D01*
X78246666Y-59708095D01*
X78199047Y-59850952D01*
X77627619Y-60422380D01*
X78246666Y-60422380D01*
X91702380Y-59606666D02*
X91226190Y-59940000D01*
X91702380Y-60178095D02*
X90702380Y-60178095D01*
X90702380Y-59797142D01*
X90750000Y-59701904D01*
X90797619Y-59654285D01*
X90892857Y-59606666D01*
X91035714Y-59606666D01*
X91130952Y-59654285D01*
X91178571Y-59701904D01*
X91226190Y-59797142D01*
X91226190Y-60178095D01*
X90797619Y-59225714D02*
X90750000Y-59178095D01*
X90702380Y-59082857D01*
X90702380Y-58844761D01*
X90750000Y-58749523D01*
X90797619Y-58701904D01*
X90892857Y-58654285D01*
X90988095Y-58654285D01*
X91130952Y-58701904D01*
X91702380Y-59273333D01*
X91702380Y-58654285D01*
X61730095Y-66254380D02*
X62301523Y-66254380D01*
X62015809Y-67254380D02*
X62015809Y-66254380D01*
X62634857Y-67254380D02*
X62634857Y-66254380D01*
X63015809Y-66254380D01*
X63111047Y-66302000D01*
X63158666Y-66349619D01*
X63206285Y-66444857D01*
X63206285Y-66587714D01*
X63158666Y-66682952D01*
X63111047Y-66730571D01*
X63015809Y-66778190D01*
X62634857Y-66778190D01*
X64063428Y-66587714D02*
X64063428Y-67254380D01*
X63825333Y-66206761D02*
X63587238Y-66921047D01*
X64206285Y-66921047D01*
X121565142Y-84857142D02*
X121517523Y-84904761D01*
X121374666Y-84952380D01*
X121279428Y-84952380D01*
X121136571Y-84904761D01*
X121041333Y-84809523D01*
X120993714Y-84714285D01*
X120946095Y-84523809D01*
X120946095Y-84380952D01*
X120993714Y-84190476D01*
X121041333Y-84095238D01*
X121136571Y-84000000D01*
X121279428Y-83952380D01*
X121374666Y-83952380D01*
X121517523Y-84000000D01*
X121565142Y-84047619D01*
X122517523Y-84952380D02*
X121946095Y-84952380D01*
X122231809Y-84952380D02*
X122231809Y-83952380D01*
X122136571Y-84095238D01*
X122041333Y-84190476D01*
X121946095Y-84238095D01*
X122898476Y-84047619D02*
X122946095Y-84000000D01*
X123041333Y-83952380D01*
X123279428Y-83952380D01*
X123374666Y-84000000D01*
X123422285Y-84047619D01*
X123469904Y-84142857D01*
X123469904Y-84238095D01*
X123422285Y-84380952D01*
X122850857Y-84952380D01*
X123469904Y-84952380D01*
X110988095Y-81452380D02*
X110988095Y-82261904D01*
X111035714Y-82357142D01*
X111083333Y-82404761D01*
X111178571Y-82452380D01*
X111369047Y-82452380D01*
X111464285Y-82404761D01*
X111511904Y-82357142D01*
X111559523Y-82261904D01*
X111559523Y-81452380D01*
X111940476Y-81452380D02*
X112559523Y-81452380D01*
X112226190Y-81833333D01*
X112369047Y-81833333D01*
X112464285Y-81880952D01*
X112511904Y-81928571D01*
X112559523Y-82023809D01*
X112559523Y-82261904D01*
X112511904Y-82357142D01*
X112464285Y-82404761D01*
X112369047Y-82452380D01*
X112083333Y-82452380D01*
X111988095Y-82404761D01*
X111940476Y-82357142D01*
X105738095Y-93452380D02*
X105738095Y-94261904D01*
X105785714Y-94357142D01*
X105833333Y-94404761D01*
X105928571Y-94452380D01*
X106119047Y-94452380D01*
X106214285Y-94404761D01*
X106261904Y-94357142D01*
X106309523Y-94261904D01*
X106309523Y-93452380D01*
X107261904Y-93452380D02*
X106785714Y-93452380D01*
X106738095Y-93928571D01*
X106785714Y-93880952D01*
X106880952Y-93833333D01*
X107119047Y-93833333D01*
X107214285Y-93880952D01*
X107261904Y-93928571D01*
X107309523Y-94023809D01*
X107309523Y-94261904D01*
X107261904Y-94357142D01*
X107214285Y-94404761D01*
X107119047Y-94452380D01*
X106880952Y-94452380D01*
X106785714Y-94404761D01*
X106738095Y-94357142D01*
X105817142Y-97485142D02*
X105769523Y-97532761D01*
X105626666Y-97580380D01*
X105531428Y-97580380D01*
X105388571Y-97532761D01*
X105293333Y-97437523D01*
X105245714Y-97342285D01*
X105198095Y-97151809D01*
X105198095Y-97008952D01*
X105245714Y-96818476D01*
X105293333Y-96723238D01*
X105388571Y-96628000D01*
X105531428Y-96580380D01*
X105626666Y-96580380D01*
X105769523Y-96628000D01*
X105817142Y-96675619D01*
X106769523Y-97580380D02*
X106198095Y-97580380D01*
X106483809Y-97580380D02*
X106483809Y-96580380D01*
X106388571Y-96723238D01*
X106293333Y-96818476D01*
X106198095Y-96866095D01*
X107626666Y-96580380D02*
X107436190Y-96580380D01*
X107340952Y-96628000D01*
X107293333Y-96675619D01*
X107198095Y-96818476D01*
X107150476Y-97008952D01*
X107150476Y-97389904D01*
X107198095Y-97485142D01*
X107245714Y-97532761D01*
X107340952Y-97580380D01*
X107531428Y-97580380D01*
X107626666Y-97532761D01*
X107674285Y-97485142D01*
X107721904Y-97389904D01*
X107721904Y-97151809D01*
X107674285Y-97056571D01*
X107626666Y-97008952D01*
X107531428Y-96961333D01*
X107340952Y-96961333D01*
X107245714Y-97008952D01*
X107198095Y-97056571D01*
X107150476Y-97151809D01*
X86491333Y-67202380D02*
X86158000Y-66726190D01*
X85919904Y-67202380D02*
X85919904Y-66202380D01*
X86300857Y-66202380D01*
X86396095Y-66250000D01*
X86443714Y-66297619D01*
X86491333Y-66392857D01*
X86491333Y-66535714D01*
X86443714Y-66630952D01*
X86396095Y-66678571D01*
X86300857Y-66726190D01*
X85919904Y-66726190D01*
X87348476Y-66535714D02*
X87348476Y-67202380D01*
X87110380Y-66154761D02*
X86872285Y-66869047D01*
X87491333Y-66869047D01*
X98413333Y-67202380D02*
X98080000Y-66726190D01*
X97841904Y-67202380D02*
X97841904Y-66202380D01*
X98222857Y-66202380D01*
X98318095Y-66250000D01*
X98365714Y-66297619D01*
X98413333Y-66392857D01*
X98413333Y-66535714D01*
X98365714Y-66630952D01*
X98318095Y-66678571D01*
X98222857Y-66726190D01*
X97841904Y-66726190D01*
X98746666Y-66202380D02*
X99365714Y-66202380D01*
X99032380Y-66583333D01*
X99175238Y-66583333D01*
X99270476Y-66630952D01*
X99318095Y-66678571D01*
X99365714Y-66773809D01*
X99365714Y-67011904D01*
X99318095Y-67107142D01*
X99270476Y-67154761D01*
X99175238Y-67202380D01*
X98889523Y-67202380D01*
X98794285Y-67154761D01*
X98746666Y-67107142D01*
X94276095Y-87436380D02*
X94847523Y-87436380D01*
X94561809Y-88436380D02*
X94561809Y-87436380D01*
X95180857Y-88436380D02*
X95180857Y-87436380D01*
X95561809Y-87436380D01*
X95657047Y-87484000D01*
X95704666Y-87531619D01*
X95752285Y-87626857D01*
X95752285Y-87769714D01*
X95704666Y-87864952D01*
X95657047Y-87912571D01*
X95561809Y-87960190D01*
X95180857Y-87960190D01*
X96609428Y-87436380D02*
X96418952Y-87436380D01*
X96323714Y-87484000D01*
X96276095Y-87531619D01*
X96180857Y-87674476D01*
X96133238Y-87864952D01*
X96133238Y-88245904D01*
X96180857Y-88341142D01*
X96228476Y-88388761D01*
X96323714Y-88436380D01*
X96514190Y-88436380D01*
X96609428Y-88388761D01*
X96657047Y-88341142D01*
X96704666Y-88245904D01*
X96704666Y-88007809D01*
X96657047Y-87912571D01*
X96609428Y-87864952D01*
X96514190Y-87817333D01*
X96323714Y-87817333D01*
X96228476Y-87864952D01*
X96180857Y-87912571D01*
X96133238Y-88007809D01*
X60107142Y-88525142D02*
X60059523Y-88572761D01*
X59916666Y-88620380D01*
X59821428Y-88620380D01*
X59678571Y-88572761D01*
X59583333Y-88477523D01*
X59535714Y-88382285D01*
X59488095Y-88191809D01*
X59488095Y-88048952D01*
X59535714Y-87858476D01*
X59583333Y-87763238D01*
X59678571Y-87668000D01*
X59821428Y-87620380D01*
X59916666Y-87620380D01*
X60059523Y-87668000D01*
X60107142Y-87715619D01*
X60488095Y-87715619D02*
X60535714Y-87668000D01*
X60630952Y-87620380D01*
X60869047Y-87620380D01*
X60964285Y-87668000D01*
X61011904Y-87715619D01*
X61059523Y-87810857D01*
X61059523Y-87906095D01*
X61011904Y-88048952D01*
X60440476Y-88620380D01*
X61059523Y-88620380D01*
X61678571Y-87620380D02*
X61773809Y-87620380D01*
X61869047Y-87668000D01*
X61916666Y-87715619D01*
X61964285Y-87810857D01*
X62011904Y-88001333D01*
X62011904Y-88239428D01*
X61964285Y-88429904D01*
X61916666Y-88525142D01*
X61869047Y-88572761D01*
X61773809Y-88620380D01*
X61678571Y-88620380D01*
X61583333Y-88572761D01*
X61535714Y-88525142D01*
X61488095Y-88429904D01*
X61440476Y-88239428D01*
X61440476Y-88001333D01*
X61488095Y-87810857D01*
X61535714Y-87715619D01*
X61583333Y-87668000D01*
X61678571Y-87620380D01*
X59392857Y-54839285D02*
X59392857Y-54089285D01*
X59642857Y-54625000D01*
X59892857Y-54089285D01*
X59892857Y-54839285D01*
X60571428Y-54339285D02*
X60571428Y-54839285D01*
X60392857Y-54053571D02*
X60214285Y-54589285D01*
X60678571Y-54589285D01*
X124170666Y-59426380D02*
X124170666Y-60140666D01*
X124123047Y-60283523D01*
X124027809Y-60378761D01*
X123884952Y-60426380D01*
X123789714Y-60426380D01*
X124551619Y-59426380D02*
X125170666Y-59426380D01*
X124837333Y-59807333D01*
X124980190Y-59807333D01*
X125075428Y-59854952D01*
X125123047Y-59902571D01*
X125170666Y-59997809D01*
X125170666Y-60235904D01*
X125123047Y-60331142D01*
X125075428Y-60378761D01*
X124980190Y-60426380D01*
X124694476Y-60426380D01*
X124599238Y-60378761D01*
X124551619Y-60331142D01*
X126780095Y-78038380D02*
X126780095Y-78847904D01*
X126827714Y-78943142D01*
X126875333Y-78990761D01*
X126970571Y-79038380D01*
X127161047Y-79038380D01*
X127256285Y-78990761D01*
X127303904Y-78943142D01*
X127351523Y-78847904D01*
X127351523Y-78038380D01*
X127780095Y-78133619D02*
X127827714Y-78086000D01*
X127922952Y-78038380D01*
X128161047Y-78038380D01*
X128256285Y-78086000D01*
X128303904Y-78133619D01*
X128351523Y-78228857D01*
X128351523Y-78324095D01*
X128303904Y-78466952D01*
X127732476Y-79038380D01*
X128351523Y-79038380D01*
X68488095Y-101452380D02*
X69059523Y-101452380D01*
X68773809Y-102452380D02*
X68773809Y-101452380D01*
X69392857Y-102452380D02*
X69392857Y-101452380D01*
X69773809Y-101452380D01*
X69869047Y-101500000D01*
X69916666Y-101547619D01*
X69964285Y-101642857D01*
X69964285Y-101785714D01*
X69916666Y-101880952D01*
X69869047Y-101928571D01*
X69773809Y-101976190D01*
X69392857Y-101976190D01*
X70297619Y-101452380D02*
X70964285Y-101452380D01*
X70535714Y-102452380D01*
X61266095Y-83556380D02*
X61837523Y-83556380D01*
X61551809Y-84556380D02*
X61551809Y-83556380D01*
X62170857Y-84556380D02*
X62170857Y-83556380D01*
X62551809Y-83556380D01*
X62647047Y-83604000D01*
X62694666Y-83651619D01*
X62742285Y-83746857D01*
X62742285Y-83889714D01*
X62694666Y-83984952D01*
X62647047Y-84032571D01*
X62551809Y-84080190D01*
X62170857Y-84080190D01*
X63647047Y-83556380D02*
X63170857Y-83556380D01*
X63123238Y-84032571D01*
X63170857Y-83984952D01*
X63266095Y-83937333D01*
X63504190Y-83937333D01*
X63599428Y-83984952D01*
X63647047Y-84032571D01*
X63694666Y-84127809D01*
X63694666Y-84365904D01*
X63647047Y-84461142D01*
X63599428Y-84508761D01*
X63504190Y-84556380D01*
X63266095Y-84556380D01*
X63170857Y-84508761D01*
X63123238Y-84461142D01*
X103798095Y-128648380D02*
X104369523Y-128648380D01*
X104083809Y-129648380D02*
X104083809Y-128648380D01*
X104702857Y-129648380D02*
X104702857Y-128648380D01*
X105083809Y-128648380D01*
X105179047Y-128696000D01*
X105226666Y-128743619D01*
X105274285Y-128838857D01*
X105274285Y-128981714D01*
X105226666Y-129076952D01*
X105179047Y-129124571D01*
X105083809Y-129172190D01*
X104702857Y-129172190D01*
X105607619Y-128648380D02*
X106226666Y-128648380D01*
X105893333Y-129029333D01*
X106036190Y-129029333D01*
X106131428Y-129076952D01*
X106179047Y-129124571D01*
X106226666Y-129219809D01*
X106226666Y-129457904D01*
X106179047Y-129553142D01*
X106131428Y-129600761D01*
X106036190Y-129648380D01*
X105750476Y-129648380D01*
X105655238Y-129600761D01*
X105607619Y-129553142D01*
X133238095Y-85452380D02*
X133809523Y-85452380D01*
X133523809Y-86452380D02*
X133523809Y-85452380D01*
X134142857Y-86452380D02*
X134142857Y-85452380D01*
X134523809Y-85452380D01*
X134619047Y-85500000D01*
X134666666Y-85547619D01*
X134714285Y-85642857D01*
X134714285Y-85785714D01*
X134666666Y-85880952D01*
X134619047Y-85928571D01*
X134523809Y-85976190D01*
X134142857Y-85976190D01*
X135095238Y-85547619D02*
X135142857Y-85500000D01*
X135238095Y-85452380D01*
X135476190Y-85452380D01*
X135571428Y-85500000D01*
X135619047Y-85547619D01*
X135666666Y-85642857D01*
X135666666Y-85738095D01*
X135619047Y-85880952D01*
X135047619Y-86452380D01*
X135666666Y-86452380D01*
X128068095Y-60950380D02*
X128639523Y-60950380D01*
X128353809Y-61950380D02*
X128353809Y-60950380D01*
X128972857Y-61950380D02*
X128972857Y-60950380D01*
X129353809Y-60950380D01*
X129449047Y-60998000D01*
X129496666Y-61045619D01*
X129544285Y-61140857D01*
X129544285Y-61283714D01*
X129496666Y-61378952D01*
X129449047Y-61426571D01*
X129353809Y-61474190D01*
X128972857Y-61474190D01*
X130496666Y-61950380D02*
X129925238Y-61950380D01*
X130210952Y-61950380D02*
X130210952Y-60950380D01*
X130115714Y-61093238D01*
X130020476Y-61188476D01*
X129925238Y-61236095D01*
X141188380Y-64976666D02*
X140712190Y-65310000D01*
X141188380Y-65548095D02*
X140188380Y-65548095D01*
X140188380Y-65167142D01*
X140236000Y-65071904D01*
X140283619Y-65024285D01*
X140378857Y-64976666D01*
X140521714Y-64976666D01*
X140616952Y-65024285D01*
X140664571Y-65071904D01*
X140712190Y-65167142D01*
X140712190Y-65548095D01*
X140188380Y-64119523D02*
X140188380Y-64310000D01*
X140236000Y-64405238D01*
X140283619Y-64452857D01*
X140426476Y-64548095D01*
X140616952Y-64595714D01*
X140997904Y-64595714D01*
X141093142Y-64548095D01*
X141140761Y-64500476D01*
X141188380Y-64405238D01*
X141188380Y-64214761D01*
X141140761Y-64119523D01*
X141093142Y-64071904D01*
X140997904Y-64024285D01*
X140759809Y-64024285D01*
X140664571Y-64071904D01*
X140616952Y-64119523D01*
X140569333Y-64214761D01*
X140569333Y-64405238D01*
X140616952Y-64500476D01*
X140664571Y-64548095D01*
X140759809Y-64595714D01*
X111494380Y-59632666D02*
X111018190Y-59966000D01*
X111494380Y-60204095D02*
X110494380Y-60204095D01*
X110494380Y-59823142D01*
X110542000Y-59727904D01*
X110589619Y-59680285D01*
X110684857Y-59632666D01*
X110827714Y-59632666D01*
X110922952Y-59680285D01*
X110970571Y-59727904D01*
X111018190Y-59823142D01*
X111018190Y-60204095D01*
X110494380Y-58727904D02*
X110494380Y-59204095D01*
X110970571Y-59251714D01*
X110922952Y-59204095D01*
X110875333Y-59108857D01*
X110875333Y-58870761D01*
X110922952Y-58775523D01*
X110970571Y-58727904D01*
X111065809Y-58680285D01*
X111303904Y-58680285D01*
X111399142Y-58727904D01*
X111446761Y-58775523D01*
X111494380Y-58870761D01*
X111494380Y-59108857D01*
X111446761Y-59204095D01*
X111399142Y-59251714D01*
X94202380Y-59606666D02*
X93726190Y-59940000D01*
X94202380Y-60178095D02*
X93202380Y-60178095D01*
X93202380Y-59797142D01*
X93250000Y-59701904D01*
X93297619Y-59654285D01*
X93392857Y-59606666D01*
X93535714Y-59606666D01*
X93630952Y-59654285D01*
X93678571Y-59701904D01*
X93726190Y-59797142D01*
X93726190Y-60178095D01*
X94202380Y-58654285D02*
X94202380Y-59225714D01*
X94202380Y-58940000D02*
X93202380Y-58940000D01*
X93345238Y-59035238D01*
X93440476Y-59130476D01*
X93488095Y-59225714D01*
X106996666Y-59422380D02*
X106996666Y-60136666D01*
X106949047Y-60279523D01*
X106853809Y-60374761D01*
X106710952Y-60422380D01*
X106615714Y-60422380D01*
X107996666Y-60422380D02*
X107425238Y-60422380D01*
X107710952Y-60422380D02*
X107710952Y-59422380D01*
X107615714Y-59565238D01*
X107520476Y-59660476D01*
X107425238Y-59708095D01*
X137725904Y-60242380D02*
X137725904Y-59242380D01*
X137964000Y-59242380D01*
X138106857Y-59290000D01*
X138202095Y-59385238D01*
X138249714Y-59480476D01*
X138297333Y-59670952D01*
X138297333Y-59813809D01*
X138249714Y-60004285D01*
X138202095Y-60099523D01*
X138106857Y-60194761D01*
X137964000Y-60242380D01*
X137725904Y-60242380D01*
X139249714Y-60242380D02*
X138678285Y-60242380D01*
X138964000Y-60242380D02*
X138964000Y-59242380D01*
X138868761Y-59385238D01*
X138773523Y-59480476D01*
X138678285Y-59528095D01*
X60107142Y-97415142D02*
X60059523Y-97462761D01*
X59916666Y-97510380D01*
X59821428Y-97510380D01*
X59678571Y-97462761D01*
X59583333Y-97367523D01*
X59535714Y-97272285D01*
X59488095Y-97081809D01*
X59488095Y-96938952D01*
X59535714Y-96748476D01*
X59583333Y-96653238D01*
X59678571Y-96558000D01*
X59821428Y-96510380D01*
X59916666Y-96510380D01*
X60059523Y-96558000D01*
X60107142Y-96605619D01*
X60440476Y-96510380D02*
X61059523Y-96510380D01*
X60726190Y-96891333D01*
X60869047Y-96891333D01*
X60964285Y-96938952D01*
X61011904Y-96986571D01*
X61059523Y-97081809D01*
X61059523Y-97319904D01*
X61011904Y-97415142D01*
X60964285Y-97462761D01*
X60869047Y-97510380D01*
X60583333Y-97510380D01*
X60488095Y-97462761D01*
X60440476Y-97415142D01*
X61678571Y-96510380D02*
X61773809Y-96510380D01*
X61869047Y-96558000D01*
X61916666Y-96605619D01*
X61964285Y-96700857D01*
X62011904Y-96891333D01*
X62011904Y-97129428D01*
X61964285Y-97319904D01*
X61916666Y-97415142D01*
X61869047Y-97462761D01*
X61773809Y-97510380D01*
X61678571Y-97510380D01*
X61583333Y-97462761D01*
X61535714Y-97415142D01*
X61488095Y-97319904D01*
X61440476Y-97129428D01*
X61440476Y-96891333D01*
X61488095Y-96700857D01*
X61535714Y-96605619D01*
X61583333Y-96558000D01*
X61678571Y-96510380D01*
X60107142Y-100717142D02*
X60059523Y-100764761D01*
X59916666Y-100812380D01*
X59821428Y-100812380D01*
X59678571Y-100764761D01*
X59583333Y-100669523D01*
X59535714Y-100574285D01*
X59488095Y-100383809D01*
X59488095Y-100240952D01*
X59535714Y-100050476D01*
X59583333Y-99955238D01*
X59678571Y-99860000D01*
X59821428Y-99812380D01*
X59916666Y-99812380D01*
X60059523Y-99860000D01*
X60107142Y-99907619D01*
X60488095Y-99907619D02*
X60535714Y-99860000D01*
X60630952Y-99812380D01*
X60869047Y-99812380D01*
X60964285Y-99860000D01*
X61011904Y-99907619D01*
X61059523Y-100002857D01*
X61059523Y-100098095D01*
X61011904Y-100240952D01*
X60440476Y-100812380D01*
X61059523Y-100812380D01*
X61535714Y-100812380D02*
X61726190Y-100812380D01*
X61821428Y-100764761D01*
X61869047Y-100717142D01*
X61964285Y-100574285D01*
X62011904Y-100383809D01*
X62011904Y-100002857D01*
X61964285Y-99907619D01*
X61916666Y-99860000D01*
X61821428Y-99812380D01*
X61630952Y-99812380D01*
X61535714Y-99860000D01*
X61488095Y-99907619D01*
X61440476Y-100002857D01*
X61440476Y-100240952D01*
X61488095Y-100336190D01*
X61535714Y-100383809D01*
X61630952Y-100431428D01*
X61821428Y-100431428D01*
X61916666Y-100383809D01*
X61964285Y-100336190D01*
X62011904Y-100240952D01*
X60107142Y-91573142D02*
X60059523Y-91620761D01*
X59916666Y-91668380D01*
X59821428Y-91668380D01*
X59678571Y-91620761D01*
X59583333Y-91525523D01*
X59535714Y-91430285D01*
X59488095Y-91239809D01*
X59488095Y-91096952D01*
X59535714Y-90906476D01*
X59583333Y-90811238D01*
X59678571Y-90716000D01*
X59821428Y-90668380D01*
X59916666Y-90668380D01*
X60059523Y-90716000D01*
X60107142Y-90763619D01*
X60488095Y-90763619D02*
X60535714Y-90716000D01*
X60630952Y-90668380D01*
X60869047Y-90668380D01*
X60964285Y-90716000D01*
X61011904Y-90763619D01*
X61059523Y-90858857D01*
X61059523Y-90954095D01*
X61011904Y-91096952D01*
X60440476Y-91668380D01*
X61059523Y-91668380D01*
X61630952Y-91096952D02*
X61535714Y-91049333D01*
X61488095Y-91001714D01*
X61440476Y-90906476D01*
X61440476Y-90858857D01*
X61488095Y-90763619D01*
X61535714Y-90716000D01*
X61630952Y-90668380D01*
X61821428Y-90668380D01*
X61916666Y-90716000D01*
X61964285Y-90763619D01*
X62011904Y-90858857D01*
X62011904Y-90906476D01*
X61964285Y-91001714D01*
X61916666Y-91049333D01*
X61821428Y-91096952D01*
X61630952Y-91096952D01*
X61535714Y-91144571D01*
X61488095Y-91192190D01*
X61440476Y-91287428D01*
X61440476Y-91477904D01*
X61488095Y-91573142D01*
X61535714Y-91620761D01*
X61630952Y-91668380D01*
X61821428Y-91668380D01*
X61916666Y-91620761D01*
X61964285Y-91573142D01*
X62011904Y-91477904D01*
X62011904Y-91287428D01*
X61964285Y-91192190D01*
X61916666Y-91144571D01*
X61821428Y-91096952D01*
X60107142Y-94621142D02*
X60059523Y-94668761D01*
X59916666Y-94716380D01*
X59821428Y-94716380D01*
X59678571Y-94668761D01*
X59583333Y-94573523D01*
X59535714Y-94478285D01*
X59488095Y-94287809D01*
X59488095Y-94144952D01*
X59535714Y-93954476D01*
X59583333Y-93859238D01*
X59678571Y-93764000D01*
X59821428Y-93716380D01*
X59916666Y-93716380D01*
X60059523Y-93764000D01*
X60107142Y-93811619D01*
X60488095Y-93811619D02*
X60535714Y-93764000D01*
X60630952Y-93716380D01*
X60869047Y-93716380D01*
X60964285Y-93764000D01*
X61011904Y-93811619D01*
X61059523Y-93906857D01*
X61059523Y-94002095D01*
X61011904Y-94144952D01*
X60440476Y-94716380D01*
X61059523Y-94716380D01*
X61916666Y-93716380D02*
X61726190Y-93716380D01*
X61630952Y-93764000D01*
X61583333Y-93811619D01*
X61488095Y-93954476D01*
X61440476Y-94144952D01*
X61440476Y-94525904D01*
X61488095Y-94621142D01*
X61535714Y-94668761D01*
X61630952Y-94716380D01*
X61821428Y-94716380D01*
X61916666Y-94668761D01*
X61964285Y-94621142D01*
X62011904Y-94525904D01*
X62011904Y-94287809D01*
X61964285Y-94192571D01*
X61916666Y-94144952D01*
X61821428Y-94097333D01*
X61630952Y-94097333D01*
X61535714Y-94144952D01*
X61488095Y-94192571D01*
X61440476Y-94287809D01*
X60107142Y-81921142D02*
X60059523Y-81968761D01*
X59916666Y-82016380D01*
X59821428Y-82016380D01*
X59678571Y-81968761D01*
X59583333Y-81873523D01*
X59535714Y-81778285D01*
X59488095Y-81587809D01*
X59488095Y-81444952D01*
X59535714Y-81254476D01*
X59583333Y-81159238D01*
X59678571Y-81064000D01*
X59821428Y-81016380D01*
X59916666Y-81016380D01*
X60059523Y-81064000D01*
X60107142Y-81111619D01*
X60488095Y-81111619D02*
X60535714Y-81064000D01*
X60630952Y-81016380D01*
X60869047Y-81016380D01*
X60964285Y-81064000D01*
X61011904Y-81111619D01*
X61059523Y-81206857D01*
X61059523Y-81302095D01*
X61011904Y-81444952D01*
X60440476Y-82016380D01*
X61059523Y-82016380D01*
X61440476Y-81111619D02*
X61488095Y-81064000D01*
X61583333Y-81016380D01*
X61821428Y-81016380D01*
X61916666Y-81064000D01*
X61964285Y-81111619D01*
X62011904Y-81206857D01*
X62011904Y-81302095D01*
X61964285Y-81444952D01*
X61392857Y-82016380D01*
X62011904Y-82016380D01*
X60107142Y-78873142D02*
X60059523Y-78920761D01*
X59916666Y-78968380D01*
X59821428Y-78968380D01*
X59678571Y-78920761D01*
X59583333Y-78825523D01*
X59535714Y-78730285D01*
X59488095Y-78539809D01*
X59488095Y-78396952D01*
X59535714Y-78206476D01*
X59583333Y-78111238D01*
X59678571Y-78016000D01*
X59821428Y-77968380D01*
X59916666Y-77968380D01*
X60059523Y-78016000D01*
X60107142Y-78063619D01*
X60488095Y-78063619D02*
X60535714Y-78016000D01*
X60630952Y-77968380D01*
X60869047Y-77968380D01*
X60964285Y-78016000D01*
X61011904Y-78063619D01*
X61059523Y-78158857D01*
X61059523Y-78254095D01*
X61011904Y-78396952D01*
X60440476Y-78968380D01*
X61059523Y-78968380D01*
X62011904Y-78968380D02*
X61440476Y-78968380D01*
X61726190Y-78968380D02*
X61726190Y-77968380D01*
X61630952Y-78111238D01*
X61535714Y-78206476D01*
X61440476Y-78254095D01*
X132107142Y-104422142D02*
X132059523Y-104469761D01*
X131916666Y-104517380D01*
X131821428Y-104517380D01*
X131678571Y-104469761D01*
X131583333Y-104374523D01*
X131535714Y-104279285D01*
X131488095Y-104088809D01*
X131488095Y-103945952D01*
X131535714Y-103755476D01*
X131583333Y-103660238D01*
X131678571Y-103565000D01*
X131821428Y-103517380D01*
X131916666Y-103517380D01*
X132059523Y-103565000D01*
X132107142Y-103612619D01*
X133059523Y-104517380D02*
X132488095Y-104517380D01*
X132773809Y-104517380D02*
X132773809Y-103517380D01*
X132678571Y-103660238D01*
X132583333Y-103755476D01*
X132488095Y-103803095D01*
X133964285Y-103517380D02*
X133488095Y-103517380D01*
X133440476Y-103993571D01*
X133488095Y-103945952D01*
X133583333Y-103898333D01*
X133821428Y-103898333D01*
X133916666Y-103945952D01*
X133964285Y-103993571D01*
X134011904Y-104088809D01*
X134011904Y-104326904D01*
X133964285Y-104422142D01*
X133916666Y-104469761D01*
X133821428Y-104517380D01*
X133583333Y-104517380D01*
X133488095Y-104469761D01*
X133440476Y-104422142D01*
X132107142Y-96922142D02*
X132059523Y-96969761D01*
X131916666Y-97017380D01*
X131821428Y-97017380D01*
X131678571Y-96969761D01*
X131583333Y-96874523D01*
X131535714Y-96779285D01*
X131488095Y-96588809D01*
X131488095Y-96445952D01*
X131535714Y-96255476D01*
X131583333Y-96160238D01*
X131678571Y-96065000D01*
X131821428Y-96017380D01*
X131916666Y-96017380D01*
X132059523Y-96065000D01*
X132107142Y-96112619D01*
X133059523Y-97017380D02*
X132488095Y-97017380D01*
X132773809Y-97017380D02*
X132773809Y-96017380D01*
X132678571Y-96160238D01*
X132583333Y-96255476D01*
X132488095Y-96303095D01*
X133916666Y-96350714D02*
X133916666Y-97017380D01*
X133678571Y-95969761D02*
X133440476Y-96684047D01*
X134059523Y-96684047D01*
X128857142Y-84857142D02*
X128809523Y-84904761D01*
X128666666Y-84952380D01*
X128571428Y-84952380D01*
X128428571Y-84904761D01*
X128333333Y-84809523D01*
X128285714Y-84714285D01*
X128238095Y-84523809D01*
X128238095Y-84380952D01*
X128285714Y-84190476D01*
X128333333Y-84095238D01*
X128428571Y-84000000D01*
X128571428Y-83952380D01*
X128666666Y-83952380D01*
X128809523Y-84000000D01*
X128857142Y-84047619D01*
X129809523Y-84952380D02*
X129238095Y-84952380D01*
X129523809Y-84952380D02*
X129523809Y-83952380D01*
X129428571Y-84095238D01*
X129333333Y-84190476D01*
X129238095Y-84238095D01*
X130142857Y-83952380D02*
X130761904Y-83952380D01*
X130428571Y-84333333D01*
X130571428Y-84333333D01*
X130666666Y-84380952D01*
X130714285Y-84428571D01*
X130761904Y-84523809D01*
X130761904Y-84761904D01*
X130714285Y-84857142D01*
X130666666Y-84904761D01*
X130571428Y-84952380D01*
X130285714Y-84952380D01*
X130190476Y-84904761D01*
X130142857Y-84857142D01*
X124327333Y-65857142D02*
X124279714Y-65904761D01*
X124136857Y-65952380D01*
X124041619Y-65952380D01*
X123898761Y-65904761D01*
X123803523Y-65809523D01*
X123755904Y-65714285D01*
X123708285Y-65523809D01*
X123708285Y-65380952D01*
X123755904Y-65190476D01*
X123803523Y-65095238D01*
X123898761Y-65000000D01*
X124041619Y-64952380D01*
X124136857Y-64952380D01*
X124279714Y-65000000D01*
X124327333Y-65047619D01*
X124803523Y-65952380D02*
X124994000Y-65952380D01*
X125089238Y-65904761D01*
X125136857Y-65857142D01*
X125232095Y-65714285D01*
X125279714Y-65523809D01*
X125279714Y-65142857D01*
X125232095Y-65047619D01*
X125184476Y-65000000D01*
X125089238Y-64952380D01*
X124898761Y-64952380D01*
X124803523Y-65000000D01*
X124755904Y-65047619D01*
X124708285Y-65142857D01*
X124708285Y-65380952D01*
X124755904Y-65476190D01*
X124803523Y-65523809D01*
X124898761Y-65571428D01*
X125089238Y-65571428D01*
X125184476Y-65523809D01*
X125232095Y-65476190D01*
X125279714Y-65380952D01*
X130373333Y-81607142D02*
X130325714Y-81654761D01*
X130182857Y-81702380D01*
X130087619Y-81702380D01*
X129944761Y-81654761D01*
X129849523Y-81559523D01*
X129801904Y-81464285D01*
X129754285Y-81273809D01*
X129754285Y-81130952D01*
X129801904Y-80940476D01*
X129849523Y-80845238D01*
X129944761Y-80750000D01*
X130087619Y-80702380D01*
X130182857Y-80702380D01*
X130325714Y-80750000D01*
X130373333Y-80797619D01*
X130944761Y-81130952D02*
X130849523Y-81083333D01*
X130801904Y-81035714D01*
X130754285Y-80940476D01*
X130754285Y-80892857D01*
X130801904Y-80797619D01*
X130849523Y-80750000D01*
X130944761Y-80702380D01*
X131135238Y-80702380D01*
X131230476Y-80750000D01*
X131278095Y-80797619D01*
X131325714Y-80892857D01*
X131325714Y-80940476D01*
X131278095Y-81035714D01*
X131230476Y-81083333D01*
X131135238Y-81130952D01*
X130944761Y-81130952D01*
X130849523Y-81178571D01*
X130801904Y-81226190D01*
X130754285Y-81321428D01*
X130754285Y-81511904D01*
X130801904Y-81607142D01*
X130849523Y-81654761D01*
X130944761Y-81702380D01*
X131135238Y-81702380D01*
X131230476Y-81654761D01*
X131278095Y-81607142D01*
X131325714Y-81511904D01*
X131325714Y-81321428D01*
X131278095Y-81226190D01*
X131230476Y-81178571D01*
X131135238Y-81130952D01*
X124327333Y-68857142D02*
X124279714Y-68904761D01*
X124136857Y-68952380D01*
X124041619Y-68952380D01*
X123898761Y-68904761D01*
X123803523Y-68809523D01*
X123755904Y-68714285D01*
X123708285Y-68523809D01*
X123708285Y-68380952D01*
X123755904Y-68190476D01*
X123803523Y-68095238D01*
X123898761Y-68000000D01*
X124041619Y-67952380D01*
X124136857Y-67952380D01*
X124279714Y-68000000D01*
X124327333Y-68047619D01*
X125184476Y-67952380D02*
X124994000Y-67952380D01*
X124898761Y-68000000D01*
X124851142Y-68047619D01*
X124755904Y-68190476D01*
X124708285Y-68380952D01*
X124708285Y-68761904D01*
X124755904Y-68857142D01*
X124803523Y-68904761D01*
X124898761Y-68952380D01*
X125089238Y-68952380D01*
X125184476Y-68904761D01*
X125232095Y-68857142D01*
X125279714Y-68761904D01*
X125279714Y-68523809D01*
X125232095Y-68428571D01*
X125184476Y-68380952D01*
X125089238Y-68333333D01*
X124898761Y-68333333D01*
X124803523Y-68380952D01*
X124755904Y-68428571D01*
X124708285Y-68523809D01*
X130373333Y-78607142D02*
X130325714Y-78654761D01*
X130182857Y-78702380D01*
X130087619Y-78702380D01*
X129944761Y-78654761D01*
X129849523Y-78559523D01*
X129801904Y-78464285D01*
X129754285Y-78273809D01*
X129754285Y-78130952D01*
X129801904Y-77940476D01*
X129849523Y-77845238D01*
X129944761Y-77750000D01*
X130087619Y-77702380D01*
X130182857Y-77702380D01*
X130325714Y-77750000D01*
X130373333Y-77797619D01*
X131278095Y-77702380D02*
X130801904Y-77702380D01*
X130754285Y-78178571D01*
X130801904Y-78130952D01*
X130897142Y-78083333D01*
X131135238Y-78083333D01*
X131230476Y-78130952D01*
X131278095Y-78178571D01*
X131325714Y-78273809D01*
X131325714Y-78511904D01*
X131278095Y-78607142D01*
X131230476Y-78654761D01*
X131135238Y-78702380D01*
X130897142Y-78702380D01*
X130801904Y-78654761D01*
X130754285Y-78607142D01*
X106293333Y-73857142D02*
X106245714Y-73904761D01*
X106102857Y-73952380D01*
X106007619Y-73952380D01*
X105864761Y-73904761D01*
X105769523Y-73809523D01*
X105721904Y-73714285D01*
X105674285Y-73523809D01*
X105674285Y-73380952D01*
X105721904Y-73190476D01*
X105769523Y-73095238D01*
X105864761Y-73000000D01*
X106007619Y-72952380D01*
X106102857Y-72952380D01*
X106245714Y-73000000D01*
X106293333Y-73047619D01*
X106626666Y-72952380D02*
X107245714Y-72952380D01*
X106912380Y-73333333D01*
X107055238Y-73333333D01*
X107150476Y-73380952D01*
X107198095Y-73428571D01*
X107245714Y-73523809D01*
X107245714Y-73761904D01*
X107198095Y-73857142D01*
X107150476Y-73904761D01*
X107055238Y-73952380D01*
X106769523Y-73952380D01*
X106674285Y-73904761D01*
X106626666Y-73857142D01*
X106293333Y-76857142D02*
X106245714Y-76904761D01*
X106102857Y-76952380D01*
X106007619Y-76952380D01*
X105864761Y-76904761D01*
X105769523Y-76809523D01*
X105721904Y-76714285D01*
X105674285Y-76523809D01*
X105674285Y-76380952D01*
X105721904Y-76190476D01*
X105769523Y-76095238D01*
X105864761Y-76000000D01*
X106007619Y-75952380D01*
X106102857Y-75952380D01*
X106245714Y-76000000D01*
X106293333Y-76047619D01*
X106674285Y-76047619D02*
X106721904Y-76000000D01*
X106817142Y-75952380D01*
X107055238Y-75952380D01*
X107150476Y-76000000D01*
X107198095Y-76047619D01*
X107245714Y-76142857D01*
X107245714Y-76238095D01*
X107198095Y-76380952D01*
X106626666Y-76952380D01*
X107245714Y-76952380D01*
M02*
