G04 #@! TF.GenerationSoftware,KiCad,Pcbnew,(5.1.2)-1*
G04 #@! TF.CreationDate,2019-06-26T13:36:35-07:00*
G04 #@! TF.ProjectId,FIFO_P,4649464f-5f50-42e6-9b69-6361645f7063,rev?*
G04 #@! TF.SameCoordinates,Original*
G04 #@! TF.FileFunction,Copper,L4,Bot*
G04 #@! TF.FilePolarity,Positive*
%FSLAX46Y46*%
G04 Gerber Fmt 4.6, Leading zero omitted, Abs format (unit mm)*
G04 Created by KiCad (PCBNEW (5.1.2)-1) date 2019-06-26 13:36:35*
%MOMM*%
%LPD*%
G04 APERTURE LIST*
%ADD10C,1.600000*%
%ADD11O,2.000000X1.905000*%
%ADD12R,2.000000X1.905000*%
%ADD13O,1.700000X1.700000*%
%ADD14R,1.700000X1.700000*%
%ADD15O,1.600000X1.600000*%
%ADD16C,0.100000*%
%ADD17C,1.425000*%
%ADD18C,3.810000*%
%ADD19C,3.556000*%
%ADD20O,1.400000X1.400000*%
%ADD21C,1.400000*%
%ADD22C,1.399924*%
%ADD23R,0.450000X1.450000*%
%ADD24C,1.440000*%
%ADD25R,1.060000X0.650000*%
%ADD26C,3.500000*%
%ADD27C,3.000000*%
%ADD28R,3.500000X3.500000*%
%ADD29C,0.900000*%
%ADD30C,8.600000*%
%ADD31R,1.600000X1.600000*%
%ADD32C,1.800000*%
%ADD33R,1.800000X1.800000*%
%ADD34C,0.800000*%
%ADD35C,0.500000*%
%ADD36C,0.250000*%
G04 APERTURE END LIST*
D10*
X88250000Y-89000000D03*
X85750000Y-89000000D03*
X82750000Y-89000000D03*
X80250000Y-89000000D03*
X74750000Y-89000000D03*
X77250000Y-89000000D03*
D11*
X69500000Y-97830000D03*
X69500000Y-95290000D03*
D12*
X69500000Y-92750000D03*
D11*
X69500000Y-85080000D03*
X69500000Y-82540000D03*
D12*
X69500000Y-80000000D03*
D10*
X119000000Y-68000000D03*
X121500000Y-68000000D03*
X116750000Y-68000000D03*
X114250000Y-68000000D03*
X91250000Y-66750000D03*
X93750000Y-66750000D03*
D13*
X128000000Y-129630000D03*
X128000000Y-134710000D03*
X128000000Y-132170000D03*
X128000000Y-127090000D03*
D14*
X128000000Y-137250000D03*
D13*
X128000000Y-124550000D03*
X118000000Y-74250000D03*
D14*
X118000000Y-76790000D03*
D15*
X132580000Y-130840000D03*
D10*
X142740000Y-130840000D03*
D13*
X142040000Y-73320000D03*
X139500000Y-73320000D03*
X142040000Y-75860000D03*
X139500000Y-75860000D03*
X142040000Y-78400000D03*
X139500000Y-78400000D03*
X142040000Y-80940000D03*
X139500000Y-80940000D03*
X142040000Y-83480000D03*
X139500000Y-83480000D03*
X142040000Y-86020000D03*
X139500000Y-86020000D03*
X142040000Y-88560000D03*
X139500000Y-88560000D03*
X142040000Y-91100000D03*
X139500000Y-91100000D03*
X142040000Y-93640000D03*
X139500000Y-93640000D03*
X142040000Y-96180000D03*
X139500000Y-96180000D03*
X142040000Y-98720000D03*
X139500000Y-98720000D03*
X142040000Y-101260000D03*
X139500000Y-101260000D03*
X142040000Y-103800000D03*
X139500000Y-103800000D03*
X142040000Y-106340000D03*
X139500000Y-106340000D03*
X142040000Y-108880000D03*
X139500000Y-108880000D03*
X142040000Y-111420000D03*
X139500000Y-111420000D03*
X142040000Y-113960000D03*
X139500000Y-113960000D03*
X142040000Y-116500000D03*
D14*
X139500000Y-116500000D03*
D16*
G36*
X106211359Y-72680142D02*
G01*
X106235566Y-72683733D01*
X106259305Y-72689679D01*
X106282347Y-72697923D01*
X106304470Y-72708387D01*
X106325461Y-72720968D01*
X106345117Y-72735546D01*
X106363250Y-72751981D01*
X107248019Y-73636750D01*
X107264454Y-73654883D01*
X107279032Y-73674539D01*
X107291613Y-73695530D01*
X107302077Y-73717653D01*
X107310321Y-73740695D01*
X107316267Y-73764434D01*
X107319858Y-73788641D01*
X107321059Y-73813084D01*
X107319858Y-73837527D01*
X107316267Y-73861734D01*
X107310321Y-73885473D01*
X107302077Y-73908515D01*
X107291613Y-73930638D01*
X107279032Y-73951629D01*
X107264454Y-73971285D01*
X107248019Y-73989418D01*
X106593060Y-74644377D01*
X106574927Y-74660812D01*
X106555271Y-74675390D01*
X106534280Y-74687971D01*
X106512157Y-74698435D01*
X106489115Y-74706679D01*
X106465376Y-74712625D01*
X106441169Y-74716216D01*
X106416726Y-74717417D01*
X106392283Y-74716216D01*
X106368076Y-74712625D01*
X106344337Y-74706679D01*
X106321295Y-74698435D01*
X106299172Y-74687971D01*
X106278181Y-74675390D01*
X106258525Y-74660812D01*
X106240392Y-74644377D01*
X105355623Y-73759608D01*
X105339188Y-73741475D01*
X105324610Y-73721819D01*
X105312029Y-73700828D01*
X105301565Y-73678705D01*
X105293321Y-73655663D01*
X105287375Y-73631924D01*
X105283784Y-73607717D01*
X105282583Y-73583274D01*
X105283784Y-73558831D01*
X105287375Y-73534624D01*
X105293321Y-73510885D01*
X105301565Y-73487843D01*
X105312029Y-73465720D01*
X105324610Y-73444729D01*
X105339188Y-73425073D01*
X105355623Y-73406940D01*
X106010582Y-72751981D01*
X106028715Y-72735546D01*
X106048371Y-72720968D01*
X106069362Y-72708387D01*
X106091485Y-72697923D01*
X106114527Y-72689679D01*
X106138266Y-72683733D01*
X106162473Y-72680142D01*
X106186916Y-72678941D01*
X106211359Y-72680142D01*
X106211359Y-72680142D01*
G37*
D17*
X106301821Y-73698179D03*
D16*
G36*
X104107717Y-74783784D02*
G01*
X104131924Y-74787375D01*
X104155663Y-74793321D01*
X104178705Y-74801565D01*
X104200828Y-74812029D01*
X104221819Y-74824610D01*
X104241475Y-74839188D01*
X104259608Y-74855623D01*
X105144377Y-75740392D01*
X105160812Y-75758525D01*
X105175390Y-75778181D01*
X105187971Y-75799172D01*
X105198435Y-75821295D01*
X105206679Y-75844337D01*
X105212625Y-75868076D01*
X105216216Y-75892283D01*
X105217417Y-75916726D01*
X105216216Y-75941169D01*
X105212625Y-75965376D01*
X105206679Y-75989115D01*
X105198435Y-76012157D01*
X105187971Y-76034280D01*
X105175390Y-76055271D01*
X105160812Y-76074927D01*
X105144377Y-76093060D01*
X104489418Y-76748019D01*
X104471285Y-76764454D01*
X104451629Y-76779032D01*
X104430638Y-76791613D01*
X104408515Y-76802077D01*
X104385473Y-76810321D01*
X104361734Y-76816267D01*
X104337527Y-76819858D01*
X104313084Y-76821059D01*
X104288641Y-76819858D01*
X104264434Y-76816267D01*
X104240695Y-76810321D01*
X104217653Y-76802077D01*
X104195530Y-76791613D01*
X104174539Y-76779032D01*
X104154883Y-76764454D01*
X104136750Y-76748019D01*
X103251981Y-75863250D01*
X103235546Y-75845117D01*
X103220968Y-75825461D01*
X103208387Y-75804470D01*
X103197923Y-75782347D01*
X103189679Y-75759305D01*
X103183733Y-75735566D01*
X103180142Y-75711359D01*
X103178941Y-75686916D01*
X103180142Y-75662473D01*
X103183733Y-75638266D01*
X103189679Y-75614527D01*
X103197923Y-75591485D01*
X103208387Y-75569362D01*
X103220968Y-75548371D01*
X103235546Y-75528715D01*
X103251981Y-75510582D01*
X103906940Y-74855623D01*
X103925073Y-74839188D01*
X103944729Y-74824610D01*
X103965720Y-74812029D01*
X103987843Y-74801565D01*
X104010885Y-74793321D01*
X104034624Y-74787375D01*
X104058831Y-74783784D01*
X104083274Y-74782583D01*
X104107717Y-74783784D01*
X104107717Y-74783784D01*
G37*
D17*
X104198179Y-75801821D03*
D18*
X80825000Y-56825000D03*
X87175000Y-56825000D03*
X80825000Y-63175000D03*
D19*
X84000000Y-60000000D03*
D18*
X87175000Y-63175000D03*
D20*
X91250000Y-55630000D03*
D21*
X91250000Y-63250000D03*
D22*
X65576000Y-67500000D03*
D10*
X123515000Y-86656000D03*
X121015000Y-86656000D03*
X123750000Y-74000000D03*
X123750000Y-76500000D03*
D23*
X125300000Y-118450000D03*
X125950000Y-118450000D03*
X126600000Y-118450000D03*
X127250000Y-118450000D03*
X127900000Y-118450000D03*
X128550000Y-118450000D03*
X129200000Y-118450000D03*
X129200000Y-112550000D03*
X128550000Y-112550000D03*
X127900000Y-112550000D03*
X127250000Y-112550000D03*
X126600000Y-112550000D03*
X125950000Y-112550000D03*
X125300000Y-112550000D03*
D10*
X119750000Y-107500000D03*
X122250000Y-107500000D03*
D24*
X90515000Y-124126000D03*
X90515000Y-126666000D03*
X90515000Y-129206000D03*
D23*
X112300000Y-118450000D03*
X112950000Y-118450000D03*
X113600000Y-118450000D03*
X114250000Y-118450000D03*
X114900000Y-118450000D03*
X115550000Y-118450000D03*
X116200000Y-118450000D03*
X116200000Y-112550000D03*
X115550000Y-112550000D03*
X114900000Y-112550000D03*
X114250000Y-112550000D03*
X113600000Y-112550000D03*
X112950000Y-112550000D03*
X112300000Y-112550000D03*
D10*
X106500000Y-99000000D03*
X106500000Y-101500000D03*
D23*
X105800000Y-118450000D03*
X106450000Y-118450000D03*
X107100000Y-118450000D03*
X107750000Y-118450000D03*
X108400000Y-118450000D03*
X109050000Y-118450000D03*
X109700000Y-118450000D03*
X109700000Y-112550000D03*
X109050000Y-112550000D03*
X108400000Y-112550000D03*
X107750000Y-112550000D03*
X107100000Y-112550000D03*
X106450000Y-112550000D03*
X105800000Y-112550000D03*
D20*
X89080000Y-66750000D03*
D21*
X84000000Y-66750000D03*
D20*
X95920000Y-66750000D03*
D21*
X101000000Y-66750000D03*
D25*
X68400000Y-88750000D03*
X68400000Y-87800000D03*
X68400000Y-89700000D03*
X70600000Y-89700000D03*
X70600000Y-88750000D03*
X70600000Y-87800000D03*
D22*
X92500000Y-89000000D03*
D10*
X64000000Y-88250000D03*
X66500000Y-88250000D03*
D16*
G36*
X65760765Y-58754213D02*
G01*
X65845704Y-58766813D01*
X65928999Y-58787677D01*
X66009848Y-58816605D01*
X66087472Y-58853319D01*
X66161124Y-58897464D01*
X66230094Y-58948616D01*
X66293718Y-59006282D01*
X66351384Y-59069906D01*
X66402536Y-59138876D01*
X66446681Y-59212528D01*
X66483395Y-59290152D01*
X66512323Y-59371001D01*
X66533187Y-59454296D01*
X66545787Y-59539235D01*
X66550000Y-59625000D01*
X66550000Y-61375000D01*
X66545787Y-61460765D01*
X66533187Y-61545704D01*
X66512323Y-61628999D01*
X66483395Y-61709848D01*
X66446681Y-61787472D01*
X66402536Y-61861124D01*
X66351384Y-61930094D01*
X66293718Y-61993718D01*
X66230094Y-62051384D01*
X66161124Y-62102536D01*
X66087472Y-62146681D01*
X66009848Y-62183395D01*
X65928999Y-62212323D01*
X65845704Y-62233187D01*
X65760765Y-62245787D01*
X65675000Y-62250000D01*
X63925000Y-62250000D01*
X63839235Y-62245787D01*
X63754296Y-62233187D01*
X63671001Y-62212323D01*
X63590152Y-62183395D01*
X63512528Y-62146681D01*
X63438876Y-62102536D01*
X63369906Y-62051384D01*
X63306282Y-61993718D01*
X63248616Y-61930094D01*
X63197464Y-61861124D01*
X63153319Y-61787472D01*
X63116605Y-61709848D01*
X63087677Y-61628999D01*
X63066813Y-61545704D01*
X63054213Y-61460765D01*
X63050000Y-61375000D01*
X63050000Y-59625000D01*
X63054213Y-59539235D01*
X63066813Y-59454296D01*
X63087677Y-59371001D01*
X63116605Y-59290152D01*
X63153319Y-59212528D01*
X63197464Y-59138876D01*
X63248616Y-59069906D01*
X63306282Y-59006282D01*
X63369906Y-58948616D01*
X63438876Y-58897464D01*
X63512528Y-58853319D01*
X63590152Y-58816605D01*
X63671001Y-58787677D01*
X63754296Y-58766813D01*
X63839235Y-58754213D01*
X63925000Y-58750000D01*
X65675000Y-58750000D01*
X65760765Y-58754213D01*
X65760765Y-58754213D01*
G37*
D26*
X64800000Y-60500000D03*
D16*
G36*
X70573513Y-56003611D02*
G01*
X70646318Y-56014411D01*
X70717714Y-56032295D01*
X70787013Y-56057090D01*
X70853548Y-56088559D01*
X70916678Y-56126398D01*
X70975795Y-56170242D01*
X71030330Y-56219670D01*
X71079758Y-56274205D01*
X71123602Y-56333322D01*
X71161441Y-56396452D01*
X71192910Y-56462987D01*
X71217705Y-56532286D01*
X71235589Y-56603682D01*
X71246389Y-56676487D01*
X71250000Y-56750000D01*
X71250000Y-58250000D01*
X71246389Y-58323513D01*
X71235589Y-58396318D01*
X71217705Y-58467714D01*
X71192910Y-58537013D01*
X71161441Y-58603548D01*
X71123602Y-58666678D01*
X71079758Y-58725795D01*
X71030330Y-58780330D01*
X70975795Y-58829758D01*
X70916678Y-58873602D01*
X70853548Y-58911441D01*
X70787013Y-58942910D01*
X70717714Y-58967705D01*
X70646318Y-58985589D01*
X70573513Y-58996389D01*
X70500000Y-59000000D01*
X68500000Y-59000000D01*
X68426487Y-58996389D01*
X68353682Y-58985589D01*
X68282286Y-58967705D01*
X68212987Y-58942910D01*
X68146452Y-58911441D01*
X68083322Y-58873602D01*
X68024205Y-58829758D01*
X67969670Y-58780330D01*
X67920242Y-58725795D01*
X67876398Y-58666678D01*
X67838559Y-58603548D01*
X67807090Y-58537013D01*
X67782295Y-58467714D01*
X67764411Y-58396318D01*
X67753611Y-58323513D01*
X67750000Y-58250000D01*
X67750000Y-56750000D01*
X67753611Y-56676487D01*
X67764411Y-56603682D01*
X67782295Y-56532286D01*
X67807090Y-56462987D01*
X67838559Y-56396452D01*
X67876398Y-56333322D01*
X67920242Y-56274205D01*
X67969670Y-56219670D01*
X68024205Y-56170242D01*
X68083322Y-56126398D01*
X68146452Y-56088559D01*
X68212987Y-56057090D01*
X68282286Y-56032295D01*
X68353682Y-56014411D01*
X68426487Y-56003611D01*
X68500000Y-56000000D01*
X70500000Y-56000000D01*
X70573513Y-56003611D01*
X70573513Y-56003611D01*
G37*
D27*
X69500000Y-57500000D03*
D28*
X69500000Y-63500000D03*
D10*
X119750000Y-110250000D03*
X117250000Y-110250000D03*
D29*
X146780419Y-52219581D03*
X144500000Y-51275000D03*
X142219581Y-52219581D03*
X141275000Y-54500000D03*
X142219581Y-56780419D03*
X144500000Y-57725000D03*
X146780419Y-56780419D03*
X147725000Y-54500000D03*
D30*
X144500000Y-54500000D03*
D29*
X146780419Y-142219581D03*
X144500000Y-141275000D03*
X142219581Y-142219581D03*
X141275000Y-144500000D03*
X142219581Y-146780419D03*
X144500000Y-147725000D03*
X146780419Y-146780419D03*
X147725000Y-144500000D03*
D30*
X144500000Y-144500000D03*
D29*
X56780419Y-142219581D03*
X54500000Y-141275000D03*
X52219581Y-142219581D03*
X51275000Y-144500000D03*
X52219581Y-146780419D03*
X54500000Y-147725000D03*
X56780419Y-146780419D03*
X57725000Y-144500000D03*
D30*
X54500000Y-144500000D03*
X54500000Y-54500000D03*
D29*
X57725000Y-54500000D03*
X56780419Y-56780419D03*
X54500000Y-57725000D03*
X52219581Y-56780419D03*
X51275000Y-54500000D03*
X52219581Y-52219581D03*
X54500000Y-51275000D03*
X56780419Y-52219581D03*
D15*
X95010000Y-130500000D03*
X122950000Y-122880000D03*
X97550000Y-130500000D03*
X120410000Y-122880000D03*
X100090000Y-130500000D03*
X117870000Y-122880000D03*
X102630000Y-130500000D03*
X115330000Y-122880000D03*
X105170000Y-130500000D03*
X112790000Y-122880000D03*
X107710000Y-130500000D03*
X110250000Y-122880000D03*
X110250000Y-130500000D03*
X107710000Y-122880000D03*
X112790000Y-130500000D03*
X105170000Y-122880000D03*
X115330000Y-130500000D03*
X102630000Y-122880000D03*
X117870000Y-130500000D03*
X100090000Y-122880000D03*
X120410000Y-130500000D03*
X97550000Y-122880000D03*
X122950000Y-130500000D03*
D31*
X95010000Y-122880000D03*
D23*
X118800000Y-118450000D03*
X119450000Y-118450000D03*
X120100000Y-118450000D03*
X120750000Y-118450000D03*
X121400000Y-118450000D03*
X122050000Y-118450000D03*
X122700000Y-118450000D03*
X122700000Y-112550000D03*
X122050000Y-112550000D03*
X121400000Y-112550000D03*
X120750000Y-112550000D03*
X120100000Y-112550000D03*
X119450000Y-112550000D03*
X118800000Y-112550000D03*
D18*
X121175000Y-63175000D03*
X114825000Y-63175000D03*
X121175000Y-56825000D03*
D19*
X118000000Y-60000000D03*
D18*
X114825000Y-56825000D03*
D22*
X66500000Y-105186000D03*
X65250000Y-85000000D03*
X102630000Y-133750000D03*
X132015000Y-86656000D03*
X126750000Y-62500000D03*
D15*
X132580000Y-127720000D03*
D10*
X142740000Y-127720000D03*
D15*
X132580000Y-133970000D03*
D10*
X142740000Y-133970000D03*
D20*
X140750000Y-68620000D03*
D21*
X140750000Y-61000000D03*
D20*
X111042000Y-63276000D03*
D21*
X111042000Y-55656000D03*
D20*
X93750000Y-55630000D03*
D21*
X93750000Y-63250000D03*
D18*
X102000000Y-138400000D03*
X108350000Y-138400000D03*
X102000000Y-144750000D03*
D19*
X105175000Y-141575000D03*
D18*
X108350000Y-144750000D03*
X97825000Y-56825000D03*
X104175000Y-56825000D03*
X97825000Y-63175000D03*
D19*
X101000000Y-60000000D03*
D18*
X104175000Y-63175000D03*
D32*
X133460000Y-61000000D03*
D33*
X136000000Y-61000000D03*
D10*
X64000000Y-97250000D03*
X66500000Y-97250000D03*
X64000000Y-100250000D03*
X66500000Y-100250000D03*
X64000000Y-91250000D03*
X66500000Y-91250000D03*
X64000000Y-94250000D03*
X66500000Y-94250000D03*
X64000000Y-81500000D03*
X66500000Y-81500000D03*
X64000000Y-78500000D03*
X66500000Y-78500000D03*
X103500000Y-99000000D03*
X103500000Y-101500000D03*
X134000000Y-101750000D03*
X131500000Y-101750000D03*
X134000000Y-98750000D03*
X131500000Y-98750000D03*
X126515000Y-84156000D03*
X126515000Y-86656000D03*
X126750000Y-65500000D03*
X129250000Y-65500000D03*
X133500000Y-65500000D03*
X136000000Y-65500000D03*
X116615000Y-84606000D03*
X114115000Y-84606000D03*
X126750000Y-68500000D03*
X129250000Y-68500000D03*
X133500000Y-68500000D03*
X136000000Y-68500000D03*
X111250000Y-76500000D03*
X108750000Y-76500000D03*
X108750000Y-73500000D03*
X111250000Y-73500000D03*
D34*
X119850000Y-72250000D03*
X115750000Y-73250000D03*
X135275000Y-116429000D03*
X99665000Y-117191000D03*
X98839999Y-118016001D03*
X98839999Y-117191000D03*
X134750000Y-74000000D03*
X118015000Y-113156000D03*
X124750000Y-111000000D03*
X111750000Y-111000000D03*
X105301315Y-111066228D03*
X123329998Y-119529426D03*
X115625000Y-120239000D03*
X110206000Y-120874000D03*
X130765000Y-118406000D03*
X96250000Y-128000000D03*
X119982796Y-74500993D03*
X125750000Y-74500000D03*
X135400000Y-70750000D03*
X136950000Y-89750000D03*
X137000000Y-79750000D03*
X130750000Y-71500000D03*
X128987347Y-102762653D03*
X144250000Y-102500000D03*
X132500000Y-103000000D03*
X146000000Y-112750000D03*
X134250000Y-116250000D03*
X137000000Y-115500000D03*
X138500000Y-118750000D03*
X140724999Y-77224999D03*
X146000000Y-77250000D03*
X130525001Y-77224999D03*
X138000000Y-125000000D03*
X140750000Y-82250000D03*
X126500000Y-110000000D03*
X125750000Y-110750000D03*
X121265000Y-103156000D03*
X125765000Y-115906000D03*
X121250000Y-110500000D03*
X118800000Y-103191000D03*
X120500000Y-114250000D03*
X118165339Y-111355661D03*
X115000000Y-110000000D03*
X114250000Y-110750000D03*
X113500000Y-110000000D03*
X112750000Y-110750000D03*
X108500000Y-110000000D03*
X107750000Y-110750000D03*
X107000000Y-110000000D03*
X106250000Y-110750000D03*
X128250000Y-120000000D03*
X116250000Y-77500000D03*
X119750000Y-76250000D03*
X136000000Y-74000000D03*
X123500000Y-95250000D03*
X114000000Y-91250000D03*
X111500000Y-96750000D03*
X128877805Y-111233871D03*
X110500000Y-112500000D03*
X123160000Y-111095000D03*
X111765000Y-103156000D03*
X116265000Y-103156000D03*
D35*
X69500000Y-92750000D02*
X69500000Y-90800000D01*
X69225000Y-90525000D02*
X69775000Y-90525000D01*
X69775000Y-90525000D02*
X70600000Y-89700000D01*
X69500000Y-90800000D02*
X69775000Y-90525000D01*
X69225000Y-90525000D02*
X68400000Y-89700000D01*
X69500000Y-90800000D02*
X69225000Y-90525000D01*
X135275000Y-116429000D02*
X134513000Y-117191000D01*
D36*
X105516000Y-117191000D02*
X105253000Y-117191000D01*
X105800000Y-117475000D02*
X105516000Y-117191000D01*
X106084000Y-117191000D02*
X106269000Y-117191000D01*
X105800000Y-117475000D02*
X106084000Y-117191000D01*
X105800000Y-118450000D02*
X105800000Y-117475000D01*
D35*
X106269000Y-117191000D02*
X105253000Y-117191000D01*
D36*
X112016000Y-117191000D02*
X111730000Y-117191000D01*
X112300000Y-117475000D02*
X112016000Y-117191000D01*
D35*
X111730000Y-117191000D02*
X106269000Y-117191000D01*
D36*
X112584000Y-117191000D02*
X112746000Y-117191000D01*
X112300000Y-117475000D02*
X112584000Y-117191000D01*
X112300000Y-118450000D02*
X112300000Y-117475000D01*
D35*
X112746000Y-117191000D02*
X111730000Y-117191000D01*
D36*
X118516000Y-117191000D02*
X118334000Y-117191000D01*
X118800000Y-117475000D02*
X118516000Y-117191000D01*
D35*
X118334000Y-117191000D02*
X112746000Y-117191000D01*
D36*
X119084000Y-117191000D02*
X119350000Y-117191000D01*
X118800000Y-117475000D02*
X119084000Y-117191000D01*
X118800000Y-118450000D02*
X118800000Y-117475000D01*
D35*
X119350000Y-117191000D02*
X118334000Y-117191000D01*
D36*
X125065000Y-117240000D02*
X125065000Y-117191000D01*
X125300000Y-117475000D02*
X125065000Y-117240000D01*
D35*
X125065000Y-117191000D02*
X119350000Y-117191000D01*
D36*
X125584000Y-117191000D02*
X125954000Y-117191000D01*
X125300000Y-117475000D02*
X125584000Y-117191000D01*
X125300000Y-118450000D02*
X125300000Y-117475000D01*
D35*
X134513000Y-117191000D02*
X125954000Y-117191000D01*
X125954000Y-117191000D02*
X125065000Y-117191000D01*
X105253000Y-117191000D02*
X99665000Y-117191000D01*
X98839999Y-117191000D02*
X98839999Y-117191000D01*
X110250000Y-126250000D02*
X110250000Y-130500000D01*
X109000000Y-125000000D02*
X110250000Y-126250000D01*
X100359998Y-125000000D02*
X109000000Y-125000000D01*
X98839999Y-118016001D02*
X98839999Y-123480001D01*
X98839999Y-123480001D02*
X100359998Y-125000000D01*
D36*
X125300000Y-112550000D02*
X125300000Y-111550000D01*
X125300000Y-111550000D02*
X124750000Y-111000000D01*
X112300000Y-112550000D02*
X112300000Y-111550000D01*
X112300000Y-111550000D02*
X111750000Y-111000000D01*
X105800000Y-112550000D02*
X105800000Y-111564913D01*
X105800000Y-111564913D02*
X105301315Y-111066228D01*
X122700000Y-118450000D02*
X122700000Y-118899428D01*
X116200000Y-118450000D02*
X116200000Y-119664000D01*
X116200000Y-119664000D02*
X115625000Y-120239000D01*
X122700000Y-119425000D02*
X122700000Y-118450000D01*
X122804426Y-119529426D02*
X122700000Y-119425000D01*
X123329998Y-119529426D02*
X122804426Y-119529426D01*
X109700000Y-118450000D02*
X109700000Y-119425000D01*
X109700000Y-119425000D02*
X109700000Y-120368000D01*
X109700000Y-120368000D02*
X110206000Y-120874000D01*
X118015000Y-112590315D02*
X118015000Y-113156000D01*
X118055315Y-112550000D02*
X118015000Y-112590315D01*
X118800000Y-112550000D02*
X118055315Y-112550000D01*
X129200000Y-118450000D02*
X130721000Y-118450000D01*
X130721000Y-118450000D02*
X130765000Y-118406000D01*
D35*
X76450001Y-88200001D02*
X77250000Y-89000000D01*
X75750000Y-87500000D02*
X76450001Y-88200001D01*
X73750000Y-87500000D02*
X75750000Y-87500000D01*
X70600000Y-87800000D02*
X73450000Y-87800000D01*
X73450000Y-87800000D02*
X73750000Y-87500000D01*
X77250000Y-89000000D02*
X80250000Y-89000000D01*
D36*
X84500000Y-89000000D02*
X85750000Y-89000000D01*
X83250000Y-87750000D02*
X84500000Y-89000000D01*
X83250000Y-83750000D02*
X83250000Y-87750000D01*
X83000000Y-83500000D02*
X83250000Y-83750000D01*
X77909605Y-83500000D02*
X83000000Y-83500000D01*
X77853975Y-83506268D02*
X77909605Y-83500000D01*
X77801135Y-83524757D02*
X77853975Y-83506268D01*
X77753733Y-83554542D02*
X77801135Y-83524757D01*
X77714148Y-83594127D02*
X77753733Y-83554542D01*
X77684363Y-83641529D02*
X77714148Y-83594127D01*
X77665874Y-83694369D02*
X77684363Y-83641529D01*
X77659605Y-83750000D02*
X77665874Y-83694369D01*
X77665874Y-83805630D02*
X77659605Y-83750000D01*
X77684363Y-83858470D02*
X77665874Y-83805630D01*
X77714148Y-83905872D02*
X77684363Y-83858470D01*
X77753733Y-83945457D02*
X77714148Y-83905872D01*
X77801135Y-83975242D02*
X77753733Y-83945457D01*
X77853975Y-83993731D02*
X77801135Y-83975242D01*
X77909605Y-84000000D02*
X77853975Y-83993731D01*
X82590395Y-84000000D02*
X77909605Y-84000000D01*
X82646025Y-84006268D02*
X82590395Y-84000000D01*
X82698865Y-84024757D02*
X82646025Y-84006268D01*
X82746267Y-84054542D02*
X82698865Y-84024757D01*
X82785852Y-84094127D02*
X82746267Y-84054542D01*
X82815637Y-84141529D02*
X82785852Y-84094127D01*
X82834126Y-84194369D02*
X82815637Y-84141529D01*
X82840395Y-84250000D02*
X82834126Y-84194369D01*
X82834126Y-84305630D02*
X82840395Y-84250000D01*
X82815637Y-84358470D02*
X82834126Y-84305630D01*
X82785852Y-84405872D02*
X82815637Y-84358470D01*
X82746267Y-84445457D02*
X82785852Y-84405872D01*
X82698865Y-84475242D02*
X82746267Y-84445457D01*
X82646025Y-84493731D02*
X82698865Y-84475242D01*
X82590395Y-84500000D02*
X82646025Y-84493731D01*
X77909605Y-84500000D02*
X82590395Y-84500000D01*
X77853975Y-84506268D02*
X77909605Y-84500000D01*
X77801135Y-84524757D02*
X77853975Y-84506268D01*
X77753733Y-84554542D02*
X77801135Y-84524757D01*
X77714148Y-84594127D02*
X77753733Y-84554542D01*
X77684363Y-84641529D02*
X77714148Y-84594127D01*
X77665874Y-84694369D02*
X77684363Y-84641529D01*
X77659605Y-84750000D02*
X77665874Y-84694369D01*
X77665874Y-84805630D02*
X77659605Y-84750000D01*
X77684363Y-84858470D02*
X77665874Y-84805630D01*
X77714148Y-84905872D02*
X77684363Y-84858470D01*
X77753733Y-84945457D02*
X77714148Y-84905872D01*
X77801135Y-84975242D02*
X77753733Y-84945457D01*
X77853975Y-84993731D02*
X77801135Y-84975242D01*
X77909605Y-85000000D02*
X77853975Y-84993731D01*
X82590395Y-85000000D02*
X77909605Y-85000000D01*
X82646025Y-85006268D02*
X82590395Y-85000000D01*
X82698865Y-85024757D02*
X82646025Y-85006268D01*
X82746267Y-85054542D02*
X82698865Y-85024757D01*
X82785852Y-85094127D02*
X82746267Y-85054542D01*
X82815637Y-85141529D02*
X82785852Y-85094127D01*
X77753733Y-86554542D02*
X77801135Y-86524757D01*
X77714148Y-86594127D02*
X77753733Y-86554542D01*
X77684363Y-86641529D02*
X77714148Y-86594127D01*
X77659605Y-86750000D02*
X77665874Y-86694369D01*
X77753733Y-86945457D02*
X77714148Y-86905872D01*
X77909605Y-87000000D02*
X77853975Y-86993731D01*
X82590395Y-87000000D02*
X77909605Y-87000000D01*
X77801135Y-86975242D02*
X77753733Y-86945457D01*
X82646025Y-87006268D02*
X82590395Y-87000000D01*
X82698865Y-87024757D02*
X82646025Y-87006268D01*
X82746267Y-87054542D02*
X82698865Y-87024757D01*
X77665874Y-86805630D02*
X77659605Y-86750000D01*
X82785852Y-87094127D02*
X82746267Y-87054542D01*
X77684363Y-86858470D02*
X77665874Y-86805630D01*
X82815637Y-87141529D02*
X82785852Y-87094127D01*
X82815637Y-87358470D02*
X82834126Y-87305630D01*
X77714148Y-86905872D02*
X77684363Y-86858470D01*
X77665874Y-86694369D02*
X77684363Y-86641529D01*
X77909605Y-86500000D02*
X82590395Y-86500000D01*
X82834126Y-87305630D02*
X82840395Y-87250000D01*
X82840395Y-87250000D02*
X82834126Y-87194369D01*
X80500000Y-87500000D02*
X82590395Y-87500000D01*
X82834126Y-87194369D02*
X82815637Y-87141529D01*
X77853975Y-86993731D02*
X77801135Y-86975242D01*
X80256268Y-87694369D02*
X80274757Y-87641529D01*
X82590395Y-87500000D02*
X82646025Y-87493731D01*
X80274757Y-87641529D02*
X80304542Y-87594127D01*
X80391529Y-87524757D02*
X80444369Y-87506268D01*
X80444369Y-87506268D02*
X80500000Y-87500000D01*
X82834126Y-85194369D02*
X82815637Y-85141529D01*
X82698865Y-87475242D02*
X82746267Y-87445457D01*
X82646025Y-87493731D02*
X82698865Y-87475242D01*
X82746267Y-87445457D02*
X82785852Y-87405872D01*
X82785852Y-86405872D02*
X82815637Y-86358470D01*
X80250000Y-87750000D02*
X80256268Y-87694369D01*
X82785852Y-87405872D02*
X82815637Y-87358470D01*
X77801135Y-86524757D02*
X77853975Y-86506268D01*
X77853975Y-86506268D02*
X77909605Y-86500000D01*
X82590395Y-86500000D02*
X82646025Y-86493731D01*
X80344127Y-87554542D02*
X80391529Y-87524757D01*
X82646025Y-86493731D02*
X82698865Y-86475242D01*
X82698865Y-86475242D02*
X82746267Y-86445457D01*
X82746267Y-86445457D02*
X82785852Y-86405872D01*
X82815637Y-86358470D02*
X82834126Y-86305630D01*
X82834126Y-86305630D02*
X82840395Y-86250000D01*
X82840395Y-86250000D02*
X82834126Y-86194369D01*
X82834126Y-86194369D02*
X82815637Y-86141529D01*
X82815637Y-86141529D02*
X82785852Y-86094127D01*
X82785852Y-86094127D02*
X82746267Y-86054542D01*
X82746267Y-86054542D02*
X82698865Y-86024757D01*
X82698865Y-86024757D02*
X82646025Y-86006268D01*
X82646025Y-86006268D02*
X82590395Y-86000000D01*
X82590395Y-86000000D02*
X77909605Y-86000000D01*
X77909605Y-86000000D02*
X77853975Y-85993731D01*
X77853975Y-85993731D02*
X77801135Y-85975242D01*
X77801135Y-85975242D02*
X77753733Y-85945457D01*
X77753733Y-85945457D02*
X77714148Y-85905872D01*
X77714148Y-85905872D02*
X77684363Y-85858470D01*
X80250000Y-89000000D02*
X80250000Y-87750000D01*
X77684363Y-85858470D02*
X77665874Y-85805630D01*
X82840395Y-85250000D02*
X82834126Y-85194369D01*
X77665874Y-85805630D02*
X77659605Y-85750000D01*
X77659605Y-85750000D02*
X77665874Y-85694369D01*
X77665874Y-85694369D02*
X77684363Y-85641529D01*
X80304542Y-87594127D02*
X80344127Y-87554542D01*
X77684363Y-85641529D02*
X77714148Y-85594127D01*
X77714148Y-85594127D02*
X77753733Y-85554542D01*
X77753733Y-85554542D02*
X77801135Y-85524757D01*
X77801135Y-85524757D02*
X77853975Y-85506268D01*
X77853975Y-85506268D02*
X77909605Y-85500000D01*
X77909605Y-85500000D02*
X82590395Y-85500000D01*
X82590395Y-85500000D02*
X82646025Y-85493731D01*
X82785852Y-85405872D02*
X82815637Y-85358470D01*
X82646025Y-85493731D02*
X82698865Y-85475242D01*
X82698865Y-85475242D02*
X82746267Y-85445457D01*
X82746267Y-85445457D02*
X82785852Y-85405872D01*
X82815637Y-85358470D02*
X82834126Y-85305630D01*
X82834126Y-85305630D02*
X82840395Y-85250000D01*
D35*
X91800039Y-88300039D02*
X92500000Y-89000000D01*
X91000000Y-87500000D02*
X91800039Y-88300039D01*
X85750000Y-89000000D02*
X87250000Y-87500000D01*
X87250000Y-87500000D02*
X91000000Y-87500000D01*
X92500000Y-89000000D02*
X92500000Y-124250000D01*
X92500000Y-124250000D02*
X95625000Y-127375000D01*
X95625000Y-127375000D02*
X96250000Y-128000000D01*
D36*
X119000000Y-73518197D02*
X119000000Y-68000000D01*
X119982796Y-74500993D02*
X119000000Y-73518197D01*
D35*
X92500000Y-89000000D02*
X92500000Y-87500000D01*
X92500000Y-87500000D02*
X93500000Y-86500000D01*
X118200001Y-68799999D02*
X119000000Y-68000000D01*
X117250000Y-69750000D02*
X118200001Y-68799999D01*
X107000000Y-70500000D02*
X107750000Y-69750000D01*
X105959619Y-74040381D02*
X107000000Y-73000000D01*
X107000000Y-73000000D02*
X107000000Y-70500000D01*
X107750000Y-69750000D02*
X117250000Y-69750000D01*
X93500000Y-86500000D02*
X104198179Y-75801821D01*
D36*
X105727298Y-74272702D02*
X104198179Y-75801821D01*
X106301821Y-73698179D02*
X105727298Y-74272702D01*
X67000000Y-88750000D02*
X66500000Y-88250000D01*
X68400000Y-88750000D02*
X67000000Y-88750000D01*
D35*
X122548054Y-60000000D02*
X118000000Y-60000000D01*
X125499999Y-62951945D02*
X122548054Y-60000000D01*
X125499999Y-69100001D02*
X125499999Y-62951945D01*
X125750000Y-69350002D02*
X125499999Y-69100001D01*
X125750000Y-74500000D02*
X125750000Y-69350002D01*
D36*
X140349999Y-107189999D02*
X139500000Y-106340000D01*
X140750000Y-107590000D02*
X140349999Y-107189999D01*
X140750000Y-117535002D02*
X140750000Y-107590000D01*
X136750000Y-121535002D02*
X140750000Y-117535002D01*
X142040000Y-111420000D02*
X144250000Y-113630000D01*
X144250000Y-118750000D02*
X138055000Y-124945000D01*
X144250000Y-113630000D02*
X144250000Y-118750000D01*
X100090000Y-130500000D02*
X98796000Y-129206000D01*
X98796000Y-129206000D02*
X90515000Y-129206000D01*
X142889999Y-82630001D02*
X142040000Y-83480000D01*
X143750000Y-81770000D02*
X142889999Y-82630001D01*
X143750000Y-73000000D02*
X143750000Y-81770000D01*
X135400000Y-70750000D02*
X141500000Y-70750000D01*
X141500000Y-70750000D02*
X143750000Y-73000000D01*
X136950000Y-89750000D02*
X136950000Y-89750000D01*
X136950000Y-89750000D02*
X136950000Y-79800000D01*
X136950000Y-79800000D02*
X137000000Y-79750000D01*
X129224694Y-103000000D02*
X128987347Y-102762653D01*
X132500000Y-103000000D02*
X129224694Y-103000000D01*
X144250000Y-72863590D02*
X144250000Y-102500000D01*
X141386410Y-70000000D02*
X144250000Y-72863590D01*
X130750000Y-71500000D02*
X132250000Y-70000000D01*
X132250000Y-70000000D02*
X141386410Y-70000000D01*
X129975000Y-116250000D02*
X134250000Y-116250000D01*
X127250000Y-112550000D02*
X127250000Y-113525000D01*
X127250000Y-113525000D02*
X129975000Y-116250000D01*
X137000000Y-115500000D02*
X137000000Y-117250000D01*
X137000000Y-117250000D02*
X138500000Y-118750000D01*
X146000000Y-97750000D02*
X146000000Y-112750000D01*
X146000000Y-77250000D02*
X146000000Y-97750000D01*
X130525001Y-77224999D02*
X130525001Y-77224999D01*
X130525001Y-77224999D02*
X140724999Y-77224999D01*
X131370000Y-129630000D02*
X128000000Y-129630000D01*
X132580000Y-130840000D02*
X131370000Y-129630000D01*
X136000000Y-127420000D02*
X132580000Y-130840000D01*
X136000000Y-111177919D02*
X136000000Y-127420000D01*
X139500000Y-108880000D02*
X138297919Y-108880000D01*
X138297919Y-108880000D02*
X136000000Y-111177919D01*
X131840000Y-134710000D02*
X132580000Y-133970000D01*
X128000000Y-134710000D02*
X131840000Y-134710000D01*
X132580000Y-133970000D02*
X136750000Y-129800000D01*
X136750000Y-129640000D02*
X136750000Y-121535002D01*
X136750000Y-129800000D02*
X136750000Y-129640000D01*
X131950000Y-127090000D02*
X132580000Y-127720000D01*
X128000000Y-127090000D02*
X131950000Y-127090000D01*
X138055000Y-124945000D02*
X138000000Y-125000000D01*
X96280000Y-131770000D02*
X95010000Y-130500000D01*
X124610000Y-133500000D02*
X114000000Y-133500000D01*
X132780000Y-135970000D02*
X127080000Y-135970000D01*
X140750000Y-101899000D02*
X141351000Y-102500000D01*
X112270000Y-131770000D02*
X96280000Y-131770000D01*
X127080000Y-135970000D02*
X124610000Y-133500000D01*
X140750000Y-82250000D02*
X140750000Y-101899000D01*
X141351000Y-102500000D02*
X142479002Y-102500000D01*
X114000000Y-133500000D02*
X112270000Y-131770000D01*
X142479002Y-102500000D02*
X145250000Y-105270998D01*
X145250000Y-105270998D02*
X145250000Y-123500000D01*
X145250000Y-123500000D02*
X132780000Y-135970000D01*
X126500000Y-110565685D02*
X126500000Y-110000000D01*
X126500000Y-111475000D02*
X126500000Y-110565685D01*
X126600000Y-111575000D02*
X126500000Y-111475000D01*
X126600000Y-112550000D02*
X126600000Y-111575000D01*
X125950000Y-111575000D02*
X125750000Y-111375000D01*
X125950000Y-112550000D02*
X125950000Y-111575000D01*
X125750000Y-111375000D02*
X125750000Y-110750000D01*
X121400000Y-111400000D02*
X122000000Y-110800000D01*
X121400000Y-112550000D02*
X121400000Y-111400000D01*
X122000000Y-110800000D02*
X122000000Y-108915002D01*
X122000000Y-108915002D02*
X121124999Y-108040001D01*
X121124999Y-108040001D02*
X121124999Y-106959999D01*
X121124999Y-106959999D02*
X121200000Y-106884998D01*
X121200000Y-103221000D02*
X121200000Y-103591000D01*
X121265000Y-103156000D02*
X121200000Y-103221000D01*
X121200000Y-106884998D02*
X121200000Y-103591000D01*
X121200000Y-103591000D02*
X121200000Y-103341000D01*
X123781000Y-115906000D02*
X124839856Y-115906000D01*
X121400000Y-112550000D02*
X121400000Y-113525000D01*
X121400000Y-113525000D02*
X123781000Y-115906000D01*
X124839856Y-115906000D02*
X125765000Y-115906000D01*
X120750000Y-111000000D02*
X120750000Y-112550000D01*
X121250000Y-110500000D02*
X120750000Y-111000000D01*
X120100000Y-111565002D02*
X119909999Y-111375001D01*
X120100000Y-112550000D02*
X120100000Y-111565002D01*
X119909999Y-111375001D02*
X119209999Y-111375001D01*
X119209999Y-111375001D02*
X118624999Y-110790001D01*
X118765000Y-103226000D02*
X118800000Y-103191000D01*
X118765000Y-106656000D02*
X118765000Y-103226000D01*
X118624999Y-110790001D02*
X118624999Y-106796001D01*
X118624999Y-106796001D02*
X118765000Y-106656000D01*
X120100000Y-112550000D02*
X120100000Y-113850000D01*
X120100000Y-113850000D02*
X120500000Y-114250000D01*
X119450000Y-112550000D02*
X119450000Y-113525000D01*
X117250000Y-113641000D02*
X117250000Y-112271000D01*
X117250000Y-112271000D02*
X117765340Y-111755660D01*
X117515000Y-113906000D02*
X117250000Y-113641000D01*
X117765340Y-111755660D02*
X118165339Y-111355661D01*
X119069000Y-113906000D02*
X117515000Y-113906000D01*
X119450000Y-113525000D02*
X119069000Y-113906000D01*
X115000000Y-111250000D02*
X115000000Y-110000000D01*
X114900000Y-112550000D02*
X114900000Y-111350000D01*
X114900000Y-111350000D02*
X115000000Y-111250000D01*
X114250000Y-112550000D02*
X114250000Y-110750000D01*
X113500000Y-110565685D02*
X113500000Y-110000000D01*
X113500000Y-111250000D02*
X113500000Y-110565685D01*
X113600000Y-112550000D02*
X113600000Y-111350000D01*
X113600000Y-111350000D02*
X113500000Y-111250000D01*
X112950000Y-111500000D02*
X112950000Y-112550000D01*
X112750000Y-110750000D02*
X112750000Y-111300000D01*
X112750000Y-111300000D02*
X112950000Y-111500000D01*
X108500000Y-111250000D02*
X108500000Y-110000000D01*
X108400000Y-112550000D02*
X108400000Y-111350000D01*
X108400000Y-111350000D02*
X108500000Y-111250000D01*
X107750000Y-112550000D02*
X107750000Y-110750000D01*
X107000000Y-111250000D02*
X107000000Y-110000000D01*
X107100000Y-112550000D02*
X107100000Y-111350000D01*
X107100000Y-111350000D02*
X107000000Y-111250000D01*
X106250000Y-111375000D02*
X106250000Y-110750000D01*
X106450000Y-112550000D02*
X106450000Y-111575000D01*
X106450000Y-111575000D02*
X106250000Y-111375000D01*
X100889999Y-122080001D02*
X100090000Y-122880000D01*
X101920010Y-121049990D02*
X100889999Y-122080001D01*
X104825010Y-121049990D02*
X101920010Y-121049990D01*
X106450000Y-119425000D02*
X104825010Y-121049990D01*
X106450000Y-118450000D02*
X106450000Y-119425000D01*
X103429999Y-122080001D02*
X102630000Y-122880000D01*
X104010000Y-121500000D02*
X103429999Y-122080001D01*
X105106410Y-121500000D02*
X104010000Y-121500000D01*
X107100000Y-119506410D02*
X105106410Y-121500000D01*
X107100000Y-118450000D02*
X107100000Y-119506410D01*
X107750000Y-120300000D02*
X105170000Y-122880000D01*
X107750000Y-118450000D02*
X107750000Y-120300000D01*
X107900000Y-122690000D02*
X107710000Y-122880000D01*
X108400000Y-122190000D02*
X107710000Y-122880000D01*
X108400000Y-118450000D02*
X108400000Y-122190000D01*
X112950000Y-120180000D02*
X110250000Y-122880000D01*
X112950000Y-118450000D02*
X112950000Y-120180000D01*
X113100000Y-122570000D02*
X112790000Y-122880000D01*
X112600000Y-122690000D02*
X112790000Y-122880000D01*
X113600000Y-122070000D02*
X112790000Y-122880000D01*
X113600000Y-118450000D02*
X113600000Y-122070000D01*
X115250000Y-122800000D02*
X115330000Y-122880000D01*
X114250000Y-121800000D02*
X115330000Y-122880000D01*
X114250000Y-121800000D02*
X114250000Y-118450000D01*
X114900000Y-119425000D02*
X114900000Y-118450000D01*
X114899999Y-120636498D02*
X114900000Y-119425000D01*
X116556000Y-122292499D02*
X114899999Y-120636498D01*
X116556000Y-122697370D02*
X116556000Y-122292499D01*
X116738630Y-122880000D02*
X116556000Y-122697370D01*
X117870000Y-122880000D02*
X116738630Y-122880000D01*
X120450000Y-122840000D02*
X120410000Y-122880000D01*
X119450000Y-121920000D02*
X120410000Y-122880000D01*
X119450000Y-118450000D02*
X119450000Y-121920000D01*
X122150001Y-129700001D02*
X122950000Y-130500000D01*
X121750000Y-129300000D02*
X122150001Y-129700001D01*
X121750000Y-122265000D02*
X121750000Y-129300000D01*
X120100000Y-118450000D02*
X120100000Y-120615000D01*
X120100000Y-120615000D02*
X121750000Y-122265000D01*
X125000000Y-122886410D02*
X125000000Y-130500000D01*
X121563600Y-120950011D02*
X123063601Y-120950011D01*
X120750000Y-118450000D02*
X120750000Y-120136411D01*
X120750000Y-120136411D02*
X121563600Y-120950011D01*
X121535001Y-131625001D02*
X121209999Y-131299999D01*
X125000000Y-130500000D02*
X123874999Y-131625001D01*
X123063601Y-120950011D02*
X125000000Y-122886410D01*
X123874999Y-131625001D02*
X121535001Y-131625001D01*
X121209999Y-131299999D02*
X120410000Y-130500000D01*
X124036433Y-132099978D02*
X119469978Y-132099978D01*
X119469978Y-132099978D02*
X118669999Y-131299999D01*
X125450011Y-130686400D02*
X124036433Y-132099978D01*
X123250001Y-120250000D02*
X125450011Y-122450010D01*
X121750000Y-120250000D02*
X123250001Y-120250000D01*
X121400000Y-119900000D02*
X121750000Y-120250000D01*
X121400000Y-118450000D02*
X121400000Y-119900000D01*
X118669999Y-131299999D02*
X117870000Y-130500000D01*
X125450011Y-122450010D02*
X125450011Y-130686400D01*
X117379989Y-132549989D02*
X116129999Y-131299999D01*
X124222833Y-132549989D02*
X117379989Y-132549989D01*
X125950000Y-130822822D02*
X124222833Y-132549989D01*
X125950000Y-118450000D02*
X125950000Y-130822822D01*
X116129999Y-131299999D02*
X115330000Y-130500000D01*
X113589999Y-131299999D02*
X112790000Y-130500000D01*
X126600000Y-118450000D02*
X126600000Y-130809233D01*
X115290000Y-133000000D02*
X113589999Y-131299999D01*
X126600000Y-130809233D02*
X124409233Y-133000000D01*
X124409233Y-133000000D02*
X115290000Y-133000000D01*
X127825000Y-120000000D02*
X128250000Y-120000000D01*
X127250000Y-118450000D02*
X127250000Y-119425000D01*
X127250000Y-119425000D02*
X127825000Y-120000000D01*
D35*
X102000000Y-141094076D02*
X102000000Y-144750000D01*
X102000000Y-138400000D02*
X102000000Y-141094076D01*
X108350000Y-144750000D02*
X102000000Y-144750000D01*
X108350000Y-138400000D02*
X108350000Y-144750000D01*
D36*
X64799999Y-87450001D02*
X64000000Y-88250000D01*
X65250000Y-87000000D02*
X64799999Y-87450001D01*
X68262500Y-87000000D02*
X65250000Y-87000000D01*
X68400000Y-87800000D02*
X68400000Y-87137500D01*
X68400000Y-87137500D02*
X68262500Y-87000000D01*
X129200000Y-111575000D02*
X129200000Y-112550000D01*
X128875000Y-111250000D02*
X129200000Y-111575000D01*
X127900000Y-112550000D02*
X127900000Y-111575000D01*
D35*
X73250000Y-88750000D02*
X73500000Y-89000000D01*
X73500000Y-89000000D02*
X74750000Y-89000000D01*
X70600000Y-88750000D02*
X73250000Y-88750000D01*
D36*
X116200000Y-111300000D02*
X117250000Y-110250000D01*
X116200000Y-112550000D02*
X116200000Y-111300000D01*
X127900000Y-111575000D02*
X128225000Y-111250000D01*
X128225000Y-111250000D02*
X128861676Y-111250000D01*
X128861676Y-111250000D02*
X128877805Y-111233871D01*
X109700000Y-112550000D02*
X110450000Y-112550000D01*
X110450000Y-112550000D02*
X110500000Y-112500000D01*
X122700000Y-112550000D02*
X122700000Y-111555000D01*
X122700000Y-111555000D02*
X123160000Y-111095000D01*
M02*
