M48
; DRILL file {KiCad (5.1.2)-1} date 7/2/2019 11:51:48 AM
; FORMAT={-:-/ absolute / metric / decimal}
; #@! TF.CreationDate,2019-07-02T11:51:48-07:00
; #@! TF.GenerationSoftware,Kicad,Pcbnew,(5.1.2)-1
; #@! TF.FileFunction,Plated,1,4,PTH
FMAT,2
METRIC
T1C0.400
T2C0.600
T3C0.700
T4C0.800
T5C0.900
T6C1.000
T7C1.100
T8C1.270
T9C1.520
T10C1.524
T11C4.300
%
G90
G05
T1
X98.84Y-117.191
X99.665Y-117.191
X103.569Y-111.066
X105.283Y-110.172
X106.426Y-105.156
X107.5Y-125.75
X107.75Y-108.75
X109.0Y-125.0
X109.22Y-109.664
X110.5Y-112.5
X110.5Y-118.5
X110.5Y-124.25
X110.744Y-111.316
X111.5Y-96.75
X111.735Y-109.626
X111.765Y-103.156
X111.99Y-130.51
X112.0Y-123.5
X112.25Y-127.25
X113.5Y-122.75
X113.6Y-109.3
X114.5Y-137.5
X115.0Y-122.0
X115.1Y-132.7
X115.6Y-109.7
X115.663Y-114.099
X115.75Y-73.25
X116.25Y-77.5
X116.265Y-103.156
X116.5Y-121.25
X116.586Y-107.759
X117.7Y-109.9
X118.0Y-118.0
X118.0Y-120.5
X119.75Y-76.25
X119.832Y-137.66
X119.85Y-72.25
X119.983Y-74.501
X120.015Y-110.68
X120.587Y-115.316
X121.01Y-121.51
X121.25Y-103.25
X121.75Y-128.75
X122.5Y-122.5
X123.1Y-115.3
X123.33Y-119.529
X123.5Y-95.25
X123.5Y-124.0
X124.5Y-125.5
X125.5Y-127.0
X125.75Y-74.5
X125.857Y-114.49
X126.5Y-109.25
X126.5Y-128.5
X127.165Y-74.585
X127.85Y-108.6
X128.25Y-114.25
X128.878Y-111.234
X129.5Y-100.5
X130.05Y-107.95
X130.25Y-99.75
X130.765Y-118.406
X133.5Y-105.0
X134.18Y-74.45
X134.25Y-110.5
X135.015Y-107.515
X136.025Y-116.5
X137.442Y-73.307
X137.5Y-113.775
X138.5Y-118.75
X139.25Y-125.0
X142.881Y-71.495
X144.25Y-102.5
X146.0Y-77.25
X146.0Y-112.75
T2
X74.5Y-78.75
X74.5Y-80.443
X74.5Y-82.137
X74.5Y-83.83
X74.5Y-85.523
X74.5Y-91.5
X74.5Y-93.193
X74.5Y-94.887
X74.5Y-96.58
X74.5Y-98.273
X76.193Y-78.75
X76.193Y-80.443
X76.193Y-82.137
X76.193Y-83.83
X76.193Y-85.523
X76.193Y-91.5
X76.193Y-93.193
X76.193Y-94.887
X76.193Y-96.58
X76.193Y-98.273
X77.887Y-78.75
X77.887Y-80.443
X77.887Y-82.137
X77.887Y-91.5
X77.887Y-93.193
X77.887Y-94.887
X77.887Y-96.58
X77.887Y-98.273
X79.58Y-78.75
X79.58Y-80.443
X79.58Y-82.137
X79.58Y-91.5
X79.58Y-93.193
X79.58Y-94.887
X79.58Y-96.58
X79.58Y-98.273
X81.273Y-78.75
X81.273Y-80.443
X81.273Y-82.137
X81.273Y-91.5
X81.273Y-93.193
X81.273Y-94.887
X81.273Y-96.58
X81.273Y-98.273
X82.967Y-78.75
X82.967Y-80.443
X82.967Y-82.137
X82.967Y-91.5
X82.967Y-93.193
X82.967Y-94.887
X82.967Y-96.58
X82.967Y-98.273
X84.66Y-78.75
X84.66Y-85.523
X84.66Y-91.5
X84.66Y-98.273
X86.353Y-78.75
X86.353Y-85.523
X86.353Y-91.5
X86.353Y-98.273
X141.275Y-144.5
X142.22Y-142.22
X142.22Y-146.78
X144.5Y-141.275
X144.5Y-147.725
X146.78Y-142.22
X146.78Y-146.78
X147.725Y-144.5
X51.275Y-144.5
X52.22Y-142.22
X52.22Y-146.78
X54.5Y-141.275
X54.5Y-147.725
X56.78Y-142.22
X56.78Y-146.78
X57.725Y-144.5
X141.275Y-54.5
X142.22Y-52.22
X142.22Y-56.78
X144.5Y-51.275
X144.5Y-57.725
X146.78Y-52.22
X146.78Y-56.78
X147.725Y-54.5
X51.275Y-54.5
X52.22Y-52.22
X52.22Y-56.78
X54.5Y-51.275
X54.5Y-57.725
X56.78Y-52.22
X56.78Y-56.78
X57.725Y-54.5
T3
X102.5Y-129.75
X95.92Y-66.75
X101.0Y-66.75
X140.75Y-61.0
X140.75Y-68.62
X111.042Y-55.656
X111.042Y-63.276
X132.015Y-86.656
X91.25Y-55.63
X91.25Y-63.25
X93.75Y-55.63
X93.75Y-63.25
X65.25Y-85.0
X126.75Y-62.5
X84.0Y-66.75
X89.08Y-66.75
X92.5Y-89.0
T4
X64.0Y-94.25
X66.5Y-94.25
X103.5Y-99.0
X103.5Y-101.5
X114.115Y-84.606
X116.615Y-84.606
X123.75Y-74.0
X123.75Y-76.5
X126.75Y-65.5
X129.25Y-65.5
X131.5Y-101.75
X134.0Y-101.75
X64.0Y-88.25
X66.5Y-88.25
X126.515Y-84.156
X126.515Y-86.656
X64.0Y-100.25
X66.5Y-100.25
X65.576Y-67.5
X132.75Y-81.25
X135.25Y-81.25
X74.75Y-89.0
X77.25Y-89.0
X132.58Y-130.84
X142.74Y-130.84
X110.515Y-127.226
X110.515Y-129.766
X110.515Y-132.306
X108.75Y-73.5
X111.25Y-73.5
X132.75Y-78.25
X135.25Y-78.25
X119.75Y-107.5
X122.25Y-107.5
X80.25Y-89.0
X82.75Y-89.0
X119.0Y-68.0
X121.5Y-68.0
X131.5Y-98.75
X134.0Y-98.75
X64.0Y-91.25
X66.5Y-91.25
X108.75Y-76.5
X111.25Y-76.5
X106.5Y-99.0
X106.5Y-101.5
X91.25Y-66.75
X93.75Y-66.75
X64.0Y-78.5
X66.5Y-78.5
X121.015Y-86.656
X123.515Y-86.656
X122.25Y-110.236
X124.75Y-110.236
X126.75Y-68.5
X129.25Y-68.5
X132.58Y-127.72
X142.74Y-127.72
X64.0Y-81.5
X66.5Y-81.5
X132.58Y-133.97
X142.74Y-133.97
X85.75Y-89.0
X88.25Y-89.0
X69.5Y-105.186
X114.25Y-68.0
X116.75Y-68.0
X64.0Y-97.25
X66.5Y-97.25
T5
X133.46Y-61.0
X136.0Y-61.0
T6
X76.164Y-142.022
X78.704Y-142.022
X81.244Y-142.022
X83.784Y-142.022
X86.324Y-142.022
X88.864Y-142.022
X80.823Y-70.561
X83.363Y-70.561
X85.903Y-70.561
X118.0Y-74.25
X118.0Y-76.79
X64.32Y-73.32
X66.86Y-73.32
X83.62Y-121.58
X86.16Y-121.58
X88.7Y-121.58
X139.5Y-73.32
X139.5Y-75.86
X139.5Y-78.4
X139.5Y-80.94
X139.5Y-83.48
X139.5Y-86.02
X139.5Y-88.56
X139.5Y-91.1
X139.5Y-93.64
X139.5Y-96.18
X139.5Y-98.72
X139.5Y-101.26
X139.5Y-103.8
X139.5Y-106.34
X139.5Y-108.88
X139.5Y-111.42
X139.5Y-113.96
X139.5Y-116.5
X142.04Y-73.32
X142.04Y-75.86
X142.04Y-78.4
X142.04Y-80.94
X142.04Y-83.48
X142.04Y-86.02
X142.04Y-88.56
X142.04Y-91.1
X142.04Y-93.64
X142.04Y-96.18
X142.04Y-98.72
X142.04Y-101.26
X142.04Y-103.8
X142.04Y-106.34
X142.04Y-108.88
X142.04Y-111.42
X142.04Y-113.96
X142.04Y-116.5
X128.0Y-124.55
X128.0Y-127.09
X128.0Y-129.63
X128.0Y-132.17
X128.0Y-134.71
X128.0Y-137.25
T7
X69.5Y-92.75
X69.5Y-95.29
X69.5Y-97.83
X69.5Y-80.0
X69.5Y-82.54
X69.5Y-85.08
T8
X101.0Y-60.0
X118.0Y-143.575
X84.0Y-60.0
X118.0Y-60.0
T9
X55.25Y-81.17
X55.25Y-86.25
X55.25Y-91.33
X55.25Y-96.41
T10
X97.825Y-56.825
X97.825Y-63.175
X104.175Y-56.825
X104.175Y-63.175
X114.825Y-140.4
X114.825Y-146.75
X121.175Y-140.4
X121.175Y-146.75
X80.825Y-56.825
X80.825Y-63.175
X87.175Y-56.825
X87.175Y-63.175
X114.825Y-56.825
X114.825Y-63.175
X121.175Y-56.825
X121.175Y-63.175
T11
X144.5Y-144.5
X54.5Y-144.5
X144.5Y-54.5
X54.5Y-54.5
T6
G00X64.8Y-59.5
M15
G01X64.8Y-61.5
M16
G05
G00X70.5Y-57.5
M15
G01X68.5Y-57.5
M16
G05
G00X70.5Y-63.5
M15
G01X68.5Y-63.5
M16
G05
T0
M30
