G04 #@! TF.FileFunction,Legend,Top*
%FSLAX46Y46*%
G04 Gerber Fmt 4.6, Leading zero omitted, Abs format (unit mm)*
G04 Created by KiCad (PCBNEW 4.0.2-stable) date 5/30/2017 2:34:24 PM*
%MOMM*%
G01*
G04 APERTURE LIST*
%ADD10C,0.100000*%
%ADD11C,0.300000*%
%ADD12C,0.150000*%
%ADD13C,0.120000*%
G04 APERTURE END LIST*
D10*
D11*
X97350573Y-30676571D02*
X96850573Y-29962286D01*
X96493430Y-30676571D02*
X96493430Y-29176571D01*
X97064858Y-29176571D01*
X97207716Y-29248000D01*
X97279144Y-29319429D01*
X97350573Y-29462286D01*
X97350573Y-29676571D01*
X97279144Y-29819429D01*
X97207716Y-29890857D01*
X97064858Y-29962286D01*
X96493430Y-29962286D01*
X98564858Y-30605143D02*
X98422001Y-30676571D01*
X98136287Y-30676571D01*
X97993430Y-30605143D01*
X97922001Y-30462286D01*
X97922001Y-29890857D01*
X97993430Y-29748000D01*
X98136287Y-29676571D01*
X98422001Y-29676571D01*
X98564858Y-29748000D01*
X98636287Y-29890857D01*
X98636287Y-30033714D01*
X97922001Y-30176571D01*
X99850572Y-30605143D02*
X99707715Y-30676571D01*
X99422001Y-30676571D01*
X99279144Y-30605143D01*
X99207715Y-30462286D01*
X99207715Y-29890857D01*
X99279144Y-29748000D01*
X99422001Y-29676571D01*
X99707715Y-29676571D01*
X99850572Y-29748000D01*
X99922001Y-29890857D01*
X99922001Y-30033714D01*
X99207715Y-30176571D01*
X101207715Y-30676571D02*
X101207715Y-29176571D01*
X101207715Y-30605143D02*
X101064858Y-30676571D01*
X100779144Y-30676571D01*
X100636286Y-30605143D01*
X100564858Y-30533714D01*
X100493429Y-30390857D01*
X100493429Y-29962286D01*
X100564858Y-29819429D01*
X100636286Y-29748000D01*
X100779144Y-29676571D01*
X101064858Y-29676571D01*
X101207715Y-29748000D01*
X103922001Y-30533714D02*
X103850572Y-30605143D01*
X103636286Y-30676571D01*
X103493429Y-30676571D01*
X103279144Y-30605143D01*
X103136286Y-30462286D01*
X103064858Y-30319429D01*
X102993429Y-30033714D01*
X102993429Y-29819429D01*
X103064858Y-29533714D01*
X103136286Y-29390857D01*
X103279144Y-29248000D01*
X103493429Y-29176571D01*
X103636286Y-29176571D01*
X103850572Y-29248000D01*
X103922001Y-29319429D01*
X104779144Y-30676571D02*
X104636286Y-30605143D01*
X104564858Y-30533714D01*
X104493429Y-30390857D01*
X104493429Y-29962286D01*
X104564858Y-29819429D01*
X104636286Y-29748000D01*
X104779144Y-29676571D01*
X104993429Y-29676571D01*
X105136286Y-29748000D01*
X105207715Y-29819429D01*
X105279144Y-29962286D01*
X105279144Y-30390857D01*
X105207715Y-30533714D01*
X105136286Y-30605143D01*
X104993429Y-30676571D01*
X104779144Y-30676571D01*
X106136287Y-30676571D02*
X105993429Y-30605143D01*
X105922001Y-30462286D01*
X105922001Y-29176571D01*
X106922001Y-30676571D02*
X106779143Y-30605143D01*
X106707715Y-30462286D01*
X106707715Y-29176571D01*
X108064857Y-30605143D02*
X107922000Y-30676571D01*
X107636286Y-30676571D01*
X107493429Y-30605143D01*
X107422000Y-30462286D01*
X107422000Y-29890857D01*
X107493429Y-29748000D01*
X107636286Y-29676571D01*
X107922000Y-29676571D01*
X108064857Y-29748000D01*
X108136286Y-29890857D01*
X108136286Y-30033714D01*
X107422000Y-30176571D01*
X109422000Y-29676571D02*
X109422000Y-30890857D01*
X109350571Y-31033714D01*
X109279143Y-31105143D01*
X109136286Y-31176571D01*
X108922000Y-31176571D01*
X108779143Y-31105143D01*
X109422000Y-30605143D02*
X109279143Y-30676571D01*
X108993429Y-30676571D01*
X108850571Y-30605143D01*
X108779143Y-30533714D01*
X108707714Y-30390857D01*
X108707714Y-29962286D01*
X108779143Y-29819429D01*
X108850571Y-29748000D01*
X108993429Y-29676571D01*
X109279143Y-29676571D01*
X109422000Y-29748000D01*
X110707714Y-30605143D02*
X110564857Y-30676571D01*
X110279143Y-30676571D01*
X110136286Y-30605143D01*
X110064857Y-30462286D01*
X110064857Y-29890857D01*
X110136286Y-29748000D01*
X110279143Y-29676571D01*
X110564857Y-29676571D01*
X110707714Y-29748000D01*
X110779143Y-29890857D01*
X110779143Y-30033714D01*
X110064857Y-30176571D01*
X112564857Y-30676571D02*
X112564857Y-29176571D01*
X112922000Y-29176571D01*
X113136285Y-29248000D01*
X113279143Y-29390857D01*
X113350571Y-29533714D01*
X113422000Y-29819429D01*
X113422000Y-30033714D01*
X113350571Y-30319429D01*
X113279143Y-30462286D01*
X113136285Y-30605143D01*
X112922000Y-30676571D01*
X112564857Y-30676571D01*
X114636285Y-30605143D02*
X114493428Y-30676571D01*
X114207714Y-30676571D01*
X114064857Y-30605143D01*
X113993428Y-30462286D01*
X113993428Y-29890857D01*
X114064857Y-29748000D01*
X114207714Y-29676571D01*
X114493428Y-29676571D01*
X114636285Y-29748000D01*
X114707714Y-29890857D01*
X114707714Y-30033714D01*
X113993428Y-30176571D01*
X115350571Y-29676571D02*
X115350571Y-31176571D01*
X115350571Y-29748000D02*
X115493428Y-29676571D01*
X115779142Y-29676571D01*
X115921999Y-29748000D01*
X115993428Y-29819429D01*
X116064857Y-29962286D01*
X116064857Y-30390857D01*
X115993428Y-30533714D01*
X115921999Y-30605143D01*
X115779142Y-30676571D01*
X115493428Y-30676571D01*
X115350571Y-30605143D01*
X117350571Y-30676571D02*
X117350571Y-29890857D01*
X117279142Y-29748000D01*
X117136285Y-29676571D01*
X116850571Y-29676571D01*
X116707714Y-29748000D01*
X117350571Y-30605143D02*
X117207714Y-30676571D01*
X116850571Y-30676571D01*
X116707714Y-30605143D01*
X116636285Y-30462286D01*
X116636285Y-30319429D01*
X116707714Y-30176571D01*
X116850571Y-30105143D01*
X117207714Y-30105143D01*
X117350571Y-30033714D01*
X118064857Y-30676571D02*
X118064857Y-29676571D01*
X118064857Y-29962286D02*
X118136285Y-29819429D01*
X118207714Y-29748000D01*
X118350571Y-29676571D01*
X118493428Y-29676571D01*
X118779142Y-29676571D02*
X119350571Y-29676571D01*
X118993428Y-29176571D02*
X118993428Y-30462286D01*
X119064856Y-30605143D01*
X119207714Y-30676571D01*
X119350571Y-30676571D01*
X119850571Y-30676571D02*
X119850571Y-29676571D01*
X119850571Y-29819429D02*
X119921999Y-29748000D01*
X120064857Y-29676571D01*
X120279142Y-29676571D01*
X120421999Y-29748000D01*
X120493428Y-29890857D01*
X120493428Y-30676571D01*
X120493428Y-29890857D02*
X120564857Y-29748000D01*
X120707714Y-29676571D01*
X120921999Y-29676571D01*
X121064857Y-29748000D01*
X121136285Y-29890857D01*
X121136285Y-30676571D01*
X122421999Y-30605143D02*
X122279142Y-30676571D01*
X121993428Y-30676571D01*
X121850571Y-30605143D01*
X121779142Y-30462286D01*
X121779142Y-29890857D01*
X121850571Y-29748000D01*
X121993428Y-29676571D01*
X122279142Y-29676571D01*
X122421999Y-29748000D01*
X122493428Y-29890857D01*
X122493428Y-30033714D01*
X121779142Y-30176571D01*
X123136285Y-29676571D02*
X123136285Y-30676571D01*
X123136285Y-29819429D02*
X123207713Y-29748000D01*
X123350571Y-29676571D01*
X123564856Y-29676571D01*
X123707713Y-29748000D01*
X123779142Y-29890857D01*
X123779142Y-30676571D01*
X124279142Y-29676571D02*
X124850571Y-29676571D01*
X124493428Y-29176571D02*
X124493428Y-30462286D01*
X124564856Y-30605143D01*
X124707714Y-30676571D01*
X124850571Y-30676571D01*
X126707714Y-30676571D02*
X126564856Y-30605143D01*
X126493428Y-30533714D01*
X126421999Y-30390857D01*
X126421999Y-29962286D01*
X126493428Y-29819429D01*
X126564856Y-29748000D01*
X126707714Y-29676571D01*
X126921999Y-29676571D01*
X127064856Y-29748000D01*
X127136285Y-29819429D01*
X127207714Y-29962286D01*
X127207714Y-30390857D01*
X127136285Y-30533714D01*
X127064856Y-30605143D01*
X126921999Y-30676571D01*
X126707714Y-30676571D01*
X127636285Y-29676571D02*
X128207714Y-29676571D01*
X127850571Y-30676571D02*
X127850571Y-29390857D01*
X127921999Y-29248000D01*
X128064857Y-29176571D01*
X128207714Y-29176571D01*
X129850571Y-30676571D02*
X129850571Y-29176571D01*
X130421999Y-29176571D01*
X130564857Y-29248000D01*
X130636285Y-29319429D01*
X130707714Y-29462286D01*
X130707714Y-29676571D01*
X130636285Y-29819429D01*
X130564857Y-29890857D01*
X130421999Y-29962286D01*
X129850571Y-29962286D01*
X131350571Y-30676571D02*
X131350571Y-29176571D01*
X131993428Y-30676571D02*
X131993428Y-29890857D01*
X131921999Y-29748000D01*
X131779142Y-29676571D01*
X131564857Y-29676571D01*
X131421999Y-29748000D01*
X131350571Y-29819429D01*
X132564857Y-29676571D02*
X132922000Y-30676571D01*
X133279142Y-29676571D02*
X132922000Y-30676571D01*
X132779142Y-31033714D01*
X132707714Y-31105143D01*
X132564857Y-31176571D01*
X133779142Y-30605143D02*
X133921999Y-30676571D01*
X134207714Y-30676571D01*
X134350571Y-30605143D01*
X134421999Y-30462286D01*
X134421999Y-30390857D01*
X134350571Y-30248000D01*
X134207714Y-30176571D01*
X133993428Y-30176571D01*
X133850571Y-30105143D01*
X133779142Y-29962286D01*
X133779142Y-29890857D01*
X133850571Y-29748000D01*
X133993428Y-29676571D01*
X134207714Y-29676571D01*
X134350571Y-29748000D01*
X135064857Y-30676571D02*
X135064857Y-29676571D01*
X135064857Y-29176571D02*
X134993428Y-29248000D01*
X135064857Y-29319429D01*
X135136285Y-29248000D01*
X135064857Y-29176571D01*
X135064857Y-29319429D01*
X136422000Y-30605143D02*
X136279143Y-30676571D01*
X135993429Y-30676571D01*
X135850571Y-30605143D01*
X135779143Y-30533714D01*
X135707714Y-30390857D01*
X135707714Y-29962286D01*
X135779143Y-29819429D01*
X135850571Y-29748000D01*
X135993429Y-29676571D01*
X136279143Y-29676571D01*
X136422000Y-29748000D01*
X136993428Y-30605143D02*
X137136285Y-30676571D01*
X137422000Y-30676571D01*
X137564857Y-30605143D01*
X137636285Y-30462286D01*
X137636285Y-30390857D01*
X137564857Y-30248000D01*
X137422000Y-30176571D01*
X137207714Y-30176571D01*
X137064857Y-30105143D01*
X136993428Y-29962286D01*
X136993428Y-29890857D01*
X137064857Y-29748000D01*
X137207714Y-29676571D01*
X137422000Y-29676571D01*
X137564857Y-29748000D01*
X113564859Y-32290857D02*
X114064859Y-32290857D01*
X114279145Y-33076571D02*
X113564859Y-33076571D01*
X113564859Y-31576571D01*
X114279145Y-31576571D01*
X115136288Y-33076571D02*
X114993430Y-33005143D01*
X114922002Y-32862286D01*
X114922002Y-31576571D01*
X116279144Y-33005143D02*
X116136287Y-33076571D01*
X115850573Y-33076571D01*
X115707716Y-33005143D01*
X115636287Y-32862286D01*
X115636287Y-32290857D01*
X115707716Y-32148000D01*
X115850573Y-32076571D01*
X116136287Y-32076571D01*
X116279144Y-32148000D01*
X116350573Y-32290857D01*
X116350573Y-32433714D01*
X115636287Y-32576571D01*
X117636287Y-33005143D02*
X117493430Y-33076571D01*
X117207716Y-33076571D01*
X117064858Y-33005143D01*
X116993430Y-32933714D01*
X116922001Y-32790857D01*
X116922001Y-32362286D01*
X116993430Y-32219429D01*
X117064858Y-32148000D01*
X117207716Y-32076571D01*
X117493430Y-32076571D01*
X117636287Y-32148000D01*
X118064858Y-32076571D02*
X118636287Y-32076571D01*
X118279144Y-31576571D02*
X118279144Y-32862286D01*
X118350572Y-33005143D01*
X118493430Y-33076571D01*
X118636287Y-33076571D01*
X119136287Y-33076571D02*
X119136287Y-32076571D01*
X119136287Y-32362286D02*
X119207715Y-32219429D01*
X119279144Y-32148000D01*
X119422001Y-32076571D01*
X119564858Y-32076571D01*
X120279144Y-33076571D02*
X120136286Y-33005143D01*
X120064858Y-32933714D01*
X119993429Y-32790857D01*
X119993429Y-32362286D01*
X120064858Y-32219429D01*
X120136286Y-32148000D01*
X120279144Y-32076571D01*
X120493429Y-32076571D01*
X120636286Y-32148000D01*
X120707715Y-32219429D01*
X120779144Y-32362286D01*
X120779144Y-32790857D01*
X120707715Y-32933714D01*
X120636286Y-33005143D01*
X120493429Y-33076571D01*
X120279144Y-33076571D01*
X121422001Y-32076571D02*
X121422001Y-33076571D01*
X121422001Y-32219429D02*
X121493429Y-32148000D01*
X121636287Y-32076571D01*
X121850572Y-32076571D01*
X121993429Y-32148000D01*
X122064858Y-32290857D01*
X122064858Y-33076571D01*
X122779144Y-33076571D02*
X122779144Y-32076571D01*
X122779144Y-31576571D02*
X122707715Y-31648000D01*
X122779144Y-31719429D01*
X122850572Y-31648000D01*
X122779144Y-31576571D01*
X122779144Y-31719429D01*
X124136287Y-33005143D02*
X123993430Y-33076571D01*
X123707716Y-33076571D01*
X123564858Y-33005143D01*
X123493430Y-32933714D01*
X123422001Y-32790857D01*
X123422001Y-32362286D01*
X123493430Y-32219429D01*
X123564858Y-32148000D01*
X123707716Y-32076571D01*
X123993430Y-32076571D01*
X124136287Y-32148000D01*
X125707715Y-31576571D02*
X126564858Y-31576571D01*
X126136287Y-33076571D02*
X126136287Y-31576571D01*
X127064858Y-33076571D02*
X127064858Y-32076571D01*
X127064858Y-31576571D02*
X126993429Y-31648000D01*
X127064858Y-31719429D01*
X127136286Y-31648000D01*
X127064858Y-31576571D01*
X127064858Y-31719429D01*
X127779144Y-33076571D02*
X127779144Y-32076571D01*
X127779144Y-32219429D02*
X127850572Y-32148000D01*
X127993430Y-32076571D01*
X128207715Y-32076571D01*
X128350572Y-32148000D01*
X128422001Y-32290857D01*
X128422001Y-33076571D01*
X128422001Y-32290857D02*
X128493430Y-32148000D01*
X128636287Y-32076571D01*
X128850572Y-32076571D01*
X128993430Y-32148000D01*
X129064858Y-32290857D01*
X129064858Y-33076571D01*
X130350572Y-33005143D02*
X130207715Y-33076571D01*
X129922001Y-33076571D01*
X129779144Y-33005143D01*
X129707715Y-32862286D01*
X129707715Y-32290857D01*
X129779144Y-32148000D01*
X129922001Y-32076571D01*
X130207715Y-32076571D01*
X130350572Y-32148000D01*
X130422001Y-32290857D01*
X130422001Y-32433714D01*
X129707715Y-32576571D01*
X132207715Y-33076571D02*
X132207715Y-31576571D01*
X132564858Y-31576571D01*
X132779143Y-31648000D01*
X132922001Y-31790857D01*
X132993429Y-31933714D01*
X133064858Y-32219429D01*
X133064858Y-32433714D01*
X132993429Y-32719429D01*
X132922001Y-32862286D01*
X132779143Y-33005143D01*
X132564858Y-33076571D01*
X132207715Y-33076571D01*
X134279143Y-33005143D02*
X134136286Y-33076571D01*
X133850572Y-33076571D01*
X133707715Y-33005143D01*
X133636286Y-32862286D01*
X133636286Y-32290857D01*
X133707715Y-32148000D01*
X133850572Y-32076571D01*
X134136286Y-32076571D01*
X134279143Y-32148000D01*
X134350572Y-32290857D01*
X134350572Y-32433714D01*
X133636286Y-32576571D01*
X135207715Y-33076571D02*
X135064857Y-33005143D01*
X134993429Y-32862286D01*
X134993429Y-31576571D01*
X136422000Y-33076571D02*
X136422000Y-32290857D01*
X136350571Y-32148000D01*
X136207714Y-32076571D01*
X135922000Y-32076571D01*
X135779143Y-32148000D01*
X136422000Y-33005143D02*
X136279143Y-33076571D01*
X135922000Y-33076571D01*
X135779143Y-33005143D01*
X135707714Y-32862286D01*
X135707714Y-32719429D01*
X135779143Y-32576571D01*
X135922000Y-32505143D01*
X136279143Y-32505143D01*
X136422000Y-32433714D01*
X136993429Y-32076571D02*
X137350572Y-33076571D01*
X137707714Y-32076571D02*
X137350572Y-33076571D01*
X137207714Y-33433714D01*
X137136286Y-33505143D01*
X136993429Y-33576571D01*
X122207716Y-34690857D02*
X121707716Y-34690857D01*
X121707716Y-35476571D02*
X121707716Y-33976571D01*
X122422002Y-33976571D01*
X122993430Y-35476571D02*
X122993430Y-33976571D01*
X124207716Y-34690857D02*
X123707716Y-34690857D01*
X123707716Y-35476571D02*
X123707716Y-33976571D01*
X124422002Y-33976571D01*
X125279144Y-33976571D02*
X125564858Y-33976571D01*
X125707716Y-34048000D01*
X125850573Y-34190857D01*
X125922001Y-34476571D01*
X125922001Y-34976571D01*
X125850573Y-35262286D01*
X125707716Y-35405143D01*
X125564858Y-35476571D01*
X125279144Y-35476571D01*
X125136287Y-35405143D01*
X124993430Y-35262286D01*
X124922001Y-34976571D01*
X124922001Y-34476571D01*
X124993430Y-34190857D01*
X125136287Y-34048000D01*
X125279144Y-33976571D01*
X126207716Y-35619429D02*
X127350573Y-35619429D01*
X127707716Y-35476571D02*
X127707716Y-33976571D01*
X128279144Y-33976571D01*
X128422002Y-34048000D01*
X128493430Y-34119429D01*
X128564859Y-34262286D01*
X128564859Y-34476571D01*
X128493430Y-34619429D01*
X128422002Y-34690857D01*
X128279144Y-34762286D01*
X127707716Y-34762286D01*
X131207716Y-35476571D02*
X130707716Y-34762286D01*
X130350573Y-35476571D02*
X130350573Y-33976571D01*
X130922001Y-33976571D01*
X131064859Y-34048000D01*
X131136287Y-34119429D01*
X131207716Y-34262286D01*
X131207716Y-34476571D01*
X131136287Y-34619429D01*
X131064859Y-34690857D01*
X130922001Y-34762286D01*
X130350573Y-34762286D01*
X132422001Y-35405143D02*
X132279144Y-35476571D01*
X131993430Y-35476571D01*
X131850573Y-35405143D01*
X131779144Y-35262286D01*
X131779144Y-34690857D01*
X131850573Y-34548000D01*
X131993430Y-34476571D01*
X132279144Y-34476571D01*
X132422001Y-34548000D01*
X132493430Y-34690857D01*
X132493430Y-34833714D01*
X131779144Y-34976571D01*
X132993430Y-34476571D02*
X133350573Y-35476571D01*
X133707715Y-34476571D01*
X133922001Y-35619429D02*
X135064858Y-35619429D01*
X135350572Y-35405143D02*
X135564858Y-35476571D01*
X135922001Y-35476571D01*
X136064858Y-35405143D01*
X136136287Y-35333714D01*
X136207715Y-35190857D01*
X136207715Y-35048000D01*
X136136287Y-34905143D01*
X136064858Y-34833714D01*
X135922001Y-34762286D01*
X135636287Y-34690857D01*
X135493429Y-34619429D01*
X135422001Y-34548000D01*
X135350572Y-34405143D01*
X135350572Y-34262286D01*
X135422001Y-34119429D01*
X135493429Y-34048000D01*
X135636287Y-33976571D01*
X135993429Y-33976571D01*
X136207715Y-34048000D01*
X137636286Y-35476571D02*
X136779143Y-35476571D01*
X137207715Y-35476571D02*
X137207715Y-33976571D01*
X137064858Y-34190857D01*
X136922000Y-34333714D01*
X136779143Y-34405143D01*
X124564858Y-37090857D02*
X125064858Y-37090857D01*
X125279144Y-37876571D02*
X124564858Y-37876571D01*
X124564858Y-36376571D01*
X125279144Y-36376571D01*
X126564858Y-37876571D02*
X126564858Y-36376571D01*
X126564858Y-37805143D02*
X126422001Y-37876571D01*
X126136287Y-37876571D01*
X125993429Y-37805143D01*
X125922001Y-37733714D01*
X125850572Y-37590857D01*
X125850572Y-37162286D01*
X125922001Y-37019429D01*
X125993429Y-36948000D01*
X126136287Y-36876571D01*
X126422001Y-36876571D01*
X126564858Y-36948000D01*
X127922001Y-36876571D02*
X127922001Y-38090857D01*
X127850572Y-38233714D01*
X127779144Y-38305143D01*
X127636287Y-38376571D01*
X127422001Y-38376571D01*
X127279144Y-38305143D01*
X127922001Y-37805143D02*
X127779144Y-37876571D01*
X127493430Y-37876571D01*
X127350572Y-37805143D01*
X127279144Y-37733714D01*
X127207715Y-37590857D01*
X127207715Y-37162286D01*
X127279144Y-37019429D01*
X127350572Y-36948000D01*
X127493430Y-36876571D01*
X127779144Y-36876571D01*
X127922001Y-36948000D01*
X129279144Y-37876571D02*
X129279144Y-37090857D01*
X129207715Y-36948000D01*
X129064858Y-36876571D01*
X128779144Y-36876571D01*
X128636287Y-36948000D01*
X129279144Y-37805143D02*
X129136287Y-37876571D01*
X128779144Y-37876571D01*
X128636287Y-37805143D01*
X128564858Y-37662286D01*
X128564858Y-37519429D01*
X128636287Y-37376571D01*
X128779144Y-37305143D01*
X129136287Y-37305143D01*
X129279144Y-37233714D01*
X129993430Y-37876571D02*
X129993430Y-36876571D01*
X129993430Y-37162286D02*
X130064858Y-37019429D01*
X130136287Y-36948000D01*
X130279144Y-36876571D01*
X130422001Y-36876571D01*
X132064858Y-37876571D02*
X132064858Y-36376571D01*
X132636286Y-36376571D01*
X132779144Y-36448000D01*
X132850572Y-36519429D01*
X132922001Y-36662286D01*
X132922001Y-36876571D01*
X132850572Y-37019429D01*
X132779144Y-37090857D01*
X132636286Y-37162286D01*
X132064858Y-37162286D01*
X134136286Y-37805143D02*
X133993429Y-37876571D01*
X133707715Y-37876571D01*
X133564858Y-37805143D01*
X133493429Y-37662286D01*
X133493429Y-37090857D01*
X133564858Y-36948000D01*
X133707715Y-36876571D01*
X133993429Y-36876571D01*
X134136286Y-36948000D01*
X134207715Y-37090857D01*
X134207715Y-37233714D01*
X133493429Y-37376571D01*
X134850572Y-37876571D02*
X134850572Y-36876571D01*
X134850572Y-37162286D02*
X134922000Y-37019429D01*
X134993429Y-36948000D01*
X135136286Y-36876571D01*
X135279143Y-36876571D01*
X136350571Y-37805143D02*
X136207714Y-37876571D01*
X135922000Y-37876571D01*
X135779143Y-37805143D01*
X135707714Y-37662286D01*
X135707714Y-37090857D01*
X135779143Y-36948000D01*
X135922000Y-36876571D01*
X136207714Y-36876571D01*
X136350571Y-36948000D01*
X136422000Y-37090857D01*
X136422000Y-37233714D01*
X135707714Y-37376571D01*
X136922000Y-36876571D02*
X137707714Y-36876571D01*
X136922000Y-37876571D01*
X137707714Y-37876571D01*
X125850574Y-38776571D02*
X125136288Y-38776571D01*
X125064859Y-39490857D01*
X125136288Y-39419429D01*
X125279145Y-39348000D01*
X125636288Y-39348000D01*
X125779145Y-39419429D01*
X125850574Y-39490857D01*
X125922002Y-39633714D01*
X125922002Y-39990857D01*
X125850574Y-40133714D01*
X125779145Y-40205143D01*
X125636288Y-40276571D01*
X125279145Y-40276571D01*
X125136288Y-40205143D01*
X125064859Y-40133714D01*
X127636287Y-38705143D02*
X126350573Y-40633714D01*
X127993431Y-38776571D02*
X128922002Y-38776571D01*
X128422002Y-39348000D01*
X128636288Y-39348000D01*
X128779145Y-39419429D01*
X128850574Y-39490857D01*
X128922002Y-39633714D01*
X128922002Y-39990857D01*
X128850574Y-40133714D01*
X128779145Y-40205143D01*
X128636288Y-40276571D01*
X128207716Y-40276571D01*
X128064859Y-40205143D01*
X127993431Y-40133714D01*
X129850573Y-38776571D02*
X129993430Y-38776571D01*
X130136287Y-38848000D01*
X130207716Y-38919429D01*
X130279145Y-39062286D01*
X130350573Y-39348000D01*
X130350573Y-39705143D01*
X130279145Y-39990857D01*
X130207716Y-40133714D01*
X130136287Y-40205143D01*
X129993430Y-40276571D01*
X129850573Y-40276571D01*
X129707716Y-40205143D01*
X129636287Y-40133714D01*
X129564859Y-39990857D01*
X129493430Y-39705143D01*
X129493430Y-39348000D01*
X129564859Y-39062286D01*
X129636287Y-38919429D01*
X129707716Y-38848000D01*
X129850573Y-38776571D01*
X132064858Y-38705143D02*
X130779144Y-40633714D01*
X132493430Y-38919429D02*
X132564859Y-38848000D01*
X132707716Y-38776571D01*
X133064859Y-38776571D01*
X133207716Y-38848000D01*
X133279145Y-38919429D01*
X133350573Y-39062286D01*
X133350573Y-39205143D01*
X133279145Y-39419429D01*
X132422002Y-40276571D01*
X133350573Y-40276571D01*
X134279144Y-38776571D02*
X134422001Y-38776571D01*
X134564858Y-38848000D01*
X134636287Y-38919429D01*
X134707716Y-39062286D01*
X134779144Y-39348000D01*
X134779144Y-39705143D01*
X134707716Y-39990857D01*
X134636287Y-40133714D01*
X134564858Y-40205143D01*
X134422001Y-40276571D01*
X134279144Y-40276571D01*
X134136287Y-40205143D01*
X134064858Y-40133714D01*
X133993430Y-39990857D01*
X133922001Y-39705143D01*
X133922001Y-39348000D01*
X133993430Y-39062286D01*
X134064858Y-38919429D01*
X134136287Y-38848000D01*
X134279144Y-38776571D01*
X136207715Y-40276571D02*
X135350572Y-40276571D01*
X135779144Y-40276571D02*
X135779144Y-38776571D01*
X135636287Y-38990857D01*
X135493429Y-39133714D01*
X135350572Y-39205143D01*
X136707715Y-38776571D02*
X137707715Y-38776571D01*
X137064858Y-40276571D01*
D12*
X55279400Y-78389200D02*
X55854400Y-78389200D01*
X55279400Y-72639200D02*
X55929400Y-72639200D01*
X68650400Y-72639200D02*
X68000400Y-72639200D01*
X68650400Y-78389200D02*
X68000400Y-78389200D01*
X55279400Y-78389200D02*
X55279400Y-72639200D01*
X68650400Y-78389200D02*
X68650400Y-72639200D01*
X55854400Y-78389200D02*
X55854400Y-79989200D01*
D13*
X148336000Y-120650000D02*
G75*
G03X148336000Y-120650000I-2286000J0D01*
G01*
X34036000Y-120650000D02*
G75*
G03X34036000Y-120650000I-2286000J0D01*
G01*
X46736000Y-31750000D02*
G75*
G03X46736000Y-31750000I-2286000J0D01*
G01*
X148336000Y-31750000D02*
G75*
G03X148336000Y-31750000I-2286000J0D01*
G01*
D12*
X83058000Y-60198000D02*
X82804000Y-59944000D01*
X83058000Y-59182000D02*
X83058000Y-60198000D01*
X83058000Y-60198000D02*
X83312000Y-59944000D01*
X82296000Y-57785000D02*
X82296000Y-76073000D01*
X82296000Y-76073000D02*
X100584000Y-76073000D01*
X100584000Y-76073000D02*
X100584000Y-57785000D01*
X100584000Y-57912000D02*
X82296000Y-57785000D01*
X107569000Y-47752000D02*
X61849000Y-47752000D01*
X61849000Y-42672000D02*
X105029000Y-42672000D01*
X61849000Y-47752000D02*
X61849000Y-42672000D01*
X107569000Y-47752000D02*
X107569000Y-45212000D01*
X106299000Y-42392000D02*
X107849000Y-42392000D01*
X107569000Y-45212000D02*
X105029000Y-45212000D01*
X105029000Y-45212000D02*
X105029000Y-42672000D01*
X107849000Y-42392000D02*
X107849000Y-43942000D01*
D13*
X52030000Y-77391000D02*
X52030000Y-73271000D01*
X54650000Y-77391000D02*
X54650000Y-73271000D01*
X52030000Y-77391000D02*
X52590000Y-77391000D01*
X54090000Y-77391000D02*
X54650000Y-77391000D01*
X52030000Y-73271000D02*
X52590000Y-73271000D01*
X54090000Y-73271000D02*
X54650000Y-73271000D01*
X53935000Y-84503000D02*
X53935000Y-80383000D01*
X56555000Y-84503000D02*
X56555000Y-80383000D01*
X53935000Y-84503000D02*
X54495000Y-84503000D01*
X55995000Y-84503000D02*
X56555000Y-84503000D01*
X53935000Y-80383000D02*
X54495000Y-80383000D01*
X55995000Y-80383000D02*
X56555000Y-80383000D01*
X55158000Y-46307000D02*
X55158000Y-50427000D01*
X52538000Y-46307000D02*
X52538000Y-50427000D01*
X55158000Y-46307000D02*
X54598000Y-46307000D01*
X53098000Y-46307000D02*
X52538000Y-46307000D01*
X55158000Y-50427000D02*
X54598000Y-50427000D01*
X53098000Y-50427000D02*
X52538000Y-50427000D01*
X59349000Y-81867000D02*
X59349000Y-85987000D01*
X56729000Y-81867000D02*
X56729000Y-85987000D01*
X59349000Y-81867000D02*
X58789000Y-81867000D01*
X57289000Y-81867000D02*
X56729000Y-81867000D01*
X59349000Y-85987000D02*
X58789000Y-85987000D01*
X57289000Y-85987000D02*
X56729000Y-85987000D01*
X51133000Y-34885000D02*
X55253000Y-34885000D01*
X51133000Y-37505000D02*
X55253000Y-37505000D01*
X51133000Y-34885000D02*
X51133000Y-35445000D01*
X51133000Y-36945000D02*
X51133000Y-37505000D01*
X55253000Y-34885000D02*
X55253000Y-35445000D01*
X55253000Y-36945000D02*
X55253000Y-37505000D01*
X59396000Y-86027000D02*
X59396000Y-81907000D01*
X62016000Y-86027000D02*
X62016000Y-81907000D01*
X59396000Y-86027000D02*
X59956000Y-86027000D01*
X61456000Y-86027000D02*
X62016000Y-86027000D01*
X59396000Y-81907000D02*
X59956000Y-81907000D01*
X61456000Y-81907000D02*
X62016000Y-81907000D01*
X52491000Y-46307000D02*
X52491000Y-50427000D01*
X49871000Y-46307000D02*
X49871000Y-50427000D01*
X52491000Y-46307000D02*
X51931000Y-46307000D01*
X50431000Y-46307000D02*
X49871000Y-46307000D01*
X52491000Y-50427000D02*
X51931000Y-50427000D01*
X50431000Y-50427000D02*
X49871000Y-50427000D01*
X51133000Y-38187000D02*
X55253000Y-38187000D01*
X51133000Y-40807000D02*
X55253000Y-40807000D01*
X51133000Y-38187000D02*
X51133000Y-38747000D01*
X51133000Y-40247000D02*
X51133000Y-40807000D01*
X55253000Y-38187000D02*
X55253000Y-38747000D01*
X55253000Y-40247000D02*
X55253000Y-40807000D01*
X68667000Y-77645000D02*
X68667000Y-73525000D01*
X71287000Y-77645000D02*
X71287000Y-73525000D01*
X68667000Y-77645000D02*
X69227000Y-77645000D01*
X70727000Y-77645000D02*
X71287000Y-77645000D01*
X68667000Y-73525000D02*
X69227000Y-73525000D01*
X70727000Y-73525000D02*
X71287000Y-73525000D01*
X53927000Y-66000000D02*
X58047000Y-66000000D01*
X53927000Y-68620000D02*
X58047000Y-68620000D01*
X53927000Y-66000000D02*
X53927000Y-66560000D01*
X53927000Y-68060000D02*
X53927000Y-68620000D01*
X58047000Y-66000000D02*
X58047000Y-66560000D01*
X58047000Y-68060000D02*
X58047000Y-68620000D01*
X58626000Y-66000000D02*
X62746000Y-66000000D01*
X58626000Y-68620000D02*
X62746000Y-68620000D01*
X58626000Y-66000000D02*
X58626000Y-66560000D01*
X58626000Y-68060000D02*
X58626000Y-68620000D01*
X62746000Y-66000000D02*
X62746000Y-66560000D01*
X62746000Y-68060000D02*
X62746000Y-68620000D01*
X81201000Y-60873000D02*
X77081000Y-60873000D01*
X81201000Y-58253000D02*
X77081000Y-58253000D01*
X81201000Y-60873000D02*
X81201000Y-60313000D01*
X81201000Y-58813000D02*
X81201000Y-58253000D01*
X77081000Y-60873000D02*
X77081000Y-60313000D01*
X77081000Y-58813000D02*
X77081000Y-58253000D01*
X81193000Y-63794000D02*
X76073000Y-63794000D01*
X81193000Y-61174000D02*
X76073000Y-61174000D01*
X81193000Y-63794000D02*
X81193000Y-61174000D01*
X76073000Y-63794000D02*
X76073000Y-61174000D01*
X93012000Y-52237000D02*
X88892000Y-52237000D01*
X93012000Y-49617000D02*
X88892000Y-49617000D01*
X93012000Y-52237000D02*
X93012000Y-51677000D01*
X93012000Y-50177000D02*
X93012000Y-49617000D01*
X88892000Y-52237000D02*
X88892000Y-51677000D01*
X88892000Y-50177000D02*
X88892000Y-49617000D01*
X92202000Y-57351620D02*
X88581613Y-53731233D01*
X94054620Y-55499000D02*
X90434233Y-51878613D01*
X92202000Y-57351620D02*
X94054620Y-55499000D01*
X88581613Y-53731233D02*
X90434233Y-51878613D01*
X96568000Y-80304000D02*
X92448000Y-80304000D01*
X96568000Y-77684000D02*
X92448000Y-77684000D01*
X96568000Y-80304000D02*
X96568000Y-79744000D01*
X96568000Y-78244000D02*
X96568000Y-77684000D01*
X92448000Y-80304000D02*
X92448000Y-79744000D01*
X92448000Y-78244000D02*
X92448000Y-77684000D01*
X97068000Y-85130000D02*
X91948000Y-85130000D01*
X97068000Y-82510000D02*
X91948000Y-82510000D01*
X97068000Y-85130000D02*
X97068000Y-82510000D01*
X91948000Y-85130000D02*
X91948000Y-82510000D01*
X108371000Y-61166000D02*
X108371000Y-65286000D01*
X105751000Y-61166000D02*
X105751000Y-65286000D01*
X108371000Y-61166000D02*
X107811000Y-61166000D01*
X106311000Y-61166000D02*
X105751000Y-61166000D01*
X108371000Y-65286000D02*
X107811000Y-65286000D01*
X106311000Y-65286000D02*
X105751000Y-65286000D01*
X105831000Y-60666000D02*
X105831000Y-65786000D01*
X103211000Y-60666000D02*
X103211000Y-65786000D01*
X105831000Y-60666000D02*
X103211000Y-60666000D01*
X105831000Y-65786000D02*
X103211000Y-65786000D01*
X39278845Y-55286326D02*
X39278845Y-60406326D01*
X36658845Y-55286326D02*
X36658845Y-60406326D01*
X39278845Y-55286326D02*
X36658845Y-55286326D01*
X39278845Y-60406326D02*
X36658845Y-60406326D01*
X39024847Y-49190323D02*
X39024847Y-54310323D01*
X36404847Y-49190323D02*
X36404847Y-54310323D01*
X39024847Y-49190323D02*
X36404847Y-49190323D01*
X39024847Y-54310323D02*
X36404847Y-54310323D01*
X40963175Y-106191346D02*
X46083175Y-106191346D01*
X40963175Y-108811346D02*
X46083175Y-108811346D01*
X40963175Y-106191346D02*
X40963175Y-108811346D01*
X46083175Y-106191346D02*
X46083175Y-108811346D01*
X46950000Y-106259000D02*
X52070000Y-106259000D01*
X46950000Y-108879000D02*
X52070000Y-108879000D01*
X46950000Y-106259000D02*
X46950000Y-108879000D01*
X52070000Y-106259000D02*
X52070000Y-108879000D01*
X86193000Y-85685000D02*
X91313000Y-85685000D01*
X86193000Y-88305000D02*
X91313000Y-88305000D01*
X86193000Y-85685000D02*
X86193000Y-88305000D01*
X91313000Y-85685000D02*
X91313000Y-88305000D01*
X91654000Y-85685000D02*
X96774000Y-85685000D01*
X91654000Y-88305000D02*
X96774000Y-88305000D01*
X91654000Y-85685000D02*
X91654000Y-88305000D01*
X96774000Y-85685000D02*
X96774000Y-88305000D01*
X30687000Y-109502000D02*
X21887000Y-109502000D01*
X21887000Y-109502000D02*
X21887000Y-100302000D01*
X36587000Y-106802000D02*
X36587000Y-109502000D01*
X36587000Y-109502000D02*
X34687000Y-109502000D01*
X21887000Y-100302000D02*
X36587000Y-100302000D01*
X36587000Y-100302000D02*
X36587000Y-102902000D01*
X60219335Y-57976392D02*
G75*
G03X56987000Y-57819484I-1672335J-1078608D01*
G01*
X60219335Y-60133608D02*
G75*
G02X56987000Y-60290516I-1672335J1078608D01*
G01*
X59588130Y-57975163D02*
G75*
G03X57506039Y-57975000I-1041130J-1079837D01*
G01*
X59588130Y-60134837D02*
G75*
G02X57506039Y-60135000I-1041130J1079837D01*
G01*
X56987000Y-57819000D02*
X56987000Y-57975000D01*
X56987000Y-60135000D02*
X56987000Y-60291000D01*
X45914000Y-67691000D02*
X45914000Y-72831000D01*
X45914000Y-72831000D02*
X48574000Y-72831000D01*
X48574000Y-72831000D02*
X48574000Y-67691000D01*
X48574000Y-67691000D02*
X45914000Y-67691000D01*
X45914000Y-66421000D02*
X45914000Y-65091000D01*
X45914000Y-65091000D02*
X47244000Y-65091000D01*
X34479411Y-83377337D02*
G75*
G03X34493000Y-86840000I4763589J-1712663D01*
G01*
X37530337Y-89853589D02*
G75*
G03X40993000Y-89840000I1712663J4763589D01*
G01*
X44006589Y-86802663D02*
G75*
G03X43993000Y-83340000I-4763589J1712663D01*
G01*
X40955663Y-80326411D02*
G75*
G03X37493000Y-80340000I-1712663J-4763589D01*
G01*
X34479411Y-67248337D02*
G75*
G03X34493000Y-70711000I4763589J-1712663D01*
G01*
X37530337Y-73724589D02*
G75*
G03X40993000Y-73711000I1712663J4763589D01*
G01*
X44006589Y-70673663D02*
G75*
G03X43993000Y-67211000I-4763589J1712663D01*
G01*
X40955663Y-64197411D02*
G75*
G03X37493000Y-64211000I-1712663J-4763589D01*
G01*
X31431411Y-37784337D02*
G75*
G03X31445000Y-41247000I4763589J-1712663D01*
G01*
X34482337Y-44260589D02*
G75*
G03X37945000Y-44247000I1712663J4763589D01*
G01*
X40958589Y-41209663D02*
G75*
G03X40945000Y-37747000I-4763589J1712663D01*
G01*
X37907663Y-34733411D02*
G75*
G03X34445000Y-34747000I-1712663J-4763589D01*
G01*
X139254411Y-56199337D02*
G75*
G03X139268000Y-59662000I4763589J-1712663D01*
G01*
X142305337Y-62675589D02*
G75*
G03X145768000Y-62662000I1712663J4763589D01*
G01*
X148781589Y-59624663D02*
G75*
G03X148768000Y-56162000I-4763589J1712663D01*
G01*
X145730663Y-53148411D02*
G75*
G03X142268000Y-53162000I-1712663J-4763589D01*
G01*
X35515000Y-32737000D02*
X31795000Y-32737000D01*
X35515000Y-31017000D02*
X31795000Y-31017000D01*
X36748000Y-92739000D02*
X40468000Y-92739000D01*
X36748000Y-94459000D02*
X40468000Y-94459000D01*
X31017000Y-73361000D02*
X31017000Y-69641000D01*
X32737000Y-73361000D02*
X32737000Y-69641000D01*
X48416000Y-85426000D02*
X48416000Y-81706000D01*
X50136000Y-85426000D02*
X50136000Y-81706000D01*
X51025000Y-69641000D02*
X51025000Y-73361000D01*
X49305000Y-69641000D02*
X49305000Y-73361000D01*
X51734000Y-63275000D02*
X55454000Y-63275000D01*
X51734000Y-64995000D02*
X55454000Y-64995000D01*
X129077000Y-64672000D02*
X132797000Y-64672000D01*
X129077000Y-66392000D02*
X132797000Y-66392000D01*
X47728000Y-52300000D02*
X44728000Y-52300000D01*
X47728000Y-49300000D02*
X43728000Y-49300000D01*
D12*
X44915000Y-38827000D02*
X44915000Y-38877000D01*
X49065000Y-38827000D02*
X49065000Y-38972000D01*
X49065000Y-43977000D02*
X49065000Y-43832000D01*
X44915000Y-43977000D02*
X44915000Y-43832000D01*
X44915000Y-38827000D02*
X49065000Y-38827000D01*
X44915000Y-43977000D02*
X49065000Y-43977000D01*
X44915000Y-38877000D02*
X43515000Y-38877000D01*
X31491848Y-48595324D02*
X34920848Y-48595324D01*
X31491848Y-58247324D02*
X34920848Y-58247324D01*
X30348848Y-48087324D02*
X30348848Y-58755324D01*
X31364848Y-51643324D02*
X30094848Y-51643324D01*
X31364848Y-55199324D02*
X30094848Y-55199324D01*
X31491848Y-58755324D02*
X31491848Y-48087324D01*
X34920848Y-48087324D02*
X34920848Y-58755324D01*
X30094848Y-58755324D02*
X34920848Y-58755324D01*
X30094848Y-48087324D02*
X34920848Y-48087324D01*
X30094848Y-48087324D02*
X30094848Y-58755324D01*
X51562000Y-101854000D02*
X51562000Y-105283000D01*
X41910000Y-101854000D02*
X41910000Y-105283000D01*
X52070000Y-100711000D02*
X41402000Y-100711000D01*
X48514000Y-101727000D02*
X48514000Y-100457000D01*
X44958000Y-101727000D02*
X44958000Y-100457000D01*
X41402000Y-101854000D02*
X52070000Y-101854000D01*
X52070000Y-105283000D02*
X41402000Y-105283000D01*
X41402000Y-100457000D02*
X41402000Y-105283000D01*
X52070000Y-100457000D02*
X52070000Y-105283000D01*
X52070000Y-100457000D02*
X41402000Y-100457000D01*
X96393000Y-90170000D02*
X96393000Y-93599000D01*
X86741000Y-90170000D02*
X86741000Y-93599000D01*
X96901000Y-89027000D02*
X86233000Y-89027000D01*
X93345000Y-90043000D02*
X93345000Y-88773000D01*
X89789000Y-90043000D02*
X89789000Y-88773000D01*
X86233000Y-90170000D02*
X96901000Y-90170000D01*
X96901000Y-93599000D02*
X86233000Y-93599000D01*
X86233000Y-88773000D02*
X86233000Y-93599000D01*
X96901000Y-88773000D02*
X96901000Y-93599000D01*
X96901000Y-88773000D02*
X86233000Y-88773000D01*
D13*
X124333279Y-52650944D02*
X121702842Y-55281382D01*
X123117056Y-51434721D02*
X120486618Y-54065158D01*
X30569942Y-114046000D02*
G75*
G03X30569942Y-114046000I-851942J0D01*
G01*
X55334942Y-107569000D02*
G75*
G03X55334942Y-107569000I-851942J0D01*
G01*
X95085942Y-94869000D02*
G75*
G03X95085942Y-94869000I-851942J0D01*
G01*
X137122942Y-62230000D02*
G75*
G03X137122942Y-62230000I-851942J0D01*
G01*
X50508942Y-37338000D02*
G75*
G03X50508942Y-37338000I-851942J0D01*
G01*
X59242000Y-96012000D02*
X59242000Y-93412000D01*
X59242000Y-93412000D02*
X56582000Y-93412000D01*
X56582000Y-93412000D02*
X56582000Y-96012000D01*
X56582000Y-96012000D02*
X59242000Y-96012000D01*
X59242000Y-97282000D02*
X59242000Y-98612000D01*
X59242000Y-98612000D02*
X57912000Y-98612000D01*
X61154000Y-61468000D02*
X61154000Y-64068000D01*
X61154000Y-64068000D02*
X63814000Y-64068000D01*
X63814000Y-64068000D02*
X63814000Y-61468000D01*
X63814000Y-61468000D02*
X61154000Y-61468000D01*
X61154000Y-60198000D02*
X61154000Y-58868000D01*
X61154000Y-58868000D02*
X62484000Y-58868000D01*
X70955942Y-62992000D02*
G75*
G03X70955942Y-62992000I-851942J0D01*
G01*
D12*
X54189381Y-76199905D02*
X54998905Y-76199905D01*
X55094143Y-76152286D01*
X55141762Y-76104667D01*
X55189381Y-76009429D01*
X55189381Y-75818952D01*
X55141762Y-75723714D01*
X55094143Y-75676095D01*
X54998905Y-75628476D01*
X54189381Y-75628476D01*
X54189381Y-75247524D02*
X54189381Y-74628476D01*
X54570333Y-74961810D01*
X54570333Y-74818952D01*
X54617952Y-74723714D01*
X54665571Y-74676095D01*
X54760810Y-74628476D01*
X54998905Y-74628476D01*
X55094143Y-74676095D01*
X55141762Y-74723714D01*
X55189381Y-74818952D01*
X55189381Y-75104667D01*
X55141762Y-75199905D01*
X55094143Y-75247524D01*
X142335715Y-118435333D02*
X142288095Y-118435333D01*
X142192857Y-118387714D01*
X142145238Y-118292476D01*
X142145238Y-117816286D01*
X142097619Y-117721048D01*
X142002381Y-117673429D01*
X142097619Y-117625810D01*
X142145238Y-117530571D01*
X142145238Y-117054381D01*
X142192857Y-116959143D01*
X142288095Y-116911524D01*
X142335715Y-116911524D01*
X142907143Y-117054381D02*
X143002382Y-117054381D01*
X143097620Y-117102000D01*
X143145239Y-117149619D01*
X143192858Y-117244857D01*
X143240477Y-117435333D01*
X143240477Y-117673429D01*
X143192858Y-117863905D01*
X143145239Y-117959143D01*
X143097620Y-118006762D01*
X143002382Y-118054381D01*
X142907143Y-118054381D01*
X142811905Y-118006762D01*
X142764286Y-117959143D01*
X142716667Y-117863905D01*
X142669048Y-117673429D01*
X142669048Y-117435333D01*
X142716667Y-117244857D01*
X142764286Y-117149619D01*
X142811905Y-117102000D01*
X142907143Y-117054381D01*
X143669048Y-117959143D02*
X143716667Y-118006762D01*
X143669048Y-118054381D01*
X143621429Y-118006762D01*
X143669048Y-117959143D01*
X143669048Y-118054381D01*
X144097619Y-117149619D02*
X144145238Y-117102000D01*
X144240476Y-117054381D01*
X144478572Y-117054381D01*
X144573810Y-117102000D01*
X144621429Y-117149619D01*
X144669048Y-117244857D01*
X144669048Y-117340095D01*
X144621429Y-117482952D01*
X144050000Y-118054381D01*
X144669048Y-118054381D01*
X145573810Y-117054381D02*
X145097619Y-117054381D01*
X145050000Y-117530571D01*
X145097619Y-117482952D01*
X145192857Y-117435333D01*
X145430953Y-117435333D01*
X145526191Y-117482952D01*
X145573810Y-117530571D01*
X145621429Y-117625810D01*
X145621429Y-117863905D01*
X145573810Y-117959143D01*
X145526191Y-118006762D01*
X145430953Y-118054381D01*
X145192857Y-118054381D01*
X145097619Y-118006762D01*
X145050000Y-117959143D01*
X146097619Y-118006762D02*
X146097619Y-118054381D01*
X146050000Y-118149619D01*
X146002381Y-118197238D01*
X146716666Y-117054381D02*
X146811905Y-117054381D01*
X146907143Y-117102000D01*
X146954762Y-117149619D01*
X147002381Y-117244857D01*
X147050000Y-117435333D01*
X147050000Y-117673429D01*
X147002381Y-117863905D01*
X146954762Y-117959143D01*
X146907143Y-118006762D01*
X146811905Y-118054381D01*
X146716666Y-118054381D01*
X146621428Y-118006762D01*
X146573809Y-117959143D01*
X146526190Y-117863905D01*
X146478571Y-117673429D01*
X146478571Y-117435333D01*
X146526190Y-117244857D01*
X146573809Y-117149619D01*
X146621428Y-117102000D01*
X146716666Y-117054381D01*
X147478571Y-117959143D02*
X147526190Y-118006762D01*
X147478571Y-118054381D01*
X147430952Y-118006762D01*
X147478571Y-117959143D01*
X147478571Y-118054381D01*
X147907142Y-117149619D02*
X147954761Y-117102000D01*
X148049999Y-117054381D01*
X148288095Y-117054381D01*
X148383333Y-117102000D01*
X148430952Y-117149619D01*
X148478571Y-117244857D01*
X148478571Y-117340095D01*
X148430952Y-117482952D01*
X147859523Y-118054381D01*
X148478571Y-118054381D01*
X149383333Y-117054381D02*
X148907142Y-117054381D01*
X148859523Y-117530571D01*
X148907142Y-117482952D01*
X149002380Y-117435333D01*
X149240476Y-117435333D01*
X149335714Y-117482952D01*
X149383333Y-117530571D01*
X149430952Y-117625810D01*
X149430952Y-117863905D01*
X149383333Y-117959143D01*
X149335714Y-118006762D01*
X149240476Y-118054381D01*
X149002380Y-118054381D01*
X148907142Y-118006762D01*
X148859523Y-117959143D01*
X149764285Y-118435333D02*
X149811904Y-118435333D01*
X149907142Y-118387714D01*
X149954761Y-118292476D01*
X149954761Y-117816286D01*
X150002380Y-117721048D01*
X150097618Y-117673429D01*
X150002380Y-117625810D01*
X149954761Y-117530571D01*
X149954761Y-117054381D01*
X149907142Y-116959143D01*
X149811904Y-116911524D01*
X149764285Y-116911524D01*
X28035715Y-118435333D02*
X27988095Y-118435333D01*
X27892857Y-118387714D01*
X27845238Y-118292476D01*
X27845238Y-117816286D01*
X27797619Y-117721048D01*
X27702381Y-117673429D01*
X27797619Y-117625810D01*
X27845238Y-117530571D01*
X27845238Y-117054381D01*
X27892857Y-116959143D01*
X27988095Y-116911524D01*
X28035715Y-116911524D01*
X28607143Y-117054381D02*
X28702382Y-117054381D01*
X28797620Y-117102000D01*
X28845239Y-117149619D01*
X28892858Y-117244857D01*
X28940477Y-117435333D01*
X28940477Y-117673429D01*
X28892858Y-117863905D01*
X28845239Y-117959143D01*
X28797620Y-118006762D01*
X28702382Y-118054381D01*
X28607143Y-118054381D01*
X28511905Y-118006762D01*
X28464286Y-117959143D01*
X28416667Y-117863905D01*
X28369048Y-117673429D01*
X28369048Y-117435333D01*
X28416667Y-117244857D01*
X28464286Y-117149619D01*
X28511905Y-117102000D01*
X28607143Y-117054381D01*
X29369048Y-117959143D02*
X29416667Y-118006762D01*
X29369048Y-118054381D01*
X29321429Y-118006762D01*
X29369048Y-117959143D01*
X29369048Y-118054381D01*
X29797619Y-117149619D02*
X29845238Y-117102000D01*
X29940476Y-117054381D01*
X30178572Y-117054381D01*
X30273810Y-117102000D01*
X30321429Y-117149619D01*
X30369048Y-117244857D01*
X30369048Y-117340095D01*
X30321429Y-117482952D01*
X29750000Y-118054381D01*
X30369048Y-118054381D01*
X31273810Y-117054381D02*
X30797619Y-117054381D01*
X30750000Y-117530571D01*
X30797619Y-117482952D01*
X30892857Y-117435333D01*
X31130953Y-117435333D01*
X31226191Y-117482952D01*
X31273810Y-117530571D01*
X31321429Y-117625810D01*
X31321429Y-117863905D01*
X31273810Y-117959143D01*
X31226191Y-118006762D01*
X31130953Y-118054381D01*
X30892857Y-118054381D01*
X30797619Y-118006762D01*
X30750000Y-117959143D01*
X31797619Y-118006762D02*
X31797619Y-118054381D01*
X31750000Y-118149619D01*
X31702381Y-118197238D01*
X32416666Y-117054381D02*
X32511905Y-117054381D01*
X32607143Y-117102000D01*
X32654762Y-117149619D01*
X32702381Y-117244857D01*
X32750000Y-117435333D01*
X32750000Y-117673429D01*
X32702381Y-117863905D01*
X32654762Y-117959143D01*
X32607143Y-118006762D01*
X32511905Y-118054381D01*
X32416666Y-118054381D01*
X32321428Y-118006762D01*
X32273809Y-117959143D01*
X32226190Y-117863905D01*
X32178571Y-117673429D01*
X32178571Y-117435333D01*
X32226190Y-117244857D01*
X32273809Y-117149619D01*
X32321428Y-117102000D01*
X32416666Y-117054381D01*
X33178571Y-117959143D02*
X33226190Y-118006762D01*
X33178571Y-118054381D01*
X33130952Y-118006762D01*
X33178571Y-117959143D01*
X33178571Y-118054381D01*
X33607142Y-117149619D02*
X33654761Y-117102000D01*
X33749999Y-117054381D01*
X33988095Y-117054381D01*
X34083333Y-117102000D01*
X34130952Y-117149619D01*
X34178571Y-117244857D01*
X34178571Y-117340095D01*
X34130952Y-117482952D01*
X33559523Y-118054381D01*
X34178571Y-118054381D01*
X35083333Y-117054381D02*
X34607142Y-117054381D01*
X34559523Y-117530571D01*
X34607142Y-117482952D01*
X34702380Y-117435333D01*
X34940476Y-117435333D01*
X35035714Y-117482952D01*
X35083333Y-117530571D01*
X35130952Y-117625810D01*
X35130952Y-117863905D01*
X35083333Y-117959143D01*
X35035714Y-118006762D01*
X34940476Y-118054381D01*
X34702380Y-118054381D01*
X34607142Y-118006762D01*
X34559523Y-117959143D01*
X35464285Y-118435333D02*
X35511904Y-118435333D01*
X35607142Y-118387714D01*
X35654761Y-118292476D01*
X35654761Y-117816286D01*
X35702380Y-117721048D01*
X35797618Y-117673429D01*
X35702380Y-117625810D01*
X35654761Y-117530571D01*
X35654761Y-117054381D01*
X35607142Y-116959143D01*
X35511904Y-116911524D01*
X35464285Y-116911524D01*
X40735715Y-29535333D02*
X40688095Y-29535333D01*
X40592857Y-29487714D01*
X40545238Y-29392476D01*
X40545238Y-28916286D01*
X40497619Y-28821048D01*
X40402381Y-28773429D01*
X40497619Y-28725810D01*
X40545238Y-28630571D01*
X40545238Y-28154381D01*
X40592857Y-28059143D01*
X40688095Y-28011524D01*
X40735715Y-28011524D01*
X41307143Y-28154381D02*
X41402382Y-28154381D01*
X41497620Y-28202000D01*
X41545239Y-28249619D01*
X41592858Y-28344857D01*
X41640477Y-28535333D01*
X41640477Y-28773429D01*
X41592858Y-28963905D01*
X41545239Y-29059143D01*
X41497620Y-29106762D01*
X41402382Y-29154381D01*
X41307143Y-29154381D01*
X41211905Y-29106762D01*
X41164286Y-29059143D01*
X41116667Y-28963905D01*
X41069048Y-28773429D01*
X41069048Y-28535333D01*
X41116667Y-28344857D01*
X41164286Y-28249619D01*
X41211905Y-28202000D01*
X41307143Y-28154381D01*
X42069048Y-29059143D02*
X42116667Y-29106762D01*
X42069048Y-29154381D01*
X42021429Y-29106762D01*
X42069048Y-29059143D01*
X42069048Y-29154381D01*
X42450000Y-28154381D02*
X43116667Y-28154381D01*
X42688095Y-29154381D01*
X43973810Y-28154381D02*
X43497619Y-28154381D01*
X43450000Y-28630571D01*
X43497619Y-28582952D01*
X43592857Y-28535333D01*
X43830953Y-28535333D01*
X43926191Y-28582952D01*
X43973810Y-28630571D01*
X44021429Y-28725810D01*
X44021429Y-28963905D01*
X43973810Y-29059143D01*
X43926191Y-29106762D01*
X43830953Y-29154381D01*
X43592857Y-29154381D01*
X43497619Y-29106762D01*
X43450000Y-29059143D01*
X44497619Y-29106762D02*
X44497619Y-29154381D01*
X44450000Y-29249619D01*
X44402381Y-29297238D01*
X45116666Y-28154381D02*
X45211905Y-28154381D01*
X45307143Y-28202000D01*
X45354762Y-28249619D01*
X45402381Y-28344857D01*
X45450000Y-28535333D01*
X45450000Y-28773429D01*
X45402381Y-28963905D01*
X45354762Y-29059143D01*
X45307143Y-29106762D01*
X45211905Y-29154381D01*
X45116666Y-29154381D01*
X45021428Y-29106762D01*
X44973809Y-29059143D01*
X44926190Y-28963905D01*
X44878571Y-28773429D01*
X44878571Y-28535333D01*
X44926190Y-28344857D01*
X44973809Y-28249619D01*
X45021428Y-28202000D01*
X45116666Y-28154381D01*
X45878571Y-29059143D02*
X45926190Y-29106762D01*
X45878571Y-29154381D01*
X45830952Y-29106762D01*
X45878571Y-29059143D01*
X45878571Y-29154381D01*
X46307142Y-28249619D02*
X46354761Y-28202000D01*
X46449999Y-28154381D01*
X46688095Y-28154381D01*
X46783333Y-28202000D01*
X46830952Y-28249619D01*
X46878571Y-28344857D01*
X46878571Y-28440095D01*
X46830952Y-28582952D01*
X46259523Y-29154381D01*
X46878571Y-29154381D01*
X47783333Y-28154381D02*
X47307142Y-28154381D01*
X47259523Y-28630571D01*
X47307142Y-28582952D01*
X47402380Y-28535333D01*
X47640476Y-28535333D01*
X47735714Y-28582952D01*
X47783333Y-28630571D01*
X47830952Y-28725810D01*
X47830952Y-28963905D01*
X47783333Y-29059143D01*
X47735714Y-29106762D01*
X47640476Y-29154381D01*
X47402380Y-29154381D01*
X47307142Y-29106762D01*
X47259523Y-29059143D01*
X48164285Y-29535333D02*
X48211904Y-29535333D01*
X48307142Y-29487714D01*
X48354761Y-29392476D01*
X48354761Y-28916286D01*
X48402380Y-28821048D01*
X48497618Y-28773429D01*
X48402380Y-28725810D01*
X48354761Y-28630571D01*
X48354761Y-28154381D01*
X48307142Y-28059143D01*
X48211904Y-28011524D01*
X48164285Y-28011524D01*
X142335715Y-29535333D02*
X142288095Y-29535333D01*
X142192857Y-29487714D01*
X142145238Y-29392476D01*
X142145238Y-28916286D01*
X142097619Y-28821048D01*
X142002381Y-28773429D01*
X142097619Y-28725810D01*
X142145238Y-28630571D01*
X142145238Y-28154381D01*
X142192857Y-28059143D01*
X142288095Y-28011524D01*
X142335715Y-28011524D01*
X142907143Y-28154381D02*
X143002382Y-28154381D01*
X143097620Y-28202000D01*
X143145239Y-28249619D01*
X143192858Y-28344857D01*
X143240477Y-28535333D01*
X143240477Y-28773429D01*
X143192858Y-28963905D01*
X143145239Y-29059143D01*
X143097620Y-29106762D01*
X143002382Y-29154381D01*
X142907143Y-29154381D01*
X142811905Y-29106762D01*
X142764286Y-29059143D01*
X142716667Y-28963905D01*
X142669048Y-28773429D01*
X142669048Y-28535333D01*
X142716667Y-28344857D01*
X142764286Y-28249619D01*
X142811905Y-28202000D01*
X142907143Y-28154381D01*
X143669048Y-29059143D02*
X143716667Y-29106762D01*
X143669048Y-29154381D01*
X143621429Y-29106762D01*
X143669048Y-29059143D01*
X143669048Y-29154381D01*
X144097619Y-28249619D02*
X144145238Y-28202000D01*
X144240476Y-28154381D01*
X144478572Y-28154381D01*
X144573810Y-28202000D01*
X144621429Y-28249619D01*
X144669048Y-28344857D01*
X144669048Y-28440095D01*
X144621429Y-28582952D01*
X144050000Y-29154381D01*
X144669048Y-29154381D01*
X145573810Y-28154381D02*
X145097619Y-28154381D01*
X145050000Y-28630571D01*
X145097619Y-28582952D01*
X145192857Y-28535333D01*
X145430953Y-28535333D01*
X145526191Y-28582952D01*
X145573810Y-28630571D01*
X145621429Y-28725810D01*
X145621429Y-28963905D01*
X145573810Y-29059143D01*
X145526191Y-29106762D01*
X145430953Y-29154381D01*
X145192857Y-29154381D01*
X145097619Y-29106762D01*
X145050000Y-29059143D01*
X146097619Y-29106762D02*
X146097619Y-29154381D01*
X146050000Y-29249619D01*
X146002381Y-29297238D01*
X146716666Y-28154381D02*
X146811905Y-28154381D01*
X146907143Y-28202000D01*
X146954762Y-28249619D01*
X147002381Y-28344857D01*
X147050000Y-28535333D01*
X147050000Y-28773429D01*
X147002381Y-28963905D01*
X146954762Y-29059143D01*
X146907143Y-29106762D01*
X146811905Y-29154381D01*
X146716666Y-29154381D01*
X146621428Y-29106762D01*
X146573809Y-29059143D01*
X146526190Y-28963905D01*
X146478571Y-28773429D01*
X146478571Y-28535333D01*
X146526190Y-28344857D01*
X146573809Y-28249619D01*
X146621428Y-28202000D01*
X146716666Y-28154381D01*
X147478571Y-29059143D02*
X147526190Y-29106762D01*
X147478571Y-29154381D01*
X147430952Y-29106762D01*
X147478571Y-29059143D01*
X147478571Y-29154381D01*
X147907142Y-28249619D02*
X147954761Y-28202000D01*
X148049999Y-28154381D01*
X148288095Y-28154381D01*
X148383333Y-28202000D01*
X148430952Y-28249619D01*
X148478571Y-28344857D01*
X148478571Y-28440095D01*
X148430952Y-28582952D01*
X147859523Y-29154381D01*
X148478571Y-29154381D01*
X149383333Y-28154381D02*
X148907142Y-28154381D01*
X148859523Y-28630571D01*
X148907142Y-28582952D01*
X149002380Y-28535333D01*
X149240476Y-28535333D01*
X149335714Y-28582952D01*
X149383333Y-28630571D01*
X149430952Y-28725810D01*
X149430952Y-28963905D01*
X149383333Y-29059143D01*
X149335714Y-29106762D01*
X149240476Y-29154381D01*
X149002380Y-29154381D01*
X148907142Y-29106762D01*
X148859523Y-29059143D01*
X149764285Y-29535333D02*
X149811904Y-29535333D01*
X149907142Y-29487714D01*
X149954761Y-29392476D01*
X149954761Y-28916286D01*
X150002380Y-28821048D01*
X150097618Y-28773429D01*
X150002380Y-28725810D01*
X149954761Y-28630571D01*
X149954761Y-28154381D01*
X149907142Y-28059143D01*
X149811904Y-28011524D01*
X149764285Y-28011524D01*
X91496095Y-76512381D02*
X91496095Y-77321905D01*
X91543714Y-77417143D01*
X91591333Y-77464762D01*
X91686571Y-77512381D01*
X91877048Y-77512381D01*
X91972286Y-77464762D01*
X92019905Y-77417143D01*
X92067524Y-77321905D01*
X92067524Y-76512381D01*
X93019905Y-76512381D02*
X92543714Y-76512381D01*
X92496095Y-76988571D01*
X92543714Y-76940952D01*
X92638952Y-76893333D01*
X92877048Y-76893333D01*
X92972286Y-76940952D01*
X93019905Y-76988571D01*
X93067524Y-77083810D01*
X93067524Y-77321905D01*
X93019905Y-77417143D01*
X92972286Y-77464762D01*
X92877048Y-77512381D01*
X92638952Y-77512381D01*
X92543714Y-77464762D01*
X92496095Y-77417143D01*
X85217095Y-40854381D02*
X85217095Y-41663905D01*
X85264714Y-41759143D01*
X85312333Y-41806762D01*
X85407571Y-41854381D01*
X85598048Y-41854381D01*
X85693286Y-41806762D01*
X85740905Y-41759143D01*
X85788524Y-41663905D01*
X85788524Y-40854381D01*
X86693286Y-41187714D02*
X86693286Y-41854381D01*
X86455190Y-40806762D02*
X86217095Y-41521048D01*
X86836143Y-41521048D01*
X53824143Y-78906666D02*
X53871762Y-78954285D01*
X53919381Y-79097142D01*
X53919381Y-79192380D01*
X53871762Y-79335238D01*
X53776524Y-79430476D01*
X53681286Y-79478095D01*
X53490810Y-79525714D01*
X53347952Y-79525714D01*
X53157476Y-79478095D01*
X53062238Y-79430476D01*
X52967000Y-79335238D01*
X52919381Y-79192380D01*
X52919381Y-79097142D01*
X52967000Y-78954285D01*
X53014619Y-78906666D01*
X53919381Y-77954285D02*
X53919381Y-78525714D01*
X53919381Y-78240000D02*
X52919381Y-78240000D01*
X53062238Y-78335238D01*
X53157476Y-78430476D01*
X53205095Y-78525714D01*
X55729143Y-86653666D02*
X55776762Y-86701285D01*
X55824381Y-86844142D01*
X55824381Y-86939380D01*
X55776762Y-87082238D01*
X55681524Y-87177476D01*
X55586286Y-87225095D01*
X55395810Y-87272714D01*
X55252952Y-87272714D01*
X55062476Y-87225095D01*
X54967238Y-87177476D01*
X54872000Y-87082238D01*
X54824381Y-86939380D01*
X54824381Y-86844142D01*
X54872000Y-86701285D01*
X54919619Y-86653666D01*
X54919619Y-86272714D02*
X54872000Y-86225095D01*
X54824381Y-86129857D01*
X54824381Y-85891761D01*
X54872000Y-85796523D01*
X54919619Y-85748904D01*
X55014857Y-85701285D01*
X55110095Y-85701285D01*
X55252952Y-85748904D01*
X55824381Y-86320333D01*
X55824381Y-85701285D01*
X54205143Y-45124666D02*
X54252762Y-45172285D01*
X54300381Y-45315142D01*
X54300381Y-45410380D01*
X54252762Y-45553238D01*
X54157524Y-45648476D01*
X54062286Y-45696095D01*
X53871810Y-45743714D01*
X53728952Y-45743714D01*
X53538476Y-45696095D01*
X53443238Y-45648476D01*
X53348000Y-45553238D01*
X53300381Y-45410380D01*
X53300381Y-45315142D01*
X53348000Y-45172285D01*
X53395619Y-45124666D01*
X53300381Y-44791333D02*
X53300381Y-44172285D01*
X53681333Y-44505619D01*
X53681333Y-44362761D01*
X53728952Y-44267523D01*
X53776571Y-44219904D01*
X53871810Y-44172285D01*
X54109905Y-44172285D01*
X54205143Y-44219904D01*
X54252762Y-44267523D01*
X54300381Y-44362761D01*
X54300381Y-44648476D01*
X54252762Y-44743714D01*
X54205143Y-44791333D01*
X58396143Y-87542666D02*
X58443762Y-87590285D01*
X58491381Y-87733142D01*
X58491381Y-87828380D01*
X58443762Y-87971238D01*
X58348524Y-88066476D01*
X58253286Y-88114095D01*
X58062810Y-88161714D01*
X57919952Y-88161714D01*
X57729476Y-88114095D01*
X57634238Y-88066476D01*
X57539000Y-87971238D01*
X57491381Y-87828380D01*
X57491381Y-87733142D01*
X57539000Y-87590285D01*
X57586619Y-87542666D01*
X57824714Y-86685523D02*
X58491381Y-86685523D01*
X57443762Y-86923619D02*
X58158048Y-87161714D01*
X58158048Y-86542666D01*
X56602334Y-36552143D02*
X56554715Y-36599762D01*
X56411858Y-36647381D01*
X56316620Y-36647381D01*
X56173762Y-36599762D01*
X56078524Y-36504524D01*
X56030905Y-36409286D01*
X55983286Y-36218810D01*
X55983286Y-36075952D01*
X56030905Y-35885476D01*
X56078524Y-35790238D01*
X56173762Y-35695000D01*
X56316620Y-35647381D01*
X56411858Y-35647381D01*
X56554715Y-35695000D01*
X56602334Y-35742619D01*
X57507096Y-35647381D02*
X57030905Y-35647381D01*
X56983286Y-36123571D01*
X57030905Y-36075952D01*
X57126143Y-36028333D01*
X57364239Y-36028333D01*
X57459477Y-36075952D01*
X57507096Y-36123571D01*
X57554715Y-36218810D01*
X57554715Y-36456905D01*
X57507096Y-36552143D01*
X57459477Y-36599762D01*
X57364239Y-36647381D01*
X57126143Y-36647381D01*
X57030905Y-36599762D01*
X56983286Y-36552143D01*
X61063143Y-87542666D02*
X61110762Y-87590285D01*
X61158381Y-87733142D01*
X61158381Y-87828380D01*
X61110762Y-87971238D01*
X61015524Y-88066476D01*
X60920286Y-88114095D01*
X60729810Y-88161714D01*
X60586952Y-88161714D01*
X60396476Y-88114095D01*
X60301238Y-88066476D01*
X60206000Y-87971238D01*
X60158381Y-87828380D01*
X60158381Y-87733142D01*
X60206000Y-87590285D01*
X60253619Y-87542666D01*
X60158381Y-86685523D02*
X60158381Y-86876000D01*
X60206000Y-86971238D01*
X60253619Y-87018857D01*
X60396476Y-87114095D01*
X60586952Y-87161714D01*
X60967905Y-87161714D01*
X61063143Y-87114095D01*
X61110762Y-87066476D01*
X61158381Y-86971238D01*
X61158381Y-86780761D01*
X61110762Y-86685523D01*
X61063143Y-86637904D01*
X60967905Y-86590285D01*
X60729810Y-86590285D01*
X60634571Y-86637904D01*
X60586952Y-86685523D01*
X60539333Y-86780761D01*
X60539333Y-86971238D01*
X60586952Y-87066476D01*
X60634571Y-87114095D01*
X60729810Y-87161714D01*
X51411143Y-45251666D02*
X51458762Y-45299285D01*
X51506381Y-45442142D01*
X51506381Y-45537380D01*
X51458762Y-45680238D01*
X51363524Y-45775476D01*
X51268286Y-45823095D01*
X51077810Y-45870714D01*
X50934952Y-45870714D01*
X50744476Y-45823095D01*
X50649238Y-45775476D01*
X50554000Y-45680238D01*
X50506381Y-45537380D01*
X50506381Y-45442142D01*
X50554000Y-45299285D01*
X50601619Y-45251666D01*
X50506381Y-44918333D02*
X50506381Y-44251666D01*
X51506381Y-44680238D01*
X56475334Y-39854143D02*
X56427715Y-39901762D01*
X56284858Y-39949381D01*
X56189620Y-39949381D01*
X56046762Y-39901762D01*
X55951524Y-39806524D01*
X55903905Y-39711286D01*
X55856286Y-39520810D01*
X55856286Y-39377952D01*
X55903905Y-39187476D01*
X55951524Y-39092238D01*
X56046762Y-38997000D01*
X56189620Y-38949381D01*
X56284858Y-38949381D01*
X56427715Y-38997000D01*
X56475334Y-39044619D01*
X57046762Y-39377952D02*
X56951524Y-39330333D01*
X56903905Y-39282714D01*
X56856286Y-39187476D01*
X56856286Y-39139857D01*
X56903905Y-39044619D01*
X56951524Y-38997000D01*
X57046762Y-38949381D01*
X57237239Y-38949381D01*
X57332477Y-38997000D01*
X57380096Y-39044619D01*
X57427715Y-39139857D01*
X57427715Y-39187476D01*
X57380096Y-39282714D01*
X57332477Y-39330333D01*
X57237239Y-39377952D01*
X57046762Y-39377952D01*
X56951524Y-39425571D01*
X56903905Y-39473190D01*
X56856286Y-39568429D01*
X56856286Y-39758905D01*
X56903905Y-39854143D01*
X56951524Y-39901762D01*
X57046762Y-39949381D01*
X57237239Y-39949381D01*
X57332477Y-39901762D01*
X57380096Y-39854143D01*
X57427715Y-39758905D01*
X57427715Y-39568429D01*
X57380096Y-39473190D01*
X57332477Y-39425571D01*
X57237239Y-39377952D01*
X72874143Y-75858666D02*
X72921762Y-75906285D01*
X72969381Y-76049142D01*
X72969381Y-76144380D01*
X72921762Y-76287238D01*
X72826524Y-76382476D01*
X72731286Y-76430095D01*
X72540810Y-76477714D01*
X72397952Y-76477714D01*
X72207476Y-76430095D01*
X72112238Y-76382476D01*
X72017000Y-76287238D01*
X71969381Y-76144380D01*
X71969381Y-76049142D01*
X72017000Y-75906285D01*
X72064619Y-75858666D01*
X72969381Y-75382476D02*
X72969381Y-75192000D01*
X72921762Y-75096761D01*
X72874143Y-75049142D01*
X72731286Y-74953904D01*
X72540810Y-74906285D01*
X72159857Y-74906285D01*
X72064619Y-74953904D01*
X72017000Y-75001523D01*
X71969381Y-75096761D01*
X71969381Y-75287238D01*
X72017000Y-75382476D01*
X72064619Y-75430095D01*
X72159857Y-75477714D01*
X72397952Y-75477714D01*
X72493190Y-75430095D01*
X72540810Y-75382476D01*
X72588429Y-75287238D01*
X72588429Y-75096761D01*
X72540810Y-75001523D01*
X72493190Y-74953904D01*
X72397952Y-74906285D01*
X51681143Y-67667143D02*
X51633524Y-67714762D01*
X51490667Y-67762381D01*
X51395429Y-67762381D01*
X51252571Y-67714762D01*
X51157333Y-67619524D01*
X51109714Y-67524286D01*
X51062095Y-67333810D01*
X51062095Y-67190952D01*
X51109714Y-67000476D01*
X51157333Y-66905238D01*
X51252571Y-66810000D01*
X51395429Y-66762381D01*
X51490667Y-66762381D01*
X51633524Y-66810000D01*
X51681143Y-66857619D01*
X52633524Y-67762381D02*
X52062095Y-67762381D01*
X52347809Y-67762381D02*
X52347809Y-66762381D01*
X52252571Y-66905238D01*
X52157333Y-67000476D01*
X52062095Y-67048095D01*
X53252571Y-66762381D02*
X53347810Y-66762381D01*
X53443048Y-66810000D01*
X53490667Y-66857619D01*
X53538286Y-66952857D01*
X53585905Y-67143333D01*
X53585905Y-67381429D01*
X53538286Y-67571905D01*
X53490667Y-67667143D01*
X53443048Y-67714762D01*
X53347810Y-67762381D01*
X53252571Y-67762381D01*
X53157333Y-67714762D01*
X53109714Y-67667143D01*
X53062095Y-67571905D01*
X53014476Y-67381429D01*
X53014476Y-67143333D01*
X53062095Y-66952857D01*
X53109714Y-66857619D01*
X53157333Y-66810000D01*
X53252571Y-66762381D01*
X60043143Y-65357143D02*
X59995524Y-65404762D01*
X59852667Y-65452381D01*
X59757429Y-65452381D01*
X59614571Y-65404762D01*
X59519333Y-65309524D01*
X59471714Y-65214286D01*
X59424095Y-65023810D01*
X59424095Y-64880952D01*
X59471714Y-64690476D01*
X59519333Y-64595238D01*
X59614571Y-64500000D01*
X59757429Y-64452381D01*
X59852667Y-64452381D01*
X59995524Y-64500000D01*
X60043143Y-64547619D01*
X60995524Y-65452381D02*
X60424095Y-65452381D01*
X60709809Y-65452381D02*
X60709809Y-64452381D01*
X60614571Y-64595238D01*
X60519333Y-64690476D01*
X60424095Y-64738095D01*
X61947905Y-65452381D02*
X61376476Y-65452381D01*
X61662190Y-65452381D02*
X61662190Y-64452381D01*
X61566952Y-64595238D01*
X61471714Y-64690476D01*
X61376476Y-64738095D01*
X74414143Y-59920143D02*
X74366524Y-59967762D01*
X74223667Y-60015381D01*
X74128429Y-60015381D01*
X73985571Y-59967762D01*
X73890333Y-59872524D01*
X73842714Y-59777286D01*
X73795095Y-59586810D01*
X73795095Y-59443952D01*
X73842714Y-59253476D01*
X73890333Y-59158238D01*
X73985571Y-59063000D01*
X74128429Y-59015381D01*
X74223667Y-59015381D01*
X74366524Y-59063000D01*
X74414143Y-59110619D01*
X75366524Y-60015381D02*
X74795095Y-60015381D01*
X75080809Y-60015381D02*
X75080809Y-59015381D01*
X74985571Y-59158238D01*
X74890333Y-59253476D01*
X74795095Y-59301095D01*
X75747476Y-59110619D02*
X75795095Y-59063000D01*
X75890333Y-59015381D01*
X76128429Y-59015381D01*
X76223667Y-59063000D01*
X76271286Y-59110619D01*
X76318905Y-59205857D01*
X76318905Y-59301095D01*
X76271286Y-59443952D01*
X75699857Y-60015381D01*
X76318905Y-60015381D01*
X73525143Y-62714143D02*
X73477524Y-62761762D01*
X73334667Y-62809381D01*
X73239429Y-62809381D01*
X73096571Y-62761762D01*
X73001333Y-62666524D01*
X72953714Y-62571286D01*
X72906095Y-62380810D01*
X72906095Y-62237952D01*
X72953714Y-62047476D01*
X73001333Y-61952238D01*
X73096571Y-61857000D01*
X73239429Y-61809381D01*
X73334667Y-61809381D01*
X73477524Y-61857000D01*
X73525143Y-61904619D01*
X74477524Y-62809381D02*
X73906095Y-62809381D01*
X74191809Y-62809381D02*
X74191809Y-61809381D01*
X74096571Y-61952238D01*
X74001333Y-62047476D01*
X73906095Y-62095095D01*
X74810857Y-61809381D02*
X75429905Y-61809381D01*
X75096571Y-62190333D01*
X75239429Y-62190333D01*
X75334667Y-62237952D01*
X75382286Y-62285571D01*
X75429905Y-62380810D01*
X75429905Y-62618905D01*
X75382286Y-62714143D01*
X75334667Y-62761762D01*
X75239429Y-62809381D01*
X74953714Y-62809381D01*
X74858476Y-62761762D01*
X74810857Y-62714143D01*
X86260792Y-51194340D02*
X86213173Y-51241959D01*
X86070316Y-51289578D01*
X85975078Y-51289578D01*
X85832220Y-51241959D01*
X85736982Y-51146721D01*
X85689363Y-51051483D01*
X85641744Y-50861007D01*
X85641744Y-50718149D01*
X85689363Y-50527673D01*
X85736982Y-50432435D01*
X85832220Y-50337197D01*
X85975078Y-50289578D01*
X86070316Y-50289578D01*
X86213173Y-50337197D01*
X86260792Y-50384816D01*
X87213173Y-51289578D02*
X86641744Y-51289578D01*
X86927458Y-51289578D02*
X86927458Y-50289578D01*
X86832220Y-50432435D01*
X86736982Y-50527673D01*
X86641744Y-50575292D01*
X88070316Y-50622911D02*
X88070316Y-51289578D01*
X87832220Y-50241959D02*
X87594125Y-50956245D01*
X88213173Y-50956245D01*
X93526893Y-57582970D02*
X93459550Y-57582970D01*
X93324863Y-57515626D01*
X93257519Y-57448283D01*
X93190175Y-57313595D01*
X93190175Y-57178908D01*
X93223847Y-57077893D01*
X93324862Y-56909535D01*
X93425878Y-56808519D01*
X93594237Y-56707504D01*
X93695252Y-56673832D01*
X93829939Y-56673832D01*
X93964626Y-56741176D01*
X94031970Y-56808519D01*
X94099313Y-56943206D01*
X94099313Y-57010550D01*
X94132985Y-58323748D02*
X93728924Y-57919687D01*
X93930954Y-58121717D02*
X94638061Y-57414610D01*
X94469702Y-57448282D01*
X94335015Y-57448282D01*
X94234000Y-57414610D01*
X95479855Y-58256405D02*
X95143137Y-57919687D01*
X94772748Y-58222732D01*
X94840092Y-58222732D01*
X94941107Y-58256404D01*
X95109466Y-58424763D01*
X95143138Y-58525778D01*
X95143138Y-58593122D01*
X95109465Y-58694138D01*
X94941107Y-58862496D01*
X94840092Y-58896168D01*
X94772748Y-58896168D01*
X94671733Y-58862496D01*
X94503374Y-58694137D01*
X94469702Y-58593122D01*
X94469702Y-58525778D01*
X97909143Y-79224143D02*
X97861524Y-79271762D01*
X97718667Y-79319381D01*
X97623429Y-79319381D01*
X97480571Y-79271762D01*
X97385333Y-79176524D01*
X97337714Y-79081286D01*
X97290095Y-78890810D01*
X97290095Y-78747952D01*
X97337714Y-78557476D01*
X97385333Y-78462238D01*
X97480571Y-78367000D01*
X97623429Y-78319381D01*
X97718667Y-78319381D01*
X97861524Y-78367000D01*
X97909143Y-78414619D01*
X98861524Y-79319381D02*
X98290095Y-79319381D01*
X98575809Y-79319381D02*
X98575809Y-78319381D01*
X98480571Y-78462238D01*
X98385333Y-78557476D01*
X98290095Y-78605095D01*
X99718667Y-78319381D02*
X99528190Y-78319381D01*
X99432952Y-78367000D01*
X99385333Y-78414619D01*
X99290095Y-78557476D01*
X99242476Y-78747952D01*
X99242476Y-79128905D01*
X99290095Y-79224143D01*
X99337714Y-79271762D01*
X99432952Y-79319381D01*
X99623429Y-79319381D01*
X99718667Y-79271762D01*
X99766286Y-79224143D01*
X99813905Y-79128905D01*
X99813905Y-78890810D01*
X99766286Y-78795571D01*
X99718667Y-78747952D01*
X99623429Y-78700333D01*
X99432952Y-78700333D01*
X99337714Y-78747952D01*
X99290095Y-78795571D01*
X99242476Y-78890810D01*
X97909143Y-84177143D02*
X97861524Y-84224762D01*
X97718667Y-84272381D01*
X97623429Y-84272381D01*
X97480571Y-84224762D01*
X97385333Y-84129524D01*
X97337714Y-84034286D01*
X97290095Y-83843810D01*
X97290095Y-83700952D01*
X97337714Y-83510476D01*
X97385333Y-83415238D01*
X97480571Y-83320000D01*
X97623429Y-83272381D01*
X97718667Y-83272381D01*
X97861524Y-83320000D01*
X97909143Y-83367619D01*
X98861524Y-84272381D02*
X98290095Y-84272381D01*
X98575809Y-84272381D02*
X98575809Y-83272381D01*
X98480571Y-83415238D01*
X98385333Y-83510476D01*
X98290095Y-83558095D01*
X99194857Y-83272381D02*
X99861524Y-83272381D01*
X99432952Y-84272381D01*
X107418143Y-60332857D02*
X107465762Y-60380476D01*
X107513381Y-60523333D01*
X107513381Y-60618571D01*
X107465762Y-60761429D01*
X107370524Y-60856667D01*
X107275286Y-60904286D01*
X107084810Y-60951905D01*
X106941952Y-60951905D01*
X106751476Y-60904286D01*
X106656238Y-60856667D01*
X106561000Y-60761429D01*
X106513381Y-60618571D01*
X106513381Y-60523333D01*
X106561000Y-60380476D01*
X106608619Y-60332857D01*
X107513381Y-59380476D02*
X107513381Y-59951905D01*
X107513381Y-59666191D02*
X106513381Y-59666191D01*
X106656238Y-59761429D01*
X106751476Y-59856667D01*
X106799095Y-59951905D01*
X106941952Y-58809048D02*
X106894333Y-58904286D01*
X106846714Y-58951905D01*
X106751476Y-58999524D01*
X106703857Y-58999524D01*
X106608619Y-58951905D01*
X106561000Y-58904286D01*
X106513381Y-58809048D01*
X106513381Y-58618571D01*
X106561000Y-58523333D01*
X106608619Y-58475714D01*
X106703857Y-58428095D01*
X106751476Y-58428095D01*
X106846714Y-58475714D01*
X106894333Y-58523333D01*
X106941952Y-58618571D01*
X106941952Y-58809048D01*
X106989571Y-58904286D01*
X107037190Y-58951905D01*
X107132429Y-58999524D01*
X107322905Y-58999524D01*
X107418143Y-58951905D01*
X107465762Y-58904286D01*
X107513381Y-58809048D01*
X107513381Y-58618571D01*
X107465762Y-58523333D01*
X107418143Y-58475714D01*
X107322905Y-58428095D01*
X107132429Y-58428095D01*
X107037190Y-58475714D01*
X106989571Y-58523333D01*
X106941952Y-58618571D01*
X104878143Y-59443857D02*
X104925762Y-59491476D01*
X104973381Y-59634333D01*
X104973381Y-59729571D01*
X104925762Y-59872429D01*
X104830524Y-59967667D01*
X104735286Y-60015286D01*
X104544810Y-60062905D01*
X104401952Y-60062905D01*
X104211476Y-60015286D01*
X104116238Y-59967667D01*
X104021000Y-59872429D01*
X103973381Y-59729571D01*
X103973381Y-59634333D01*
X104021000Y-59491476D01*
X104068619Y-59443857D01*
X104973381Y-58491476D02*
X104973381Y-59062905D01*
X104973381Y-58777191D02*
X103973381Y-58777191D01*
X104116238Y-58872429D01*
X104211476Y-58967667D01*
X104259095Y-59062905D01*
X104973381Y-58015286D02*
X104973381Y-57824810D01*
X104925762Y-57729571D01*
X104878143Y-57681952D01*
X104735286Y-57586714D01*
X104544810Y-57539095D01*
X104163857Y-57539095D01*
X104068619Y-57586714D01*
X104021000Y-57634333D01*
X103973381Y-57729571D01*
X103973381Y-57920048D01*
X104021000Y-58015286D01*
X104068619Y-58062905D01*
X104163857Y-58110524D01*
X104401952Y-58110524D01*
X104497190Y-58062905D01*
X104544810Y-58015286D01*
X104592429Y-57920048D01*
X104592429Y-57729571D01*
X104544810Y-57634333D01*
X104497190Y-57586714D01*
X104401952Y-57539095D01*
X40635988Y-58489183D02*
X40683607Y-58536802D01*
X40731226Y-58679659D01*
X40731226Y-58774897D01*
X40683607Y-58917755D01*
X40588369Y-59012993D01*
X40493131Y-59060612D01*
X40302655Y-59108231D01*
X40159797Y-59108231D01*
X39969321Y-59060612D01*
X39874083Y-59012993D01*
X39778845Y-58917755D01*
X39731226Y-58774897D01*
X39731226Y-58679659D01*
X39778845Y-58536802D01*
X39826464Y-58489183D01*
X39826464Y-58108231D02*
X39778845Y-58060612D01*
X39731226Y-57965374D01*
X39731226Y-57727278D01*
X39778845Y-57632040D01*
X39826464Y-57584421D01*
X39921702Y-57536802D01*
X40016940Y-57536802D01*
X40159797Y-57584421D01*
X40731226Y-58155850D01*
X40731226Y-57536802D01*
X39731226Y-56917755D02*
X39731226Y-56822516D01*
X39778845Y-56727278D01*
X39826464Y-56679659D01*
X39921702Y-56632040D01*
X40112178Y-56584421D01*
X40350274Y-56584421D01*
X40540750Y-56632040D01*
X40635988Y-56679659D01*
X40683607Y-56727278D01*
X40731226Y-56822516D01*
X40731226Y-56917755D01*
X40683607Y-57012993D01*
X40635988Y-57060612D01*
X40540750Y-57108231D01*
X40350274Y-57155850D01*
X40112178Y-57155850D01*
X39921702Y-57108231D01*
X39826464Y-57060612D01*
X39778845Y-57012993D01*
X39731226Y-56917755D01*
X40381990Y-52393180D02*
X40429609Y-52440799D01*
X40477228Y-52583656D01*
X40477228Y-52678894D01*
X40429609Y-52821752D01*
X40334371Y-52916990D01*
X40239133Y-52964609D01*
X40048657Y-53012228D01*
X39905799Y-53012228D01*
X39715323Y-52964609D01*
X39620085Y-52916990D01*
X39524847Y-52821752D01*
X39477228Y-52678894D01*
X39477228Y-52583656D01*
X39524847Y-52440799D01*
X39572466Y-52393180D01*
X39572466Y-52012228D02*
X39524847Y-51964609D01*
X39477228Y-51869371D01*
X39477228Y-51631275D01*
X39524847Y-51536037D01*
X39572466Y-51488418D01*
X39667704Y-51440799D01*
X39762942Y-51440799D01*
X39905799Y-51488418D01*
X40477228Y-52059847D01*
X40477228Y-51440799D01*
X40477228Y-50488418D02*
X40477228Y-51059847D01*
X40477228Y-50774133D02*
X39477228Y-50774133D01*
X39620085Y-50869371D01*
X39715323Y-50964609D01*
X39762942Y-51059847D01*
X38854143Y-107926143D02*
X38806524Y-107973762D01*
X38663667Y-108021381D01*
X38568429Y-108021381D01*
X38425571Y-107973762D01*
X38330333Y-107878524D01*
X38282714Y-107783286D01*
X38235095Y-107592810D01*
X38235095Y-107449952D01*
X38282714Y-107259476D01*
X38330333Y-107164238D01*
X38425571Y-107069000D01*
X38568429Y-107021381D01*
X38663667Y-107021381D01*
X38806524Y-107069000D01*
X38854143Y-107116619D01*
X39235095Y-107116619D02*
X39282714Y-107069000D01*
X39377952Y-107021381D01*
X39616048Y-107021381D01*
X39711286Y-107069000D01*
X39758905Y-107116619D01*
X39806524Y-107211857D01*
X39806524Y-107307095D01*
X39758905Y-107449952D01*
X39187476Y-108021381D01*
X39806524Y-108021381D01*
X40187476Y-107116619D02*
X40235095Y-107069000D01*
X40330333Y-107021381D01*
X40568429Y-107021381D01*
X40663667Y-107069000D01*
X40711286Y-107116619D01*
X40758905Y-107211857D01*
X40758905Y-107307095D01*
X40711286Y-107449952D01*
X40139857Y-108021381D01*
X40758905Y-108021381D01*
X53332143Y-108053143D02*
X53284524Y-108100762D01*
X53141667Y-108148381D01*
X53046429Y-108148381D01*
X52903571Y-108100762D01*
X52808333Y-108005524D01*
X52760714Y-107910286D01*
X52713095Y-107719810D01*
X52713095Y-107576952D01*
X52760714Y-107386476D01*
X52808333Y-107291238D01*
X52903571Y-107196000D01*
X53046429Y-107148381D01*
X53141667Y-107148381D01*
X53284524Y-107196000D01*
X53332143Y-107243619D01*
X53713095Y-107243619D02*
X53760714Y-107196000D01*
X53855952Y-107148381D01*
X54094048Y-107148381D01*
X54189286Y-107196000D01*
X54236905Y-107243619D01*
X54284524Y-107338857D01*
X54284524Y-107434095D01*
X54236905Y-107576952D01*
X53665476Y-108148381D01*
X54284524Y-108148381D01*
X54617857Y-107148381D02*
X55236905Y-107148381D01*
X54903571Y-107529333D01*
X55046429Y-107529333D01*
X55141667Y-107576952D01*
X55189286Y-107624571D01*
X55236905Y-107719810D01*
X55236905Y-107957905D01*
X55189286Y-108053143D01*
X55141667Y-108100762D01*
X55046429Y-108148381D01*
X54760714Y-108148381D01*
X54665476Y-108100762D01*
X54617857Y-108053143D01*
X86860143Y-84812143D02*
X86812524Y-84859762D01*
X86669667Y-84907381D01*
X86574429Y-84907381D01*
X86431571Y-84859762D01*
X86336333Y-84764524D01*
X86288714Y-84669286D01*
X86241095Y-84478810D01*
X86241095Y-84335952D01*
X86288714Y-84145476D01*
X86336333Y-84050238D01*
X86431571Y-83955000D01*
X86574429Y-83907381D01*
X86669667Y-83907381D01*
X86812524Y-83955000D01*
X86860143Y-84002619D01*
X87241095Y-84002619D02*
X87288714Y-83955000D01*
X87383952Y-83907381D01*
X87622048Y-83907381D01*
X87717286Y-83955000D01*
X87764905Y-84002619D01*
X87812524Y-84097857D01*
X87812524Y-84193095D01*
X87764905Y-84335952D01*
X87193476Y-84907381D01*
X87812524Y-84907381D01*
X88669667Y-84240714D02*
X88669667Y-84907381D01*
X88431571Y-83859762D02*
X88193476Y-84574048D01*
X88812524Y-84574048D01*
X97655143Y-87352143D02*
X97607524Y-87399762D01*
X97464667Y-87447381D01*
X97369429Y-87447381D01*
X97226571Y-87399762D01*
X97131333Y-87304524D01*
X97083714Y-87209286D01*
X97036095Y-87018810D01*
X97036095Y-86875952D01*
X97083714Y-86685476D01*
X97131333Y-86590238D01*
X97226571Y-86495000D01*
X97369429Y-86447381D01*
X97464667Y-86447381D01*
X97607524Y-86495000D01*
X97655143Y-86542619D01*
X98036095Y-86542619D02*
X98083714Y-86495000D01*
X98178952Y-86447381D01*
X98417048Y-86447381D01*
X98512286Y-86495000D01*
X98559905Y-86542619D01*
X98607524Y-86637857D01*
X98607524Y-86733095D01*
X98559905Y-86875952D01*
X97988476Y-87447381D01*
X98607524Y-87447381D01*
X99512286Y-86447381D02*
X99036095Y-86447381D01*
X98988476Y-86923571D01*
X99036095Y-86875952D01*
X99131333Y-86828333D01*
X99369429Y-86828333D01*
X99464667Y-86875952D01*
X99512286Y-86923571D01*
X99559905Y-87018810D01*
X99559905Y-87256905D01*
X99512286Y-87352143D01*
X99464667Y-87399762D01*
X99369429Y-87447381D01*
X99131333Y-87447381D01*
X99036095Y-87399762D01*
X98988476Y-87352143D01*
X26022715Y-111009143D02*
X25975096Y-111056762D01*
X25832239Y-111104381D01*
X25737001Y-111104381D01*
X25594143Y-111056762D01*
X25498905Y-110961524D01*
X25451286Y-110866286D01*
X25403667Y-110675810D01*
X25403667Y-110532952D01*
X25451286Y-110342476D01*
X25498905Y-110247238D01*
X25594143Y-110152000D01*
X25737001Y-110104381D01*
X25832239Y-110104381D01*
X25975096Y-110152000D01*
X26022715Y-110199619D01*
X26641762Y-110104381D02*
X26832239Y-110104381D01*
X26927477Y-110152000D01*
X27022715Y-110247238D01*
X27070334Y-110437714D01*
X27070334Y-110771048D01*
X27022715Y-110961524D01*
X26927477Y-111056762D01*
X26832239Y-111104381D01*
X26641762Y-111104381D01*
X26546524Y-111056762D01*
X26451286Y-110961524D01*
X26403667Y-110771048D01*
X26403667Y-110437714D01*
X26451286Y-110247238D01*
X26546524Y-110152000D01*
X26641762Y-110104381D01*
X27498905Y-111104381D02*
X27498905Y-110104381D01*
X28070334Y-111104381D01*
X28070334Y-110104381D01*
X29070334Y-111104381D02*
X28498905Y-111104381D01*
X28784619Y-111104381D02*
X28784619Y-110104381D01*
X28689381Y-110247238D01*
X28594143Y-110342476D01*
X28498905Y-110390095D01*
X57808905Y-56547381D02*
X57808905Y-55547381D01*
X58047000Y-55547381D01*
X58189858Y-55595000D01*
X58285096Y-55690238D01*
X58332715Y-55785476D01*
X58380334Y-55975952D01*
X58380334Y-56118810D01*
X58332715Y-56309286D01*
X58285096Y-56404524D01*
X58189858Y-56499762D01*
X58047000Y-56547381D01*
X57808905Y-56547381D01*
X59332715Y-56547381D02*
X58761286Y-56547381D01*
X59047000Y-56547381D02*
X59047000Y-55547381D01*
X58951762Y-55690238D01*
X58856524Y-55785476D01*
X58761286Y-55833095D01*
X46410667Y-63543381D02*
X46410667Y-64257667D01*
X46363047Y-64400524D01*
X46267809Y-64495762D01*
X46124952Y-64543381D01*
X46029714Y-64543381D01*
X46886857Y-64543381D02*
X46886857Y-63543381D01*
X47267810Y-63543381D01*
X47363048Y-63591000D01*
X47410667Y-63638619D01*
X47458286Y-63733857D01*
X47458286Y-63876714D01*
X47410667Y-63971952D01*
X47363048Y-64019571D01*
X47267810Y-64067190D01*
X46886857Y-64067190D01*
X48410667Y-64543381D02*
X47839238Y-64543381D01*
X48124952Y-64543381D02*
X48124952Y-63543381D01*
X48029714Y-63686238D01*
X47934476Y-63781476D01*
X47839238Y-63829095D01*
X38254905Y-79292381D02*
X38254905Y-78292381D01*
X38635858Y-78292381D01*
X38731096Y-78340000D01*
X38778715Y-78387619D01*
X38826334Y-78482857D01*
X38826334Y-78625714D01*
X38778715Y-78720952D01*
X38731096Y-78768571D01*
X38635858Y-78816190D01*
X38254905Y-78816190D01*
X39778715Y-79292381D02*
X39207286Y-79292381D01*
X39493000Y-79292381D02*
X39493000Y-78292381D01*
X39397762Y-78435238D01*
X39302524Y-78530476D01*
X39207286Y-78578095D01*
X38254905Y-63163381D02*
X38254905Y-62163381D01*
X38635858Y-62163381D01*
X38731096Y-62211000D01*
X38778715Y-62258619D01*
X38826334Y-62353857D01*
X38826334Y-62496714D01*
X38778715Y-62591952D01*
X38731096Y-62639571D01*
X38635858Y-62687190D01*
X38254905Y-62687190D01*
X39207286Y-62258619D02*
X39254905Y-62211000D01*
X39350143Y-62163381D01*
X39588239Y-62163381D01*
X39683477Y-62211000D01*
X39731096Y-62258619D01*
X39778715Y-62353857D01*
X39778715Y-62449095D01*
X39731096Y-62591952D01*
X39159667Y-63163381D01*
X39778715Y-63163381D01*
X35206905Y-33699381D02*
X35206905Y-32699381D01*
X35587858Y-32699381D01*
X35683096Y-32747000D01*
X35730715Y-32794619D01*
X35778334Y-32889857D01*
X35778334Y-33032714D01*
X35730715Y-33127952D01*
X35683096Y-33175571D01*
X35587858Y-33223190D01*
X35206905Y-33223190D01*
X36111667Y-32699381D02*
X36730715Y-32699381D01*
X36397381Y-33080333D01*
X36540239Y-33080333D01*
X36635477Y-33127952D01*
X36683096Y-33175571D01*
X36730715Y-33270810D01*
X36730715Y-33508905D01*
X36683096Y-33604143D01*
X36635477Y-33651762D01*
X36540239Y-33699381D01*
X36254524Y-33699381D01*
X36159286Y-33651762D01*
X36111667Y-33604143D01*
X143029905Y-52114381D02*
X143029905Y-51114381D01*
X143410858Y-51114381D01*
X143506096Y-51162000D01*
X143553715Y-51209619D01*
X143601334Y-51304857D01*
X143601334Y-51447714D01*
X143553715Y-51542952D01*
X143506096Y-51590571D01*
X143410858Y-51638190D01*
X143029905Y-51638190D01*
X144458477Y-51447714D02*
X144458477Y-52114381D01*
X144220381Y-51066762D02*
X143982286Y-51781048D01*
X144601334Y-51781048D01*
X33488334Y-30424381D02*
X33155000Y-29948190D01*
X32916905Y-30424381D02*
X32916905Y-29424381D01*
X33297858Y-29424381D01*
X33393096Y-29472000D01*
X33440715Y-29519619D01*
X33488334Y-29614857D01*
X33488334Y-29757714D01*
X33440715Y-29852952D01*
X33393096Y-29900571D01*
X33297858Y-29948190D01*
X32916905Y-29948190D01*
X34440715Y-30424381D02*
X33869286Y-30424381D01*
X34155000Y-30424381D02*
X34155000Y-29424381D01*
X34059762Y-29567238D01*
X33964524Y-29662476D01*
X33869286Y-29710095D01*
X38441334Y-92191381D02*
X38108000Y-91715190D01*
X37869905Y-92191381D02*
X37869905Y-91191381D01*
X38250858Y-91191381D01*
X38346096Y-91239000D01*
X38393715Y-91286619D01*
X38441334Y-91381857D01*
X38441334Y-91524714D01*
X38393715Y-91619952D01*
X38346096Y-91667571D01*
X38250858Y-91715190D01*
X37869905Y-91715190D01*
X38822286Y-91286619D02*
X38869905Y-91239000D01*
X38965143Y-91191381D01*
X39203239Y-91191381D01*
X39298477Y-91239000D01*
X39346096Y-91286619D01*
X39393715Y-91381857D01*
X39393715Y-91477095D01*
X39346096Y-91619952D01*
X38774667Y-92191381D01*
X39393715Y-92191381D01*
X30469381Y-71667666D02*
X29993190Y-72001000D01*
X30469381Y-72239095D02*
X29469381Y-72239095D01*
X29469381Y-71858142D01*
X29517000Y-71762904D01*
X29564619Y-71715285D01*
X29659857Y-71667666D01*
X29802714Y-71667666D01*
X29897952Y-71715285D01*
X29945571Y-71762904D01*
X29993190Y-71858142D01*
X29993190Y-72239095D01*
X29469381Y-71334333D02*
X29469381Y-70715285D01*
X29850333Y-71048619D01*
X29850333Y-70905761D01*
X29897952Y-70810523D01*
X29945571Y-70762904D01*
X30040810Y-70715285D01*
X30278905Y-70715285D01*
X30374143Y-70762904D01*
X30421762Y-70810523D01*
X30469381Y-70905761D01*
X30469381Y-71191476D01*
X30421762Y-71286714D01*
X30374143Y-71334333D01*
X47868381Y-83732666D02*
X47392190Y-84066000D01*
X47868381Y-84304095D02*
X46868381Y-84304095D01*
X46868381Y-83923142D01*
X46916000Y-83827904D01*
X46963619Y-83780285D01*
X47058857Y-83732666D01*
X47201714Y-83732666D01*
X47296952Y-83780285D01*
X47344571Y-83827904D01*
X47392190Y-83923142D01*
X47392190Y-84304095D01*
X47201714Y-82875523D02*
X47868381Y-82875523D01*
X46820762Y-83113619D02*
X47535048Y-83351714D01*
X47535048Y-82732666D01*
X52477381Y-71667666D02*
X52001190Y-72001000D01*
X52477381Y-72239095D02*
X51477381Y-72239095D01*
X51477381Y-71858142D01*
X51525000Y-71762904D01*
X51572619Y-71715285D01*
X51667857Y-71667666D01*
X51810714Y-71667666D01*
X51905952Y-71715285D01*
X51953571Y-71762904D01*
X52001190Y-71858142D01*
X52001190Y-72239095D01*
X51477381Y-70762904D02*
X51477381Y-71239095D01*
X51953571Y-71286714D01*
X51905952Y-71239095D01*
X51858333Y-71143857D01*
X51858333Y-70905761D01*
X51905952Y-70810523D01*
X51953571Y-70762904D01*
X52048810Y-70715285D01*
X52286905Y-70715285D01*
X52382143Y-70762904D01*
X52429762Y-70810523D01*
X52477381Y-70905761D01*
X52477381Y-71143857D01*
X52429762Y-71239095D01*
X52382143Y-71286714D01*
X53427334Y-62727381D02*
X53094000Y-62251190D01*
X52855905Y-62727381D02*
X52855905Y-61727381D01*
X53236858Y-61727381D01*
X53332096Y-61775000D01*
X53379715Y-61822619D01*
X53427334Y-61917857D01*
X53427334Y-62060714D01*
X53379715Y-62155952D01*
X53332096Y-62203571D01*
X53236858Y-62251190D01*
X52855905Y-62251190D01*
X54284477Y-61727381D02*
X54094000Y-61727381D01*
X53998762Y-61775000D01*
X53951143Y-61822619D01*
X53855905Y-61965476D01*
X53808286Y-62155952D01*
X53808286Y-62536905D01*
X53855905Y-62632143D01*
X53903524Y-62679762D01*
X53998762Y-62727381D01*
X54189239Y-62727381D01*
X54284477Y-62679762D01*
X54332096Y-62632143D01*
X54379715Y-62536905D01*
X54379715Y-62298810D01*
X54332096Y-62203571D01*
X54284477Y-62155952D01*
X54189239Y-62108333D01*
X53998762Y-62108333D01*
X53903524Y-62155952D01*
X53855905Y-62203571D01*
X53808286Y-62298810D01*
X130770334Y-67889381D02*
X130437000Y-67413190D01*
X130198905Y-67889381D02*
X130198905Y-66889381D01*
X130579858Y-66889381D01*
X130675096Y-66937000D01*
X130722715Y-66984619D01*
X130770334Y-67079857D01*
X130770334Y-67222714D01*
X130722715Y-67317952D01*
X130675096Y-67365571D01*
X130579858Y-67413190D01*
X130198905Y-67413190D01*
X131103667Y-66889381D02*
X131770334Y-66889381D01*
X131341762Y-67889381D01*
X45466095Y-47852381D02*
X45466095Y-48661905D01*
X45513714Y-48757143D01*
X45561333Y-48804762D01*
X45656571Y-48852381D01*
X45847048Y-48852381D01*
X45942286Y-48804762D01*
X45989905Y-48757143D01*
X46037524Y-48661905D01*
X46037524Y-47852381D01*
X47037524Y-48852381D02*
X46466095Y-48852381D01*
X46751809Y-48852381D02*
X46751809Y-47852381D01*
X46656571Y-47995238D01*
X46561333Y-48090476D01*
X46466095Y-48138095D01*
X46228095Y-37354381D02*
X46228095Y-38163905D01*
X46275714Y-38259143D01*
X46323333Y-38306762D01*
X46418571Y-38354381D01*
X46609048Y-38354381D01*
X46704286Y-38306762D01*
X46751905Y-38259143D01*
X46799524Y-38163905D01*
X46799524Y-37354381D01*
X47228095Y-37449619D02*
X47275714Y-37402000D01*
X47370952Y-37354381D01*
X47609048Y-37354381D01*
X47704286Y-37402000D01*
X47751905Y-37449619D01*
X47799524Y-37544857D01*
X47799524Y-37640095D01*
X47751905Y-37782952D01*
X47180476Y-38354381D01*
X47799524Y-38354381D01*
X114006381Y-82041905D02*
X114815905Y-82041905D01*
X114911143Y-81994286D01*
X114958762Y-81946667D01*
X115006381Y-81851429D01*
X115006381Y-81660952D01*
X114958762Y-81565714D01*
X114911143Y-81518095D01*
X114815905Y-81470476D01*
X114006381Y-81470476D01*
X114006381Y-80565714D02*
X114006381Y-80756191D01*
X114054000Y-80851429D01*
X114101619Y-80899048D01*
X114244476Y-80994286D01*
X114434952Y-81041905D01*
X114815905Y-81041905D01*
X114911143Y-80994286D01*
X114958762Y-80946667D01*
X115006381Y-80851429D01*
X115006381Y-80660952D01*
X114958762Y-80565714D01*
X114911143Y-80518095D01*
X114815905Y-80470476D01*
X114577810Y-80470476D01*
X114482571Y-80518095D01*
X114434952Y-80565714D01*
X114387333Y-80660952D01*
X114387333Y-80851429D01*
X114434952Y-80946667D01*
X114482571Y-80994286D01*
X114577810Y-81041905D01*
X115530381Y-51180905D02*
X116339905Y-51180905D01*
X116435143Y-51133286D01*
X116482762Y-51085667D01*
X116530381Y-50990429D01*
X116530381Y-50799952D01*
X116482762Y-50704714D01*
X116435143Y-50657095D01*
X116339905Y-50609476D01*
X115530381Y-50609476D01*
X115530381Y-50228524D02*
X115530381Y-49561857D01*
X116530381Y-49990429D01*
X118705381Y-58673905D02*
X119514905Y-58673905D01*
X119610143Y-58626286D01*
X119657762Y-58578667D01*
X119705381Y-58483429D01*
X119705381Y-58292952D01*
X119657762Y-58197714D01*
X119610143Y-58150095D01*
X119514905Y-58102476D01*
X118705381Y-58102476D01*
X119133952Y-57483429D02*
X119086333Y-57578667D01*
X119038714Y-57626286D01*
X118943476Y-57673905D01*
X118895857Y-57673905D01*
X118800619Y-57626286D01*
X118753000Y-57578667D01*
X118705381Y-57483429D01*
X118705381Y-57292952D01*
X118753000Y-57197714D01*
X118800619Y-57150095D01*
X118895857Y-57102476D01*
X118943476Y-57102476D01*
X119038714Y-57150095D01*
X119086333Y-57197714D01*
X119133952Y-57292952D01*
X119133952Y-57483429D01*
X119181571Y-57578667D01*
X119229190Y-57626286D01*
X119324429Y-57673905D01*
X119514905Y-57673905D01*
X119610143Y-57626286D01*
X119657762Y-57578667D01*
X119705381Y-57483429D01*
X119705381Y-57292952D01*
X119657762Y-57197714D01*
X119610143Y-57150095D01*
X119514905Y-57102476D01*
X119324429Y-57102476D01*
X119229190Y-57150095D01*
X119181571Y-57197714D01*
X119133952Y-57292952D01*
X114006381Y-69722905D02*
X114815905Y-69722905D01*
X114911143Y-69675286D01*
X114958762Y-69627667D01*
X115006381Y-69532429D01*
X115006381Y-69341952D01*
X114958762Y-69246714D01*
X114911143Y-69199095D01*
X114815905Y-69151476D01*
X114006381Y-69151476D01*
X115006381Y-68627667D02*
X115006381Y-68437191D01*
X114958762Y-68341952D01*
X114911143Y-68294333D01*
X114768286Y-68199095D01*
X114577810Y-68151476D01*
X114196857Y-68151476D01*
X114101619Y-68199095D01*
X114054000Y-68246714D01*
X114006381Y-68341952D01*
X114006381Y-68532429D01*
X114054000Y-68627667D01*
X114101619Y-68675286D01*
X114196857Y-68722905D01*
X114434952Y-68722905D01*
X114530190Y-68675286D01*
X114577810Y-68627667D01*
X114625429Y-68532429D01*
X114625429Y-68341952D01*
X114577810Y-68246714D01*
X114530190Y-68199095D01*
X114434952Y-68151476D01*
X28277229Y-54659419D02*
X29086753Y-54659419D01*
X29181991Y-54611800D01*
X29229610Y-54564181D01*
X29277229Y-54468943D01*
X29277229Y-54278466D01*
X29229610Y-54183228D01*
X29181991Y-54135609D01*
X29086753Y-54087990D01*
X28277229Y-54087990D01*
X29277229Y-53087990D02*
X29277229Y-53659419D01*
X29277229Y-53373705D02*
X28277229Y-53373705D01*
X28420086Y-53468943D01*
X28515324Y-53564181D01*
X28562943Y-53659419D01*
X29277229Y-52135609D02*
X29277229Y-52707038D01*
X29277229Y-52421324D02*
X28277229Y-52421324D01*
X28420086Y-52516562D01*
X28515324Y-52611800D01*
X28562943Y-52707038D01*
X45497905Y-98639381D02*
X45497905Y-99448905D01*
X45545524Y-99544143D01*
X45593143Y-99591762D01*
X45688381Y-99639381D01*
X45878858Y-99639381D01*
X45974096Y-99591762D01*
X46021715Y-99544143D01*
X46069334Y-99448905D01*
X46069334Y-98639381D01*
X47069334Y-99639381D02*
X46497905Y-99639381D01*
X46783619Y-99639381D02*
X46783619Y-98639381D01*
X46688381Y-98782238D01*
X46593143Y-98877476D01*
X46497905Y-98925095D01*
X47450286Y-98734619D02*
X47497905Y-98687000D01*
X47593143Y-98639381D01*
X47831239Y-98639381D01*
X47926477Y-98687000D01*
X47974096Y-98734619D01*
X48021715Y-98829857D01*
X48021715Y-98925095D01*
X47974096Y-99067952D01*
X47402667Y-99639381D01*
X48021715Y-99639381D01*
X90328905Y-86955381D02*
X90328905Y-87764905D01*
X90376524Y-87860143D01*
X90424143Y-87907762D01*
X90519381Y-87955381D01*
X90709858Y-87955381D01*
X90805096Y-87907762D01*
X90852715Y-87860143D01*
X90900334Y-87764905D01*
X90900334Y-86955381D01*
X91900334Y-87955381D02*
X91328905Y-87955381D01*
X91614619Y-87955381D02*
X91614619Y-86955381D01*
X91519381Y-87098238D01*
X91424143Y-87193476D01*
X91328905Y-87241095D01*
X92233667Y-86955381D02*
X92852715Y-86955381D01*
X92519381Y-87336333D01*
X92662239Y-87336333D01*
X92757477Y-87383952D01*
X92805096Y-87431571D01*
X92852715Y-87526810D01*
X92852715Y-87764905D01*
X92805096Y-87860143D01*
X92757477Y-87907762D01*
X92662239Y-87955381D01*
X92376524Y-87955381D01*
X92281286Y-87907762D01*
X92233667Y-87860143D01*
X123927198Y-55111002D02*
X123354777Y-55009987D01*
X123523137Y-55515064D02*
X122816030Y-54807957D01*
X123085404Y-54538582D01*
X123186420Y-54504911D01*
X123253763Y-54504911D01*
X123354778Y-54538582D01*
X123455793Y-54639598D01*
X123489465Y-54740613D01*
X123489465Y-54807956D01*
X123455793Y-54908971D01*
X123186419Y-55178346D01*
X123927197Y-54302880D02*
X123826182Y-54336552D01*
X123758839Y-54336552D01*
X123657824Y-54302880D01*
X123624152Y-54269209D01*
X123590480Y-54168194D01*
X123590480Y-54100850D01*
X123624152Y-53999835D01*
X123758839Y-53865147D01*
X123859855Y-53831476D01*
X123927198Y-53831476D01*
X124028213Y-53865147D01*
X124061885Y-53898819D01*
X124095557Y-53999834D01*
X124095557Y-54067178D01*
X124061885Y-54168193D01*
X123927197Y-54302880D01*
X123893526Y-54403896D01*
X123893526Y-54471239D01*
X123927198Y-54572255D01*
X124061885Y-54706942D01*
X124162900Y-54740613D01*
X124230243Y-54740613D01*
X124331259Y-54706942D01*
X124465946Y-54572254D01*
X124499618Y-54471239D01*
X124499618Y-54403896D01*
X124465946Y-54302880D01*
X124331259Y-54168194D01*
X124230243Y-54134521D01*
X124162900Y-54134521D01*
X124061885Y-54168193D01*
X28813238Y-111796581D02*
X29051333Y-112796581D01*
X29241810Y-112082295D01*
X29432286Y-112796581D01*
X29670381Y-111796581D01*
X30575143Y-112796581D02*
X30003714Y-112796581D01*
X30289428Y-112796581D02*
X30289428Y-111796581D01*
X30194190Y-111939438D01*
X30098952Y-112034676D01*
X30003714Y-112082295D01*
X53578238Y-105319581D02*
X53816333Y-106319581D01*
X54006810Y-105605295D01*
X54197286Y-106319581D01*
X54435381Y-105319581D01*
X54768714Y-105414819D02*
X54816333Y-105367200D01*
X54911571Y-105319581D01*
X55149667Y-105319581D01*
X55244905Y-105367200D01*
X55292524Y-105414819D01*
X55340143Y-105510057D01*
X55340143Y-105605295D01*
X55292524Y-105748152D01*
X54721095Y-106319581D01*
X55340143Y-106319581D01*
X93329238Y-92619581D02*
X93567333Y-93619581D01*
X93757810Y-92905295D01*
X93948286Y-93619581D01*
X94186381Y-92619581D01*
X94472095Y-92619581D02*
X95091143Y-92619581D01*
X94757809Y-93000533D01*
X94900667Y-93000533D01*
X94995905Y-93048152D01*
X95043524Y-93095771D01*
X95091143Y-93191010D01*
X95091143Y-93429105D01*
X95043524Y-93524343D01*
X94995905Y-93571962D01*
X94900667Y-93619581D01*
X94614952Y-93619581D01*
X94519714Y-93571962D01*
X94472095Y-93524343D01*
X135366238Y-59980581D02*
X135604333Y-60980581D01*
X135794810Y-60266295D01*
X135985286Y-60980581D01*
X136223381Y-59980581D01*
X137032905Y-60313914D02*
X137032905Y-60980581D01*
X136794809Y-59932962D02*
X136556714Y-60647248D01*
X137175762Y-60647248D01*
X48752238Y-35088581D02*
X48990333Y-36088581D01*
X49180810Y-35374295D01*
X49371286Y-36088581D01*
X49609381Y-35088581D01*
X50466524Y-35088581D02*
X49990333Y-35088581D01*
X49942714Y-35564771D01*
X49990333Y-35517152D01*
X50085571Y-35469533D01*
X50323667Y-35469533D01*
X50418905Y-35517152D01*
X50466524Y-35564771D01*
X50514143Y-35660010D01*
X50514143Y-35898105D01*
X50466524Y-35993343D01*
X50418905Y-36040962D01*
X50323667Y-36088581D01*
X50085571Y-36088581D01*
X49990333Y-36040962D01*
X49942714Y-35993343D01*
X57078667Y-99064381D02*
X57078667Y-99778667D01*
X57031047Y-99921524D01*
X56935809Y-100016762D01*
X56792952Y-100064381D01*
X56697714Y-100064381D01*
X57554857Y-100064381D02*
X57554857Y-99064381D01*
X57935810Y-99064381D01*
X58031048Y-99112000D01*
X58078667Y-99159619D01*
X58126286Y-99254857D01*
X58126286Y-99397714D01*
X58078667Y-99492952D01*
X58031048Y-99540571D01*
X57935810Y-99588190D01*
X57554857Y-99588190D01*
X58507238Y-99159619D02*
X58554857Y-99112000D01*
X58650095Y-99064381D01*
X58888191Y-99064381D01*
X58983429Y-99112000D01*
X59031048Y-99159619D01*
X59078667Y-99254857D01*
X59078667Y-99350095D01*
X59031048Y-99492952D01*
X58459619Y-100064381D01*
X59078667Y-100064381D01*
X61650667Y-57320381D02*
X61650667Y-58034667D01*
X61603047Y-58177524D01*
X61507809Y-58272762D01*
X61364952Y-58320381D01*
X61269714Y-58320381D01*
X62126857Y-58320381D02*
X62126857Y-57320381D01*
X62507810Y-57320381D01*
X62603048Y-57368000D01*
X62650667Y-57415619D01*
X62698286Y-57510857D01*
X62698286Y-57653714D01*
X62650667Y-57748952D01*
X62603048Y-57796571D01*
X62507810Y-57844190D01*
X62126857Y-57844190D01*
X63031619Y-57320381D02*
X63650667Y-57320381D01*
X63317333Y-57701333D01*
X63460191Y-57701333D01*
X63555429Y-57748952D01*
X63603048Y-57796571D01*
X63650667Y-57891810D01*
X63650667Y-58129905D01*
X63603048Y-58225143D01*
X63555429Y-58272762D01*
X63460191Y-58320381D01*
X63174476Y-58320381D01*
X63079238Y-58272762D01*
X63031619Y-58225143D01*
X69199238Y-60742581D02*
X69437333Y-61742581D01*
X69627810Y-61028295D01*
X69818286Y-61742581D01*
X70056381Y-60742581D01*
X70865905Y-60742581D02*
X70675428Y-60742581D01*
X70580190Y-60790200D01*
X70532571Y-60837819D01*
X70437333Y-60980676D01*
X70389714Y-61171152D01*
X70389714Y-61552105D01*
X70437333Y-61647343D01*
X70484952Y-61694962D01*
X70580190Y-61742581D01*
X70770667Y-61742581D01*
X70865905Y-61694962D01*
X70913524Y-61647343D01*
X70961143Y-61552105D01*
X70961143Y-61314010D01*
X70913524Y-61218771D01*
X70865905Y-61171152D01*
X70770667Y-61123533D01*
X70580190Y-61123533D01*
X70484952Y-61171152D01*
X70437333Y-61218771D01*
X70389714Y-61314010D01*
M02*
