G04 #@! TF.GenerationSoftware,KiCad,Pcbnew,(5.1.2)-1*
G04 #@! TF.CreationDate,2019-07-02T11:51:33-07:00*
G04 #@! TF.ProjectId,FIFO_P,4649464f-5f50-42e6-9b69-6361645f7063,rev?*
G04 #@! TF.SameCoordinates,Original*
G04 #@! TF.FileFunction,Legend,Bot*
G04 #@! TF.FilePolarity,Positive*
%FSLAX46Y46*%
G04 Gerber Fmt 4.6, Leading zero omitted, Abs format (unit mm)*
G04 Created by KiCad (PCBNEW (5.1.2)-1) date 2019-07-02 11:51:33*
%MOMM*%
%LPD*%
G04 APERTURE LIST*
%ADD10C,0.150000*%
%ADD11C,0.250000*%
%ADD12C,0.120000*%
G04 APERTURE END LIST*
D10*
X70856607Y-73745285D02*
X70762857Y-72995285D01*
X70584285Y-72995285D01*
X70481607Y-73031000D01*
X70419107Y-73102428D01*
X70392321Y-73173857D01*
X70374464Y-73316714D01*
X70387857Y-73423857D01*
X70441428Y-73566714D01*
X70486071Y-73638142D01*
X70566428Y-73709571D01*
X70678035Y-73745285D01*
X70856607Y-73745285D01*
X70012857Y-72995285D02*
X70088750Y-73602428D01*
X70061964Y-73673857D01*
X70030714Y-73709571D01*
X69963750Y-73745285D01*
X69820892Y-73745285D01*
X69745000Y-73709571D01*
X69704821Y-73673857D01*
X69660178Y-73602428D01*
X69584285Y-72995285D01*
X69271785Y-73352428D02*
X69021785Y-73352428D01*
X68963750Y-73745285D02*
X69320892Y-73745285D01*
X69227142Y-72995285D01*
X68870000Y-72995285D01*
X87166607Y-119839285D02*
X87072857Y-119089285D01*
X86894285Y-119089285D01*
X86791607Y-119125000D01*
X86729107Y-119196428D01*
X86702321Y-119267857D01*
X86684464Y-119410714D01*
X86697857Y-119517857D01*
X86751428Y-119660714D01*
X86796071Y-119732142D01*
X86876428Y-119803571D01*
X86988035Y-119839285D01*
X87166607Y-119839285D01*
X86322857Y-119089285D02*
X86398750Y-119696428D01*
X86371964Y-119767857D01*
X86340714Y-119803571D01*
X86273750Y-119839285D01*
X86130892Y-119839285D01*
X86055000Y-119803571D01*
X86014821Y-119767857D01*
X85970178Y-119696428D01*
X85894285Y-119089285D01*
X85581785Y-119446428D02*
X85331785Y-119446428D01*
X85273750Y-119839285D02*
X85630892Y-119839285D01*
X85537142Y-119089285D01*
X85180000Y-119089285D01*
X92254178Y-121037000D02*
X92321142Y-121001285D01*
X92428285Y-121001285D01*
X92539892Y-121037000D01*
X92620250Y-121108428D01*
X92664892Y-121179857D01*
X92718464Y-121322714D01*
X92731857Y-121429857D01*
X92714000Y-121572714D01*
X92687214Y-121644142D01*
X92624714Y-121715571D01*
X92522035Y-121751285D01*
X92450607Y-121751285D01*
X92339000Y-121715571D01*
X92298821Y-121679857D01*
X92267571Y-121429857D01*
X92410428Y-121429857D01*
X91986321Y-121751285D02*
X91892571Y-121001285D01*
X91557750Y-121751285D01*
X91464000Y-121001285D01*
X91200607Y-121751285D02*
X91106857Y-121001285D01*
X90928285Y-121001285D01*
X90825607Y-121037000D01*
X90763107Y-121108428D01*
X90736321Y-121179857D01*
X90718464Y-121322714D01*
X90731857Y-121429857D01*
X90785428Y-121572714D01*
X90830071Y-121644142D01*
X90910428Y-121715571D01*
X91022035Y-121751285D01*
X91200607Y-121751285D01*
X81153142Y-121001285D02*
X81510285Y-121001285D01*
X81590642Y-121358428D01*
X81550464Y-121322714D01*
X81474571Y-121287000D01*
X81296000Y-121287000D01*
X81229035Y-121322714D01*
X81197785Y-121358428D01*
X81171000Y-121429857D01*
X81193321Y-121608428D01*
X81237964Y-121679857D01*
X81278142Y-121715571D01*
X81354035Y-121751285D01*
X81532607Y-121751285D01*
X81599571Y-121715571D01*
X81630821Y-121679857D01*
X80903142Y-121001285D02*
X80746892Y-121751285D01*
X80403142Y-121001285D01*
X68651428Y-75741571D02*
X68548750Y-75777285D01*
X68370178Y-75777285D01*
X68294285Y-75741571D01*
X68254107Y-75705857D01*
X68209464Y-75634428D01*
X68200535Y-75563000D01*
X68227321Y-75491571D01*
X68258571Y-75455857D01*
X68325535Y-75420142D01*
X68463928Y-75384428D01*
X68530892Y-75348714D01*
X68562142Y-75313000D01*
X68588928Y-75241571D01*
X68580000Y-75170142D01*
X68535357Y-75098714D01*
X68495178Y-75063000D01*
X68419285Y-75027285D01*
X68240714Y-75027285D01*
X68138035Y-75063000D01*
X67905892Y-75777285D02*
X67812142Y-75027285D01*
X67633571Y-75027285D01*
X67530892Y-75063000D01*
X67468392Y-75134428D01*
X67441607Y-75205857D01*
X67423750Y-75348714D01*
X67437142Y-75455857D01*
X67490714Y-75598714D01*
X67535357Y-75670142D01*
X67615714Y-75741571D01*
X67727321Y-75777285D01*
X67905892Y-75777285D01*
X67164821Y-75563000D02*
X66807678Y-75563000D01*
X67263035Y-75777285D02*
X66919285Y-75027285D01*
X66763035Y-75777285D01*
X66120178Y-75777285D02*
X66548750Y-75777285D01*
X66334464Y-75777285D02*
X66240714Y-75027285D01*
X66325535Y-75134428D01*
X66405892Y-75205857D01*
X66481785Y-75241571D01*
X65585571Y-75741571D02*
X65482892Y-75777285D01*
X65304321Y-75777285D01*
X65228428Y-75741571D01*
X65188250Y-75705857D01*
X65143607Y-75634428D01*
X65134678Y-75563000D01*
X65161464Y-75491571D01*
X65192714Y-75455857D01*
X65259678Y-75420142D01*
X65398071Y-75384428D01*
X65465035Y-75348714D01*
X65496285Y-75313000D01*
X65523071Y-75241571D01*
X65514142Y-75170142D01*
X65469500Y-75098714D01*
X65429321Y-75063000D01*
X65353428Y-75027285D01*
X65174857Y-75027285D01*
X65072178Y-75063000D01*
X64402535Y-75705857D02*
X64442714Y-75741571D01*
X64554321Y-75777285D01*
X64625750Y-75777285D01*
X64728428Y-75741571D01*
X64790928Y-75670142D01*
X64817714Y-75598714D01*
X64835571Y-75455857D01*
X64822178Y-75348714D01*
X64768607Y-75205857D01*
X64723964Y-75134428D01*
X64643607Y-75063000D01*
X64532000Y-75027285D01*
X64460571Y-75027285D01*
X64357892Y-75063000D01*
X64326642Y-75098714D01*
X63732892Y-75777285D02*
X64090035Y-75777285D01*
X63996285Y-75027285D01*
X63090035Y-75777285D02*
X63518607Y-75777285D01*
X63304321Y-75777285D02*
X63210571Y-75027285D01*
X63295392Y-75134428D01*
X63375750Y-75205857D01*
X63451642Y-75241571D01*
D11*
X51350000Y-79250000D02*
G75*
G03X51350000Y-79250000I-100000J0D01*
G01*
X52850000Y-84250000D02*
G75*
G03X52850000Y-84250000I-100000J0D01*
G01*
D10*
X51196428Y-77828035D02*
X51196428Y-77256607D01*
X51660714Y-76484285D02*
X51660714Y-76841428D01*
X51303571Y-76921785D01*
X51339285Y-76881607D01*
X51375000Y-76805714D01*
X51375000Y-76627142D01*
X51339285Y-76560178D01*
X51303571Y-76528928D01*
X51232142Y-76502142D01*
X51053571Y-76524464D01*
X50982142Y-76569107D01*
X50946428Y-76609285D01*
X50910714Y-76685178D01*
X50910714Y-76863750D01*
X50946428Y-76930714D01*
X50982142Y-76961964D01*
X51660714Y-76234285D02*
X50910714Y-76078035D01*
X51660714Y-75734285D01*
X51303571Y-74957500D02*
X51303571Y-74707500D01*
X50910714Y-74649464D02*
X50910714Y-75006607D01*
X51660714Y-74912857D01*
X51660714Y-74555714D01*
X50910714Y-74399464D02*
X51410714Y-73944107D01*
X51410714Y-74336964D02*
X50910714Y-74006607D01*
X51410714Y-73765535D02*
X51410714Y-73479821D01*
X51660714Y-73627142D02*
X51017857Y-73707500D01*
X50946428Y-73680714D01*
X50910714Y-73613750D01*
X50910714Y-73542321D01*
X50982142Y-73283392D02*
X50946428Y-73252142D01*
X50910714Y-73292321D01*
X50946428Y-73323571D01*
X50982142Y-73283392D01*
X50910714Y-73292321D01*
X53160714Y-82912857D02*
X53160714Y-82448571D01*
X52875000Y-82734285D01*
X52875000Y-82627142D01*
X52839285Y-82560178D01*
X52803571Y-82528928D01*
X52732142Y-82502142D01*
X52553571Y-82524464D01*
X52482142Y-82569107D01*
X52446428Y-82609285D01*
X52410714Y-82685178D01*
X52410714Y-82899464D01*
X52446428Y-82966428D01*
X52482142Y-82997678D01*
X52482142Y-82211964D02*
X52446428Y-82180714D01*
X52410714Y-82220892D01*
X52446428Y-82252142D01*
X52482142Y-82211964D01*
X52410714Y-82220892D01*
X53160714Y-81841428D02*
X53160714Y-81377142D01*
X52875000Y-81662857D01*
X52875000Y-81555714D01*
X52839285Y-81488750D01*
X52803571Y-81457500D01*
X52732142Y-81430714D01*
X52553571Y-81453035D01*
X52482142Y-81497678D01*
X52446428Y-81537857D01*
X52410714Y-81613750D01*
X52410714Y-81828035D01*
X52446428Y-81895000D01*
X52482142Y-81926250D01*
X53160714Y-81162857D02*
X52410714Y-81006607D01*
X53160714Y-80662857D01*
X52803571Y-79886071D02*
X52803571Y-79636071D01*
X52410714Y-79578035D02*
X52410714Y-79935178D01*
X53160714Y-79841428D01*
X53160714Y-79484285D01*
X52410714Y-79328035D02*
X52910714Y-78872678D01*
X52910714Y-79265535D02*
X52410714Y-78935178D01*
X52910714Y-78694107D02*
X52910714Y-78408392D01*
X53160714Y-78555714D02*
X52517857Y-78636071D01*
X52446428Y-78609285D01*
X52410714Y-78542321D01*
X52410714Y-78470892D01*
X52482142Y-78211964D02*
X52446428Y-78180714D01*
X52410714Y-78220892D01*
X52446428Y-78252142D01*
X52482142Y-78211964D01*
X52410714Y-78220892D01*
X52750000Y-85250000D02*
X52750000Y-83250000D01*
X51250000Y-80250000D02*
X51250000Y-78250000D01*
X52750000Y-94500000D02*
X52000000Y-93750000D01*
X52750000Y-95250000D02*
X52750000Y-94500000D01*
X51250000Y-94500000D02*
X52000000Y-93750000D01*
X51250000Y-95250000D02*
X51250000Y-94500000D01*
X51196428Y-100078035D02*
X51196428Y-99506607D01*
X50910714Y-99828035D02*
X51482142Y-99756607D01*
X51660714Y-98734285D02*
X51660714Y-99091428D01*
X51303571Y-99171785D01*
X51339285Y-99131607D01*
X51375000Y-99055714D01*
X51375000Y-98877142D01*
X51339285Y-98810178D01*
X51303571Y-98778928D01*
X51232142Y-98752142D01*
X51053571Y-98774464D01*
X50982142Y-98819107D01*
X50946428Y-98859285D01*
X50910714Y-98935178D01*
X50910714Y-99113750D01*
X50946428Y-99180714D01*
X50982142Y-99211964D01*
X51660714Y-98484285D02*
X50910714Y-98328035D01*
X51660714Y-97984285D01*
X51303571Y-97207500D02*
X51303571Y-96957500D01*
X50910714Y-96899464D02*
X50910714Y-97256607D01*
X51660714Y-97162857D01*
X51660714Y-96805714D01*
X50910714Y-96649464D02*
X51410714Y-96194107D01*
X51410714Y-96586964D02*
X50910714Y-96256607D01*
X51410714Y-96015535D02*
X51410714Y-95729821D01*
X51660714Y-95877142D02*
X51017857Y-95957500D01*
X50946428Y-95930714D01*
X50910714Y-95863750D01*
X50910714Y-95792321D01*
X50982142Y-95533392D02*
X50946428Y-95502142D01*
X50910714Y-95542321D01*
X50946428Y-95573571D01*
X50982142Y-95533392D01*
X50910714Y-95542321D01*
X52000000Y-93250000D02*
X52000000Y-93750000D01*
X51250000Y-91250000D02*
X51000000Y-91750000D01*
X51250000Y-91250000D02*
X51500000Y-91750000D01*
X51250000Y-92500000D02*
X51250000Y-91250000D01*
X52000000Y-93250000D02*
X51250000Y-92500000D01*
X52750000Y-91250000D02*
X52500000Y-91750000D01*
X52750000Y-91250000D02*
X53000000Y-91750000D01*
X52750000Y-92500000D02*
X52750000Y-91250000D01*
X52000000Y-93250000D02*
X52750000Y-92500000D01*
X53160714Y-90841428D02*
X53160714Y-90377142D01*
X52875000Y-90662857D01*
X52875000Y-90555714D01*
X52839285Y-90488750D01*
X52803571Y-90457500D01*
X52732142Y-90430714D01*
X52553571Y-90453035D01*
X52482142Y-90497678D01*
X52446428Y-90537857D01*
X52410714Y-90613750D01*
X52410714Y-90828035D01*
X52446428Y-90895000D01*
X52482142Y-90926250D01*
X52482142Y-90140535D02*
X52446428Y-90109285D01*
X52410714Y-90149464D01*
X52446428Y-90180714D01*
X52482142Y-90140535D01*
X52410714Y-90149464D01*
X53160714Y-89770000D02*
X53160714Y-89305714D01*
X52875000Y-89591428D01*
X52875000Y-89484285D01*
X52839285Y-89417321D01*
X52803571Y-89386071D01*
X52732142Y-89359285D01*
X52553571Y-89381607D01*
X52482142Y-89426250D01*
X52446428Y-89466428D01*
X52410714Y-89542321D01*
X52410714Y-89756607D01*
X52446428Y-89823571D01*
X52482142Y-89854821D01*
X53160714Y-89091428D02*
X52410714Y-88935178D01*
X53160714Y-88591428D01*
X52410714Y-87435178D02*
X52767857Y-87640535D01*
X52410714Y-87863750D02*
X53160714Y-87770000D01*
X53160714Y-87484285D01*
X53125000Y-87417321D01*
X53089285Y-87386071D01*
X53017857Y-87359285D01*
X52910714Y-87372678D01*
X52839285Y-87417321D01*
X52803571Y-87457500D01*
X52767857Y-87533392D01*
X52767857Y-87819107D01*
X52446428Y-86823571D02*
X52410714Y-86899464D01*
X52410714Y-87042321D01*
X52446428Y-87109285D01*
X52517857Y-87136071D01*
X52803571Y-87100357D01*
X52875000Y-87055714D01*
X52910714Y-86979821D01*
X52910714Y-86836964D01*
X52875000Y-86770000D01*
X52803571Y-86743214D01*
X52732142Y-86752142D01*
X52660714Y-87118214D01*
X52910714Y-86086964D02*
X52303571Y-86162857D01*
X52232142Y-86207500D01*
X52196428Y-86247678D01*
X52160714Y-86323571D01*
X52160714Y-86430714D01*
X52196428Y-86497678D01*
X52446428Y-86145000D02*
X52410714Y-86220892D01*
X52410714Y-86363750D01*
X52446428Y-86430714D01*
X52482142Y-86461964D01*
X52553571Y-86488750D01*
X52767857Y-86461964D01*
X52839285Y-86417321D01*
X52875000Y-86377142D01*
X52910714Y-86301250D01*
X52910714Y-86158392D01*
X52875000Y-86091428D01*
X52482142Y-85783392D02*
X52446428Y-85752142D01*
X52410714Y-85792321D01*
X52446428Y-85823571D01*
X52482142Y-85783392D01*
X52410714Y-85792321D01*
X51196428Y-90828035D02*
X51196428Y-90256607D01*
X51660714Y-89484285D02*
X51660714Y-89841428D01*
X51303571Y-89921785D01*
X51339285Y-89881607D01*
X51375000Y-89805714D01*
X51375000Y-89627142D01*
X51339285Y-89560178D01*
X51303571Y-89528928D01*
X51232142Y-89502142D01*
X51053571Y-89524464D01*
X50982142Y-89569107D01*
X50946428Y-89609285D01*
X50910714Y-89685178D01*
X50910714Y-89863750D01*
X50946428Y-89930714D01*
X50982142Y-89961964D01*
X51660714Y-89234285D02*
X50910714Y-89078035D01*
X51660714Y-88734285D01*
X50982142Y-87569107D02*
X50946428Y-87609285D01*
X50910714Y-87720892D01*
X50910714Y-87792321D01*
X50946428Y-87895000D01*
X51017857Y-87957500D01*
X51089285Y-87984285D01*
X51232142Y-88002142D01*
X51339285Y-87988750D01*
X51482142Y-87935178D01*
X51553571Y-87890535D01*
X51625000Y-87810178D01*
X51660714Y-87698571D01*
X51660714Y-87627142D01*
X51625000Y-87524464D01*
X51589285Y-87493214D01*
X50910714Y-87256607D02*
X51660714Y-87162857D01*
X50910714Y-86935178D02*
X51303571Y-86886071D01*
X51375000Y-86912857D01*
X51410714Y-86979821D01*
X51410714Y-87086964D01*
X51375000Y-87162857D01*
X51339285Y-87203035D01*
X50910714Y-86256607D02*
X51303571Y-86207500D01*
X51375000Y-86234285D01*
X51410714Y-86301250D01*
X51410714Y-86444107D01*
X51375000Y-86520000D01*
X50946428Y-86252142D02*
X50910714Y-86328035D01*
X50910714Y-86506607D01*
X50946428Y-86573571D01*
X51017857Y-86600357D01*
X51089285Y-86591428D01*
X51160714Y-86546785D01*
X51196428Y-86470892D01*
X51196428Y-86292321D01*
X51232142Y-86216428D01*
X50910714Y-85899464D02*
X51410714Y-85836964D01*
X51267857Y-85854821D02*
X51339285Y-85810178D01*
X51375000Y-85770000D01*
X51410714Y-85694107D01*
X51410714Y-85622678D01*
X51410714Y-85051250D02*
X50803571Y-85127142D01*
X50732142Y-85171785D01*
X50696428Y-85211964D01*
X50660714Y-85287857D01*
X50660714Y-85395000D01*
X50696428Y-85461964D01*
X50946428Y-85109285D02*
X50910714Y-85185178D01*
X50910714Y-85328035D01*
X50946428Y-85395000D01*
X50982142Y-85426250D01*
X51053571Y-85453035D01*
X51267857Y-85426250D01*
X51339285Y-85381607D01*
X51375000Y-85341428D01*
X51410714Y-85265535D01*
X51410714Y-85122678D01*
X51375000Y-85055714D01*
X50946428Y-84466428D02*
X50910714Y-84542321D01*
X50910714Y-84685178D01*
X50946428Y-84752142D01*
X51017857Y-84778928D01*
X51303571Y-84743214D01*
X51375000Y-84698571D01*
X51410714Y-84622678D01*
X51410714Y-84479821D01*
X51375000Y-84412857D01*
X51303571Y-84386071D01*
X51232142Y-84395000D01*
X51160714Y-84761071D01*
X50910714Y-83542321D02*
X51660714Y-83448571D01*
X51660714Y-83162857D01*
X51625000Y-83095892D01*
X51589285Y-83064642D01*
X51517857Y-83037857D01*
X51410714Y-83051250D01*
X51339285Y-83095892D01*
X51303571Y-83136071D01*
X51267857Y-83211964D01*
X51267857Y-83497678D01*
X51410714Y-82408392D02*
X50910714Y-82470892D01*
X51410714Y-82729821D02*
X51017857Y-82778928D01*
X50946428Y-82752142D01*
X50910714Y-82685178D01*
X50910714Y-82578035D01*
X50946428Y-82502142D01*
X50982142Y-82461964D01*
X50910714Y-82113750D02*
X51410714Y-82051250D01*
X51339285Y-82060178D02*
X51375000Y-82020000D01*
X51410714Y-81944107D01*
X51410714Y-81836964D01*
X51375000Y-81770000D01*
X51303571Y-81743214D01*
X50910714Y-81792321D01*
X51303571Y-81743214D02*
X51375000Y-81698571D01*
X51410714Y-81622678D01*
X51410714Y-81515535D01*
X51375000Y-81448571D01*
X51303571Y-81421785D01*
X50910714Y-81470892D01*
X51410714Y-81051250D02*
X50660714Y-81145000D01*
X51375000Y-81055714D02*
X51410714Y-80979821D01*
X51410714Y-80836964D01*
X51375000Y-80770000D01*
X51339285Y-80738750D01*
X51267857Y-80711964D01*
X51053571Y-80738750D01*
X50982142Y-80783392D01*
X50946428Y-80823571D01*
X50910714Y-80899464D01*
X50910714Y-81042321D01*
X50946428Y-81109285D01*
X53160714Y-99127142D02*
X53160714Y-99484285D01*
X52803571Y-99564642D01*
X52839285Y-99524464D01*
X52875000Y-99448571D01*
X52875000Y-99270000D01*
X52839285Y-99203035D01*
X52803571Y-99171785D01*
X52732142Y-99145000D01*
X52553571Y-99167321D01*
X52482142Y-99211964D01*
X52446428Y-99252142D01*
X52410714Y-99328035D01*
X52410714Y-99506607D01*
X52446428Y-99573571D01*
X52482142Y-99604821D01*
X53160714Y-98877142D02*
X52410714Y-98720892D01*
X53160714Y-98377142D01*
X52410714Y-97220892D02*
X52767857Y-97426250D01*
X52410714Y-97649464D02*
X53160714Y-97555714D01*
X53160714Y-97270000D01*
X53125000Y-97203035D01*
X53089285Y-97171785D01*
X53017857Y-97145000D01*
X52910714Y-97158392D01*
X52839285Y-97203035D01*
X52803571Y-97243214D01*
X52767857Y-97319107D01*
X52767857Y-97604821D01*
X52446428Y-96609285D02*
X52410714Y-96685178D01*
X52410714Y-96828035D01*
X52446428Y-96895000D01*
X52517857Y-96921785D01*
X52803571Y-96886071D01*
X52875000Y-96841428D01*
X52910714Y-96765535D01*
X52910714Y-96622678D01*
X52875000Y-96555714D01*
X52803571Y-96528928D01*
X52732142Y-96537857D01*
X52660714Y-96903928D01*
X52910714Y-95872678D02*
X52303571Y-95948571D01*
X52232142Y-95993214D01*
X52196428Y-96033392D01*
X52160714Y-96109285D01*
X52160714Y-96216428D01*
X52196428Y-96283392D01*
X52446428Y-95930714D02*
X52410714Y-96006607D01*
X52410714Y-96149464D01*
X52446428Y-96216428D01*
X52482142Y-96247678D01*
X52553571Y-96274464D01*
X52767857Y-96247678D01*
X52839285Y-96203035D01*
X52875000Y-96162857D01*
X52910714Y-96086964D01*
X52910714Y-95944107D01*
X52875000Y-95877142D01*
X52482142Y-95569107D02*
X52446428Y-95537857D01*
X52410714Y-95578035D01*
X52446428Y-95609285D01*
X52482142Y-95569107D01*
X52410714Y-95578035D01*
X52750000Y-100000000D02*
X52500000Y-100500000D01*
X52750000Y-100000000D02*
X53000000Y-100500000D01*
X52750000Y-101750000D02*
X52750000Y-100000000D01*
X53160714Y-103502142D02*
X52410714Y-103345892D01*
X53160714Y-103002142D01*
X52410714Y-102845892D02*
X52910714Y-102783392D01*
X53160714Y-102752142D02*
X53125000Y-102792321D01*
X53089285Y-102761071D01*
X53125000Y-102720892D01*
X53160714Y-102752142D01*
X53089285Y-102761071D01*
X52910714Y-102426250D02*
X52410714Y-102488750D01*
X52839285Y-102435178D02*
X52875000Y-102395000D01*
X52910714Y-102319107D01*
X52910714Y-102211964D01*
X52875000Y-102145000D01*
X52803571Y-102118214D01*
X52410714Y-102167321D01*
X120653335Y-131654761D02*
X120403335Y-129654761D01*
X119927144Y-129654761D01*
X119653335Y-129750000D01*
X119486668Y-129940476D01*
X119415239Y-130130952D01*
X119367620Y-130511904D01*
X119403335Y-130797619D01*
X119546192Y-131178571D01*
X119665239Y-131369047D01*
X119879525Y-131559523D01*
X120177144Y-131654761D01*
X120653335Y-131654761D01*
X118677144Y-131083333D02*
X117724763Y-131083333D01*
X118939049Y-131654761D02*
X118022382Y-129654761D01*
X117605716Y-131654761D01*
X115772382Y-131464285D02*
X115879525Y-131559523D01*
X116177144Y-131654761D01*
X116367620Y-131654761D01*
X116641430Y-131559523D01*
X116808097Y-131369047D01*
X116879525Y-131178571D01*
X116927144Y-130797619D01*
X116891430Y-130511904D01*
X116748573Y-130130952D01*
X116629525Y-129940476D01*
X116415239Y-129750000D01*
X116117620Y-129654761D01*
X115927144Y-129654761D01*
X115653335Y-129750000D01*
X115570001Y-129845238D01*
X73756607Y-89528571D02*
X73185178Y-89528571D01*
X72412857Y-89064285D02*
X72770000Y-89064285D01*
X72850357Y-89421428D01*
X72810178Y-89385714D01*
X72734285Y-89350000D01*
X72555714Y-89350000D01*
X72488750Y-89385714D01*
X72457500Y-89421428D01*
X72430714Y-89492857D01*
X72453035Y-89671428D01*
X72497678Y-89742857D01*
X72537857Y-89778571D01*
X72613750Y-89814285D01*
X72792321Y-89814285D01*
X72859285Y-89778571D01*
X72890535Y-89742857D01*
X72162857Y-89064285D02*
X72006607Y-89814285D01*
X71662857Y-89064285D01*
X74158392Y-91017857D02*
X74198571Y-91053571D01*
X74310178Y-91089285D01*
X74381607Y-91089285D01*
X74484285Y-91053571D01*
X74546785Y-90982142D01*
X74573571Y-90910714D01*
X74591428Y-90767857D01*
X74578035Y-90660714D01*
X74524464Y-90517857D01*
X74479821Y-90446428D01*
X74399464Y-90375000D01*
X74287857Y-90339285D01*
X74216428Y-90339285D01*
X74113750Y-90375000D01*
X74082500Y-90410714D01*
X73845892Y-91089285D02*
X73752142Y-90339285D01*
X73524464Y-91089285D02*
X73475357Y-90696428D01*
X73502142Y-90625000D01*
X73569107Y-90589285D01*
X73676250Y-90589285D01*
X73752142Y-90625000D01*
X73792321Y-90660714D01*
X72845892Y-91089285D02*
X72796785Y-90696428D01*
X72823571Y-90625000D01*
X72890535Y-90589285D01*
X73033392Y-90589285D01*
X73109285Y-90625000D01*
X72841428Y-91053571D02*
X72917321Y-91089285D01*
X73095892Y-91089285D01*
X73162857Y-91053571D01*
X73189642Y-90982142D01*
X73180714Y-90910714D01*
X73136071Y-90839285D01*
X73060178Y-90803571D01*
X72881607Y-90803571D01*
X72805714Y-90767857D01*
X72488750Y-91089285D02*
X72426250Y-90589285D01*
X72444107Y-90732142D02*
X72399464Y-90660714D01*
X72359285Y-90625000D01*
X72283392Y-90589285D01*
X72211964Y-90589285D01*
X71640535Y-90589285D02*
X71716428Y-91196428D01*
X71761071Y-91267857D01*
X71801250Y-91303571D01*
X71877142Y-91339285D01*
X71984285Y-91339285D01*
X72051250Y-91303571D01*
X71698571Y-91053571D02*
X71774464Y-91089285D01*
X71917321Y-91089285D01*
X71984285Y-91053571D01*
X72015535Y-91017857D01*
X72042321Y-90946428D01*
X72015535Y-90732142D01*
X71970892Y-90660714D01*
X71930714Y-90625000D01*
X71854821Y-90589285D01*
X71711964Y-90589285D01*
X71645000Y-90625000D01*
X71055714Y-91053571D02*
X71131607Y-91089285D01*
X71274464Y-91089285D01*
X71341428Y-91053571D01*
X71368214Y-90982142D01*
X71332500Y-90696428D01*
X71287857Y-90625000D01*
X71211964Y-90589285D01*
X71069107Y-90589285D01*
X71002142Y-90625000D01*
X70975357Y-90696428D01*
X70984285Y-90767857D01*
X71350357Y-90839285D01*
X74203035Y-92364285D02*
X74109285Y-91614285D01*
X73823571Y-91614285D01*
X73756607Y-91650000D01*
X73725357Y-91685714D01*
X73698571Y-91757142D01*
X73711964Y-91864285D01*
X73756607Y-91935714D01*
X73796785Y-91971428D01*
X73872678Y-92007142D01*
X74158392Y-92007142D01*
X73069107Y-91864285D02*
X73131607Y-92364285D01*
X73390535Y-91864285D02*
X73439642Y-92257142D01*
X73412857Y-92328571D01*
X73345892Y-92364285D01*
X73238750Y-92364285D01*
X73162857Y-92328571D01*
X73122678Y-92292857D01*
X72774464Y-92364285D02*
X72711964Y-91864285D01*
X72720892Y-91935714D02*
X72680714Y-91900000D01*
X72604821Y-91864285D01*
X72497678Y-91864285D01*
X72430714Y-91900000D01*
X72403928Y-91971428D01*
X72453035Y-92364285D01*
X72403928Y-91971428D02*
X72359285Y-91900000D01*
X72283392Y-91864285D01*
X72176250Y-91864285D01*
X72109285Y-91900000D01*
X72082500Y-91971428D01*
X72131607Y-92364285D01*
X71711964Y-91864285D02*
X71805714Y-92614285D01*
X71716428Y-91900000D02*
X71640535Y-91864285D01*
X71497678Y-91864285D01*
X71430714Y-91900000D01*
X71399464Y-91935714D01*
X71372678Y-92007142D01*
X71399464Y-92221428D01*
X71444107Y-92292857D01*
X71484285Y-92328571D01*
X71560178Y-92364285D01*
X71703035Y-92364285D01*
X71770000Y-92328571D01*
X116500000Y-75500000D02*
X119500000Y-75500000D01*
X118560178Y-78125000D02*
X118627142Y-78089285D01*
X118734285Y-78089285D01*
X118845892Y-78125000D01*
X118926250Y-78196428D01*
X118970892Y-78267857D01*
X119024464Y-78410714D01*
X119037857Y-78517857D01*
X119020000Y-78660714D01*
X118993214Y-78732142D01*
X118930714Y-78803571D01*
X118828035Y-78839285D01*
X118756607Y-78839285D01*
X118645000Y-78803571D01*
X118604821Y-78767857D01*
X118573571Y-78517857D01*
X118716428Y-78517857D01*
X118292321Y-78839285D02*
X118198571Y-78089285D01*
X117863750Y-78839285D01*
X117770000Y-78089285D01*
X117506607Y-78839285D02*
X117412857Y-78089285D01*
X117234285Y-78089285D01*
X117131607Y-78125000D01*
X117069107Y-78196428D01*
X117042321Y-78267857D01*
X117024464Y-78410714D01*
X117037857Y-78517857D01*
X117091428Y-78660714D01*
X117136071Y-78732142D01*
X117216428Y-78803571D01*
X117328035Y-78839285D01*
X117506607Y-78839285D01*
X118881607Y-72375000D02*
X118948571Y-72339285D01*
X119055714Y-72339285D01*
X119167321Y-72375000D01*
X119247678Y-72446428D01*
X119292321Y-72517857D01*
X119345892Y-72660714D01*
X119359285Y-72767857D01*
X119341428Y-72910714D01*
X119314642Y-72982142D01*
X119252142Y-73053571D01*
X119149464Y-73089285D01*
X119078035Y-73089285D01*
X118966428Y-73053571D01*
X118926250Y-73017857D01*
X118895000Y-72767857D01*
X119037857Y-72767857D01*
X118613750Y-73089285D02*
X118520000Y-72339285D01*
X118185178Y-73089285D01*
X118091428Y-72339285D01*
X117828035Y-73089285D02*
X117734285Y-72339285D01*
X117555714Y-72339285D01*
X117453035Y-72375000D01*
X117390535Y-72446428D01*
X117363750Y-72517857D01*
X117345892Y-72660714D01*
X117359285Y-72767857D01*
X117412857Y-72910714D01*
X117457500Y-72982142D01*
X117537857Y-73053571D01*
X117649464Y-73089285D01*
X117828035Y-73089285D01*
X117086964Y-72875000D02*
X116729821Y-72875000D01*
X117185178Y-73089285D02*
X116841428Y-72339285D01*
X116685178Y-73089285D01*
X148083333Y-86234360D02*
X148083333Y-87186741D01*
X148654761Y-85972455D02*
X146654761Y-86889122D01*
X148654761Y-87305788D01*
X148654761Y-87972455D02*
X147321428Y-88139122D01*
X147702380Y-88091502D02*
X147511904Y-88210550D01*
X147416666Y-88317693D01*
X147321428Y-88520074D01*
X147321428Y-88710550D01*
X148654761Y-90067693D02*
X146654761Y-90317693D01*
X148559523Y-90079598D02*
X148654761Y-89877217D01*
X148654761Y-89496264D01*
X148559523Y-89317693D01*
X148464285Y-89234360D01*
X148273809Y-89162931D01*
X147702380Y-89234360D01*
X147511904Y-89353407D01*
X147416666Y-89460550D01*
X147321428Y-89662931D01*
X147321428Y-90043883D01*
X147416666Y-90222455D01*
X147321428Y-92043883D02*
X148654761Y-91877217D01*
X147321428Y-91186741D02*
X148369047Y-91055788D01*
X148559523Y-91127217D01*
X148654761Y-91305788D01*
X148654761Y-91591502D01*
X148559523Y-91793883D01*
X148464285Y-91901026D01*
X148654761Y-92829598D02*
X147321428Y-92996264D01*
X146654761Y-93079598D02*
X146750000Y-92972455D01*
X146845238Y-93055788D01*
X146750000Y-93162931D01*
X146654761Y-93079598D01*
X146845238Y-93055788D01*
X147321428Y-93948645D02*
X148654761Y-93781979D01*
X147511904Y-93924836D02*
X147416666Y-94031979D01*
X147321428Y-94234360D01*
X147321428Y-94520074D01*
X147416666Y-94698645D01*
X147607142Y-94770074D01*
X148654761Y-94639122D01*
X148654761Y-95877217D02*
X148559523Y-95698645D01*
X148464285Y-95615312D01*
X148273809Y-95543883D01*
X147702380Y-95615312D01*
X147511904Y-95734360D01*
X147416666Y-95841502D01*
X147321428Y-96043883D01*
X147321428Y-96329598D01*
X147416666Y-96508169D01*
X147511904Y-96591502D01*
X147702380Y-96662931D01*
X148273809Y-96591502D01*
X148464285Y-96472455D01*
X148559523Y-96365312D01*
X148654761Y-96162931D01*
X148654761Y-95877217D01*
X148654761Y-98924836D02*
X146654761Y-99174836D01*
X146654761Y-99651026D01*
X146750000Y-99924836D01*
X146940476Y-100091502D01*
X147130952Y-100162931D01*
X147511904Y-100210550D01*
X147797619Y-100174836D01*
X148178571Y-100031979D01*
X148369047Y-99912931D01*
X148559523Y-99698645D01*
X148654761Y-99401026D01*
X148654761Y-98924836D01*
X147321428Y-101948645D02*
X148654761Y-101781979D01*
X147321428Y-101091502D02*
X148369047Y-100960550D01*
X148559523Y-101031979D01*
X148654761Y-101210550D01*
X148654761Y-101496264D01*
X148559523Y-101698645D01*
X148464285Y-101805788D01*
X148559523Y-103508169D02*
X148654761Y-103305788D01*
X148654761Y-102924836D01*
X148559523Y-102746264D01*
X148369047Y-102674836D01*
X147607142Y-102770074D01*
X147416666Y-102889122D01*
X147321428Y-103091502D01*
X147321428Y-103472455D01*
X147416666Y-103651026D01*
X147607142Y-103722455D01*
X147797619Y-103698645D01*
X147988095Y-102722455D01*
X113984600Y-127875000D02*
X113984600Y-126275000D01*
X122409600Y-127875000D02*
X122409600Y-133625000D01*
X113759600Y-127875000D02*
X113759600Y-133625000D01*
X122409600Y-127875000D02*
X122109600Y-127875000D01*
X122409600Y-133625000D02*
X122109600Y-133625000D01*
X113759600Y-133625000D02*
X114059600Y-133625000D01*
X113759600Y-127875000D02*
X113984600Y-127875000D01*
D12*
X138170000Y-71990000D02*
X143370000Y-71990000D01*
X138170000Y-115230000D02*
X138170000Y-71990000D01*
X143370000Y-117830000D02*
X143370000Y-71990000D01*
X138170000Y-115230000D02*
X140770000Y-115230000D01*
X140770000Y-115230000D02*
X140770000Y-117830000D01*
X140770000Y-117830000D02*
X143370000Y-117830000D01*
X138170000Y-116500000D02*
X138170000Y-117830000D01*
X138170000Y-117830000D02*
X139500000Y-117830000D01*
X133620000Y-130840000D02*
X134390000Y-130840000D01*
X141700000Y-130840000D02*
X140930000Y-130840000D01*
X134390000Y-129470000D02*
X140930000Y-129470000D01*
X134390000Y-132210000D02*
X134390000Y-129470000D01*
X140930000Y-132210000D02*
X134390000Y-132210000D01*
X140930000Y-129470000D02*
X140930000Y-132210000D01*
D10*
X124750000Y-113175000D02*
X124750000Y-111825000D01*
X129875000Y-113175000D02*
X129875000Y-117825000D01*
X124625000Y-113175000D02*
X124625000Y-117825000D01*
X129875000Y-113175000D02*
X129650000Y-113175000D01*
X129875000Y-117825000D02*
X129650000Y-117825000D01*
X124625000Y-117825000D02*
X124850000Y-117825000D01*
X124625000Y-113175000D02*
X124750000Y-113175000D01*
X111750000Y-113175000D02*
X111750000Y-111825000D01*
X116875000Y-113175000D02*
X116875000Y-117825000D01*
X111625000Y-113175000D02*
X111625000Y-117825000D01*
X116875000Y-113175000D02*
X116650000Y-113175000D01*
X116875000Y-117825000D02*
X116650000Y-117825000D01*
X111625000Y-117825000D02*
X111850000Y-117825000D01*
X111625000Y-113175000D02*
X111750000Y-113175000D01*
X105250000Y-113175000D02*
X105250000Y-111825000D01*
X110375000Y-113175000D02*
X110375000Y-117825000D01*
X105125000Y-113175000D02*
X105125000Y-117825000D01*
X110375000Y-113175000D02*
X110150000Y-113175000D01*
X110375000Y-117825000D02*
X110150000Y-117825000D01*
X105125000Y-117825000D02*
X105350000Y-117825000D01*
X105125000Y-113175000D02*
X105250000Y-113175000D01*
D12*
X68600000Y-87140000D02*
X71050000Y-87140000D01*
X70400000Y-90360000D02*
X68600000Y-90360000D01*
D10*
X118250000Y-113175000D02*
X118250000Y-111825000D01*
X123375000Y-113175000D02*
X123375000Y-117825000D01*
X118125000Y-113175000D02*
X118125000Y-117825000D01*
X123375000Y-113175000D02*
X123150000Y-113175000D01*
X123375000Y-117825000D02*
X123150000Y-117825000D01*
X118125000Y-117825000D02*
X118350000Y-117825000D01*
X118125000Y-113175000D02*
X118250000Y-113175000D01*
D12*
X133620000Y-127720000D02*
X134390000Y-127720000D01*
X141700000Y-127720000D02*
X140930000Y-127720000D01*
X134390000Y-126350000D02*
X140930000Y-126350000D01*
X134390000Y-129090000D02*
X134390000Y-126350000D01*
X140930000Y-129090000D02*
X134390000Y-129090000D01*
X140930000Y-126350000D02*
X140930000Y-129090000D01*
X133620000Y-133970000D02*
X134390000Y-133970000D01*
X141700000Y-133970000D02*
X140930000Y-133970000D01*
X134390000Y-132600000D02*
X140930000Y-132600000D01*
X134390000Y-135340000D02*
X134390000Y-132600000D01*
X140930000Y-135340000D02*
X134390000Y-135340000D01*
X140930000Y-132600000D02*
X140930000Y-135340000D01*
D10*
X125488095Y-130202380D02*
X125488095Y-131011904D01*
X125440476Y-131107142D01*
X125392857Y-131154761D01*
X125297619Y-131202380D01*
X125107142Y-131202380D01*
X125011904Y-131154761D01*
X124964285Y-131107142D01*
X124916666Y-131011904D01*
X124916666Y-130202380D01*
X123916666Y-131202380D02*
X124488095Y-131202380D01*
X124202380Y-131202380D02*
X124202380Y-130202380D01*
X124297619Y-130345238D01*
X124392857Y-130440476D01*
X124488095Y-130488095D01*
X123297619Y-130202380D02*
X123202380Y-130202380D01*
X123107142Y-130250000D01*
X123059523Y-130297619D01*
X123011904Y-130392857D01*
X122964285Y-130583333D01*
X122964285Y-130821428D01*
X123011904Y-131011904D01*
X123059523Y-131107142D01*
X123107142Y-131154761D01*
X123202380Y-131202380D01*
X123297619Y-131202380D01*
X123392857Y-131154761D01*
X123440476Y-131107142D01*
X123488095Y-131011904D01*
X123535714Y-130821428D01*
X123535714Y-130583333D01*
X123488095Y-130392857D01*
X123440476Y-130297619D01*
X123392857Y-130250000D01*
X123297619Y-130202380D01*
X144202380Y-94275095D02*
X145011904Y-94275095D01*
X145107142Y-94322714D01*
X145154761Y-94370333D01*
X145202380Y-94465571D01*
X145202380Y-94656047D01*
X145154761Y-94751285D01*
X145107142Y-94798904D01*
X145011904Y-94846523D01*
X144202380Y-94846523D01*
X144535714Y-95751285D02*
X145202380Y-95751285D01*
X144154761Y-95513190D02*
X144869047Y-95275095D01*
X144869047Y-95894142D01*
X137826666Y-131202380D02*
X138160000Y-130726190D01*
X138398095Y-131202380D02*
X138398095Y-130202380D01*
X138017142Y-130202380D01*
X137921904Y-130250000D01*
X137874285Y-130297619D01*
X137826666Y-130392857D01*
X137826666Y-130535714D01*
X137874285Y-130630952D01*
X137921904Y-130678571D01*
X138017142Y-130726190D01*
X138398095Y-130726190D01*
X137493333Y-130202380D02*
X136826666Y-130202380D01*
X137255238Y-131202380D01*
X127011904Y-119702380D02*
X127011904Y-120511904D01*
X126964285Y-120607142D01*
X126916666Y-120654761D01*
X126821428Y-120702380D01*
X126630952Y-120702380D01*
X126535714Y-120654761D01*
X126488095Y-120607142D01*
X126440476Y-120511904D01*
X126440476Y-119702380D01*
X125916666Y-120702380D02*
X125726190Y-120702380D01*
X125630952Y-120654761D01*
X125583333Y-120607142D01*
X125488095Y-120464285D01*
X125440476Y-120273809D01*
X125440476Y-119892857D01*
X125488095Y-119797619D01*
X125535714Y-119750000D01*
X125630952Y-119702380D01*
X125821428Y-119702380D01*
X125916666Y-119750000D01*
X125964285Y-119797619D01*
X126011904Y-119892857D01*
X126011904Y-120130952D01*
X125964285Y-120226190D01*
X125916666Y-120273809D01*
X125821428Y-120321428D01*
X125630952Y-120321428D01*
X125535714Y-120273809D01*
X125488095Y-120226190D01*
X125440476Y-120130952D01*
X113761904Y-119702380D02*
X113761904Y-120511904D01*
X113714285Y-120607142D01*
X113666666Y-120654761D01*
X113571428Y-120702380D01*
X113380952Y-120702380D01*
X113285714Y-120654761D01*
X113238095Y-120607142D01*
X113190476Y-120511904D01*
X113190476Y-119702380D01*
X112809523Y-119702380D02*
X112142857Y-119702380D01*
X112571428Y-120702380D01*
X107511904Y-119702380D02*
X107511904Y-120511904D01*
X107464285Y-120607142D01*
X107416666Y-120654761D01*
X107321428Y-120702380D01*
X107130952Y-120702380D01*
X107035714Y-120654761D01*
X106988095Y-120607142D01*
X106940476Y-120511904D01*
X106940476Y-119702380D01*
X106035714Y-119702380D02*
X106226190Y-119702380D01*
X106321428Y-119750000D01*
X106369047Y-119797619D01*
X106464285Y-119940476D01*
X106511904Y-120130952D01*
X106511904Y-120511904D01*
X106464285Y-120607142D01*
X106416666Y-120654761D01*
X106321428Y-120702380D01*
X106130952Y-120702380D01*
X106035714Y-120654761D01*
X105988095Y-120607142D01*
X105940476Y-120511904D01*
X105940476Y-120273809D01*
X105988095Y-120178571D01*
X106035714Y-120130952D01*
X106130952Y-120083333D01*
X106321428Y-120083333D01*
X106416666Y-120130952D01*
X106464285Y-120178571D01*
X106511904Y-120273809D01*
X73988095Y-87202380D02*
X73988095Y-88011904D01*
X73940476Y-88107142D01*
X73892857Y-88154761D01*
X73797619Y-88202380D01*
X73607142Y-88202380D01*
X73511904Y-88154761D01*
X73464285Y-88107142D01*
X73416666Y-88011904D01*
X73416666Y-87202380D01*
X72416666Y-88202380D02*
X72988095Y-88202380D01*
X72702380Y-88202380D02*
X72702380Y-87202380D01*
X72797619Y-87345238D01*
X72892857Y-87440476D01*
X72988095Y-87488095D01*
X71464285Y-88202380D02*
X72035714Y-88202380D01*
X71750000Y-88202380D02*
X71750000Y-87202380D01*
X71845238Y-87345238D01*
X71940476Y-87440476D01*
X72035714Y-87488095D01*
X120761904Y-119702380D02*
X120761904Y-120511904D01*
X120714285Y-120607142D01*
X120666666Y-120654761D01*
X120571428Y-120702380D01*
X120380952Y-120702380D01*
X120285714Y-120654761D01*
X120238095Y-120607142D01*
X120190476Y-120511904D01*
X120190476Y-119702380D01*
X119571428Y-120130952D02*
X119666666Y-120083333D01*
X119714285Y-120035714D01*
X119761904Y-119940476D01*
X119761904Y-119892857D01*
X119714285Y-119797619D01*
X119666666Y-119750000D01*
X119571428Y-119702380D01*
X119380952Y-119702380D01*
X119285714Y-119750000D01*
X119238095Y-119797619D01*
X119190476Y-119892857D01*
X119190476Y-119940476D01*
X119238095Y-120035714D01*
X119285714Y-120083333D01*
X119380952Y-120130952D01*
X119571428Y-120130952D01*
X119666666Y-120178571D01*
X119714285Y-120226190D01*
X119761904Y-120321428D01*
X119761904Y-120511904D01*
X119714285Y-120607142D01*
X119666666Y-120654761D01*
X119571428Y-120702380D01*
X119380952Y-120702380D01*
X119285714Y-120654761D01*
X119238095Y-120607142D01*
X119190476Y-120511904D01*
X119190476Y-120321428D01*
X119238095Y-120226190D01*
X119285714Y-120178571D01*
X119380952Y-120130952D01*
X137826666Y-128202380D02*
X138160000Y-127726190D01*
X138398095Y-128202380D02*
X138398095Y-127202380D01*
X138017142Y-127202380D01*
X137921904Y-127250000D01*
X137874285Y-127297619D01*
X137826666Y-127392857D01*
X137826666Y-127535714D01*
X137874285Y-127630952D01*
X137921904Y-127678571D01*
X138017142Y-127726190D01*
X138398095Y-127726190D01*
X137350476Y-128202380D02*
X137160000Y-128202380D01*
X137064761Y-128154761D01*
X137017142Y-128107142D01*
X136921904Y-127964285D01*
X136874285Y-127773809D01*
X136874285Y-127392857D01*
X136921904Y-127297619D01*
X136969523Y-127250000D01*
X137064761Y-127202380D01*
X137255238Y-127202380D01*
X137350476Y-127250000D01*
X137398095Y-127297619D01*
X137445714Y-127392857D01*
X137445714Y-127630952D01*
X137398095Y-127726190D01*
X137350476Y-127773809D01*
X137255238Y-127821428D01*
X137064761Y-127821428D01*
X136969523Y-127773809D01*
X136921904Y-127726190D01*
X136874285Y-127630952D01*
X137916666Y-134452380D02*
X138250000Y-133976190D01*
X138488095Y-134452380D02*
X138488095Y-133452380D01*
X138107142Y-133452380D01*
X138011904Y-133500000D01*
X137964285Y-133547619D01*
X137916666Y-133642857D01*
X137916666Y-133785714D01*
X137964285Y-133880952D01*
X138011904Y-133928571D01*
X138107142Y-133976190D01*
X138488095Y-133976190D01*
X137345238Y-133880952D02*
X137440476Y-133833333D01*
X137488095Y-133785714D01*
X137535714Y-133690476D01*
X137535714Y-133642857D01*
X137488095Y-133547619D01*
X137440476Y-133500000D01*
X137345238Y-133452380D01*
X137154761Y-133452380D01*
X137059523Y-133500000D01*
X137011904Y-133547619D01*
X136964285Y-133642857D01*
X136964285Y-133690476D01*
X137011904Y-133785714D01*
X137059523Y-133833333D01*
X137154761Y-133880952D01*
X137345238Y-133880952D01*
X137440476Y-133928571D01*
X137488095Y-133976190D01*
X137535714Y-134071428D01*
X137535714Y-134261904D01*
X137488095Y-134357142D01*
X137440476Y-134404761D01*
X137345238Y-134452380D01*
X137154761Y-134452380D01*
X137059523Y-134404761D01*
X137011904Y-134357142D01*
X136964285Y-134261904D01*
X136964285Y-134071428D01*
X137011904Y-133976190D01*
X137059523Y-133928571D01*
X137154761Y-133880952D01*
M02*
