G04 #@! TF.FileFunction,Copper,L1,Top,Signal*
%FSLAX46Y46*%
G04 Gerber Fmt 4.6, Leading zero omitted, Abs format (unit mm)*
G04 Created by KiCad (PCBNEW 4.0.2-stable) date 5/30/2017 2:34:24 PM*
%MOMM*%
G01*
G04 APERTURE LIST*
%ADD10C,0.100000*%
%ADD11R,0.450000X1.750000*%
%ADD12C,1.524000*%
%ADD13C,4.445000*%
%ADD14R,1.500000X0.500000*%
%ADD15R,0.500000X1.500000*%
%ADD16C,1.727200*%
%ADD17O,1.727200X1.727200*%
%ADD18C,1.600000*%
%ADD19R,3.500000X3.500000*%
%ADD20R,1.800000X1.800000*%
%ADD21C,1.800000*%
%ADD22R,1.700000X1.700000*%
%ADD23O,1.700000X1.700000*%
%ADD24C,3.810000*%
%ADD25C,3.556000*%
%ADD26C,1.400000*%
%ADD27O,1.400000X1.400000*%
%ADD28R,1.600000X0.300000*%
%ADD29R,1.550000X0.600000*%
%ADD30O,2.540000X2.032000*%
%ADD31O,2.032000X2.540000*%
%ADD32C,1.400000*%
%ADD33C,1.399924*%
%ADD34C,0.600000*%
%ADD35C,0.304800*%
%ADD36C,0.254000*%
%ADD37C,0.250000*%
%ADD38C,0.444500*%
%ADD39C,0.635000*%
%ADD40C,0.381000*%
G04 APERTURE END LIST*
D10*
D11*
X56379400Y-71914200D03*
X57029400Y-71914200D03*
X57679400Y-71914200D03*
X58329400Y-71914200D03*
X58979400Y-71914200D03*
X59629400Y-71914200D03*
X60279400Y-71914200D03*
X60929400Y-71914200D03*
X56379400Y-79114200D03*
X57029400Y-79114200D03*
X57679400Y-79114200D03*
X58329400Y-79114200D03*
X58979400Y-79114200D03*
X59629400Y-79114200D03*
X60279400Y-79114200D03*
X60929400Y-79114200D03*
X61579400Y-79114200D03*
X62229400Y-79114200D03*
X62879400Y-79114200D03*
X63529400Y-79114200D03*
X64179400Y-79114200D03*
X64829400Y-79114200D03*
X67429400Y-79114200D03*
X66779400Y-79114200D03*
X66129400Y-79114200D03*
X65479400Y-79114200D03*
X67429400Y-71914200D03*
X66779400Y-71914200D03*
X66129400Y-71914200D03*
X65479400Y-71914200D03*
X64829400Y-71914200D03*
X64179400Y-71914200D03*
X63529400Y-71914200D03*
X62879400Y-71914200D03*
X62229400Y-71914200D03*
X61595000Y-71907400D03*
D12*
X138938000Y-98298000D03*
X138938000Y-105918000D03*
X138938000Y-100838000D03*
X138938000Y-103378000D03*
X138938000Y-108458000D03*
X138938000Y-110998000D03*
X138938000Y-113538000D03*
X138938000Y-116078000D03*
X138938000Y-123698000D03*
X138938000Y-121158000D03*
X138938000Y-118618000D03*
X141478000Y-118618000D03*
X141478000Y-121158000D03*
X141478000Y-123698000D03*
X141478000Y-116078000D03*
X141478000Y-113538000D03*
X141478000Y-110998000D03*
X141478000Y-108458000D03*
X141478000Y-103378000D03*
X141478000Y-100838000D03*
X141478000Y-105918000D03*
X141478000Y-98298000D03*
X128778000Y-98298000D03*
X128778000Y-105918000D03*
X128778000Y-100838000D03*
X128778000Y-103378000D03*
X128778000Y-108458000D03*
X128778000Y-110998000D03*
X128778000Y-113538000D03*
X128778000Y-116078000D03*
X128778000Y-123698000D03*
X128778000Y-121158000D03*
X128778000Y-118618000D03*
X131318000Y-118618000D03*
X131318000Y-121158000D03*
X131318000Y-123698000D03*
X131318000Y-116078000D03*
X131318000Y-113538000D03*
X131318000Y-110998000D03*
X131318000Y-108458000D03*
X131318000Y-103378000D03*
X131318000Y-100838000D03*
X131318000Y-105918000D03*
X131318000Y-98298000D03*
X136398000Y-98298000D03*
X136398000Y-105918000D03*
X136398000Y-100838000D03*
X136398000Y-103378000D03*
X136398000Y-108458000D03*
X136398000Y-110998000D03*
X136398000Y-113538000D03*
X136398000Y-116078000D03*
X136398000Y-123698000D03*
X136398000Y-121158000D03*
X136398000Y-118618000D03*
X133858000Y-118618000D03*
X133858000Y-121158000D03*
X133858000Y-123698000D03*
X133858000Y-116078000D03*
X133858000Y-113538000D03*
X133858000Y-110998000D03*
X133858000Y-108458000D03*
X133858000Y-103378000D03*
X133858000Y-100838000D03*
X133858000Y-105918000D03*
X133858000Y-98298000D03*
X123698000Y-98298000D03*
X123698000Y-105918000D03*
X123698000Y-100838000D03*
X123698000Y-103378000D03*
X123698000Y-108458000D03*
X123698000Y-110998000D03*
X123698000Y-113538000D03*
X123698000Y-116078000D03*
X123698000Y-123698000D03*
X123698000Y-121158000D03*
X123698000Y-118618000D03*
X126238000Y-118618000D03*
X126238000Y-121158000D03*
X126238000Y-123698000D03*
X126238000Y-116078000D03*
X126238000Y-113538000D03*
X126238000Y-110998000D03*
X126238000Y-108458000D03*
X126238000Y-103378000D03*
X126238000Y-100838000D03*
X126238000Y-105918000D03*
X126238000Y-98298000D03*
X121158000Y-98298000D03*
X121158000Y-105918000D03*
X121158000Y-100838000D03*
X121158000Y-103378000D03*
X121158000Y-108458000D03*
X121158000Y-110998000D03*
X121158000Y-113538000D03*
X121158000Y-116078000D03*
X121158000Y-123698000D03*
X121158000Y-121158000D03*
X121158000Y-118618000D03*
X118618000Y-118618000D03*
X118618000Y-121158000D03*
X118618000Y-123698000D03*
X118618000Y-116078000D03*
X118618000Y-113538000D03*
X118618000Y-110998000D03*
X118618000Y-108458000D03*
X118618000Y-103378000D03*
X118618000Y-100838000D03*
X118618000Y-105918000D03*
X118618000Y-98298000D03*
X93218000Y-98298000D03*
X93218000Y-105918000D03*
X93218000Y-100838000D03*
X93218000Y-103378000D03*
X93218000Y-108458000D03*
X93218000Y-110998000D03*
X93218000Y-113538000D03*
X93218000Y-116078000D03*
X93218000Y-123698000D03*
X93218000Y-121158000D03*
X93218000Y-118618000D03*
X95758000Y-118618000D03*
X95758000Y-121158000D03*
X95758000Y-123698000D03*
X95758000Y-116078000D03*
X95758000Y-113538000D03*
X95758000Y-110998000D03*
X95758000Y-108458000D03*
X95758000Y-103378000D03*
X95758000Y-100838000D03*
X95758000Y-105918000D03*
X95758000Y-98298000D03*
X100838000Y-98298000D03*
X100838000Y-105918000D03*
X100838000Y-100838000D03*
X100838000Y-103378000D03*
X100838000Y-108458000D03*
X100838000Y-110998000D03*
X100838000Y-113538000D03*
X100838000Y-116078000D03*
X100838000Y-123698000D03*
X100838000Y-121158000D03*
X100838000Y-118618000D03*
X98298000Y-118618000D03*
X98298000Y-121158000D03*
X98298000Y-123698000D03*
X98298000Y-116078000D03*
X98298000Y-113538000D03*
X98298000Y-110998000D03*
X98298000Y-108458000D03*
X98298000Y-103378000D03*
X98298000Y-100838000D03*
X98298000Y-105918000D03*
X98298000Y-98298000D03*
X108458000Y-98298000D03*
X108458000Y-105918000D03*
X108458000Y-100838000D03*
X108458000Y-103378000D03*
X108458000Y-108458000D03*
X108458000Y-110998000D03*
X108458000Y-113538000D03*
X108458000Y-116078000D03*
X108458000Y-123698000D03*
X108458000Y-121158000D03*
X108458000Y-118618000D03*
X110998000Y-118618000D03*
X110998000Y-121158000D03*
X110998000Y-123698000D03*
X110998000Y-116078000D03*
X110998000Y-113538000D03*
X110998000Y-110998000D03*
X110998000Y-108458000D03*
X110998000Y-103378000D03*
X110998000Y-100838000D03*
X110998000Y-105918000D03*
X110998000Y-98298000D03*
X105918000Y-98298000D03*
X105918000Y-105918000D03*
X105918000Y-100838000D03*
X105918000Y-103378000D03*
X105918000Y-108458000D03*
X105918000Y-110998000D03*
X105918000Y-113538000D03*
X105918000Y-116078000D03*
X105918000Y-123698000D03*
X105918000Y-121158000D03*
X105918000Y-118618000D03*
X103378000Y-118618000D03*
X103378000Y-121158000D03*
X103378000Y-123698000D03*
X103378000Y-116078000D03*
X103378000Y-113538000D03*
X103378000Y-110998000D03*
X103378000Y-108458000D03*
X103378000Y-103378000D03*
X103378000Y-100838000D03*
X103378000Y-105918000D03*
X103378000Y-98298000D03*
X116078000Y-98298000D03*
X116078000Y-105918000D03*
X116078000Y-100838000D03*
X116078000Y-103378000D03*
X116078000Y-108458000D03*
X116078000Y-110998000D03*
X116078000Y-113538000D03*
X116078000Y-116078000D03*
X116078000Y-123698000D03*
X116078000Y-121158000D03*
X116078000Y-118618000D03*
X113538000Y-118618000D03*
X113538000Y-121158000D03*
X113538000Y-123698000D03*
X113538000Y-116078000D03*
X113538000Y-113538000D03*
X113538000Y-110998000D03*
X113538000Y-108458000D03*
X113538000Y-103378000D03*
X113538000Y-100838000D03*
X113538000Y-105918000D03*
X113538000Y-98298000D03*
X88138000Y-98298000D03*
X88138000Y-105918000D03*
X88138000Y-100838000D03*
X88138000Y-103378000D03*
X88138000Y-108458000D03*
X88138000Y-110998000D03*
X88138000Y-113538000D03*
X88138000Y-116078000D03*
X88138000Y-123698000D03*
X88138000Y-121158000D03*
X88138000Y-118618000D03*
X90678000Y-118618000D03*
X90678000Y-121158000D03*
X90678000Y-123698000D03*
X90678000Y-116078000D03*
X90678000Y-113538000D03*
X90678000Y-110998000D03*
X90678000Y-108458000D03*
X90678000Y-103378000D03*
X90678000Y-100838000D03*
X90678000Y-105918000D03*
X90678000Y-98298000D03*
X77978000Y-98298000D03*
X77978000Y-105918000D03*
X77978000Y-100838000D03*
X77978000Y-103378000D03*
X77978000Y-108458000D03*
X77978000Y-110998000D03*
X77978000Y-113538000D03*
X77978000Y-116078000D03*
X77978000Y-123698000D03*
X77978000Y-121158000D03*
X77978000Y-118618000D03*
X80518000Y-118618000D03*
X80518000Y-121158000D03*
X80518000Y-123698000D03*
X80518000Y-116078000D03*
X80518000Y-113538000D03*
X80518000Y-110998000D03*
X80518000Y-108458000D03*
X80518000Y-103378000D03*
X80518000Y-100838000D03*
X80518000Y-105918000D03*
X80518000Y-98298000D03*
X85598000Y-98298000D03*
X85598000Y-105918000D03*
X85598000Y-100838000D03*
X85598000Y-103378000D03*
X85598000Y-108458000D03*
X85598000Y-110998000D03*
X85598000Y-113538000D03*
X85598000Y-116078000D03*
X85598000Y-123698000D03*
X85598000Y-121158000D03*
X85598000Y-118618000D03*
X83058000Y-118618000D03*
X83058000Y-121158000D03*
X83058000Y-123698000D03*
X83058000Y-116078000D03*
X83058000Y-113538000D03*
X83058000Y-110998000D03*
X83058000Y-108458000D03*
X83058000Y-103378000D03*
X83058000Y-100838000D03*
X83058000Y-105918000D03*
X83058000Y-98298000D03*
X72898000Y-105918000D03*
X72898000Y-100838000D03*
X72898000Y-103378000D03*
X72898000Y-108458000D03*
X72898000Y-110998000D03*
X72898000Y-113538000D03*
X72898000Y-116078000D03*
X72898000Y-123698000D03*
X72898000Y-121158000D03*
X72898000Y-118618000D03*
X75438000Y-118618000D03*
X75438000Y-121158000D03*
X75438000Y-123698000D03*
X75438000Y-116078000D03*
X75438000Y-113538000D03*
X75438000Y-110998000D03*
X75438000Y-108458000D03*
X75438000Y-103378000D03*
X75438000Y-100838000D03*
X75438000Y-105918000D03*
X75438000Y-98298000D03*
X70358000Y-105918000D03*
X70358000Y-103378000D03*
X70358000Y-108458000D03*
X70358000Y-110998000D03*
X70358000Y-113538000D03*
X70358000Y-116078000D03*
X70358000Y-123698000D03*
X70358000Y-121158000D03*
X70358000Y-118618000D03*
X67818000Y-118618000D03*
X67818000Y-121158000D03*
X67818000Y-123698000D03*
X67818000Y-116078000D03*
X67818000Y-113538000D03*
X67818000Y-110998000D03*
X67818000Y-108458000D03*
D13*
X146050000Y-120650000D03*
X31750000Y-120650000D03*
X44450000Y-31750000D03*
X146050000Y-31750000D03*
D14*
X83058000Y-60960000D03*
X83058000Y-61760000D03*
X83058000Y-62560000D03*
X83058000Y-63360000D03*
X83058000Y-64160000D03*
X83058000Y-64960000D03*
X83058000Y-65760000D03*
X83058000Y-66560000D03*
X83058000Y-67360000D03*
X83058000Y-68160000D03*
X83058000Y-68960000D03*
X83058000Y-69760000D03*
X83058000Y-70560000D03*
X83058000Y-71360000D03*
X83058000Y-72160000D03*
X83058000Y-72960000D03*
D15*
X85358000Y-75260000D03*
X86158000Y-75260000D03*
X86958000Y-75260000D03*
X87758000Y-75260000D03*
X88558000Y-75260000D03*
X89358000Y-75260000D03*
X90158000Y-75260000D03*
X90958000Y-75260000D03*
X91758000Y-75260000D03*
X92558000Y-75260000D03*
X93358000Y-75260000D03*
X94158000Y-75260000D03*
X94958000Y-75260000D03*
X95758000Y-75260000D03*
X96558000Y-75260000D03*
X97358000Y-75260000D03*
D14*
X99658000Y-72960000D03*
X99658000Y-72160000D03*
X99658000Y-71360000D03*
X99658000Y-70560000D03*
X99658000Y-69760000D03*
X99658000Y-68960000D03*
X99658000Y-68160000D03*
X99658000Y-67360000D03*
X99658000Y-66560000D03*
X99658000Y-65760000D03*
X99658000Y-64960000D03*
X99658000Y-64160000D03*
X99658000Y-63360000D03*
X99658000Y-62560000D03*
X99658000Y-61760000D03*
X99658000Y-60960000D03*
D15*
X97358000Y-58660000D03*
X96558000Y-58660000D03*
X95758000Y-58660000D03*
X94958000Y-58660000D03*
X94158000Y-58660000D03*
X93358000Y-58660000D03*
X92558000Y-58660000D03*
X91758000Y-58660000D03*
X90958000Y-58660000D03*
X90158000Y-58660000D03*
X89358000Y-58660000D03*
X88558000Y-58660000D03*
X87758000Y-58660000D03*
X86958000Y-58660000D03*
X86158000Y-58660000D03*
X85358000Y-58660000D03*
D16*
X106299000Y-43942000D03*
D17*
X106299000Y-46482000D03*
X103759000Y-43942000D03*
X103799000Y-46442000D03*
X101299000Y-43942000D03*
X101299000Y-46442000D03*
X98679000Y-43942000D03*
X98679000Y-46482000D03*
X96139000Y-43942000D03*
X96139000Y-46482000D03*
X93599000Y-43942000D03*
X93599000Y-46482000D03*
X91059000Y-43942000D03*
X91059000Y-46482000D03*
X88519000Y-43942000D03*
X88519000Y-46482000D03*
X85979000Y-43942000D03*
X85979000Y-46482000D03*
X83439000Y-43942000D03*
X83439000Y-46482000D03*
X80899000Y-43942000D03*
X80899000Y-46482000D03*
X78359000Y-43942000D03*
X75819000Y-43942000D03*
X75819000Y-46482000D03*
X73279000Y-43942000D03*
X73279000Y-46482000D03*
X68199000Y-43942000D03*
X65659000Y-43942000D03*
X63119000Y-43942000D03*
X63119000Y-46482000D03*
D18*
X53340000Y-76581000D03*
X53340000Y-74081000D03*
X55245000Y-83693000D03*
X55245000Y-81193000D03*
X53848000Y-47117000D03*
X53848000Y-49617000D03*
X58039000Y-82677000D03*
X58039000Y-85177000D03*
X51943000Y-36195000D03*
X54443000Y-36195000D03*
X60706000Y-85217000D03*
X60706000Y-82717000D03*
X51181000Y-47117000D03*
X51181000Y-49617000D03*
X51943000Y-39497000D03*
X54443000Y-39497000D03*
X69977000Y-76835000D03*
X69977000Y-74335000D03*
X54737000Y-67310000D03*
X57237000Y-67310000D03*
X59436000Y-67310000D03*
X61936000Y-67310000D03*
X80391000Y-59563000D03*
X77891000Y-59563000D03*
X79883000Y-62484000D03*
X77383000Y-62484000D03*
X92202000Y-50927000D03*
X89702000Y-50927000D03*
X92202000Y-55499000D03*
X90434233Y-53731233D03*
X95758000Y-78994000D03*
X93258000Y-78994000D03*
X95758000Y-83820000D03*
X93258000Y-83820000D03*
X107061000Y-61976000D03*
X107061000Y-64476000D03*
X104521000Y-61976000D03*
X104521000Y-64476000D03*
X37968845Y-56596326D03*
X37968845Y-59096326D03*
X37714847Y-50500323D03*
X37714847Y-53000323D03*
X42273175Y-107501346D03*
X44773175Y-107501346D03*
X48260000Y-107569000D03*
X50760000Y-107569000D03*
X87503000Y-86995000D03*
X90003000Y-86995000D03*
X92964000Y-86995000D03*
X95464000Y-86995000D03*
D19*
X35687000Y-104902000D03*
X29687000Y-104902000D03*
X32687000Y-109602000D03*
D20*
X57277000Y-59055000D03*
D21*
X59817000Y-59055000D03*
D22*
X47244000Y-66421000D03*
D23*
X47244000Y-68961000D03*
X47244000Y-71501000D03*
D24*
X36068000Y-81915000D03*
D25*
X39243000Y-85090000D03*
D24*
X42418000Y-81915000D03*
X36068000Y-88265000D03*
X42418000Y-88265000D03*
X36068000Y-65786000D03*
D25*
X39243000Y-68961000D03*
D24*
X42418000Y-65786000D03*
X36068000Y-72136000D03*
X42418000Y-72136000D03*
X33020000Y-36322000D03*
D25*
X36195000Y-39497000D03*
D24*
X39370000Y-36322000D03*
X33020000Y-42672000D03*
X39370000Y-42672000D03*
X140843000Y-54737000D03*
D25*
X144018000Y-57912000D03*
D24*
X147193000Y-54737000D03*
X140843000Y-61087000D03*
X147193000Y-61087000D03*
D26*
X36195000Y-31877000D03*
D27*
X31115000Y-31877000D03*
D26*
X36068000Y-93599000D03*
D27*
X41148000Y-93599000D03*
D26*
X31877000Y-74041000D03*
D27*
X31877000Y-68961000D03*
D26*
X49276000Y-86106000D03*
D27*
X49276000Y-81026000D03*
D26*
X50165000Y-68961000D03*
D27*
X50165000Y-74041000D03*
D26*
X51054000Y-64135000D03*
D27*
X56134000Y-64135000D03*
D26*
X128397000Y-65532000D03*
D27*
X133477000Y-65532000D03*
D28*
X44528000Y-49825000D03*
X44528000Y-50475000D03*
X44528000Y-51125000D03*
X44528000Y-51775000D03*
X47928000Y-51775000D03*
X47928000Y-51125000D03*
X47928000Y-50475000D03*
X47928000Y-49825000D03*
D29*
X44290000Y-39497000D03*
X44290000Y-40767000D03*
X44290000Y-42037000D03*
X44290000Y-43307000D03*
X49690000Y-43307000D03*
X49690000Y-42037000D03*
X49690000Y-40767000D03*
X49690000Y-39497000D03*
D12*
X117094000Y-76200000D03*
X117094000Y-78740000D03*
X117094000Y-81280000D03*
X117094000Y-83820000D03*
X117094000Y-86360000D03*
X118618000Y-45339000D03*
X118618000Y-47879000D03*
X118618000Y-50419000D03*
X118618000Y-52959000D03*
X118618000Y-55499000D03*
X116967000Y-61976000D03*
X116967000Y-59436000D03*
X116967000Y-56896000D03*
X116967000Y-54356000D03*
X116967000Y-51816000D03*
X117094000Y-63881000D03*
X117094000Y-66421000D03*
X117094000Y-68961000D03*
X117094000Y-71501000D03*
X117094000Y-74041000D03*
D30*
X33142848Y-53421324D03*
X33142848Y-50881324D03*
X33142848Y-55961324D03*
D31*
X46736000Y-103505000D03*
X49276000Y-103505000D03*
X44196000Y-103505000D03*
X91567000Y-91821000D03*
X94107000Y-91821000D03*
X89027000Y-91821000D03*
D26*
X124206000Y-51562000D03*
D32*
X120613898Y-55154102D02*
X120613898Y-55154102D01*
D33*
X29718000Y-114046000D03*
X54483000Y-107569000D03*
X94234000Y-94869000D03*
X136271000Y-62230000D03*
X49657000Y-37338000D03*
D22*
X57912000Y-97282000D03*
D23*
X57912000Y-94742000D03*
D22*
X62484000Y-60198000D03*
D23*
X62484000Y-62738000D03*
D33*
X70104000Y-62992000D03*
D34*
X61722000Y-73660000D03*
X62738000Y-77470000D03*
X49657000Y-50419000D03*
X89408000Y-60452000D03*
X98171000Y-62611000D03*
X101600000Y-73406000D03*
X101727000Y-68199000D03*
X44577000Y-52705000D03*
X48260000Y-47752000D03*
X45720000Y-47752000D03*
X127762000Y-62357000D03*
X106045000Y-38862000D03*
X104140000Y-38862000D03*
X104140000Y-37846000D03*
X106045000Y-37846000D03*
X128524000Y-62992000D03*
X124333000Y-61722000D03*
X123698000Y-61087000D03*
X123190000Y-60452000D03*
X122682000Y-59817000D03*
X122174000Y-59182000D03*
X121920000Y-58420000D03*
X122555000Y-57785000D03*
X123317000Y-57023000D03*
X124079000Y-56261000D03*
D35*
X49276000Y-81026000D02*
X49276000Y-80645000D01*
X49276000Y-80645000D02*
X53340000Y-76581000D01*
X56379400Y-79114200D02*
X55873200Y-79114200D01*
X55873200Y-79114200D02*
X53340000Y-76581000D01*
X53340000Y-74081000D02*
X53380000Y-74081000D01*
X53380000Y-74081000D02*
X57029400Y-77730400D01*
X57029400Y-77730400D02*
X57029400Y-79114200D01*
X50165000Y-74041000D02*
X53300000Y-74041000D01*
X53300000Y-74041000D02*
X53340000Y-74081000D01*
D36*
X61595000Y-71907400D02*
X61595000Y-73533000D01*
X61595000Y-73533000D02*
X61722000Y-73660000D01*
X62229400Y-79114200D02*
X62229400Y-77978600D01*
X62229400Y-77978600D02*
X62738000Y-77470000D01*
D35*
X62229400Y-79114200D02*
X62879400Y-79114200D01*
X49601000Y-50475000D02*
X49657000Y-50419000D01*
X47928000Y-50475000D02*
X49601000Y-50475000D01*
D37*
X89358000Y-58660000D02*
X89358000Y-60402000D01*
X89358000Y-60402000D02*
X89408000Y-60452000D01*
X90434233Y-53731233D02*
X90434233Y-51659233D01*
X90434233Y-51659233D02*
X89702000Y-50927000D01*
D35*
X99658000Y-62560000D02*
X98222000Y-62560000D01*
X98222000Y-62560000D02*
X98171000Y-62611000D01*
X90958000Y-75260000D02*
X90158000Y-75260000D01*
X90158000Y-75260000D02*
X89358000Y-75260000D01*
X89358000Y-75260000D02*
X88558000Y-75260000D01*
X88558000Y-75260000D02*
X87758000Y-75260000D01*
X99658000Y-72960000D02*
X101154000Y-72960000D01*
X101154000Y-72960000D02*
X101600000Y-73406000D01*
X99658000Y-68160000D02*
X101688000Y-68160000D01*
X101688000Y-68160000D02*
X101727000Y-68199000D01*
X78765000Y-64160000D02*
X77749000Y-64160000D01*
X83058000Y-64160000D02*
X78765000Y-64160000D01*
X77383000Y-63794000D02*
X77383000Y-62484000D01*
X77749000Y-64160000D02*
X77383000Y-63794000D01*
D38*
X90003000Y-86995000D02*
X90003000Y-82463000D01*
X90958000Y-81508000D02*
X90958000Y-75260000D01*
X90003000Y-82463000D02*
X90958000Y-81508000D01*
D35*
X93258000Y-78994000D02*
X93258000Y-75360000D01*
X93258000Y-75360000D02*
X93358000Y-75260000D01*
X44528000Y-51775000D02*
X44528000Y-52656000D01*
X44528000Y-52656000D02*
X44577000Y-52705000D01*
D39*
X48369177Y-107501347D02*
X44773176Y-107501347D01*
X44773176Y-107501347D02*
X44773175Y-107501346D01*
X48369177Y-107501347D02*
X48369177Y-105138177D01*
X48369177Y-105138177D02*
X46736000Y-103505000D01*
D35*
X49690000Y-42037000D02*
X51903000Y-42037000D01*
X51903000Y-42037000D02*
X54443000Y-39497000D01*
X93218000Y-79375000D02*
X93218000Y-79248000D01*
D39*
X93218000Y-84201000D02*
X93218000Y-79375000D01*
X91567000Y-92202000D02*
X91567000Y-88733000D01*
X91567000Y-88733000D02*
X93218000Y-87082000D01*
X93218000Y-87082000D02*
X93218000Y-84201000D01*
X90424000Y-87376000D02*
X90424000Y-90805000D01*
D35*
X47244000Y-71501000D02*
X52451000Y-71501000D01*
X57679400Y-76729400D02*
X57679400Y-79114200D01*
X52451000Y-71501000D02*
X57679400Y-76729400D01*
X56134000Y-80391000D02*
X57573800Y-80391000D01*
X57679400Y-79114200D02*
X57679400Y-80285400D01*
X56134000Y-80391000D02*
X55332000Y-81193000D01*
X57573800Y-80391000D02*
X57679400Y-80285400D01*
X55245000Y-81193000D02*
X55332000Y-81193000D01*
X55245000Y-81193000D02*
X55459000Y-81193000D01*
D36*
X70104000Y-62992000D02*
X70104000Y-61087000D01*
X70104000Y-61087000D02*
X70104000Y-61214000D01*
X70104000Y-61214000D02*
X70104000Y-61087000D01*
X120613898Y-55154102D02*
X124206000Y-51562000D01*
X94742000Y-62738000D02*
X96266000Y-62738000D01*
X96266000Y-62738000D02*
X99822000Y-59182000D01*
X99822000Y-59182000D02*
X100330000Y-59182000D01*
X100330000Y-59182000D02*
X116332000Y-43180000D01*
X116332000Y-43180000D02*
X120650000Y-43180000D01*
X120650000Y-43180000D02*
X124206000Y-46736000D01*
X124206000Y-46736000D02*
X124206000Y-51562000D01*
D40*
X49690000Y-39497000D02*
X49690000Y-37371000D01*
X49690000Y-37371000D02*
X49657000Y-37338000D01*
D35*
X49690000Y-40767000D02*
X48895000Y-40767000D01*
X46949000Y-42713000D02*
X46949000Y-49825000D01*
X48895000Y-40767000D02*
X46949000Y-42713000D01*
X51181000Y-49617000D02*
X53848000Y-49617000D01*
X47928000Y-49825000D02*
X48981000Y-49825000D01*
X49189000Y-49617000D02*
X51181000Y-49617000D01*
X48981000Y-49825000D02*
X49189000Y-49617000D01*
X46949000Y-49825000D02*
X46228000Y-50546000D01*
X46228000Y-55245000D02*
X54610000Y-63627000D01*
X54610000Y-63627000D02*
X54610000Y-64683000D01*
X54610000Y-64683000D02*
X57237000Y-67310000D01*
X46228000Y-50546000D02*
X46228000Y-55245000D01*
D37*
X92202000Y-55499000D02*
X92202000Y-50927000D01*
X92558000Y-58660000D02*
X92558000Y-55855000D01*
X92558000Y-55855000D02*
X92202000Y-55499000D01*
D38*
X94234000Y-94869000D02*
X94234000Y-91948000D01*
X94234000Y-91948000D02*
X94107000Y-91821000D01*
D35*
X94107000Y-91821000D02*
X111633000Y-91821000D01*
X111633000Y-91821000D02*
X117094000Y-86360000D01*
X117094000Y-74041000D02*
X102235000Y-74041000D01*
X97663000Y-73406000D02*
X95758000Y-73406000D01*
X98552000Y-74295000D02*
X97663000Y-73406000D01*
X101981000Y-74295000D02*
X98552000Y-74295000D01*
X102235000Y-74041000D02*
X101981000Y-74295000D01*
X116967000Y-51816000D02*
X123952000Y-51816000D01*
X123952000Y-51816000D02*
X124206000Y-51562000D01*
X118618000Y-55499000D02*
X120269000Y-55499000D01*
X120269000Y-55499000D02*
X120613898Y-55154102D01*
X83058000Y-63360000D02*
X89752000Y-63360000D01*
X89752000Y-63360000D02*
X90552000Y-62560000D01*
X83058000Y-62560000D02*
X90552000Y-62560000D01*
X90552000Y-62560000D02*
X92558000Y-60554000D01*
X97473000Y-64960000D02*
X96964000Y-64960000D01*
X96964000Y-64960000D02*
X94742000Y-62738000D01*
X94742000Y-62738000D02*
X92558000Y-60554000D01*
X92558000Y-60554000D02*
X92558000Y-58660000D01*
X95758000Y-75260000D02*
X95758000Y-73406000D01*
X95758000Y-73406000D02*
X95758000Y-66675000D01*
X97473000Y-64960000D02*
X99658000Y-64960000D01*
X95758000Y-66675000D02*
X97473000Y-64960000D01*
X104521000Y-64476000D02*
X107061000Y-64476000D01*
X99658000Y-64960000D02*
X104037000Y-64960000D01*
X104037000Y-64960000D02*
X104521000Y-64476000D01*
X79883000Y-62484000D02*
X79883000Y-61849000D01*
X79883000Y-61849000D02*
X78994000Y-60960000D01*
X78994000Y-60960000D02*
X80391000Y-59563000D01*
X95758000Y-78994000D02*
X95758000Y-75260000D01*
X95758000Y-83820000D02*
X95758000Y-78994000D01*
D39*
X95464000Y-86995000D02*
X95464000Y-84114000D01*
X95464000Y-84114000D02*
X95758000Y-83820000D01*
X94107000Y-91821000D02*
X94107000Y-88352000D01*
X94107000Y-88352000D02*
X95464000Y-86995000D01*
D35*
X83058000Y-62560000D02*
X83058000Y-63360000D01*
X80391000Y-62484000D02*
X82982000Y-62484000D01*
X82982000Y-62484000D02*
X83058000Y-62560000D01*
X47928000Y-49825000D02*
X46949000Y-49825000D01*
X78994000Y-61087000D02*
X78994000Y-60960000D01*
X78994000Y-60960000D02*
X78994000Y-60960000D01*
X57237000Y-67310000D02*
X57237000Y-66461000D01*
X57237000Y-66461000D02*
X58674000Y-65024000D01*
X58674000Y-65024000D02*
X63881000Y-65024000D01*
X63881000Y-65024000D02*
X67818000Y-61087000D01*
X67818000Y-61087000D02*
X70104000Y-61087000D01*
X70104000Y-61087000D02*
X78994000Y-61087000D01*
X58329400Y-71914200D02*
X58329400Y-68402400D01*
X58329400Y-68402400D02*
X57237000Y-67310000D01*
X67429400Y-71914200D02*
X67556200Y-71914200D01*
X67556200Y-71914200D02*
X69977000Y-74335000D01*
X58979400Y-71914200D02*
X58329400Y-71914200D01*
X49690000Y-39497000D02*
X51943000Y-39497000D01*
X51943000Y-39497000D02*
X51943000Y-36195000D01*
X49690000Y-40767000D02*
X49690000Y-39497000D01*
X58928000Y-80645000D02*
X58928000Y-80899000D01*
X58928000Y-79165600D02*
X58928000Y-80645000D01*
X58039000Y-81788000D02*
X58039000Y-82677000D01*
X58928000Y-80899000D02*
X58039000Y-81788000D01*
X58928000Y-79165600D02*
X58979400Y-79114200D01*
D38*
X54483000Y-107569000D02*
X50760000Y-107569000D01*
D39*
X49276000Y-103505000D02*
X60960000Y-103505000D01*
X61976000Y-102489000D02*
X62992000Y-101473000D01*
X62992000Y-101473000D02*
X62992000Y-85003000D01*
X62992000Y-85003000D02*
X60706000Y-82717000D01*
X60960000Y-103505000D02*
X61976000Y-102489000D01*
X50869177Y-107501347D02*
X50869177Y-105098177D01*
X50869177Y-105098177D02*
X49276000Y-103505000D01*
D35*
X60929400Y-79114200D02*
X61579400Y-79114200D01*
X60452000Y-82082000D02*
X60452000Y-82042000D01*
X60452000Y-82042000D02*
X60929400Y-81564600D01*
X60929400Y-81564600D02*
X60929400Y-79114200D01*
D39*
X29718000Y-114046000D02*
X29718000Y-104933000D01*
X29718000Y-104933000D02*
X29687000Y-104902000D01*
D35*
X52324000Y-69977000D02*
X51689000Y-69342000D01*
X60929400Y-71914200D02*
X60929400Y-73055600D01*
X56388000Y-74041000D02*
X52324000Y-69977000D01*
X59944000Y-74041000D02*
X56388000Y-74041000D01*
X60929400Y-73055600D02*
X59944000Y-74041000D01*
X51689000Y-69342000D02*
X51689000Y-67691000D01*
X37968845Y-56596326D02*
X43388326Y-56596326D01*
X51689000Y-67691000D02*
X43388326Y-59390326D01*
X43388326Y-59390326D02*
X43388326Y-56596326D01*
X60279400Y-71914200D02*
X60929400Y-71914200D01*
X60929400Y-71914200D02*
X60929400Y-68316600D01*
X60929400Y-68316600D02*
X61936000Y-67310000D01*
D39*
X29687000Y-56896000D02*
X29591000Y-56896000D01*
X26670000Y-101885000D02*
X29687000Y-104902000D01*
X26670000Y-59817000D02*
X26670000Y-101885000D01*
X29591000Y-56896000D02*
X26670000Y-59817000D01*
X29687000Y-56896000D02*
X29687000Y-56877172D01*
X37714847Y-53000323D02*
X37714847Y-56342328D01*
X37714847Y-56342328D02*
X37968845Y-56596326D01*
X33142848Y-53421324D02*
X37293846Y-53421324D01*
X37293846Y-53421324D02*
X37714847Y-53000323D01*
D35*
X37293846Y-53421324D02*
X37714847Y-53000323D01*
X37968845Y-56596326D02*
X37968845Y-53254321D01*
X37968845Y-53254321D02*
X37714847Y-53000323D01*
D39*
X29687000Y-56877172D02*
X33142848Y-53421324D01*
X42273175Y-107501346D02*
X42273175Y-108948175D01*
X70739000Y-91821000D02*
X89027000Y-91821000D01*
X67945000Y-94615000D02*
X70739000Y-91821000D01*
X67945000Y-98425000D02*
X67945000Y-94615000D01*
X56388000Y-109982000D02*
X67945000Y-98425000D01*
X43307000Y-109982000D02*
X56388000Y-109982000D01*
X42273175Y-108948175D02*
X43307000Y-109982000D01*
X87463000Y-87376000D02*
X87463000Y-90638000D01*
X87463000Y-90638000D02*
X89027000Y-92202000D01*
X90424000Y-90805000D02*
X89027000Y-92202000D01*
X33142848Y-55961324D02*
X33065676Y-55961324D01*
X33065676Y-55961324D02*
X28829000Y-60198000D01*
X28829000Y-98044000D02*
X35687000Y-104902000D01*
X28829000Y-60198000D02*
X28829000Y-98044000D01*
D35*
X33142848Y-55961324D02*
X34833843Y-55961324D01*
X34833843Y-55961324D02*
X37968845Y-59096326D01*
D39*
X35687000Y-104902000D02*
X41747350Y-104902000D01*
X41747350Y-104902000D02*
X42273175Y-105427825D01*
X42273175Y-107501346D02*
X42273175Y-105427825D01*
X42273175Y-105427825D02*
X44196000Y-103505000D01*
D35*
X56134000Y-64135000D02*
X59182000Y-64135000D01*
X59817000Y-63500000D02*
X59817000Y-59055000D01*
X59182000Y-64135000D02*
X59817000Y-63500000D01*
X39243000Y-68961000D02*
X31877000Y-68961000D01*
X50165000Y-68961000D02*
X47371000Y-68961000D01*
X47371000Y-68961000D02*
X39243000Y-68961000D01*
X39497000Y-69215000D02*
X39243000Y-68961000D01*
X39243000Y-85090000D02*
X45212000Y-85090000D01*
X46228000Y-86106000D02*
X49276000Y-86106000D01*
X45212000Y-85090000D02*
X46228000Y-86106000D01*
X39243000Y-85090000D02*
X39243000Y-91694000D01*
X39243000Y-91694000D02*
X41148000Y-93599000D01*
X52451000Y-66675000D02*
X52451000Y-65532000D01*
X55531200Y-71914200D02*
X52451000Y-68834000D01*
X52451000Y-68834000D02*
X52451000Y-66675000D01*
X56379400Y-71914200D02*
X55531200Y-71914200D01*
X52451000Y-65532000D02*
X51054000Y-64135000D01*
X126365000Y-32004000D02*
X135382000Y-32004000D01*
X44290000Y-40767000D02*
X46228000Y-40767000D01*
X46228000Y-40767000D02*
X47117000Y-39878000D01*
X47117000Y-39878000D02*
X47117000Y-35814000D01*
X50927000Y-32004000D02*
X126365000Y-32004000D01*
X47117000Y-35814000D02*
X50927000Y-32004000D01*
X148971000Y-65532000D02*
X133477000Y-65532000D01*
X151003000Y-63500000D02*
X148971000Y-65532000D01*
X151003000Y-47625000D02*
X151003000Y-63500000D01*
X135382000Y-32004000D02*
X151003000Y-47625000D01*
X42418000Y-49149000D02*
X42418000Y-43942000D01*
X43094000Y-49825000D02*
X43053000Y-49784000D01*
X42418000Y-49149000D02*
X43053000Y-49784000D01*
X44528000Y-49825000D02*
X43094000Y-49825000D01*
X43053000Y-43307000D02*
X44290000Y-43307000D01*
X42418000Y-43942000D02*
X43053000Y-43307000D01*
X48260000Y-47752000D02*
X48260000Y-46609000D01*
D36*
X48260000Y-46609000D02*
X49657000Y-45212000D01*
X49657000Y-45212000D02*
X72009000Y-45212000D01*
X73279000Y-43942000D02*
X72009000Y-45212000D01*
D35*
X45537000Y-50475000D02*
X44528000Y-50475000D01*
X45649000Y-50475000D02*
X45537000Y-50475000D01*
X45720000Y-50546000D02*
X45649000Y-50475000D01*
X45720000Y-47752000D02*
X45720000Y-50546000D01*
X73279000Y-43942000D02*
X73279000Y-44069000D01*
X47928000Y-51775000D02*
X70907000Y-51775000D01*
X85358000Y-57672000D02*
X85358000Y-58660000D01*
X81915000Y-54229000D02*
X85358000Y-57672000D01*
X81915000Y-52705000D02*
X81915000Y-54229000D01*
X78359000Y-49149000D02*
X81915000Y-52705000D01*
X78359000Y-45847000D02*
X78359000Y-49149000D01*
X77089000Y-44577000D02*
X78359000Y-45847000D01*
X77089000Y-43307000D02*
X77089000Y-44577000D01*
X76327000Y-42545000D02*
X77089000Y-43307000D01*
X75438000Y-42545000D02*
X76327000Y-42545000D01*
X74549000Y-43434000D02*
X75438000Y-42545000D01*
X74549000Y-48133000D02*
X74549000Y-43434000D01*
X70907000Y-51775000D02*
X74549000Y-48133000D01*
D36*
X47928000Y-51125000D02*
X68636000Y-51125000D01*
X68636000Y-51125000D02*
X73279000Y-46482000D01*
D35*
X54737000Y-43307000D02*
X56134000Y-43307000D01*
X105029000Y-49149000D02*
X98425000Y-55753000D01*
X98425000Y-55753000D02*
X98425000Y-59436000D01*
X98425000Y-59436000D02*
X97790000Y-60071000D01*
X97790000Y-60071000D02*
X95250000Y-60071000D01*
X95250000Y-60071000D02*
X94958000Y-59779000D01*
X94958000Y-59779000D02*
X94958000Y-58660000D01*
X105029000Y-42164000D02*
X105029000Y-33274000D01*
X56642000Y-33274000D02*
X105029000Y-33274000D01*
X105029000Y-42164000D02*
X105029000Y-49149000D01*
X56642000Y-42799000D02*
X56642000Y-33274000D01*
X56134000Y-43307000D02*
X56642000Y-42799000D01*
X49690000Y-43307000D02*
X54737000Y-43307000D01*
X54737000Y-43307000D02*
X54991000Y-43307000D01*
X44290000Y-42037000D02*
X43434000Y-42037000D01*
X57029400Y-70618400D02*
X57029400Y-71914200D01*
X55626000Y-69215000D02*
X57029400Y-70618400D01*
X54102000Y-69215000D02*
X55626000Y-69215000D01*
X53086000Y-68199000D02*
X54102000Y-69215000D01*
X53086000Y-63500000D02*
X53086000Y-68199000D01*
X41656000Y-52070000D02*
X53086000Y-63500000D01*
X41656000Y-43815000D02*
X41656000Y-52070000D01*
X43434000Y-42037000D02*
X41656000Y-43815000D01*
X63529400Y-79114200D02*
X63529400Y-81563400D01*
X86958000Y-76745000D02*
X86958000Y-75260000D01*
X79756000Y-83947000D02*
X86958000Y-76745000D01*
X65913000Y-83947000D02*
X79756000Y-83947000D01*
X63529400Y-81563400D02*
X65913000Y-83947000D01*
X64179400Y-79114200D02*
X64179400Y-81324400D01*
X86158000Y-76656000D02*
X86158000Y-75260000D01*
X79502000Y-83312000D02*
X86158000Y-76656000D01*
X66167000Y-83312000D02*
X79502000Y-83312000D01*
X64179400Y-81324400D02*
X66167000Y-83312000D01*
X64829400Y-79114200D02*
X64829400Y-81085400D01*
X78068000Y-82550000D02*
X85358000Y-75260000D01*
X66294000Y-82550000D02*
X78068000Y-82550000D01*
X64829400Y-81085400D02*
X66294000Y-82550000D01*
X65479400Y-79114200D02*
X65479400Y-80973400D01*
X76265000Y-72960000D02*
X83058000Y-72960000D01*
X75819000Y-73406000D02*
X76265000Y-72960000D01*
X75819000Y-78232000D02*
X75819000Y-73406000D01*
X72263000Y-81788000D02*
X75819000Y-78232000D01*
X66294000Y-81788000D02*
X72263000Y-81788000D01*
X65479400Y-80973400D02*
X66294000Y-81788000D01*
X83058000Y-72160000D02*
X75541000Y-72160000D01*
X66129400Y-80734400D02*
X66129400Y-79114200D01*
X66548000Y-81153000D02*
X66129400Y-80734400D01*
X72009000Y-81153000D02*
X66548000Y-81153000D01*
X74930000Y-78232000D02*
X72009000Y-81153000D01*
X74930000Y-72771000D02*
X74930000Y-78232000D01*
X75541000Y-72160000D02*
X74930000Y-72771000D01*
X66779400Y-79114200D02*
X66779400Y-80368400D01*
X75452000Y-71360000D02*
X83058000Y-71360000D01*
X74295000Y-72517000D02*
X75452000Y-71360000D01*
X74295000Y-78105000D02*
X74295000Y-72517000D01*
X71882000Y-80518000D02*
X74295000Y-78105000D01*
X66929000Y-80518000D02*
X71882000Y-80518000D01*
X66779400Y-80368400D02*
X66929000Y-80518000D01*
X67429400Y-79114200D02*
X71507800Y-79114200D01*
X75109000Y-70560000D02*
X83058000Y-70560000D01*
X73406000Y-72263000D02*
X75109000Y-70560000D01*
X73406000Y-77216000D02*
X73406000Y-72263000D01*
X71507800Y-79114200D02*
X73406000Y-77216000D01*
X66779400Y-71914200D02*
X66779400Y-70507600D01*
X67527000Y-69760000D02*
X83058000Y-69760000D01*
X66779400Y-70507600D02*
X67527000Y-69760000D01*
X83058000Y-68960000D02*
X67565000Y-68960000D01*
X66129400Y-70395600D02*
X66129400Y-71914200D01*
X67565000Y-68960000D02*
X66129400Y-70395600D01*
X65479400Y-71914200D02*
X65479400Y-70283600D01*
X67603000Y-68160000D02*
X83058000Y-68160000D01*
X65479400Y-70283600D02*
X67603000Y-68160000D01*
X83058000Y-67360000D02*
X67387000Y-67360000D01*
X64829400Y-69917600D02*
X64829400Y-71914200D01*
X67387000Y-67360000D02*
X64829400Y-69917600D01*
X64179400Y-71914200D02*
X64179400Y-69678600D01*
X67298000Y-66560000D02*
X83058000Y-66560000D01*
X64179400Y-69678600D02*
X67298000Y-66560000D01*
X83058000Y-65760000D02*
X67336000Y-65760000D01*
X63529400Y-69566600D02*
X63529400Y-71914200D01*
X67336000Y-65760000D02*
X63529400Y-69566600D01*
X62879400Y-71914200D02*
X62879400Y-69454600D01*
X67374000Y-64960000D02*
X83058000Y-64960000D01*
X62879400Y-69454600D02*
X67374000Y-64960000D01*
X96558000Y-58660000D02*
X96558000Y-54699000D01*
X102552500Y-45148500D02*
X103759000Y-43942000D01*
X102552500Y-48704500D02*
X102552500Y-45148500D01*
X96558000Y-54699000D02*
X102552500Y-48704500D01*
X103759000Y-43942000D02*
X103759000Y-44323000D01*
X103799000Y-46442000D02*
X103799000Y-49236000D01*
X97358000Y-55677000D02*
X97358000Y-58660000D01*
X103799000Y-49236000D02*
X97358000Y-55677000D01*
X95758000Y-58660000D02*
X95758000Y-51689000D01*
X99949000Y-45292000D02*
X101299000Y-43942000D01*
X99949000Y-47498000D02*
X99949000Y-45292000D01*
X95758000Y-51689000D02*
X99949000Y-47498000D01*
X94158000Y-58660000D02*
X94158000Y-51003000D01*
X94158000Y-51003000D02*
X98679000Y-46482000D01*
X93358000Y-58660000D02*
X93358000Y-49263000D01*
X93358000Y-49263000D02*
X96139000Y-46482000D01*
D37*
X91758000Y-58660000D02*
X91758000Y-56960000D01*
X89789000Y-45212000D02*
X88519000Y-43942000D01*
X89789000Y-47625000D02*
X89789000Y-45212000D01*
X88392000Y-49022000D02*
X89789000Y-47625000D01*
X88392000Y-53594000D02*
X88392000Y-49022000D01*
X91758000Y-56960000D02*
X88392000Y-53594000D01*
D35*
X88519000Y-43942000D02*
X88519000Y-44069000D01*
D37*
X90958000Y-58660000D02*
X90958000Y-56796398D01*
X85979000Y-51817398D02*
X85979000Y-46482000D01*
X90958000Y-56796398D02*
X85979000Y-51817398D01*
X90158000Y-58660000D02*
X90158000Y-57519000D01*
X84709000Y-45212000D02*
X83439000Y-43942000D01*
X84709000Y-46990000D02*
X84709000Y-45212000D01*
X85217000Y-47498000D02*
X84709000Y-46990000D01*
X85217000Y-52578000D02*
X85217000Y-47498000D01*
X90158000Y-57519000D02*
X85217000Y-52578000D01*
D35*
X88558000Y-58660000D02*
X88558000Y-57192198D01*
X83439000Y-49784000D02*
X83439000Y-46482000D01*
X83439000Y-50340102D02*
X83439000Y-49784000D01*
X84455000Y-51356102D02*
X83439000Y-50340102D01*
X84455000Y-53089198D02*
X84455000Y-51356102D01*
X88558000Y-57192198D02*
X84455000Y-53089198D01*
X87758000Y-58660000D02*
X87758000Y-57151000D01*
X82169000Y-45212000D02*
X80899000Y-43942000D01*
X82169000Y-49784000D02*
X82169000Y-45212000D01*
X83947000Y-51562000D02*
X82169000Y-49784000D01*
X83947000Y-53340000D02*
X83947000Y-51562000D01*
X87758000Y-57151000D02*
X83947000Y-53340000D01*
X80899000Y-46482000D02*
X80899000Y-49530000D01*
X86958000Y-57367000D02*
X86958000Y-58660000D01*
X83312000Y-53721000D02*
X86958000Y-57367000D01*
X83312000Y-51943000D02*
X83312000Y-53721000D01*
X80899000Y-49530000D02*
X83312000Y-51943000D01*
X86158000Y-58660000D02*
X86158000Y-57456000D01*
X78867000Y-48641000D02*
X78867000Y-44450000D01*
X82550000Y-52324000D02*
X78867000Y-48641000D01*
X82550000Y-53848000D02*
X82550000Y-52324000D01*
X86158000Y-57456000D02*
X82550000Y-53848000D01*
X78867000Y-44450000D02*
X78359000Y-43942000D01*
X75819000Y-43942000D02*
X75819000Y-44196000D01*
X75819000Y-44196000D02*
X77597000Y-45974000D01*
X77597000Y-45974000D02*
X77597000Y-51435000D01*
X77597000Y-51435000D02*
X84328000Y-58166000D01*
X84328000Y-58166000D02*
X84328000Y-61722000D01*
X84328000Y-61722000D02*
X84290000Y-61760000D01*
X84290000Y-61760000D02*
X83058000Y-61760000D01*
X75819000Y-46482000D02*
X75819000Y-50419000D01*
X83058000Y-57658000D02*
X83058000Y-60960000D01*
X75819000Y-50419000D02*
X83058000Y-57658000D01*
X127762000Y-44958000D02*
X127762000Y-62357000D01*
X121666000Y-38862000D02*
X127762000Y-44958000D01*
X106045000Y-38862000D02*
X121666000Y-38862000D01*
X73279000Y-38862000D02*
X104140000Y-38862000D01*
X68199000Y-43942000D02*
X73279000Y-38862000D01*
X71628000Y-37973000D02*
X65659000Y-43942000D01*
X104013000Y-37973000D02*
X71628000Y-37973000D01*
X104140000Y-37846000D02*
X104013000Y-37973000D01*
X121793000Y-37846000D02*
X106045000Y-37846000D01*
X128651000Y-44704000D02*
X121793000Y-37846000D01*
X128651000Y-62865000D02*
X128651000Y-44704000D01*
X128524000Y-62992000D02*
X128651000Y-62865000D01*
X124333000Y-74295000D02*
X124333000Y-61722000D01*
X96558000Y-75260000D02*
X96558000Y-77000000D01*
X96558000Y-77000000D02*
X98298000Y-78740000D01*
X119888000Y-78740000D02*
X124333000Y-74295000D01*
X117094000Y-78740000D02*
X119888000Y-78740000D01*
X98298000Y-78740000D02*
X117094000Y-78740000D01*
X97358000Y-75387000D02*
X98171000Y-76200000D01*
X97358000Y-75260000D02*
X97358000Y-75387000D01*
X120396000Y-76200000D02*
X117094000Y-76200000D01*
X123444000Y-73152000D02*
X120396000Y-76200000D01*
X123444000Y-61341000D02*
X123444000Y-73152000D01*
X98171000Y-76200000D02*
X117094000Y-76200000D01*
X123698000Y-61087000D02*
X123444000Y-61341000D01*
X117094000Y-71501000D02*
X112649000Y-71501000D01*
X112649000Y-71501000D02*
X111990000Y-72160000D01*
X111990000Y-72160000D02*
X99658000Y-72160000D01*
X117094000Y-71501000D02*
X121285000Y-71501000D01*
X122682000Y-70104000D02*
X121285000Y-71501000D01*
X123190000Y-60452000D02*
X122682000Y-60960000D01*
X122682000Y-60960000D02*
X122682000Y-70104000D01*
X121793000Y-68961000D02*
X117094000Y-68961000D01*
X121920000Y-68834000D02*
X121793000Y-68961000D01*
X121920000Y-60579000D02*
X121920000Y-68834000D01*
X122682000Y-59817000D02*
X121920000Y-60579000D01*
X99658000Y-71360000D02*
X111774000Y-71360000D01*
X114173000Y-68961000D02*
X117094000Y-68961000D01*
X111774000Y-71360000D02*
X114173000Y-68961000D01*
X117094000Y-66421000D02*
X119888000Y-66421000D01*
X119888000Y-66421000D02*
X121285000Y-65024000D01*
X121285000Y-65024000D02*
X121285000Y-60071000D01*
X121285000Y-60071000D02*
X122174000Y-59182000D01*
X117094000Y-66421000D02*
X115062000Y-66421000D01*
X110923000Y-70560000D02*
X115062000Y-66421000D01*
X110923000Y-70560000D02*
X99658000Y-70560000D01*
X117094000Y-63881000D02*
X116332000Y-63881000D01*
X116332000Y-63881000D02*
X110453000Y-69760000D01*
X110453000Y-69760000D02*
X99658000Y-69760000D01*
X120396000Y-63881000D02*
X117094000Y-63881000D01*
X120650000Y-63627000D02*
X120396000Y-63881000D01*
X120650000Y-59690000D02*
X120650000Y-63627000D01*
X121920000Y-58420000D02*
X120650000Y-59690000D01*
X99658000Y-68960000D02*
X109983000Y-68960000D01*
X109983000Y-68960000D02*
X116967000Y-61976000D01*
X119253000Y-61976000D02*
X116967000Y-61976000D01*
X119888000Y-61341000D02*
X119253000Y-61976000D01*
X119888000Y-59436000D02*
X119888000Y-61341000D01*
X121666000Y-57658000D02*
X119888000Y-59436000D01*
X122428000Y-57658000D02*
X121666000Y-57658000D01*
X122555000Y-57785000D02*
X122428000Y-57658000D01*
X118999000Y-59436000D02*
X121412000Y-57023000D01*
X99658000Y-67360000D02*
X109043000Y-67360000D01*
X109043000Y-67360000D02*
X116967000Y-59436000D01*
X116967000Y-59436000D02*
X118999000Y-59436000D01*
X121412000Y-57023000D02*
X123317000Y-57023000D01*
X99658000Y-66560000D02*
X108573000Y-66560000D01*
X115316000Y-58547000D02*
X116967000Y-56896000D01*
X115316000Y-59817000D02*
X115316000Y-58547000D01*
X108573000Y-66560000D02*
X115316000Y-59817000D01*
X119507000Y-56896000D02*
X116967000Y-56896000D01*
X120142000Y-56261000D02*
X119507000Y-56896000D01*
X124079000Y-56261000D02*
X120142000Y-56261000D01*
X99658000Y-65760000D02*
X107468000Y-65760000D01*
X114046000Y-57277000D02*
X116967000Y-54356000D01*
X114046000Y-59182000D02*
X114046000Y-57277000D01*
X107468000Y-65760000D02*
X114046000Y-59182000D01*
X99658000Y-64160000D02*
X101448000Y-64160000D01*
X115951000Y-52959000D02*
X118618000Y-52959000D01*
X109601000Y-59309000D02*
X115951000Y-52959000D01*
X105156000Y-59309000D02*
X109601000Y-59309000D01*
X102997000Y-61468000D02*
X105156000Y-59309000D01*
X102997000Y-62611000D02*
X102997000Y-61468000D01*
X101448000Y-64160000D02*
X102997000Y-62611000D01*
X99658000Y-63360000D02*
X100978000Y-63360000D01*
X116205000Y-50419000D02*
X118618000Y-50419000D01*
X107950000Y-58674000D02*
X116205000Y-50419000D01*
X105029000Y-58674000D02*
X107950000Y-58674000D01*
X102489000Y-61214000D02*
X105029000Y-58674000D01*
X102489000Y-61849000D02*
X102489000Y-61214000D01*
X100978000Y-63360000D02*
X102489000Y-61849000D01*
X99658000Y-61760000D02*
X101054000Y-61760000D01*
X116078000Y-47879000D02*
X118618000Y-47879000D01*
X106680000Y-57277000D02*
X116078000Y-47879000D01*
X105537000Y-57277000D02*
X106680000Y-57277000D01*
X101054000Y-61760000D02*
X105537000Y-57277000D01*
X99658000Y-60960000D02*
X100330000Y-60960000D01*
X100330000Y-60960000D02*
X115951000Y-45339000D01*
X115951000Y-45339000D02*
X118618000Y-45339000D01*
X36195000Y-39497000D02*
X44290000Y-39497000D01*
X36195000Y-39497000D02*
X36195000Y-31877000D01*
X57679400Y-71914200D02*
X57679400Y-70252400D01*
X57679400Y-70252400D02*
X54737000Y-67310000D01*
X59629400Y-71914200D02*
X59629400Y-67503400D01*
X59629400Y-67503400D02*
X59436000Y-67310000D01*
X58039000Y-85177000D02*
X59476000Y-85177000D01*
X59476000Y-85177000D02*
X59436000Y-85217000D01*
X60706000Y-85217000D02*
X59436000Y-85217000D01*
X59436000Y-85217000D02*
X59309000Y-85217000D01*
X59629400Y-81848600D02*
X59309000Y-82169000D01*
X59309000Y-82169000D02*
X59309000Y-85217000D01*
X59629400Y-80657498D02*
X59629400Y-79114200D01*
X59629400Y-80657498D02*
X59629400Y-81848600D01*
X55245000Y-83693000D02*
X55245000Y-82931000D01*
X55245000Y-82931000D02*
X56769000Y-81407000D01*
X56769000Y-81407000D02*
X57531000Y-81407000D01*
X57531000Y-81407000D02*
X58329400Y-80608600D01*
X58329400Y-80608600D02*
X58329400Y-79114200D01*
X60279400Y-79114200D02*
X59629400Y-79114200D01*
M02*
