G04 #@! TF.GenerationSoftware,KiCad,Pcbnew,(5.1.2)-1*
G04 #@! TF.CreationDate,2019-07-02T11:51:33-07:00*
G04 #@! TF.ProjectId,FIFO_P,4649464f-5f50-42e6-9b69-6361645f7063,rev?*
G04 #@! TF.SameCoordinates,Original*
G04 #@! TF.FileFunction,Other,Comment*
%FSLAX46Y46*%
G04 Gerber Fmt 4.6, Leading zero omitted, Abs format (unit mm)*
G04 Created by KiCad (PCBNEW (5.1.2)-1) date 2019-07-02 11:51:33*
%MOMM*%
%LPD*%
G04 APERTURE LIST*
%ADD10C,0.150000*%
G04 APERTURE END LIST*
D10*
X162966547Y-72214285D02*
X162871309Y-72309523D01*
X162585595Y-72404761D01*
X162395119Y-72404761D01*
X162109404Y-72309523D01*
X161918928Y-72119047D01*
X161823690Y-71928571D01*
X161728452Y-71547619D01*
X161728452Y-71261904D01*
X161823690Y-70880952D01*
X161918928Y-70690476D01*
X162109404Y-70500000D01*
X162395119Y-70404761D01*
X162585595Y-70404761D01*
X162871309Y-70500000D01*
X162966547Y-70595238D01*
X164204642Y-70404761D02*
X164585595Y-70404761D01*
X164776071Y-70500000D01*
X164966547Y-70690476D01*
X165061785Y-71071428D01*
X165061785Y-71738095D01*
X164966547Y-72119047D01*
X164776071Y-72309523D01*
X164585595Y-72404761D01*
X164204642Y-72404761D01*
X164014166Y-72309523D01*
X163823690Y-72119047D01*
X163728452Y-71738095D01*
X163728452Y-71071428D01*
X163823690Y-70690476D01*
X164014166Y-70500000D01*
X164204642Y-70404761D01*
X165918928Y-72404761D02*
X165918928Y-70404761D01*
X166585595Y-71833333D01*
X167252261Y-70404761D01*
X167252261Y-72404761D01*
X168204642Y-72404761D02*
X168204642Y-70404761D01*
X168871309Y-71833333D01*
X169537976Y-70404761D01*
X169537976Y-72404761D01*
X170490357Y-71357142D02*
X171157023Y-71357142D01*
X171442738Y-72404761D02*
X170490357Y-72404761D01*
X170490357Y-70404761D01*
X171442738Y-70404761D01*
X172299880Y-72404761D02*
X172299880Y-70404761D01*
X173442738Y-72404761D01*
X173442738Y-70404761D01*
X174109404Y-70404761D02*
X175252261Y-70404761D01*
X174680833Y-72404761D02*
X174680833Y-70404761D01*
X175823690Y-72309523D02*
X176109404Y-72404761D01*
X176585595Y-72404761D01*
X176776071Y-72309523D01*
X176871309Y-72214285D01*
X176966547Y-72023809D01*
X176966547Y-71833333D01*
X176871309Y-71642857D01*
X176776071Y-71547619D01*
X176585595Y-71452380D01*
X176204642Y-71357142D01*
X176014166Y-71261904D01*
X175918928Y-71166666D01*
X175823690Y-70976190D01*
X175823690Y-70785714D01*
X175918928Y-70595238D01*
X176014166Y-70500000D01*
X176204642Y-70404761D01*
X176680833Y-70404761D01*
X176966547Y-70500000D01*
X162776071Y-78704761D02*
X161823690Y-78704761D01*
X161823690Y-76704761D01*
X164299880Y-78704761D02*
X164299880Y-77657142D01*
X164204642Y-77466666D01*
X164014166Y-77371428D01*
X163633214Y-77371428D01*
X163442738Y-77466666D01*
X164299880Y-78609523D02*
X164109404Y-78704761D01*
X163633214Y-78704761D01*
X163442738Y-78609523D01*
X163347500Y-78419047D01*
X163347500Y-78228571D01*
X163442738Y-78038095D01*
X163633214Y-77942857D01*
X164109404Y-77942857D01*
X164299880Y-77847619D01*
X165061785Y-77371428D02*
X165537976Y-78704761D01*
X166014166Y-77371428D02*
X165537976Y-78704761D01*
X165347500Y-79180952D01*
X165252261Y-79276190D01*
X165061785Y-79371428D01*
X167537976Y-78609523D02*
X167347500Y-78704761D01*
X166966547Y-78704761D01*
X166776071Y-78609523D01*
X166680833Y-78419047D01*
X166680833Y-77657142D01*
X166776071Y-77466666D01*
X166966547Y-77371428D01*
X167347500Y-77371428D01*
X167537976Y-77466666D01*
X167633214Y-77657142D01*
X167633214Y-77847619D01*
X166680833Y-78038095D01*
X168490357Y-78704761D02*
X168490357Y-77371428D01*
X168490357Y-77752380D02*
X168585595Y-77561904D01*
X168680833Y-77466666D01*
X168871309Y-77371428D01*
X169061785Y-77371428D01*
X169633214Y-78609523D02*
X169823690Y-78704761D01*
X170204642Y-78704761D01*
X170395119Y-78609523D01*
X170490357Y-78419047D01*
X170490357Y-78323809D01*
X170395119Y-78133333D01*
X170204642Y-78038095D01*
X169918928Y-78038095D01*
X169728452Y-77942857D01*
X169633214Y-77752380D01*
X169633214Y-77657142D01*
X169728452Y-77466666D01*
X169918928Y-77371428D01*
X170204642Y-77371428D01*
X170395119Y-77466666D01*
X171347500Y-78514285D02*
X171442738Y-78609523D01*
X171347500Y-78704761D01*
X171252261Y-78609523D01*
X171347500Y-78514285D01*
X171347500Y-78704761D01*
X171347500Y-77466666D02*
X171442738Y-77561904D01*
X171347500Y-77657142D01*
X171252261Y-77561904D01*
X171347500Y-77466666D01*
X171347500Y-77657142D01*
X174680833Y-77371428D02*
X174680833Y-78704761D01*
X174204642Y-76609523D02*
X173728452Y-78038095D01*
X174966547Y-78038095D01*
X161823690Y-81854761D02*
X161823690Y-79854761D01*
X162585595Y-79854761D01*
X162776071Y-79950000D01*
X162871309Y-80045238D01*
X162966547Y-80235714D01*
X162966547Y-80521428D01*
X162871309Y-80711904D01*
X162776071Y-80807142D01*
X162585595Y-80902380D01*
X161823690Y-80902380D01*
X164966547Y-81664285D02*
X164871309Y-81759523D01*
X164585595Y-81854761D01*
X164395119Y-81854761D01*
X164109404Y-81759523D01*
X163918928Y-81569047D01*
X163823690Y-81378571D01*
X163728452Y-80997619D01*
X163728452Y-80711904D01*
X163823690Y-80330952D01*
X163918928Y-80140476D01*
X164109404Y-79950000D01*
X164395119Y-79854761D01*
X164585595Y-79854761D01*
X164871309Y-79950000D01*
X164966547Y-80045238D01*
X166490357Y-80807142D02*
X166776071Y-80902380D01*
X166871309Y-80997619D01*
X166966547Y-81188095D01*
X166966547Y-81473809D01*
X166871309Y-81664285D01*
X166776071Y-81759523D01*
X166585595Y-81854761D01*
X165823690Y-81854761D01*
X165823690Y-79854761D01*
X166490357Y-79854761D01*
X166680833Y-79950000D01*
X166776071Y-80045238D01*
X166871309Y-80235714D01*
X166871309Y-80426190D01*
X166776071Y-80616666D01*
X166680833Y-80711904D01*
X166490357Y-80807142D01*
X165823690Y-80807142D01*
X169347500Y-81854761D02*
X169347500Y-79854761D01*
X170014166Y-81283333D01*
X170680833Y-79854761D01*
X170680833Y-81854761D01*
X172490357Y-81854761D02*
X172490357Y-80807142D01*
X172395119Y-80616666D01*
X172204642Y-80521428D01*
X171823690Y-80521428D01*
X171633214Y-80616666D01*
X172490357Y-81759523D02*
X172299880Y-81854761D01*
X171823690Y-81854761D01*
X171633214Y-81759523D01*
X171537976Y-81569047D01*
X171537976Y-81378571D01*
X171633214Y-81188095D01*
X171823690Y-81092857D01*
X172299880Y-81092857D01*
X172490357Y-80997619D01*
X173157023Y-80521428D02*
X173918928Y-80521428D01*
X173442738Y-79854761D02*
X173442738Y-81569047D01*
X173537976Y-81759523D01*
X173728452Y-81854761D01*
X173918928Y-81854761D01*
X175347500Y-81759523D02*
X175157023Y-81854761D01*
X174776071Y-81854761D01*
X174585595Y-81759523D01*
X174490357Y-81569047D01*
X174490357Y-80807142D01*
X174585595Y-80616666D01*
X174776071Y-80521428D01*
X175157023Y-80521428D01*
X175347500Y-80616666D01*
X175442738Y-80807142D01*
X175442738Y-80997619D01*
X174490357Y-81188095D01*
X176299880Y-81854761D02*
X176299880Y-80521428D01*
X176299880Y-80902380D02*
X176395119Y-80711904D01*
X176490357Y-80616666D01*
X176680833Y-80521428D01*
X176871309Y-80521428D01*
X177537976Y-81854761D02*
X177537976Y-80521428D01*
X177537976Y-79854761D02*
X177442738Y-79950000D01*
X177537976Y-80045238D01*
X177633214Y-79950000D01*
X177537976Y-79854761D01*
X177537976Y-80045238D01*
X179347500Y-81854761D02*
X179347500Y-80807142D01*
X179252261Y-80616666D01*
X179061785Y-80521428D01*
X178680833Y-80521428D01*
X178490357Y-80616666D01*
X179347500Y-81759523D02*
X179157023Y-81854761D01*
X178680833Y-81854761D01*
X178490357Y-81759523D01*
X178395119Y-81569047D01*
X178395119Y-81378571D01*
X178490357Y-81188095D01*
X178680833Y-81092857D01*
X179157023Y-81092857D01*
X179347500Y-80997619D01*
X180585595Y-81854761D02*
X180395119Y-81759523D01*
X180299880Y-81569047D01*
X180299880Y-79854761D01*
X181347500Y-81664285D02*
X181442738Y-81759523D01*
X181347500Y-81854761D01*
X181252261Y-81759523D01*
X181347500Y-81664285D01*
X181347500Y-81854761D01*
X181347500Y-80616666D02*
X181442738Y-80711904D01*
X181347500Y-80807142D01*
X181252261Y-80711904D01*
X181347500Y-80616666D01*
X181347500Y-80807142D01*
X183728452Y-81759523D02*
X184014166Y-81854761D01*
X184490357Y-81854761D01*
X184680833Y-81759523D01*
X184776071Y-81664285D01*
X184871309Y-81473809D01*
X184871309Y-81283333D01*
X184776071Y-81092857D01*
X184680833Y-80997619D01*
X184490357Y-80902380D01*
X184109404Y-80807142D01*
X183918928Y-80711904D01*
X183823690Y-80616666D01*
X183728452Y-80426190D01*
X183728452Y-80235714D01*
X183823690Y-80045238D01*
X183918928Y-79950000D01*
X184109404Y-79854761D01*
X184585595Y-79854761D01*
X184871309Y-79950000D01*
X185442738Y-80521428D02*
X186204642Y-80521428D01*
X185728452Y-79854761D02*
X185728452Y-81569047D01*
X185823690Y-81759523D01*
X186014166Y-81854761D01*
X186204642Y-81854761D01*
X187728452Y-81854761D02*
X187728452Y-80807142D01*
X187633214Y-80616666D01*
X187442738Y-80521428D01*
X187061785Y-80521428D01*
X186871309Y-80616666D01*
X187728452Y-81759523D02*
X187537976Y-81854761D01*
X187061785Y-81854761D01*
X186871309Y-81759523D01*
X186776071Y-81569047D01*
X186776071Y-81378571D01*
X186871309Y-81188095D01*
X187061785Y-81092857D01*
X187537976Y-81092857D01*
X187728452Y-80997619D01*
X188680833Y-80521428D02*
X188680833Y-81854761D01*
X188680833Y-80711904D02*
X188776071Y-80616666D01*
X188966547Y-80521428D01*
X189252261Y-80521428D01*
X189442738Y-80616666D01*
X189537976Y-80807142D01*
X189537976Y-81854761D01*
X191347500Y-81854761D02*
X191347500Y-79854761D01*
X191347500Y-81759523D02*
X191157023Y-81854761D01*
X190776071Y-81854761D01*
X190585595Y-81759523D01*
X190490357Y-81664285D01*
X190395119Y-81473809D01*
X190395119Y-80902380D01*
X190490357Y-80711904D01*
X190585595Y-80616666D01*
X190776071Y-80521428D01*
X191157023Y-80521428D01*
X191347500Y-80616666D01*
X193157023Y-81854761D02*
X193157023Y-80807142D01*
X193061785Y-80616666D01*
X192871309Y-80521428D01*
X192490357Y-80521428D01*
X192299880Y-80616666D01*
X193157023Y-81759523D02*
X192966547Y-81854761D01*
X192490357Y-81854761D01*
X192299880Y-81759523D01*
X192204642Y-81569047D01*
X192204642Y-81378571D01*
X192299880Y-81188095D01*
X192490357Y-81092857D01*
X192966547Y-81092857D01*
X193157023Y-80997619D01*
X194109404Y-81854761D02*
X194109404Y-80521428D01*
X194109404Y-80902380D02*
X194204642Y-80711904D01*
X194299880Y-80616666D01*
X194490357Y-80521428D01*
X194680833Y-80521428D01*
X196204642Y-81854761D02*
X196204642Y-79854761D01*
X196204642Y-81759523D02*
X196014166Y-81854761D01*
X195633214Y-81854761D01*
X195442738Y-81759523D01*
X195347500Y-81664285D01*
X195252261Y-81473809D01*
X195252261Y-80902380D01*
X195347500Y-80711904D01*
X195442738Y-80616666D01*
X195633214Y-80521428D01*
X196014166Y-80521428D01*
X196204642Y-80616666D01*
X199728452Y-81854761D02*
X198585595Y-81854761D01*
X199157023Y-81854761D02*
X199157023Y-79854761D01*
X198966547Y-80140476D01*
X198776071Y-80330952D01*
X198585595Y-80426190D01*
X200585595Y-81664285D02*
X200680833Y-81759523D01*
X200585595Y-81854761D01*
X200490357Y-81759523D01*
X200585595Y-81664285D01*
X200585595Y-81854761D01*
X202395119Y-79854761D02*
X202014166Y-79854761D01*
X201823690Y-79950000D01*
X201728452Y-80045238D01*
X201537976Y-80330952D01*
X201442738Y-80711904D01*
X201442738Y-81473809D01*
X201537976Y-81664285D01*
X201633214Y-81759523D01*
X201823690Y-81854761D01*
X202204642Y-81854761D01*
X202395119Y-81759523D01*
X202490357Y-81664285D01*
X202585595Y-81473809D01*
X202585595Y-80997619D01*
X202490357Y-80807142D01*
X202395119Y-80711904D01*
X202204642Y-80616666D01*
X201823690Y-80616666D01*
X201633214Y-80711904D01*
X201537976Y-80807142D01*
X201442738Y-80997619D01*
X203442738Y-81854761D02*
X203442738Y-80521428D01*
X203442738Y-80711904D02*
X203537976Y-80616666D01*
X203728452Y-80521428D01*
X204014166Y-80521428D01*
X204204642Y-80616666D01*
X204299880Y-80807142D01*
X204299880Y-81854761D01*
X204299880Y-80807142D02*
X204395119Y-80616666D01*
X204585595Y-80521428D01*
X204871309Y-80521428D01*
X205061785Y-80616666D01*
X205157023Y-80807142D01*
X205157023Y-81854761D01*
X206109404Y-81854761D02*
X206109404Y-80521428D01*
X206109404Y-80711904D02*
X206204642Y-80616666D01*
X206395119Y-80521428D01*
X206680833Y-80521428D01*
X206871309Y-80616666D01*
X206966547Y-80807142D01*
X206966547Y-81854761D01*
X206966547Y-80807142D02*
X207061785Y-80616666D01*
X207252261Y-80521428D01*
X207537976Y-80521428D01*
X207728452Y-80616666D01*
X207823690Y-80807142D01*
X207823690Y-81854761D01*
X210966547Y-80807142D02*
X210299880Y-80807142D01*
X210299880Y-81854761D02*
X210299880Y-79854761D01*
X211252261Y-79854761D01*
X213157023Y-81854761D02*
X212490357Y-80902380D01*
X212014166Y-81854761D02*
X212014166Y-79854761D01*
X212776071Y-79854761D01*
X212966547Y-79950000D01*
X213061785Y-80045238D01*
X213157023Y-80235714D01*
X213157023Y-80521428D01*
X213061785Y-80711904D01*
X212966547Y-80807142D01*
X212776071Y-80902380D01*
X212014166Y-80902380D01*
X214871309Y-80521428D02*
X214871309Y-81854761D01*
X214395119Y-79759523D02*
X213918928Y-81188095D01*
X215157023Y-81188095D01*
X161728452Y-84909523D02*
X162014166Y-85004761D01*
X162490357Y-85004761D01*
X162680833Y-84909523D01*
X162776071Y-84814285D01*
X162871309Y-84623809D01*
X162871309Y-84433333D01*
X162776071Y-84242857D01*
X162680833Y-84147619D01*
X162490357Y-84052380D01*
X162109404Y-83957142D01*
X161918928Y-83861904D01*
X161823690Y-83766666D01*
X161728452Y-83576190D01*
X161728452Y-83385714D01*
X161823690Y-83195238D01*
X161918928Y-83100000D01*
X162109404Y-83004761D01*
X162585595Y-83004761D01*
X162871309Y-83100000D01*
X164014166Y-85004761D02*
X163823690Y-84909523D01*
X163728452Y-84814285D01*
X163633214Y-84623809D01*
X163633214Y-84052380D01*
X163728452Y-83861904D01*
X163823690Y-83766666D01*
X164014166Y-83671428D01*
X164299880Y-83671428D01*
X164490357Y-83766666D01*
X164585595Y-83861904D01*
X164680833Y-84052380D01*
X164680833Y-84623809D01*
X164585595Y-84814285D01*
X164490357Y-84909523D01*
X164299880Y-85004761D01*
X164014166Y-85004761D01*
X165823690Y-85004761D02*
X165633214Y-84909523D01*
X165537976Y-84719047D01*
X165537976Y-83004761D01*
X167442738Y-85004761D02*
X167442738Y-83004761D01*
X167442738Y-84909523D02*
X167252261Y-85004761D01*
X166871309Y-85004761D01*
X166680833Y-84909523D01*
X166585595Y-84814285D01*
X166490357Y-84623809D01*
X166490357Y-84052380D01*
X166585595Y-83861904D01*
X166680833Y-83766666D01*
X166871309Y-83671428D01*
X167252261Y-83671428D01*
X167442738Y-83766666D01*
X169157023Y-84909523D02*
X168966547Y-85004761D01*
X168585595Y-85004761D01*
X168395119Y-84909523D01*
X168299880Y-84719047D01*
X168299880Y-83957142D01*
X168395119Y-83766666D01*
X168585595Y-83671428D01*
X168966547Y-83671428D01*
X169157023Y-83766666D01*
X169252261Y-83957142D01*
X169252261Y-84147619D01*
X168299880Y-84338095D01*
X170109404Y-85004761D02*
X170109404Y-83671428D01*
X170109404Y-84052380D02*
X170204642Y-83861904D01*
X170299880Y-83766666D01*
X170490357Y-83671428D01*
X170680833Y-83671428D01*
X172871309Y-85004761D02*
X172871309Y-83004761D01*
X173537976Y-84433333D01*
X174204642Y-83004761D01*
X174204642Y-85004761D01*
X176014166Y-85004761D02*
X176014166Y-83957142D01*
X175918928Y-83766666D01*
X175728452Y-83671428D01*
X175347500Y-83671428D01*
X175157023Y-83766666D01*
X176014166Y-84909523D02*
X175823690Y-85004761D01*
X175347500Y-85004761D01*
X175157023Y-84909523D01*
X175061785Y-84719047D01*
X175061785Y-84528571D01*
X175157023Y-84338095D01*
X175347500Y-84242857D01*
X175823690Y-84242857D01*
X176014166Y-84147619D01*
X176871309Y-84909523D02*
X177061785Y-85004761D01*
X177442738Y-85004761D01*
X177633214Y-84909523D01*
X177728452Y-84719047D01*
X177728452Y-84623809D01*
X177633214Y-84433333D01*
X177442738Y-84338095D01*
X177157023Y-84338095D01*
X176966547Y-84242857D01*
X176871309Y-84052380D01*
X176871309Y-83957142D01*
X176966547Y-83766666D01*
X177157023Y-83671428D01*
X177442738Y-83671428D01*
X177633214Y-83766666D01*
X178585595Y-85004761D02*
X178585595Y-83004761D01*
X178776071Y-84242857D02*
X179347500Y-85004761D01*
X179347500Y-83671428D02*
X178585595Y-84433333D01*
X182871309Y-84814285D02*
X182776071Y-84909523D01*
X182490357Y-85004761D01*
X182299880Y-85004761D01*
X182014166Y-84909523D01*
X181823690Y-84719047D01*
X181728452Y-84528571D01*
X181633214Y-84147619D01*
X181633214Y-83861904D01*
X181728452Y-83480952D01*
X181823690Y-83290476D01*
X182014166Y-83100000D01*
X182299880Y-83004761D01*
X182490357Y-83004761D01*
X182776071Y-83100000D01*
X182871309Y-83195238D01*
X184014166Y-85004761D02*
X183823690Y-84909523D01*
X183728452Y-84814285D01*
X183633214Y-84623809D01*
X183633214Y-84052380D01*
X183728452Y-83861904D01*
X183823690Y-83766666D01*
X184014166Y-83671428D01*
X184299880Y-83671428D01*
X184490357Y-83766666D01*
X184585595Y-83861904D01*
X184680833Y-84052380D01*
X184680833Y-84623809D01*
X184585595Y-84814285D01*
X184490357Y-84909523D01*
X184299880Y-85004761D01*
X184014166Y-85004761D01*
X185823690Y-85004761D02*
X185633214Y-84909523D01*
X185537976Y-84719047D01*
X185537976Y-83004761D01*
X186871309Y-85004761D02*
X186680833Y-84909523D01*
X186585595Y-84814285D01*
X186490357Y-84623809D01*
X186490357Y-84052380D01*
X186585595Y-83861904D01*
X186680833Y-83766666D01*
X186871309Y-83671428D01*
X187157023Y-83671428D01*
X187347500Y-83766666D01*
X187442738Y-83861904D01*
X187537976Y-84052380D01*
X187537976Y-84623809D01*
X187442738Y-84814285D01*
X187347500Y-84909523D01*
X187157023Y-85004761D01*
X186871309Y-85004761D01*
X188395119Y-85004761D02*
X188395119Y-83671428D01*
X188395119Y-84052380D02*
X188490357Y-83861904D01*
X188585595Y-83766666D01*
X188776071Y-83671428D01*
X188966547Y-83671428D01*
X189633214Y-84814285D02*
X189728452Y-84909523D01*
X189633214Y-85004761D01*
X189537976Y-84909523D01*
X189633214Y-84814285D01*
X189633214Y-85004761D01*
X189633214Y-83766666D02*
X189728452Y-83861904D01*
X189633214Y-83957142D01*
X189537976Y-83861904D01*
X189633214Y-83766666D01*
X189633214Y-83957142D01*
X192109404Y-85004761D02*
X192109404Y-83004761D01*
X192776071Y-84433333D01*
X193442738Y-83004761D01*
X193442738Y-85004761D01*
X195252261Y-85004761D02*
X195252261Y-83957142D01*
X195157023Y-83766666D01*
X194966547Y-83671428D01*
X194585595Y-83671428D01*
X194395119Y-83766666D01*
X195252261Y-84909523D02*
X195061785Y-85004761D01*
X194585595Y-85004761D01*
X194395119Y-84909523D01*
X194299880Y-84719047D01*
X194299880Y-84528571D01*
X194395119Y-84338095D01*
X194585595Y-84242857D01*
X195061785Y-84242857D01*
X195252261Y-84147619D01*
X195918928Y-83671428D02*
X196680833Y-83671428D01*
X196204642Y-83004761D02*
X196204642Y-84719047D01*
X196299880Y-84909523D01*
X196490357Y-85004761D01*
X196680833Y-85004761D01*
X197061785Y-83671428D02*
X197823690Y-83671428D01*
X197347500Y-83004761D02*
X197347500Y-84719047D01*
X197442738Y-84909523D01*
X197633214Y-85004761D01*
X197823690Y-85004761D01*
X199252261Y-84909523D02*
X199061785Y-85004761D01*
X198680833Y-85004761D01*
X198490357Y-84909523D01*
X198395119Y-84719047D01*
X198395119Y-83957142D01*
X198490357Y-83766666D01*
X198680833Y-83671428D01*
X199061785Y-83671428D01*
X199252261Y-83766666D01*
X199347500Y-83957142D01*
X199347500Y-84147619D01*
X198395119Y-84338095D01*
X202395119Y-83957142D02*
X202680833Y-84052380D01*
X202776071Y-84147619D01*
X202871309Y-84338095D01*
X202871309Y-84623809D01*
X202776071Y-84814285D01*
X202680833Y-84909523D01*
X202490357Y-85004761D01*
X201728452Y-85004761D01*
X201728452Y-83004761D01*
X202395119Y-83004761D01*
X202585595Y-83100000D01*
X202680833Y-83195238D01*
X202776071Y-83385714D01*
X202776071Y-83576190D01*
X202680833Y-83766666D01*
X202585595Y-83861904D01*
X202395119Y-83957142D01*
X201728452Y-83957142D01*
X204014166Y-85004761D02*
X203823690Y-84909523D01*
X203728452Y-84719047D01*
X203728452Y-83004761D01*
X205633214Y-85004761D02*
X205633214Y-83957142D01*
X205537976Y-83766666D01*
X205347500Y-83671428D01*
X204966547Y-83671428D01*
X204776071Y-83766666D01*
X205633214Y-84909523D02*
X205442738Y-85004761D01*
X204966547Y-85004761D01*
X204776071Y-84909523D01*
X204680833Y-84719047D01*
X204680833Y-84528571D01*
X204776071Y-84338095D01*
X204966547Y-84242857D01*
X205442738Y-84242857D01*
X205633214Y-84147619D01*
X207442738Y-84909523D02*
X207252261Y-85004761D01*
X206871309Y-85004761D01*
X206680833Y-84909523D01*
X206585595Y-84814285D01*
X206490357Y-84623809D01*
X206490357Y-84052380D01*
X206585595Y-83861904D01*
X206680833Y-83766666D01*
X206871309Y-83671428D01*
X207252261Y-83671428D01*
X207442738Y-83766666D01*
X208299880Y-85004761D02*
X208299880Y-83004761D01*
X208490357Y-84242857D02*
X209061785Y-85004761D01*
X209061785Y-83671428D02*
X208299880Y-84433333D01*
X161728452Y-88059523D02*
X162014166Y-88154761D01*
X162490357Y-88154761D01*
X162680833Y-88059523D01*
X162776071Y-87964285D01*
X162871309Y-87773809D01*
X162871309Y-87583333D01*
X162776071Y-87392857D01*
X162680833Y-87297619D01*
X162490357Y-87202380D01*
X162109404Y-87107142D01*
X161918928Y-87011904D01*
X161823690Y-86916666D01*
X161728452Y-86726190D01*
X161728452Y-86535714D01*
X161823690Y-86345238D01*
X161918928Y-86250000D01*
X162109404Y-86154761D01*
X162585595Y-86154761D01*
X162871309Y-86250000D01*
X164585595Y-86821428D02*
X164585595Y-88154761D01*
X163728452Y-86821428D02*
X163728452Y-87869047D01*
X163823690Y-88059523D01*
X164014166Y-88154761D01*
X164299880Y-88154761D01*
X164490357Y-88059523D01*
X164585595Y-87964285D01*
X165537976Y-88154761D02*
X165537976Y-86821428D01*
X165537976Y-87202380D02*
X165633214Y-87011904D01*
X165728452Y-86916666D01*
X165918928Y-86821428D01*
X166109404Y-86821428D01*
X166490357Y-86821428D02*
X167252261Y-86821428D01*
X166776071Y-88154761D02*
X166776071Y-86440476D01*
X166871309Y-86250000D01*
X167061785Y-86154761D01*
X167252261Y-86154761D01*
X168776071Y-88154761D02*
X168776071Y-87107142D01*
X168680833Y-86916666D01*
X168490357Y-86821428D01*
X168109404Y-86821428D01*
X167918928Y-86916666D01*
X168776071Y-88059523D02*
X168585595Y-88154761D01*
X168109404Y-88154761D01*
X167918928Y-88059523D01*
X167823690Y-87869047D01*
X167823690Y-87678571D01*
X167918928Y-87488095D01*
X168109404Y-87392857D01*
X168585595Y-87392857D01*
X168776071Y-87297619D01*
X170585595Y-88059523D02*
X170395119Y-88154761D01*
X170014166Y-88154761D01*
X169823690Y-88059523D01*
X169728452Y-87964285D01*
X169633214Y-87773809D01*
X169633214Y-87202380D01*
X169728452Y-87011904D01*
X169823690Y-86916666D01*
X170014166Y-86821428D01*
X170395119Y-86821428D01*
X170585595Y-86916666D01*
X172204642Y-88059523D02*
X172014166Y-88154761D01*
X171633214Y-88154761D01*
X171442738Y-88059523D01*
X171347500Y-87869047D01*
X171347500Y-87107142D01*
X171442738Y-86916666D01*
X171633214Y-86821428D01*
X172014166Y-86821428D01*
X172204642Y-86916666D01*
X172299880Y-87107142D01*
X172299880Y-87297619D01*
X171347500Y-87488095D01*
X175347500Y-87107142D02*
X174680833Y-87107142D01*
X174680833Y-88154761D02*
X174680833Y-86154761D01*
X175633214Y-86154761D01*
X176395119Y-88154761D02*
X176395119Y-86821428D01*
X176395119Y-86154761D02*
X176299880Y-86250000D01*
X176395119Y-86345238D01*
X176490357Y-86250000D01*
X176395119Y-86154761D01*
X176395119Y-86345238D01*
X177347500Y-86821428D02*
X177347500Y-88154761D01*
X177347500Y-87011904D02*
X177442738Y-86916666D01*
X177633214Y-86821428D01*
X177918928Y-86821428D01*
X178109404Y-86916666D01*
X178204642Y-87107142D01*
X178204642Y-88154761D01*
X179157023Y-88154761D02*
X179157023Y-86821428D01*
X179157023Y-86154761D02*
X179061785Y-86250000D01*
X179157023Y-86345238D01*
X179252261Y-86250000D01*
X179157023Y-86154761D01*
X179157023Y-86345238D01*
X180014166Y-88059523D02*
X180204642Y-88154761D01*
X180585595Y-88154761D01*
X180776071Y-88059523D01*
X180871309Y-87869047D01*
X180871309Y-87773809D01*
X180776071Y-87583333D01*
X180585595Y-87488095D01*
X180299880Y-87488095D01*
X180109404Y-87392857D01*
X180014166Y-87202380D01*
X180014166Y-87107142D01*
X180109404Y-86916666D01*
X180299880Y-86821428D01*
X180585595Y-86821428D01*
X180776071Y-86916666D01*
X181728452Y-88154761D02*
X181728452Y-86154761D01*
X182585595Y-88154761D02*
X182585595Y-87107142D01*
X182490357Y-86916666D01*
X182299880Y-86821428D01*
X182014166Y-86821428D01*
X181823690Y-86916666D01*
X181728452Y-87011904D01*
X183537976Y-87964285D02*
X183633214Y-88059523D01*
X183537976Y-88154761D01*
X183442738Y-88059523D01*
X183537976Y-87964285D01*
X183537976Y-88154761D01*
X183537976Y-86916666D02*
X183633214Y-87011904D01*
X183537976Y-87107142D01*
X183442738Y-87011904D01*
X183537976Y-86916666D01*
X183537976Y-87107142D01*
X186014166Y-88154761D02*
X186014166Y-86154761D01*
X186014166Y-87107142D02*
X187157023Y-87107142D01*
X187157023Y-88154761D02*
X187157023Y-86154761D01*
X188014166Y-87583333D02*
X188966547Y-87583333D01*
X187823690Y-88154761D02*
X188490357Y-86154761D01*
X189157023Y-88154761D01*
X189728452Y-88059523D02*
X190014166Y-88154761D01*
X190490357Y-88154761D01*
X190680833Y-88059523D01*
X190776071Y-87964285D01*
X190871309Y-87773809D01*
X190871309Y-87583333D01*
X190776071Y-87392857D01*
X190680833Y-87297619D01*
X190490357Y-87202380D01*
X190109404Y-87107142D01*
X189918928Y-87011904D01*
X189823690Y-86916666D01*
X189728452Y-86726190D01*
X189728452Y-86535714D01*
X189823690Y-86345238D01*
X189918928Y-86250000D01*
X190109404Y-86154761D01*
X190585595Y-86154761D01*
X190871309Y-86250000D01*
X192680833Y-88154761D02*
X191728452Y-88154761D01*
X191728452Y-86154761D01*
X195442738Y-88916666D02*
X195347500Y-88821428D01*
X195157023Y-88535714D01*
X195061785Y-88345238D01*
X194966547Y-88059523D01*
X194871309Y-87583333D01*
X194871309Y-87202380D01*
X194966547Y-86726190D01*
X195061785Y-86440476D01*
X195157023Y-86250000D01*
X195347500Y-85964285D01*
X195442738Y-85869047D01*
X196014166Y-86821428D02*
X196395119Y-88154761D01*
X196776071Y-87202380D01*
X197157023Y-88154761D01*
X197537976Y-86821428D01*
X198299880Y-88154761D02*
X198299880Y-86821428D01*
X198299880Y-86154761D02*
X198204642Y-86250000D01*
X198299880Y-86345238D01*
X198395119Y-86250000D01*
X198299880Y-86154761D01*
X198299880Y-86345238D01*
X198966547Y-86821428D02*
X199728452Y-86821428D01*
X199252261Y-86154761D02*
X199252261Y-87869047D01*
X199347500Y-88059523D01*
X199537976Y-88154761D01*
X199728452Y-88154761D01*
X200395119Y-88154761D02*
X200395119Y-86154761D01*
X201252261Y-88154761D02*
X201252261Y-87107142D01*
X201157023Y-86916666D01*
X200966547Y-86821428D01*
X200680833Y-86821428D01*
X200490357Y-86916666D01*
X200395119Y-87011904D01*
X204014166Y-88154761D02*
X203823690Y-88059523D01*
X203728452Y-87869047D01*
X203728452Y-86154761D01*
X205537976Y-88059523D02*
X205347500Y-88154761D01*
X204966547Y-88154761D01*
X204776071Y-88059523D01*
X204680833Y-87869047D01*
X204680833Y-87107142D01*
X204776071Y-86916666D01*
X204966547Y-86821428D01*
X205347500Y-86821428D01*
X205537976Y-86916666D01*
X205633214Y-87107142D01*
X205633214Y-87297619D01*
X204680833Y-87488095D01*
X207347500Y-88154761D02*
X207347500Y-87107142D01*
X207252261Y-86916666D01*
X207061785Y-86821428D01*
X206680833Y-86821428D01*
X206490357Y-86916666D01*
X207347500Y-88059523D02*
X207157023Y-88154761D01*
X206680833Y-88154761D01*
X206490357Y-88059523D01*
X206395119Y-87869047D01*
X206395119Y-87678571D01*
X206490357Y-87488095D01*
X206680833Y-87392857D01*
X207157023Y-87392857D01*
X207347500Y-87297619D01*
X209157023Y-88154761D02*
X209157023Y-86154761D01*
X209157023Y-88059523D02*
X208966547Y-88154761D01*
X208585595Y-88154761D01*
X208395119Y-88059523D01*
X208299880Y-87964285D01*
X208204642Y-87773809D01*
X208204642Y-87202380D01*
X208299880Y-87011904D01*
X208395119Y-86916666D01*
X208585595Y-86821428D01*
X208966547Y-86821428D01*
X209157023Y-86916666D01*
X209918928Y-88916666D02*
X210014166Y-88821428D01*
X210204642Y-88535714D01*
X210299880Y-88345238D01*
X210395119Y-88059523D01*
X210490357Y-87583333D01*
X210490357Y-87202380D01*
X210395119Y-86726190D01*
X210299880Y-86440476D01*
X210204642Y-86250000D01*
X210014166Y-85964285D01*
X209918928Y-85869047D01*
X162966547Y-91114285D02*
X162871309Y-91209523D01*
X162585595Y-91304761D01*
X162395119Y-91304761D01*
X162109404Y-91209523D01*
X161918928Y-91019047D01*
X161823690Y-90828571D01*
X161728452Y-90447619D01*
X161728452Y-90161904D01*
X161823690Y-89780952D01*
X161918928Y-89590476D01*
X162109404Y-89400000D01*
X162395119Y-89304761D01*
X162585595Y-89304761D01*
X162871309Y-89400000D01*
X162966547Y-89495238D01*
X164109404Y-91304761D02*
X163918928Y-91209523D01*
X163823690Y-91114285D01*
X163728452Y-90923809D01*
X163728452Y-90352380D01*
X163823690Y-90161904D01*
X163918928Y-90066666D01*
X164109404Y-89971428D01*
X164395119Y-89971428D01*
X164585595Y-90066666D01*
X164680833Y-90161904D01*
X164776071Y-90352380D01*
X164776071Y-90923809D01*
X164680833Y-91114285D01*
X164585595Y-91209523D01*
X164395119Y-91304761D01*
X164109404Y-91304761D01*
X165633214Y-89971428D02*
X165633214Y-91971428D01*
X165633214Y-90066666D02*
X165823690Y-89971428D01*
X166204642Y-89971428D01*
X166395119Y-90066666D01*
X166490357Y-90161904D01*
X166585595Y-90352380D01*
X166585595Y-90923809D01*
X166490357Y-91114285D01*
X166395119Y-91209523D01*
X166204642Y-91304761D01*
X165823690Y-91304761D01*
X165633214Y-91209523D01*
X167442738Y-89971428D02*
X167442738Y-91971428D01*
X167442738Y-90066666D02*
X167633214Y-89971428D01*
X168014166Y-89971428D01*
X168204642Y-90066666D01*
X168299880Y-90161904D01*
X168395119Y-90352380D01*
X168395119Y-90923809D01*
X168299880Y-91114285D01*
X168204642Y-91209523D01*
X168014166Y-91304761D01*
X167633214Y-91304761D01*
X167442738Y-91209523D01*
X170014166Y-91209523D02*
X169823690Y-91304761D01*
X169442738Y-91304761D01*
X169252261Y-91209523D01*
X169157023Y-91019047D01*
X169157023Y-90257142D01*
X169252261Y-90066666D01*
X169442738Y-89971428D01*
X169823690Y-89971428D01*
X170014166Y-90066666D01*
X170109404Y-90257142D01*
X170109404Y-90447619D01*
X169157023Y-90638095D01*
X170966547Y-91304761D02*
X170966547Y-89971428D01*
X170966547Y-90352380D02*
X171061785Y-90161904D01*
X171157023Y-90066666D01*
X171347500Y-89971428D01*
X171537976Y-89971428D01*
X173537976Y-89304761D02*
X174014166Y-91304761D01*
X174395119Y-89876190D01*
X174776071Y-91304761D01*
X175252261Y-89304761D01*
X176776071Y-91209523D02*
X176585595Y-91304761D01*
X176204642Y-91304761D01*
X176014166Y-91209523D01*
X175918928Y-91019047D01*
X175918928Y-90257142D01*
X176014166Y-90066666D01*
X176204642Y-89971428D01*
X176585595Y-89971428D01*
X176776071Y-90066666D01*
X176871309Y-90257142D01*
X176871309Y-90447619D01*
X175918928Y-90638095D01*
X177728452Y-91304761D02*
X177728452Y-89971428D01*
X177728452Y-89304761D02*
X177633214Y-89400000D01*
X177728452Y-89495238D01*
X177823690Y-89400000D01*
X177728452Y-89304761D01*
X177728452Y-89495238D01*
X179537976Y-89971428D02*
X179537976Y-91590476D01*
X179442738Y-91780952D01*
X179347500Y-91876190D01*
X179157023Y-91971428D01*
X178871309Y-91971428D01*
X178680833Y-91876190D01*
X179537976Y-91209523D02*
X179347500Y-91304761D01*
X178966547Y-91304761D01*
X178776071Y-91209523D01*
X178680833Y-91114285D01*
X178585595Y-90923809D01*
X178585595Y-90352380D01*
X178680833Y-90161904D01*
X178776071Y-90066666D01*
X178966547Y-89971428D01*
X179347500Y-89971428D01*
X179537976Y-90066666D01*
X180490357Y-91304761D02*
X180490357Y-89304761D01*
X181347500Y-91304761D02*
X181347500Y-90257142D01*
X181252261Y-90066666D01*
X181061785Y-89971428D01*
X180776071Y-89971428D01*
X180585595Y-90066666D01*
X180490357Y-90161904D01*
X182014166Y-89971428D02*
X182776071Y-89971428D01*
X182299880Y-89304761D02*
X182299880Y-91019047D01*
X182395119Y-91209523D01*
X182585595Y-91304761D01*
X182776071Y-91304761D01*
X183442738Y-91114285D02*
X183537976Y-91209523D01*
X183442738Y-91304761D01*
X183347500Y-91209523D01*
X183442738Y-91114285D01*
X183442738Y-91304761D01*
X183442738Y-90066666D02*
X183537976Y-90161904D01*
X183442738Y-90257142D01*
X183347500Y-90161904D01*
X183442738Y-90066666D01*
X183442738Y-90257142D01*
X186966547Y-91304761D02*
X185823690Y-91304761D01*
X186395119Y-91304761D02*
X186395119Y-89304761D01*
X186204642Y-89590476D01*
X186014166Y-89780952D01*
X185823690Y-89876190D01*
X189633214Y-91304761D02*
X189442738Y-91209523D01*
X189347500Y-91114285D01*
X189252261Y-90923809D01*
X189252261Y-90352380D01*
X189347500Y-90161904D01*
X189442738Y-90066666D01*
X189633214Y-89971428D01*
X189918928Y-89971428D01*
X190109404Y-90066666D01*
X190204642Y-90161904D01*
X190299880Y-90352380D01*
X190299880Y-90923809D01*
X190204642Y-91114285D01*
X190109404Y-91209523D01*
X189918928Y-91304761D01*
X189633214Y-91304761D01*
X190966547Y-89971428D02*
X192014166Y-89971428D01*
X190966547Y-91304761D01*
X192014166Y-91304761D01*
X161823690Y-94454761D02*
X161823690Y-92454761D01*
X162966547Y-94454761D01*
X162966547Y-92454761D01*
X164299880Y-92454761D02*
X164680833Y-92454761D01*
X164871309Y-92550000D01*
X165061785Y-92740476D01*
X165157023Y-93121428D01*
X165157023Y-93788095D01*
X165061785Y-94169047D01*
X164871309Y-94359523D01*
X164680833Y-94454761D01*
X164299880Y-94454761D01*
X164109404Y-94359523D01*
X163918928Y-94169047D01*
X163823690Y-93788095D01*
X163823690Y-93121428D01*
X163918928Y-92740476D01*
X164109404Y-92550000D01*
X164299880Y-92454761D01*
X168585595Y-92550000D02*
X168395119Y-92454761D01*
X168109404Y-92454761D01*
X167823690Y-92550000D01*
X167633214Y-92740476D01*
X167537976Y-92930952D01*
X167442738Y-93311904D01*
X167442738Y-93597619D01*
X167537976Y-93978571D01*
X167633214Y-94169047D01*
X167823690Y-94359523D01*
X168109404Y-94454761D01*
X168299880Y-94454761D01*
X168585595Y-94359523D01*
X168680833Y-94264285D01*
X168680833Y-93597619D01*
X168299880Y-93597619D01*
X169823690Y-94454761D02*
X169633214Y-94359523D01*
X169537976Y-94264285D01*
X169442738Y-94073809D01*
X169442738Y-93502380D01*
X169537976Y-93311904D01*
X169633214Y-93216666D01*
X169823690Y-93121428D01*
X170109404Y-93121428D01*
X170299880Y-93216666D01*
X170395119Y-93311904D01*
X170490357Y-93502380D01*
X170490357Y-94073809D01*
X170395119Y-94264285D01*
X170299880Y-94359523D01*
X170109404Y-94454761D01*
X169823690Y-94454761D01*
X171633214Y-94454761D02*
X171442738Y-94359523D01*
X171347500Y-94169047D01*
X171347500Y-92454761D01*
X173252261Y-94454761D02*
X173252261Y-92454761D01*
X173252261Y-94359523D02*
X173061785Y-94454761D01*
X172680833Y-94454761D01*
X172490357Y-94359523D01*
X172395119Y-94264285D01*
X172299880Y-94073809D01*
X172299880Y-93502380D01*
X172395119Y-93311904D01*
X172490357Y-93216666D01*
X172680833Y-93121428D01*
X173061785Y-93121428D01*
X173252261Y-93216666D01*
X176395119Y-93407142D02*
X175728452Y-93407142D01*
X175728452Y-94454761D02*
X175728452Y-92454761D01*
X176680833Y-92454761D01*
X177442738Y-94454761D02*
X177442738Y-93121428D01*
X177442738Y-92454761D02*
X177347500Y-92550000D01*
X177442738Y-92645238D01*
X177537976Y-92550000D01*
X177442738Y-92454761D01*
X177442738Y-92645238D01*
X178395119Y-93121428D02*
X178395119Y-94454761D01*
X178395119Y-93311904D02*
X178490357Y-93216666D01*
X178680833Y-93121428D01*
X178966547Y-93121428D01*
X179157023Y-93216666D01*
X179252261Y-93407142D01*
X179252261Y-94454761D01*
X181061785Y-93121428D02*
X181061785Y-94740476D01*
X180966547Y-94930952D01*
X180871309Y-95026190D01*
X180680833Y-95121428D01*
X180395119Y-95121428D01*
X180204642Y-95026190D01*
X181061785Y-94359523D02*
X180871309Y-94454761D01*
X180490357Y-94454761D01*
X180299880Y-94359523D01*
X180204642Y-94264285D01*
X180109404Y-94073809D01*
X180109404Y-93502380D01*
X180204642Y-93311904D01*
X180299880Y-93216666D01*
X180490357Y-93121428D01*
X180871309Y-93121428D01*
X181061785Y-93216666D01*
X182776071Y-94359523D02*
X182585595Y-94454761D01*
X182204642Y-94454761D01*
X182014166Y-94359523D01*
X181918928Y-94169047D01*
X181918928Y-93407142D01*
X182014166Y-93216666D01*
X182204642Y-93121428D01*
X182585595Y-93121428D01*
X182776071Y-93216666D01*
X182871309Y-93407142D01*
X182871309Y-93597619D01*
X181918928Y-93788095D01*
X183728452Y-94454761D02*
X183728452Y-93121428D01*
X183728452Y-93502380D02*
X183823690Y-93311904D01*
X183918928Y-93216666D01*
X184109404Y-93121428D01*
X184299880Y-93121428D01*
X184871309Y-94359523D02*
X185061785Y-94454761D01*
X185442738Y-94454761D01*
X185633214Y-94359523D01*
X185728452Y-94169047D01*
X185728452Y-94073809D01*
X185633214Y-93883333D01*
X185442738Y-93788095D01*
X185157023Y-93788095D01*
X184966547Y-93692857D01*
X184871309Y-93502380D01*
X184871309Y-93407142D01*
X184966547Y-93216666D01*
X185157023Y-93121428D01*
X185442738Y-93121428D01*
X185633214Y-93216666D01*
X161823690Y-97604761D02*
X161823690Y-95604761D01*
X162966547Y-97604761D01*
X162966547Y-95604761D01*
X164299880Y-95604761D02*
X164680833Y-95604761D01*
X164871309Y-95700000D01*
X165061785Y-95890476D01*
X165157023Y-96271428D01*
X165157023Y-96938095D01*
X165061785Y-97319047D01*
X164871309Y-97509523D01*
X164680833Y-97604761D01*
X164299880Y-97604761D01*
X164109404Y-97509523D01*
X163918928Y-97319047D01*
X163823690Y-96938095D01*
X163823690Y-96271428D01*
X163918928Y-95890476D01*
X164109404Y-95700000D01*
X164299880Y-95604761D01*
X168680833Y-97414285D02*
X168585595Y-97509523D01*
X168299880Y-97604761D01*
X168109404Y-97604761D01*
X167823690Y-97509523D01*
X167633214Y-97319047D01*
X167537976Y-97128571D01*
X167442738Y-96747619D01*
X167442738Y-96461904D01*
X167537976Y-96080952D01*
X167633214Y-95890476D01*
X167823690Y-95700000D01*
X168109404Y-95604761D01*
X168299880Y-95604761D01*
X168585595Y-95700000D01*
X168680833Y-95795238D01*
X170395119Y-97604761D02*
X170395119Y-96557142D01*
X170299880Y-96366666D01*
X170109404Y-96271428D01*
X169728452Y-96271428D01*
X169537976Y-96366666D01*
X170395119Y-97509523D02*
X170204642Y-97604761D01*
X169728452Y-97604761D01*
X169537976Y-97509523D01*
X169442738Y-97319047D01*
X169442738Y-97128571D01*
X169537976Y-96938095D01*
X169728452Y-96842857D01*
X170204642Y-96842857D01*
X170395119Y-96747619D01*
X171252261Y-97509523D02*
X171442738Y-97604761D01*
X171823690Y-97604761D01*
X172014166Y-97509523D01*
X172109404Y-97319047D01*
X172109404Y-97223809D01*
X172014166Y-97033333D01*
X171823690Y-96938095D01*
X171537976Y-96938095D01*
X171347500Y-96842857D01*
X171252261Y-96652380D01*
X171252261Y-96557142D01*
X171347500Y-96366666D01*
X171537976Y-96271428D01*
X171823690Y-96271428D01*
X172014166Y-96366666D01*
X172680833Y-96271428D02*
X173442738Y-96271428D01*
X172966547Y-95604761D02*
X172966547Y-97319047D01*
X173061785Y-97509523D01*
X173252261Y-97604761D01*
X173442738Y-97604761D01*
X174871309Y-97509523D02*
X174680833Y-97604761D01*
X174299880Y-97604761D01*
X174109404Y-97509523D01*
X174014166Y-97319047D01*
X174014166Y-96557142D01*
X174109404Y-96366666D01*
X174299880Y-96271428D01*
X174680833Y-96271428D01*
X174871309Y-96366666D01*
X174966547Y-96557142D01*
X174966547Y-96747619D01*
X174014166Y-96938095D01*
X176109404Y-97604761D02*
X175918928Y-97509523D01*
X175823690Y-97319047D01*
X175823690Y-95604761D01*
X177157023Y-97604761D02*
X176966547Y-97509523D01*
X176871309Y-97319047D01*
X176871309Y-95604761D01*
X178776071Y-97604761D02*
X178776071Y-96557142D01*
X178680833Y-96366666D01*
X178490357Y-96271428D01*
X178109404Y-96271428D01*
X177918928Y-96366666D01*
X178776071Y-97509523D02*
X178585595Y-97604761D01*
X178109404Y-97604761D01*
X177918928Y-97509523D01*
X177823690Y-97319047D01*
X177823690Y-97128571D01*
X177918928Y-96938095D01*
X178109404Y-96842857D01*
X178585595Y-96842857D01*
X178776071Y-96747619D01*
X179442738Y-96271428D02*
X180204642Y-96271428D01*
X179728452Y-95604761D02*
X179728452Y-97319047D01*
X179823690Y-97509523D01*
X180014166Y-97604761D01*
X180204642Y-97604761D01*
X181633214Y-97509523D02*
X181442738Y-97604761D01*
X181061785Y-97604761D01*
X180871309Y-97509523D01*
X180776071Y-97319047D01*
X180776071Y-96557142D01*
X180871309Y-96366666D01*
X181061785Y-96271428D01*
X181442738Y-96271428D01*
X181633214Y-96366666D01*
X181728452Y-96557142D01*
X181728452Y-96747619D01*
X180776071Y-96938095D01*
X183442738Y-97604761D02*
X183442738Y-95604761D01*
X183442738Y-97509523D02*
X183252261Y-97604761D01*
X182871309Y-97604761D01*
X182680833Y-97509523D01*
X182585595Y-97414285D01*
X182490357Y-97223809D01*
X182490357Y-96652380D01*
X182585595Y-96461904D01*
X182680833Y-96366666D01*
X182871309Y-96271428D01*
X183252261Y-96271428D01*
X183442738Y-96366666D01*
X185918928Y-97604761D02*
X185918928Y-95604761D01*
X185918928Y-96557142D02*
X187061785Y-96557142D01*
X187061785Y-97604761D02*
X187061785Y-95604761D01*
X188299880Y-97604761D02*
X188109404Y-97509523D01*
X188014166Y-97414285D01*
X187918928Y-97223809D01*
X187918928Y-96652380D01*
X188014166Y-96461904D01*
X188109404Y-96366666D01*
X188299880Y-96271428D01*
X188585595Y-96271428D01*
X188776071Y-96366666D01*
X188871309Y-96461904D01*
X188966547Y-96652380D01*
X188966547Y-97223809D01*
X188871309Y-97414285D01*
X188776071Y-97509523D01*
X188585595Y-97604761D01*
X188299880Y-97604761D01*
X190109404Y-97604761D02*
X189918928Y-97509523D01*
X189823690Y-97319047D01*
X189823690Y-95604761D01*
X191633214Y-97509523D02*
X191442738Y-97604761D01*
X191061785Y-97604761D01*
X190871309Y-97509523D01*
X190776071Y-97319047D01*
X190776071Y-96557142D01*
X190871309Y-96366666D01*
X191061785Y-96271428D01*
X191442738Y-96271428D01*
X191633214Y-96366666D01*
X191728452Y-96557142D01*
X191728452Y-96747619D01*
X190776071Y-96938095D01*
X192490357Y-97509523D02*
X192680833Y-97604761D01*
X193061785Y-97604761D01*
X193252261Y-97509523D01*
X193347500Y-97319047D01*
X193347500Y-97223809D01*
X193252261Y-97033333D01*
X193061785Y-96938095D01*
X192776071Y-96938095D01*
X192585595Y-96842857D01*
X192490357Y-96652380D01*
X192490357Y-96557142D01*
X192585595Y-96366666D01*
X192776071Y-96271428D01*
X193061785Y-96271428D01*
X193252261Y-96366666D01*
X161823690Y-100754761D02*
X161823690Y-98754761D01*
X162966547Y-100754761D01*
X162966547Y-98754761D01*
X164299880Y-98754761D02*
X164680833Y-98754761D01*
X164871309Y-98850000D01*
X165061785Y-99040476D01*
X165157023Y-99421428D01*
X165157023Y-100088095D01*
X165061785Y-100469047D01*
X164871309Y-100659523D01*
X164680833Y-100754761D01*
X164299880Y-100754761D01*
X164109404Y-100659523D01*
X163918928Y-100469047D01*
X163823690Y-100088095D01*
X163823690Y-99421428D01*
X163918928Y-99040476D01*
X164109404Y-98850000D01*
X164299880Y-98754761D01*
X167442738Y-100659523D02*
X167728452Y-100754761D01*
X168204642Y-100754761D01*
X168395119Y-100659523D01*
X168490357Y-100564285D01*
X168585595Y-100373809D01*
X168585595Y-100183333D01*
X168490357Y-99992857D01*
X168395119Y-99897619D01*
X168204642Y-99802380D01*
X167823690Y-99707142D01*
X167633214Y-99611904D01*
X167537976Y-99516666D01*
X167442738Y-99326190D01*
X167442738Y-99135714D01*
X167537976Y-98945238D01*
X167633214Y-98850000D01*
X167823690Y-98754761D01*
X168299880Y-98754761D01*
X168585595Y-98850000D01*
X169157023Y-99421428D02*
X169918928Y-99421428D01*
X169442738Y-98754761D02*
X169442738Y-100469047D01*
X169537976Y-100659523D01*
X169728452Y-100754761D01*
X169918928Y-100754761D01*
X171347500Y-100659523D02*
X171157023Y-100754761D01*
X170776071Y-100754761D01*
X170585595Y-100659523D01*
X170490357Y-100469047D01*
X170490357Y-99707142D01*
X170585595Y-99516666D01*
X170776071Y-99421428D01*
X171157023Y-99421428D01*
X171347500Y-99516666D01*
X171442738Y-99707142D01*
X171442738Y-99897619D01*
X170490357Y-100088095D01*
X172299880Y-99421428D02*
X172299880Y-100754761D01*
X172299880Y-99611904D02*
X172395119Y-99516666D01*
X172585595Y-99421428D01*
X172871309Y-99421428D01*
X173061785Y-99516666D01*
X173157023Y-99707142D01*
X173157023Y-100754761D01*
X174966547Y-100659523D02*
X174776071Y-100754761D01*
X174395119Y-100754761D01*
X174204642Y-100659523D01*
X174109404Y-100564285D01*
X174014166Y-100373809D01*
X174014166Y-99802380D01*
X174109404Y-99611904D01*
X174204642Y-99516666D01*
X174395119Y-99421428D01*
X174776071Y-99421428D01*
X174966547Y-99516666D01*
X175823690Y-100754761D02*
X175823690Y-99421428D01*
X175823690Y-98754761D02*
X175728452Y-98850000D01*
X175823690Y-98945238D01*
X175918928Y-98850000D01*
X175823690Y-98754761D01*
X175823690Y-98945238D01*
X177061785Y-100754761D02*
X176871309Y-100659523D01*
X176776071Y-100469047D01*
X176776071Y-98754761D01*
X161823690Y-103904761D02*
X161823690Y-101904761D01*
X162966547Y-103904761D01*
X162966547Y-101904761D01*
X164299880Y-101904761D02*
X164680833Y-101904761D01*
X164871309Y-102000000D01*
X165061785Y-102190476D01*
X165157023Y-102571428D01*
X165157023Y-103238095D01*
X165061785Y-103619047D01*
X164871309Y-103809523D01*
X164680833Y-103904761D01*
X164299880Y-103904761D01*
X164109404Y-103809523D01*
X163918928Y-103619047D01*
X163823690Y-103238095D01*
X163823690Y-102571428D01*
X163918928Y-102190476D01*
X164109404Y-102000000D01*
X164299880Y-101904761D01*
X167537976Y-103904761D02*
X167537976Y-101904761D01*
X168014166Y-101904761D01*
X168299880Y-102000000D01*
X168490357Y-102190476D01*
X168585595Y-102380952D01*
X168680833Y-102761904D01*
X168680833Y-103047619D01*
X168585595Y-103428571D01*
X168490357Y-103619047D01*
X168299880Y-103809523D01*
X168014166Y-103904761D01*
X167537976Y-103904761D01*
X169537976Y-103904761D02*
X169537976Y-102571428D01*
X169537976Y-101904761D02*
X169442738Y-102000000D01*
X169537976Y-102095238D01*
X169633214Y-102000000D01*
X169537976Y-101904761D01*
X169537976Y-102095238D01*
X170204642Y-102571428D02*
X170966547Y-102571428D01*
X170490357Y-103904761D02*
X170490357Y-102190476D01*
X170585595Y-102000000D01*
X170776071Y-101904761D01*
X170966547Y-101904761D01*
X171347500Y-102571428D02*
X172109404Y-102571428D01*
X171633214Y-103904761D02*
X171633214Y-102190476D01*
X171728452Y-102000000D01*
X171918928Y-101904761D01*
X172109404Y-101904761D01*
X173537976Y-103809523D02*
X173347500Y-103904761D01*
X172966547Y-103904761D01*
X172776071Y-103809523D01*
X172680833Y-103619047D01*
X172680833Y-102857142D01*
X172776071Y-102666666D01*
X172966547Y-102571428D01*
X173347500Y-102571428D01*
X173537976Y-102666666D01*
X173633214Y-102857142D01*
X173633214Y-103047619D01*
X172680833Y-103238095D01*
X174490357Y-103904761D02*
X174490357Y-102571428D01*
X174490357Y-102952380D02*
X174585595Y-102761904D01*
X174680833Y-102666666D01*
X174871309Y-102571428D01*
X175061785Y-102571428D01*
X176490357Y-103809523D02*
X176299880Y-103904761D01*
X175918928Y-103904761D01*
X175728452Y-103809523D01*
X175633214Y-103619047D01*
X175633214Y-102857142D01*
X175728452Y-102666666D01*
X175918928Y-102571428D01*
X176299880Y-102571428D01*
X176490357Y-102666666D01*
X176585595Y-102857142D01*
X176585595Y-103047619D01*
X175633214Y-103238095D01*
X177442738Y-102571428D02*
X177442738Y-103904761D01*
X177442738Y-102761904D02*
X177537976Y-102666666D01*
X177728452Y-102571428D01*
X178014166Y-102571428D01*
X178204642Y-102666666D01*
X178299880Y-102857142D01*
X178299880Y-103904761D01*
X178966547Y-102571428D02*
X179728452Y-102571428D01*
X179252261Y-101904761D02*
X179252261Y-103619047D01*
X179347500Y-103809523D01*
X179537976Y-103904761D01*
X179728452Y-103904761D01*
X181918928Y-103904761D02*
X181918928Y-101904761D01*
X182395119Y-101904761D01*
X182680833Y-102000000D01*
X182871309Y-102190476D01*
X182966547Y-102380952D01*
X183061785Y-102761904D01*
X183061785Y-103047619D01*
X182966547Y-103428571D01*
X182871309Y-103619047D01*
X182680833Y-103809523D01*
X182395119Y-103904761D01*
X181918928Y-103904761D01*
X184680833Y-103809523D02*
X184490357Y-103904761D01*
X184109404Y-103904761D01*
X183918928Y-103809523D01*
X183823690Y-103619047D01*
X183823690Y-102857142D01*
X183918928Y-102666666D01*
X184109404Y-102571428D01*
X184490357Y-102571428D01*
X184680833Y-102666666D01*
X184776071Y-102857142D01*
X184776071Y-103047619D01*
X183823690Y-103238095D01*
X185537976Y-103809523D02*
X185728452Y-103904761D01*
X186109404Y-103904761D01*
X186299880Y-103809523D01*
X186395119Y-103619047D01*
X186395119Y-103523809D01*
X186299880Y-103333333D01*
X186109404Y-103238095D01*
X185823690Y-103238095D01*
X185633214Y-103142857D01*
X185537976Y-102952380D01*
X185537976Y-102857142D01*
X185633214Y-102666666D01*
X185823690Y-102571428D01*
X186109404Y-102571428D01*
X186299880Y-102666666D01*
X187252261Y-103904761D02*
X187252261Y-102571428D01*
X187252261Y-101904761D02*
X187157023Y-102000000D01*
X187252261Y-102095238D01*
X187347500Y-102000000D01*
X187252261Y-101904761D01*
X187252261Y-102095238D01*
X189061785Y-102571428D02*
X189061785Y-104190476D01*
X188966547Y-104380952D01*
X188871309Y-104476190D01*
X188680833Y-104571428D01*
X188395119Y-104571428D01*
X188204642Y-104476190D01*
X189061785Y-103809523D02*
X188871309Y-103904761D01*
X188490357Y-103904761D01*
X188299880Y-103809523D01*
X188204642Y-103714285D01*
X188109404Y-103523809D01*
X188109404Y-102952380D01*
X188204642Y-102761904D01*
X188299880Y-102666666D01*
X188490357Y-102571428D01*
X188871309Y-102571428D01*
X189061785Y-102666666D01*
X190014166Y-102571428D02*
X190014166Y-103904761D01*
X190014166Y-102761904D02*
X190109404Y-102666666D01*
X190299880Y-102571428D01*
X190585595Y-102571428D01*
X190776071Y-102666666D01*
X190871309Y-102857142D01*
X190871309Y-103904761D01*
X191728452Y-103809523D02*
X191918928Y-103904761D01*
X192299880Y-103904761D01*
X192490357Y-103809523D01*
X192585595Y-103619047D01*
X192585595Y-103523809D01*
X192490357Y-103333333D01*
X192299880Y-103238095D01*
X192014166Y-103238095D01*
X191823690Y-103142857D01*
X191728452Y-102952380D01*
X191728452Y-102857142D01*
X191823690Y-102666666D01*
X192014166Y-102571428D01*
X192299880Y-102571428D01*
X192490357Y-102666666D01*
X62240000Y-121580000D02*
G75*
G03X62240000Y-121580000I-2750000J0D01*
G01*
X63510000Y-73320000D02*
G75*
G03X63510000Y-73320000I-2750000J0D01*
G01*
X148800000Y-54500000D02*
G75*
G03X148800000Y-54500000I-4300000J0D01*
G01*
X148800000Y-144500000D02*
G75*
G03X148800000Y-144500000I-4300000J0D01*
G01*
X58800000Y-144500000D02*
G75*
G03X58800000Y-144500000I-4300000J0D01*
G01*
X58800000Y-54500000D02*
G75*
G03X58800000Y-54500000I-4300000J0D01*
G01*
M02*
