G04 #@! TF.GenerationSoftware,KiCad,Pcbnew,(5.1.2)-1*
G04 #@! TF.CreationDate,2019-06-26T13:36:35-07:00*
G04 #@! TF.ProjectId,FIFO_P,4649464f-5f50-42e6-9b69-6361645f7063,rev?*
G04 #@! TF.SameCoordinates,Original*
G04 #@! TF.FileFunction,Soldermask,Bot*
G04 #@! TF.FilePolarity,Negative*
%FSLAX46Y46*%
G04 Gerber Fmt 4.6, Leading zero omitted, Abs format (unit mm)*
G04 Created by KiCad (PCBNEW (5.1.2)-1) date 2019-06-26 13:36:35*
%MOMM*%
%LPD*%
G04 APERTURE LIST*
%ADD10C,0.250000*%
%ADD11C,1.600000*%
%ADD12O,2.000000X1.905000*%
%ADD13R,2.000000X1.905000*%
%ADD14O,3.500000X3.500000*%
%ADD15O,1.700000X1.700000*%
%ADD16R,1.700000X1.700000*%
%ADD17O,1.600000X1.600000*%
%ADD18C,3.200000*%
%ADD19C,0.100000*%
%ADD20C,1.425000*%
%ADD21C,3.810000*%
%ADD22C,3.556000*%
%ADD23O,1.400000X1.400000*%
%ADD24C,1.400000*%
%ADD25C,1.399924*%
%ADD26R,0.450000X1.450000*%
%ADD27C,1.440000*%
%ADD28R,1.060000X0.650000*%
%ADD29C,3.500000*%
%ADD30C,3.000000*%
%ADD31R,3.500000X3.500000*%
%ADD32C,0.900000*%
%ADD33C,8.600000*%
%ADD34R,1.600000X1.600000*%
%ADD35C,1.800000*%
%ADD36R,1.800000X1.800000*%
G04 APERTURE END LIST*
D10*
X104250000Y-75750000D02*
X106000000Y-74000000D01*
D11*
X88250000Y-89000000D03*
X85750000Y-89000000D03*
X82750000Y-89000000D03*
X80250000Y-89000000D03*
X74750000Y-89000000D03*
X77250000Y-89000000D03*
D12*
X69500000Y-97830000D03*
X69500000Y-95290000D03*
D13*
X69500000Y-92750000D03*
D14*
X86160000Y-95290000D03*
D12*
X69500000Y-85080000D03*
X69500000Y-82540000D03*
D13*
X69500000Y-80000000D03*
D14*
X86160000Y-82540000D03*
D11*
X119000000Y-68000000D03*
X121500000Y-68000000D03*
X116750000Y-68000000D03*
X114250000Y-68000000D03*
X91250000Y-66750000D03*
X93750000Y-66750000D03*
D15*
X128000000Y-129630000D03*
X128000000Y-134710000D03*
X128000000Y-132170000D03*
X128000000Y-127090000D03*
D16*
X128000000Y-137250000D03*
D15*
X128000000Y-124550000D03*
X118000000Y-74250000D03*
D16*
X118000000Y-76790000D03*
D17*
X132580000Y-130840000D03*
D11*
X142740000Y-130840000D03*
D18*
X60760000Y-116500000D03*
X59490000Y-68240000D03*
D15*
X142040000Y-73320000D03*
X139500000Y-73320000D03*
X142040000Y-75860000D03*
X139500000Y-75860000D03*
X142040000Y-78400000D03*
X139500000Y-78400000D03*
X142040000Y-80940000D03*
X139500000Y-80940000D03*
X142040000Y-83480000D03*
X139500000Y-83480000D03*
X142040000Y-86020000D03*
X139500000Y-86020000D03*
X142040000Y-88560000D03*
X139500000Y-88560000D03*
X142040000Y-91100000D03*
X139500000Y-91100000D03*
X142040000Y-93640000D03*
X139500000Y-93640000D03*
X142040000Y-96180000D03*
X139500000Y-96180000D03*
X142040000Y-98720000D03*
X139500000Y-98720000D03*
X142040000Y-101260000D03*
X139500000Y-101260000D03*
X142040000Y-103800000D03*
X139500000Y-103800000D03*
X142040000Y-106340000D03*
X139500000Y-106340000D03*
X142040000Y-108880000D03*
X139500000Y-108880000D03*
X142040000Y-111420000D03*
X139500000Y-111420000D03*
X142040000Y-113960000D03*
X139500000Y-113960000D03*
X142040000Y-116500000D03*
D16*
X139500000Y-116500000D03*
D19*
G36*
X106211359Y-72680142D02*
G01*
X106235566Y-72683733D01*
X106259305Y-72689679D01*
X106282347Y-72697923D01*
X106304470Y-72708387D01*
X106325461Y-72720968D01*
X106345117Y-72735546D01*
X106363250Y-72751981D01*
X107248019Y-73636750D01*
X107264454Y-73654883D01*
X107279032Y-73674539D01*
X107291613Y-73695530D01*
X107302077Y-73717653D01*
X107310321Y-73740695D01*
X107316267Y-73764434D01*
X107319858Y-73788641D01*
X107321059Y-73813084D01*
X107319858Y-73837527D01*
X107316267Y-73861734D01*
X107310321Y-73885473D01*
X107302077Y-73908515D01*
X107291613Y-73930638D01*
X107279032Y-73951629D01*
X107264454Y-73971285D01*
X107248019Y-73989418D01*
X106593060Y-74644377D01*
X106574927Y-74660812D01*
X106555271Y-74675390D01*
X106534280Y-74687971D01*
X106512157Y-74698435D01*
X106489115Y-74706679D01*
X106465376Y-74712625D01*
X106441169Y-74716216D01*
X106416726Y-74717417D01*
X106392283Y-74716216D01*
X106368076Y-74712625D01*
X106344337Y-74706679D01*
X106321295Y-74698435D01*
X106299172Y-74687971D01*
X106278181Y-74675390D01*
X106258525Y-74660812D01*
X106240392Y-74644377D01*
X105355623Y-73759608D01*
X105339188Y-73741475D01*
X105324610Y-73721819D01*
X105312029Y-73700828D01*
X105301565Y-73678705D01*
X105293321Y-73655663D01*
X105287375Y-73631924D01*
X105283784Y-73607717D01*
X105282583Y-73583274D01*
X105283784Y-73558831D01*
X105287375Y-73534624D01*
X105293321Y-73510885D01*
X105301565Y-73487843D01*
X105312029Y-73465720D01*
X105324610Y-73444729D01*
X105339188Y-73425073D01*
X105355623Y-73406940D01*
X106010582Y-72751981D01*
X106028715Y-72735546D01*
X106048371Y-72720968D01*
X106069362Y-72708387D01*
X106091485Y-72697923D01*
X106114527Y-72689679D01*
X106138266Y-72683733D01*
X106162473Y-72680142D01*
X106186916Y-72678941D01*
X106211359Y-72680142D01*
X106211359Y-72680142D01*
G37*
D20*
X106301821Y-73698179D03*
D19*
G36*
X104107717Y-74783784D02*
G01*
X104131924Y-74787375D01*
X104155663Y-74793321D01*
X104178705Y-74801565D01*
X104200828Y-74812029D01*
X104221819Y-74824610D01*
X104241475Y-74839188D01*
X104259608Y-74855623D01*
X105144377Y-75740392D01*
X105160812Y-75758525D01*
X105175390Y-75778181D01*
X105187971Y-75799172D01*
X105198435Y-75821295D01*
X105206679Y-75844337D01*
X105212625Y-75868076D01*
X105216216Y-75892283D01*
X105217417Y-75916726D01*
X105216216Y-75941169D01*
X105212625Y-75965376D01*
X105206679Y-75989115D01*
X105198435Y-76012157D01*
X105187971Y-76034280D01*
X105175390Y-76055271D01*
X105160812Y-76074927D01*
X105144377Y-76093060D01*
X104489418Y-76748019D01*
X104471285Y-76764454D01*
X104451629Y-76779032D01*
X104430638Y-76791613D01*
X104408515Y-76802077D01*
X104385473Y-76810321D01*
X104361734Y-76816267D01*
X104337527Y-76819858D01*
X104313084Y-76821059D01*
X104288641Y-76819858D01*
X104264434Y-76816267D01*
X104240695Y-76810321D01*
X104217653Y-76802077D01*
X104195530Y-76791613D01*
X104174539Y-76779032D01*
X104154883Y-76764454D01*
X104136750Y-76748019D01*
X103251981Y-75863250D01*
X103235546Y-75845117D01*
X103220968Y-75825461D01*
X103208387Y-75804470D01*
X103197923Y-75782347D01*
X103189679Y-75759305D01*
X103183733Y-75735566D01*
X103180142Y-75711359D01*
X103178941Y-75686916D01*
X103180142Y-75662473D01*
X103183733Y-75638266D01*
X103189679Y-75614527D01*
X103197923Y-75591485D01*
X103208387Y-75569362D01*
X103220968Y-75548371D01*
X103235546Y-75528715D01*
X103251981Y-75510582D01*
X103906940Y-74855623D01*
X103925073Y-74839188D01*
X103944729Y-74824610D01*
X103965720Y-74812029D01*
X103987843Y-74801565D01*
X104010885Y-74793321D01*
X104034624Y-74787375D01*
X104058831Y-74783784D01*
X104083274Y-74782583D01*
X104107717Y-74783784D01*
X104107717Y-74783784D01*
G37*
D20*
X104198179Y-75801821D03*
D21*
X80825000Y-56825000D03*
X87175000Y-56825000D03*
X80825000Y-63175000D03*
D22*
X84000000Y-60000000D03*
D21*
X87175000Y-63175000D03*
D23*
X91250000Y-55630000D03*
D24*
X91250000Y-63250000D03*
D25*
X65576000Y-67500000D03*
D11*
X123515000Y-86656000D03*
X121015000Y-86656000D03*
X123750000Y-74000000D03*
X123750000Y-76500000D03*
D26*
X125300000Y-118450000D03*
X125950000Y-118450000D03*
X126600000Y-118450000D03*
X127250000Y-118450000D03*
X127900000Y-118450000D03*
X128550000Y-118450000D03*
X129200000Y-118450000D03*
X129200000Y-112550000D03*
X128550000Y-112550000D03*
X127900000Y-112550000D03*
X127250000Y-112550000D03*
X126600000Y-112550000D03*
X125950000Y-112550000D03*
X125300000Y-112550000D03*
D11*
X119750000Y-107500000D03*
X122250000Y-107500000D03*
D27*
X90515000Y-124126000D03*
X90515000Y-126666000D03*
X90515000Y-129206000D03*
D26*
X112300000Y-118450000D03*
X112950000Y-118450000D03*
X113600000Y-118450000D03*
X114250000Y-118450000D03*
X114900000Y-118450000D03*
X115550000Y-118450000D03*
X116200000Y-118450000D03*
X116200000Y-112550000D03*
X115550000Y-112550000D03*
X114900000Y-112550000D03*
X114250000Y-112550000D03*
X113600000Y-112550000D03*
X112950000Y-112550000D03*
X112300000Y-112550000D03*
D11*
X106500000Y-99000000D03*
X106500000Y-101500000D03*
D26*
X105800000Y-118450000D03*
X106450000Y-118450000D03*
X107100000Y-118450000D03*
X107750000Y-118450000D03*
X108400000Y-118450000D03*
X109050000Y-118450000D03*
X109700000Y-118450000D03*
X109700000Y-112550000D03*
X109050000Y-112550000D03*
X108400000Y-112550000D03*
X107750000Y-112550000D03*
X107100000Y-112550000D03*
X106450000Y-112550000D03*
X105800000Y-112550000D03*
D23*
X89080000Y-66750000D03*
D24*
X84000000Y-66750000D03*
D23*
X95920000Y-66750000D03*
D24*
X101000000Y-66750000D03*
D28*
X68400000Y-88750000D03*
X68400000Y-87800000D03*
X68400000Y-89700000D03*
X70600000Y-89700000D03*
X70600000Y-88750000D03*
X70600000Y-87800000D03*
D25*
X92500000Y-89000000D03*
D11*
X64000000Y-88250000D03*
X66500000Y-88250000D03*
D19*
G36*
X65760765Y-58754213D02*
G01*
X65845704Y-58766813D01*
X65928999Y-58787677D01*
X66009848Y-58816605D01*
X66087472Y-58853319D01*
X66161124Y-58897464D01*
X66230094Y-58948616D01*
X66293718Y-59006282D01*
X66351384Y-59069906D01*
X66402536Y-59138876D01*
X66446681Y-59212528D01*
X66483395Y-59290152D01*
X66512323Y-59371001D01*
X66533187Y-59454296D01*
X66545787Y-59539235D01*
X66550000Y-59625000D01*
X66550000Y-61375000D01*
X66545787Y-61460765D01*
X66533187Y-61545704D01*
X66512323Y-61628999D01*
X66483395Y-61709848D01*
X66446681Y-61787472D01*
X66402536Y-61861124D01*
X66351384Y-61930094D01*
X66293718Y-61993718D01*
X66230094Y-62051384D01*
X66161124Y-62102536D01*
X66087472Y-62146681D01*
X66009848Y-62183395D01*
X65928999Y-62212323D01*
X65845704Y-62233187D01*
X65760765Y-62245787D01*
X65675000Y-62250000D01*
X63925000Y-62250000D01*
X63839235Y-62245787D01*
X63754296Y-62233187D01*
X63671001Y-62212323D01*
X63590152Y-62183395D01*
X63512528Y-62146681D01*
X63438876Y-62102536D01*
X63369906Y-62051384D01*
X63306282Y-61993718D01*
X63248616Y-61930094D01*
X63197464Y-61861124D01*
X63153319Y-61787472D01*
X63116605Y-61709848D01*
X63087677Y-61628999D01*
X63066813Y-61545704D01*
X63054213Y-61460765D01*
X63050000Y-61375000D01*
X63050000Y-59625000D01*
X63054213Y-59539235D01*
X63066813Y-59454296D01*
X63087677Y-59371001D01*
X63116605Y-59290152D01*
X63153319Y-59212528D01*
X63197464Y-59138876D01*
X63248616Y-59069906D01*
X63306282Y-59006282D01*
X63369906Y-58948616D01*
X63438876Y-58897464D01*
X63512528Y-58853319D01*
X63590152Y-58816605D01*
X63671001Y-58787677D01*
X63754296Y-58766813D01*
X63839235Y-58754213D01*
X63925000Y-58750000D01*
X65675000Y-58750000D01*
X65760765Y-58754213D01*
X65760765Y-58754213D01*
G37*
D29*
X64800000Y-60500000D03*
D19*
G36*
X70573513Y-56003611D02*
G01*
X70646318Y-56014411D01*
X70717714Y-56032295D01*
X70787013Y-56057090D01*
X70853548Y-56088559D01*
X70916678Y-56126398D01*
X70975795Y-56170242D01*
X71030330Y-56219670D01*
X71079758Y-56274205D01*
X71123602Y-56333322D01*
X71161441Y-56396452D01*
X71192910Y-56462987D01*
X71217705Y-56532286D01*
X71235589Y-56603682D01*
X71246389Y-56676487D01*
X71250000Y-56750000D01*
X71250000Y-58250000D01*
X71246389Y-58323513D01*
X71235589Y-58396318D01*
X71217705Y-58467714D01*
X71192910Y-58537013D01*
X71161441Y-58603548D01*
X71123602Y-58666678D01*
X71079758Y-58725795D01*
X71030330Y-58780330D01*
X70975795Y-58829758D01*
X70916678Y-58873602D01*
X70853548Y-58911441D01*
X70787013Y-58942910D01*
X70717714Y-58967705D01*
X70646318Y-58985589D01*
X70573513Y-58996389D01*
X70500000Y-59000000D01*
X68500000Y-59000000D01*
X68426487Y-58996389D01*
X68353682Y-58985589D01*
X68282286Y-58967705D01*
X68212987Y-58942910D01*
X68146452Y-58911441D01*
X68083322Y-58873602D01*
X68024205Y-58829758D01*
X67969670Y-58780330D01*
X67920242Y-58725795D01*
X67876398Y-58666678D01*
X67838559Y-58603548D01*
X67807090Y-58537013D01*
X67782295Y-58467714D01*
X67764411Y-58396318D01*
X67753611Y-58323513D01*
X67750000Y-58250000D01*
X67750000Y-56750000D01*
X67753611Y-56676487D01*
X67764411Y-56603682D01*
X67782295Y-56532286D01*
X67807090Y-56462987D01*
X67838559Y-56396452D01*
X67876398Y-56333322D01*
X67920242Y-56274205D01*
X67969670Y-56219670D01*
X68024205Y-56170242D01*
X68083322Y-56126398D01*
X68146452Y-56088559D01*
X68212987Y-56057090D01*
X68282286Y-56032295D01*
X68353682Y-56014411D01*
X68426487Y-56003611D01*
X68500000Y-56000000D01*
X70500000Y-56000000D01*
X70573513Y-56003611D01*
X70573513Y-56003611D01*
G37*
D30*
X69500000Y-57500000D03*
D31*
X69500000Y-63500000D03*
D11*
X119750000Y-110250000D03*
X117250000Y-110250000D03*
D32*
X146780419Y-52219581D03*
X144500000Y-51275000D03*
X142219581Y-52219581D03*
X141275000Y-54500000D03*
X142219581Y-56780419D03*
X144500000Y-57725000D03*
X146780419Y-56780419D03*
X147725000Y-54500000D03*
D33*
X144500000Y-54500000D03*
D32*
X146780419Y-142219581D03*
X144500000Y-141275000D03*
X142219581Y-142219581D03*
X141275000Y-144500000D03*
X142219581Y-146780419D03*
X144500000Y-147725000D03*
X146780419Y-146780419D03*
X147725000Y-144500000D03*
D33*
X144500000Y-144500000D03*
D32*
X56780419Y-142219581D03*
X54500000Y-141275000D03*
X52219581Y-142219581D03*
X51275000Y-144500000D03*
X52219581Y-146780419D03*
X54500000Y-147725000D03*
X56780419Y-146780419D03*
X57725000Y-144500000D03*
D33*
X54500000Y-144500000D03*
X54500000Y-54500000D03*
D32*
X57725000Y-54500000D03*
X56780419Y-56780419D03*
X54500000Y-57725000D03*
X52219581Y-56780419D03*
X51275000Y-54500000D03*
X52219581Y-52219581D03*
X54500000Y-51275000D03*
X56780419Y-52219581D03*
D17*
X95010000Y-130500000D03*
X122950000Y-122880000D03*
X97550000Y-130500000D03*
X120410000Y-122880000D03*
X100090000Y-130500000D03*
X117870000Y-122880000D03*
X102630000Y-130500000D03*
X115330000Y-122880000D03*
X105170000Y-130500000D03*
X112790000Y-122880000D03*
X107710000Y-130500000D03*
X110250000Y-122880000D03*
X110250000Y-130500000D03*
X107710000Y-122880000D03*
X112790000Y-130500000D03*
X105170000Y-122880000D03*
X115330000Y-130500000D03*
X102630000Y-122880000D03*
X117870000Y-130500000D03*
X100090000Y-122880000D03*
X120410000Y-130500000D03*
X97550000Y-122880000D03*
X122950000Y-130500000D03*
D34*
X95010000Y-122880000D03*
D26*
X118800000Y-118450000D03*
X119450000Y-118450000D03*
X120100000Y-118450000D03*
X120750000Y-118450000D03*
X121400000Y-118450000D03*
X122050000Y-118450000D03*
X122700000Y-118450000D03*
X122700000Y-112550000D03*
X122050000Y-112550000D03*
X121400000Y-112550000D03*
X120750000Y-112550000D03*
X120100000Y-112550000D03*
X119450000Y-112550000D03*
X118800000Y-112550000D03*
D21*
X121175000Y-63175000D03*
X114825000Y-63175000D03*
X121175000Y-56825000D03*
D22*
X118000000Y-60000000D03*
D21*
X114825000Y-56825000D03*
D25*
X66500000Y-105186000D03*
X65250000Y-85000000D03*
X102630000Y-133750000D03*
X132015000Y-86656000D03*
X126750000Y-62500000D03*
D17*
X132580000Y-127720000D03*
D11*
X142740000Y-127720000D03*
D17*
X132580000Y-133970000D03*
D11*
X142740000Y-133970000D03*
D23*
X140750000Y-68620000D03*
D24*
X140750000Y-61000000D03*
D23*
X111042000Y-63276000D03*
D24*
X111042000Y-55656000D03*
D23*
X93750000Y-55630000D03*
D24*
X93750000Y-63250000D03*
D21*
X102000000Y-138400000D03*
X108350000Y-138400000D03*
X102000000Y-144750000D03*
D22*
X105175000Y-141575000D03*
D21*
X108350000Y-144750000D03*
X97825000Y-56825000D03*
X104175000Y-56825000D03*
X97825000Y-63175000D03*
D22*
X101000000Y-60000000D03*
D21*
X104175000Y-63175000D03*
D35*
X133460000Y-61000000D03*
D36*
X136000000Y-61000000D03*
D11*
X64000000Y-97250000D03*
X66500000Y-97250000D03*
X64000000Y-100250000D03*
X66500000Y-100250000D03*
X64000000Y-91250000D03*
X66500000Y-91250000D03*
X64000000Y-94250000D03*
X66500000Y-94250000D03*
X64000000Y-81500000D03*
X66500000Y-81500000D03*
X64000000Y-78500000D03*
X66500000Y-78500000D03*
X103500000Y-99000000D03*
X103500000Y-101500000D03*
X134000000Y-101750000D03*
X131500000Y-101750000D03*
X134000000Y-98750000D03*
X131500000Y-98750000D03*
X126515000Y-84156000D03*
X126515000Y-86656000D03*
X126750000Y-65500000D03*
X129250000Y-65500000D03*
X133500000Y-65500000D03*
X136000000Y-65500000D03*
X116615000Y-84606000D03*
X114115000Y-84606000D03*
X126750000Y-68500000D03*
X129250000Y-68500000D03*
X133500000Y-68500000D03*
X136000000Y-68500000D03*
X111250000Y-76500000D03*
X108750000Y-76500000D03*
X108750000Y-73500000D03*
X111250000Y-73500000D03*
M02*
