M48
; DRILL file {KiCad (5.1.2)-1} date 6/26/2019 1:37:08 PM
; FORMAT={-:-/ absolute / metric / decimal}
; #@! TF.CreationDate,2019-06-26T13:37:08-07:00
; #@! TF.GenerationSoftware,Kicad,Pcbnew,(5.1.2)-1
; #@! TF.FileFunction,Plated,1,4,PTH
FMAT,2
METRIC
T1C0.400
T2C0.600
T3C0.700
T4C0.800
T5C0.900
T6C1.000
T7C1.100
T8C1.270
T9C1.524
T10C4.300
%
G90
G05
T1
X96.25Y-128.0
X98.84Y-117.191
X98.84Y-118.016
X99.665Y-117.191
X105.301Y-111.066
X106.25Y-110.75
X107.0Y-110.0
X107.75Y-110.75
X108.5Y-110.0
X110.206Y-120.874
X110.5Y-112.5
X111.5Y-96.75
X111.75Y-111.0
X111.765Y-103.156
X112.75Y-110.75
X113.5Y-110.0
X114.0Y-91.25
X114.25Y-110.75
X115.0Y-110.0
X115.625Y-120.239
X115.75Y-73.25
X116.25Y-77.5
X116.265Y-103.156
X118.015Y-113.156
X118.165Y-111.356
X118.8Y-103.191
X119.75Y-76.25
X119.85Y-72.25
X119.983Y-74.501
X120.5Y-114.25
X121.25Y-110.5
X121.265Y-103.156
X123.16Y-111.095
X123.33Y-119.529
X123.5Y-95.25
X124.75Y-111.0
X125.75Y-74.5
X125.75Y-110.75
X125.765Y-115.906
X126.5Y-110.0
X128.25Y-120.0
X128.878Y-111.234
X128.987Y-102.763
X130.525Y-77.225
X130.75Y-71.5
X130.765Y-118.406
X132.5Y-103.0
X134.25Y-116.25
X134.75Y-74.0
X135.275Y-116.429
X135.4Y-70.75
X136.0Y-74.0
X136.95Y-89.75
X137.0Y-79.75
X137.0Y-115.5
X138.0Y-125.0
X138.5Y-118.75
X140.725Y-77.225
X140.75Y-82.25
X144.25Y-102.5
X146.0Y-77.25
X146.0Y-112.75
T2
X141.275Y-54.5
X142.22Y-52.22
X142.22Y-56.78
X144.5Y-51.275
X144.5Y-57.725
X146.78Y-52.22
X146.78Y-56.78
X147.725Y-54.5
X141.275Y-144.5
X142.22Y-142.22
X142.22Y-146.78
X144.5Y-141.275
X144.5Y-147.725
X146.78Y-142.22
X146.78Y-146.78
X147.725Y-144.5
X51.275Y-144.5
X52.22Y-142.22
X52.22Y-146.78
X54.5Y-141.275
X54.5Y-147.725
X56.78Y-142.22
X56.78Y-146.78
X57.725Y-144.5
X51.275Y-54.5
X52.22Y-52.22
X52.22Y-56.78
X54.5Y-51.275
X54.5Y-57.725
X56.78Y-52.22
X56.78Y-56.78
X57.725Y-54.5
T3
X102.63Y-133.75
X140.75Y-61.0
X140.75Y-68.62
X91.25Y-55.63
X91.25Y-63.25
X126.75Y-62.5
X66.5Y-105.186
X93.75Y-55.63
X93.75Y-63.25
X132.015Y-86.656
X84.0Y-66.75
X89.08Y-66.75
X65.576Y-67.5
X95.92Y-66.75
X101.0Y-66.75
X111.042Y-55.656
X111.042Y-63.276
X65.25Y-85.0
X92.5Y-89.0
T4
X119.75Y-107.5
X122.25Y-107.5
X64.0Y-81.5
X66.5Y-81.5
X133.5Y-68.5
X136.0Y-68.5
X126.515Y-84.156
X126.515Y-86.656
X126.75Y-68.5
X129.25Y-68.5
X117.25Y-110.25
X119.75Y-110.25
X114.25Y-68.0
X116.75Y-68.0
X119.0Y-68.0
X121.5Y-68.0
X132.58Y-133.97
X142.74Y-133.97
X91.25Y-66.75
X93.75Y-66.75
X64.0Y-100.25
X66.5Y-100.25
X131.5Y-101.75
X134.0Y-101.75
X64.0Y-97.25
X66.5Y-97.25
X121.015Y-86.656
X123.515Y-86.656
X108.75Y-73.5
X111.25Y-73.5
X108.75Y-76.5
X111.25Y-76.5
X80.25Y-89.0
X82.75Y-89.0
X131.5Y-98.75
X134.0Y-98.75
X123.75Y-74.0
X123.75Y-76.5
X132.58Y-130.84
X142.74Y-130.84
X85.75Y-89.0
X88.25Y-89.0
X64.0Y-91.25
X66.5Y-91.25
X64.0Y-94.25
X66.5Y-94.25
X64.0Y-78.5
X66.5Y-78.5
X133.5Y-65.5
X136.0Y-65.5
X106.5Y-99.0
X106.5Y-101.5
X90.515Y-124.126
X90.515Y-126.666
X90.515Y-129.206
X103.5Y-99.0
X103.5Y-101.5
X114.115Y-84.606
X116.615Y-84.606
X126.75Y-65.5
X129.25Y-65.5
X132.58Y-127.72
X142.74Y-127.72
X74.75Y-89.0
X77.25Y-89.0
X64.0Y-88.25
X66.5Y-88.25
X95.01Y-122.88
X95.01Y-130.5
X97.55Y-122.88
X97.55Y-130.5
X100.09Y-122.88
X100.09Y-130.5
X102.63Y-122.88
X102.63Y-130.5
X105.17Y-122.88
X105.17Y-130.5
X107.71Y-122.88
X107.71Y-130.5
X110.25Y-122.88
X110.25Y-130.5
X112.79Y-122.88
X112.79Y-130.5
X115.33Y-122.88
X115.33Y-130.5
X117.87Y-122.88
X117.87Y-130.5
X120.41Y-122.88
X120.41Y-130.5
X122.95Y-122.88
X122.95Y-130.5
T5
X133.46Y-61.0
X136.0Y-61.0
T6
X118.0Y-74.25
X118.0Y-76.79
X139.5Y-73.32
X139.5Y-75.86
X139.5Y-78.4
X139.5Y-80.94
X139.5Y-83.48
X139.5Y-86.02
X139.5Y-88.56
X139.5Y-91.1
X139.5Y-93.64
X139.5Y-96.18
X139.5Y-98.72
X139.5Y-101.26
X139.5Y-103.8
X139.5Y-106.34
X139.5Y-108.88
X139.5Y-111.42
X139.5Y-113.96
X139.5Y-116.5
X142.04Y-73.32
X142.04Y-75.86
X142.04Y-78.4
X142.04Y-80.94
X142.04Y-83.48
X142.04Y-86.02
X142.04Y-88.56
X142.04Y-91.1
X142.04Y-93.64
X142.04Y-96.18
X142.04Y-98.72
X142.04Y-101.26
X142.04Y-103.8
X142.04Y-106.34
X142.04Y-108.88
X142.04Y-111.42
X142.04Y-113.96
X142.04Y-116.5
X128.0Y-124.55
X128.0Y-127.09
X128.0Y-129.63
X128.0Y-132.17
X128.0Y-134.71
X128.0Y-137.25
T7
X69.5Y-92.75
X69.5Y-95.29
X69.5Y-97.83
X69.5Y-80.0
X69.5Y-82.54
X69.5Y-85.08
T8
X118.0Y-60.0
X84.0Y-60.0
X105.175Y-141.575
X101.0Y-60.0
T9
X114.825Y-56.825
X114.825Y-63.175
X121.175Y-56.825
X121.175Y-63.175
X80.825Y-56.825
X80.825Y-63.175
X87.175Y-56.825
X87.175Y-63.175
X102.0Y-138.4
X102.0Y-144.75
X108.35Y-138.4
X108.35Y-144.75
X97.825Y-56.825
X97.825Y-63.175
X104.175Y-56.825
X104.175Y-63.175
T10
X54.5Y-54.5
X144.5Y-54.5
X144.5Y-144.5
X54.5Y-144.5
T6
G00X64.8Y-59.5
M15
G01X64.8Y-61.5
M16
G05
G00X70.5Y-57.5
M15
G01X68.5Y-57.5
M16
G05
G00X70.5Y-63.5
M15
G01X68.5Y-63.5
M16
G05
T0
M30
